<?xml version="1.0" encoding="UTF-8"?>
<svg id="Layer_1" data-name="Layer 1" xmlns="http://www.w3.org/2000/svg" xmlns:xlink="http://www.w3.org/1999/xlink" viewBox="0 0 566.93 566.93">
  <defs>
    <style>
      .cls-1 {
        fill: #fff;
      }

      .cls-2 {
        fill: #d1eefc;
      }

      .cls-3 {
        fill: #253e79;
      }

      .cls-4 {
        fill: #f05681;
      }

      .cls-5 {
        fill: url(#linear-gradient);
      }
    </style>
    <linearGradient id="linear-gradient" x1="283.74" y1="302.92" x2="293.78" y2="245.98" gradientUnits="userSpaceOnUse">
      <stop offset="0" stop-color="#fff"/>
      <stop offset=".43" stop-color="#fcfdfe"/>
      <stop offset=".74" stop-color="#f2fafe"/>
      <stop offset="1" stop-color="#e4f5fd"/>
    </linearGradient>
  </defs>
  <ellipse class="cls-2" cx="283.46" cy="459.27" rx="107.44" ry="11.87"/>
  <g>
    <g>
      <rect class="cls-4" x="150.82" y="122.41" width="115" height="72.06" rx="12.92" ry="12.92"/>
      <path class="cls-3" d="M252.89,125.41c5.48,0,9.92,4.44,9.92,9.92v46.21c0,5.48-4.44,9.92-9.92,9.92h-89.15c-5.48,0-9.92-4.44-9.92-9.92v-46.21c0-5.48,4.44-9.92,9.92-9.92h89.15M252.89,119.41h-89.15c-8.78,0-15.92,7.14-15.92,15.92v46.21c0,8.78,7.14,15.92,15.92,15.92h89.15c8.78,0,15.92-7.14,15.92-15.92v-46.21c0-8.78-7.14-15.92-15.92-15.92h0Z"/>
    </g>
    <path class="cls-1" d="M190.93,147.49v21.89c0,3.19,2.98,5.41,5.79,4.32l26.15-10.12c3.69-1.43,3.82-6.92.21-8.55l-26.15-11.77c-2.85-1.28-6,.94-6,4.23Z"/>
  </g>
  <g>
    <path class="cls-3" d="M402.45,137.15c.63-6.84-.97-13.23-4.76-18.52-6.04-8.46-17.26-13.51-30.02-13.51-.59,0-1.2,0-1.81.03-13.1.07-24.15,4.48-30.37,12.14-2.09,2.59-3.6,5.48-4.48,8.58-2-.64-4.12-.98-6.3-.98-6.17,0-11.77,2.68-15.37,7.36-2.21,2.87-3.52,6.33-3.87,10.14-.21-.01-.42-.01-.63-.01-7.12,0-13.72,3.41-17.69,9.11-2.47,3.57-3.78,7.71-3.78,11.99,0,14.54,12.67,26.38,28.24,26.38,0,0,7.74.07,9.45.08s3.01-1.34,3.01-3h0c0-1.65-1.33-2.99-2.98-3-3.99-.02-.47-.05-.47-.09h-9.01c-12.28,0-22.24-9.13-22.24-20.38,0-1.57.25-3.1.71-4.54.46-1.43,1.14-2.79,2-4.03,2.96-4.26,7.8-6.53,12.76-6.53,2.41,0,4.86.54,7.13,1.65l.16.08c-3.28-12.4,4.44-19.22,12.58-19.22,4.36,0,8.85,1.96,11.83,6.07-3.11-14.78,9.47-25.81,29.6-25.81.52-.02,1.03-.03,1.53-.03,18.94,0,34.08,12.54,27.28,32.4,1.81-.3,3.57-.44,5.27-.44,13.73,0,23.47,9.17,23.47,20.95,0,5.48-2.42,10.44-6.33,14.04-3.92,3.6-9.33,5.82-15.31,5.84-4.05,0-6.56.02-11.19.02-1.65,0-2.99,1.34-2.99,3h0c0,1.66,1.35,3.01,3.01,3,4.67,0,7.19-.02,11.19-.02,15.24-.04,27.63-11.64,27.63-25.88s-11.56-25.91-27.24-26.88Z"/>
    <path class="cls-2" d="M400.22,143.08c-1.7,0-3.46.14-5.27.44,6.8-19.86-8.34-32.4-27.28-32.4-.5,0-1.01,0-1.53.03-20.13,0-32.71,11.03-29.6,25.81-2.98-4.11-7.47-6.07-11.83-6.07-8.14,0-15.86,6.82-12.58,19.22l-.16-.08c-2.27-1.11-4.72-1.65-7.13-1.65-4.96,0-9.8,2.27-12.76,6.53-.86,1.24-1.54,2.6-2,4.03-.46,1.44-.71,2.97-.71,4.54,0,11.25,9.96,20.38,22.24,20.38h9.01c0,.05,3.55.08,9.33.1l57.91-.02c5.71,0,9.27-.02,14.19-.03,5.98-.02,11.39-2.24,15.31-5.84,3.91-3.6,6.33-8.56,6.33-14.04,0-11.78-9.74-20.95-23.47-20.95Z"/>
    <g>
      <path class="cls-4" d="M374.73,197.43c-1.75,0-3.47-.63-4.85-1.77l-13.89-11.54-13.79,10.78c-1.36,1.06-2.97,1.62-4.66,1.62-2.62,0-5.06-1.36-6.52-3.65-2.37-3.69-1.55-8.85,1.84-11.5l10.22-7.99-10.39-8.64c-3.31-2.75-3.99-7.93-1.52-11.55,1.47-2.16,3.86-3.45,6.39-3.45,1.75,0,3.47.63,4.85,1.77l13.89,11.54,14.57-11.39c1.36-1.06,2.97-1.62,4.66-1.62,2.62,0,5.06,1.36,6.52,3.65,2.38,3.69,1.55,8.85-1.84,11.5l-11,8.6,10.39,8.64c3.31,2.75,3.99,7.93,1.52,11.55-1.48,2.16-3.87,3.45-6.39,3.45h0Z"/>
      <path class="cls-3" d="M337.55,152.75c1.02,0,2.06.35,2.93,1.08l15.75,13.09,16.48-12.88c.85-.67,1.84-.99,2.82-.99,1.53,0,3.05.79,4,2.27,1.55,2.42,1.03,5.8-1.16,7.52l-13.94,10.89,13.26,11.02c2.15,1.78,2.58,5.18.96,7.55-.96,1.4-2.43,2.14-3.91,2.14-1.02,0-2.06-.35-2.93-1.08l-15.75-13.09-15.69,12.27c-.85.67-1.84.99-2.82.99-1.53,0-3.05-.79-4-2.27h0c-1.55-2.42-1.03-5.8,1.16-7.52l13.15-10.28-13.26-11.02c-2.15-1.78-2.58-5.18-.96-7.55.96-1.4,2.43-2.14,3.91-2.14M337.55,146.75s0,0,0,0c-3.52,0-6.83,1.78-8.87,4.76-3.38,4.94-2.46,11.77,2.08,15.55l7.53,6.26-7.29,5.69c-4.65,3.64-5.76,10.44-2.51,15.49,2.02,3.15,5.4,5.02,9.05,5.02,2.37,0,4.62-.78,6.51-2.26l11.88-9.29,12.03,9.99c1.91,1.59,4.32,2.47,6.77,2.47,3.52,0,6.83-1.78,8.87-4.76,3.38-4.94,2.46-11.77-2.08-15.55l-7.53-6.26,8.07-6.31c4.65-3.64,5.76-10.44,2.51-15.49-2.02-3.15-5.4-5.02-9.05-5.02-2.37,0-4.62.78-6.51,2.26l-12.67,9.9-12.03-9.99c-1.91-1.59-4.32-2.47-6.77-2.47h0Z"/>
    </g>
  </g>
  <g>
    <g>
      <g>
        <path class="cls-1" d="M264.82,394.56l-1.17,17.27-2.21,32.56s-.04,7.4-9.39,8.51c-3.12.37-7.83,1.19-12.19,1.19-1.37,0-2.72-.08-3.96-.28-9.29-1.52-13.34-9.14,7.98-18.29l-1.32-30.25-.46-10.71h22.72Z"/>
        <polygon class="cls-2" points="264.82 394.56 263.8 409.65 242.46 402.82 242.1 394.56 264.82 394.56"/>
        <path class="cls-3" d="M234.6,387.37l.33,7.5,1.58,36.14c-4.15,2.07-7.38,4.18-9.81,6.39-5.13,4.67-5.78,9.14-5.42,12.08.41,3.36,2.36,6.36,5.49,8.44,2.18,1.45,4.87,2.45,7.99,2.96,1.56.26,3.24.38,5.12.38,3.83,0,7.66-.52,10.74-.94.84-.11,1.63-.22,2.29-.3,6.04-.72,10.85-3.61,13.54-8.14,1.82-3.08,2.14-5.97,2.18-7.15l3.37-49.69.52-7.67h-37.91ZM261.44,444.38s-.04,7.4-9.39,8.51c-3.12.37-7.83,1.19-12.19,1.19-1.37,0-2.72-.08-3.96-.28-9.29-1.52-13.34-9.14,7.98-18.29l-1.32-30.25-.46-10.71h22.72l-1.17,17.27-2.21,32.56Z"/>
      </g>
      <g>
        <path class="cls-1" d="M302.11,394.56l1.17,17.27,2.21,32.56s.04,7.4,9.39,8.51c3.12.37,7.83,1.19,12.19,1.19,1.37,0,2.72-.08,3.96-.28,9.29-1.52,13.34-9.14-7.98-18.29l1.32-30.25.46-10.71h-22.72Z"/>
        <polygon class="cls-2" points="302.11 394.56 303.14 409.65 324.47 402.82 324.83 394.56 302.11 394.56"/>
        <path class="cls-3" d="M332.34,387.37l-.33,7.5-1.58,36.14c4.15,2.07,7.38,4.18,9.81,6.39,5.13,4.67,5.78,9.14,5.42,12.08-.41,3.36-2.36,6.36-5.49,8.44-2.18,1.45-4.87,2.45-7.99,2.96-1.56.26-3.24.38-5.12.38-3.83,0-7.66-.52-10.74-.94-.84-.11-1.63-.22-2.29-.3-6.04-.72-10.85-3.61-13.54-8.14-1.82-3.08-2.14-5.97-2.18-7.15l-3.37-49.69-.52-7.67h37.91ZM305.49,444.38s.04,7.4,9.39,8.51c3.12.37,7.83,1.19,12.19,1.19,1.37,0,2.72-.08,3.96-.28,9.29-1.52,13.34-9.14-7.98-18.29l1.32-30.25.46-10.71h-22.72l1.17,17.27,2.21,32.56Z"/>
      </g>
    </g>
    <g>
      <path class="cls-5" d="M189.62,380.64c-.46,0-.92-.03-1.37-.06-.19-.02-.37-.04-.56-.06-.23-.03-.46-.06-.69-.09-.26-.04-.53-.08-.79-.14-.02,0-.04,0-.06-.01-2.17-.46-4.2-1.34-5.95-2.56-.03-.02-.06-.04-.08-.06-.25-.18-.49-.36-.73-.55-.14-.11-.27-.23-.41-.35-.22-.19-.43-.37-.63-.57-.23-.22-.45-.45-.67-.68-.1-.11-.19-.23-.29-.34-.18-.21-.35-.42-.51-.64-.08-.11-.17-.23-.25-.34-.17-.24-.33-.49-.48-.74-.06-.09-.12-.19-.17-.28-.2-.35-.39-.72-.56-1.09-.73-1.62-1.1-3.32-1.1-5.08v-125.02c0-.24.02-.47.04-.7.01-.2.01-.41.03-.61.09-.87.28-1.72.55-2.55.14-.41.3-.82.48-1.22.17-.37.36-.73.56-1.09.06-.1.12-.19.18-.29.15-.25.31-.49.48-.73.08-.12.17-.24.26-.35.16-.21.33-.42.5-.62.1-.12.2-.24.3-.36.19-.22.4-.42.61-.63.22-.22.46-.43.7-.64.13-.11.26-.22.39-.33.24-.19.49-.38.74-.56.02-.02.05-.03.07-.05,1.74-1.22,3.77-2.1,5.95-2.56.02,0,.04-.01.07-.02.26-.05.52-.09.79-.14.23-.04.46-.07.69-.09.19-.02.37-.04.56-.06.45-.04.91-.06,1.37-.06h187.69c.46,0,.92.03,1.37.06.19.02.37.04.56.06.23.03.46.06.69.09.26.04.53.08.79.14.02,0,.04.01.07.02,2.17.46,4.2,1.34,5.95,2.56.02.02.05.03.07.05.25.18.5.37.74.56.13.11.26.22.39.33.24.21.47.42.7.64.21.21.42.41.61.63.1.12.2.24.3.36.17.2.34.41.5.62.09.12.17.23.26.35.17.24.33.48.48.73.06.1.12.19.18.29.2.35.39.72.56,1.09.18.4.34.8.47,1.21.28.83.46,1.69.55,2.56.01.12.01.25.02.37.02.31.05.63.05.94v125.02c0,1.76-.37,3.47-1.1,5.08-.17.37-.36.73-.56,1.09-.06.1-.12.19-.17.28-.15.25-.31.5-.48.74-.08.12-.16.23-.25.34-.16.22-.34.43-.51.64-.1.11-.19.23-.29.34-.21.23-.44.46-.67.68-.2.2-.41.39-.63.57-.13.12-.27.23-.41.35-.24.19-.48.38-.73.55-.03.02-.06.04-.08.06-1.74,1.22-3.77,2.1-5.95,2.56-.02,0-.04,0-.06.01-.26.05-.52.09-.79.14-.23.04-.46.07-.69.09-.19.02-.37.04-.56.06-.45.04-.91.06-1.37.06h-187.69Z"/>
      <g>
        <path class="cls-3" d="M377.31,213.01h-187.69c-16.87,0-30.6,12.99-30.6,28.95v125.03c0,15.96,13.73,28.95,30.6,28.95h187.69c16.87,0,30.59-12.99,30.59-28.95v-125.03c0-15.96-13.73-28.95-30.59-28.95ZM398.19,366.99c0,10.6-9.36,19.23-20.87,19.23h-187.69c-11.51,0-20.87-8.62-20.87-19.23v-125.03c0-10.6,9.36-19.23,20.87-19.23h187.69c11.51,0,20.87,8.62,20.87,19.23v125.03Z"/>
        <path class="cls-3" d="M242.45,295.98c-2.68,0-4.86-2.18-4.86-4.86,0-4.38-3.57-7.95-7.95-7.95s-7.95,3.57-7.95,7.95c0,2.68-2.18,4.86-4.86,4.86s-4.86-2.18-4.86-4.86c0-9.74,7.93-17.67,17.67-17.67s17.67,7.93,17.67,17.67c0,2.68-2.18,4.86-4.86,4.86Z"/>
        <path class="cls-3" d="M349.96,295.98c-2.68,0-4.86-2.18-4.86-4.86,0-4.38-3.57-7.95-7.95-7.95s-7.95,3.57-7.95,7.95c0,2.68-2.18,4.86-4.86,4.86s-4.86-2.18-4.86-4.86c0-9.74,7.93-17.67,17.67-17.67s17.67,7.93,17.67,17.67c0,2.68-2.18,4.86-4.86,4.86Z"/>
        <path class="cls-3" d="M283.47,318.47c15,0,29.23,7.12,38.07,19.05,1.6,2.16,1.15,5.2-1.01,6.8-2.16,1.6-5.2,1.15-6.8-1.01-7.01-9.46-18.33-15.11-30.26-15.11s-23.25,5.65-30.26,15.12c-1.6,2.16-4.64,2.61-6.8,1.01-2.16-1.6-2.61-4.64-1.01-6.8,8.84-11.93,23.07-19.05,38.07-19.05Z"/>
      </g>
    </g>
    <g>
      <path class="cls-3" d="M383.97,352.93h-.02c-2.54,0-4.5,2.22-4.21,4.75,2.37,20.57,1.05,53.16-10.82,65.33-1.99,2.04-4.77,3.2-7.62,3-.65-.04-1.31-.16-1.94-.37-3.28-1.1-5.73-4.84-2.05-15.59.16-.48-.12-.9-.52-1.03-.24-.08-.51-.05-.75.13-1.88,1.45-4.47,3.04-6.22,2.46-.16-.05-.31-.12-.46-.22-2.97-1.88-.88-9.21,10.35-19.12,0,0,3.38-21.13,2.89-35.3-.08-2.27-1.97-4.05-4.23-4.05h-.09c-1.57,0-2.8,1.31-2.72,2.88.49,10.47-1.61,29.15-2.34,32.67-6.27,5.85-12.81,13.83-12.22,21.26.26,3.25,1.9,6.07,4.52,7.72.64.4,1.32.73,2.03.96.25.08.5.16.75.22-.05,2.87.45,5.35,1.51,7.5,1.5,3.04,4.02,5.22,7.27,6.31,1.15.39,2.4.63,3.71.72,4.9.35,9.74-1.53,13.26-5.14,6.73-6.89,10.94-16.58,12.55-28.8,1.01-7.74.35-35.03.08-43.66-.05-1.47-1.25-2.63-2.73-2.63Z"/>
      <path class="cls-1" d="M362.35,352.93c1.48,13.73-2.62,39.35-2.62,39.35-11.23,9.91-13.32,17.23-10.35,19.12.15.09.3.16.46.22,1.75.58,4.34-1,6.22-2.46.24-.18.51-.21.75-.13.39.13.68.56.52,1.03-3.69,10.74-1.24,14.49,2.05,15.59.63.21,1.29.32,1.94.37,2.85.2,5.62-.95,7.62-3,12.83-13.15,13.33-50.18,10.17-70.08h-16.75Z"/>
      <path class="cls-2" d="M362.6,356.51c.59,14.22-2.88,35.77-2.88,35.77-11.23,9.91-13.32,17.23-10.35,19.12.15.09.3.16.46.22,1.75.58,4.34-1,6.22-2.46.24-.18.51-.21.75-.13-.34-2.02,1.56-6.13,3.8-9.77,3.08-5,4.6-10.69,5.37-16.51,1.4-10.55-3.38-26.23-3.38-26.23Z"/>
    </g>
    <g>
      <path class="cls-3" d="M185.38,352.93h.02c2.54,0,4.5,2.22,4.21,4.75-2.37,20.57-1.05,53.16,10.82,65.33,1.99,2.04,4.77,3.2,7.62,3,.65-.04,1.31-.16,1.94-.37,3.28-1.1,5.73-4.84,2.05-15.59-.16-.48.12-.9.52-1.03.24-.08.51-.05.75.13,1.88,1.45,4.47,3.04,6.22,2.46.16-.05.31-.12.46-.22,2.97-1.88.88-9.21-10.35-19.12,0,0-3.38-21.13-2.89-35.3.08-2.27,1.97-4.05,4.23-4.05h.09c1.57,0,2.8,1.31,2.72,2.88-.49,10.47,1.61,29.15,2.34,32.67,6.27,5.85,12.81,13.83,12.22,21.26-.26,3.25-1.9,6.07-4.52,7.72-.64.4-1.32.73-2.03.96-.25.08-.5.16-.75.22.05,2.87-.45,5.35-1.51,7.5-1.5,3.04-4.02,5.22-7.27,6.31-1.15.39-2.4.63-3.71.72-4.9.35-9.74-1.53-13.26-5.14-6.73-6.89-10.94-16.58-12.55-28.8-1.01-7.74-.35-35.03-.08-43.66.05-1.47,1.25-2.63,2.73-2.63Z"/>
      <path class="cls-1" d="M207,352.93c-1.48,13.73,2.62,39.35,2.62,39.35,11.23,9.91,13.32,17.23,10.35,19.12-.15.09-.3.16-.46.22-1.75.58-4.34-1-6.22-2.46-.24-.18-.51-.21-.75-.13-.39.13-.68.56-.52,1.03,3.69,10.74,1.24,14.49-2.05,15.59-.63.21-1.29.32-1.94.37-2.85.2-5.62-.95-7.62-3-12.83-13.15-13.33-50.18-10.17-70.08h16.75Z"/>
      <path class="cls-2" d="M206.74,356.51c-.59,14.22,2.88,35.77,2.88,35.77,11.23,9.91,13.32,17.23,10.35,19.12-.15.09-.3.16-.46.22-1.75.58-4.34-1-6.22-2.46-.24-.18-.51-.21-.75-.13.34-2.02-1.56-6.13-3.8-9.77-3.08-5-4.6-10.69-5.37-16.51-1.4-10.55,3.38-26.23,3.38-26.23Z"/>
    </g>
  </g>
</svg>