<?xml version="1.0" encoding="UTF-8"?>
<svg id="Layer_1" data-name="Layer 1" xmlns="http://www.w3.org/2000/svg" xmlns:xlink="http://www.w3.org/1999/xlink" viewBox="0 0 566.93 566.93">
  <defs>
    <style>
      .cls-1 {
        fill: #263e7a;
      }

      .cls-2 {
        fill: #7cc57b;
      }

      .cls-3 {
        fill: #fff;
      }

      .cls-4 {
        fill: #d1eefc;
      }

      .cls-5 {
        fill: #253e79;
      }

      .cls-6 {
        fill: #f05681;
      }

      .cls-7 {
        fill: #3dc3f1;
      }

      .cls-8 {
        fill: url(#linear-gradient);
      }

      .cls-9 {
        fill: #ead655;
      }
    </style>
    <linearGradient id="linear-gradient" x1="478.37" y1="303.3" x2="488.41" y2="246.35" gradientTransform="translate(-273.4 21.77) rotate(-3.78)" gradientUnits="userSpaceOnUse">
      <stop offset="0" stop-color="#fff"/>
      <stop offset=".43" stop-color="#fcfdfe"/>
      <stop offset=".74" stop-color="#f2fafe"/>
      <stop offset="1" stop-color="#e4f5fd"/>
    </linearGradient>
  </defs>
  <ellipse class="cls-4" cx="244.59" cy="447.32" rx="107.44" ry="11.87"/>
  <g>
    <g>
      <path class="cls-5" d="M108.02,370.56h-1.15v-19.16c-5.36,13.74-9.73,35.85-9.73,35.85,8.22,12.52,8.3,20.14,4.94,21.17-.17.05-.33.08-.5.09-1.84.1-3.92-2.11-5.35-4.01-.18-.24-.44-.34-.69-.33-.41.02-.8.36-.77.86.72,11.34-2.63,14.3-6.08,14.49-.66.04-1.33-.03-1.97-.16-2.8-.56-5.17-2.4-6.56-4.9-15.76-28.43,20.91-87.58,26.7-96.6v-12.57l-5.12,7.27c-.42.6-15.27,25.44-23.26,43.86-4.79,11.02-7.85,21.26-9.11,30.43-1.67,12.21-.16,22.68,4.51,31.1,2.45,4.41,6.62,7.5,11.44,8.46,1.28.26,2.55.35,3.77.29,3.43-.19,6.43-1.63,8.68-4.17,1.59-1.79,2.73-4.05,3.43-6.83.25,0,.51,0,.78-.01.75-.04,1.49-.17,2.21-.39,2.96-.91,5.29-3.19,6.39-6.26,2.53-7.02-1.68-16.44-6.18-23.73.13-2.03,1.64-8.07,3.61-14.73Z"/>
      <path class="cls-3" d="M106.87,351.41v-33.53c-5.79,9.02-42.46,68.17-26.7,96.6,1.38,2.5,3.76,4.34,6.56,4.9.64.13,1.31.19,1.97.16,3.46-.19,6.81-3.16,6.08-14.49-.03-.5.36-.84.77-.86.25-.01.5.09.69.33,1.43,1.9,3.51,4.11,5.35,4.01.17,0,.33-.04.5-.09,3.36-1.03,3.28-8.65-4.94-21.17,0,0,4.37-22.11,9.73-35.85Z"/>
      <path class="cls-4" d="M106.87,351.41v-7.55c-5.11,7.77-11.9,25.76-13.24,32.54-1.14,5.76-.82,11.7.83,17.34,1.2,4.11,1.95,8.57,1.09,10.43.25-.01.5.09.69.33,1.43,1.9,3.51,4.11,5.35,4.01.17,0,.33-.04.5-.09,3.36-1.03,3.28-8.65-4.94-21.17,0,0,4.37-22.11,9.73-35.85Z"/>
    </g>
    <g>
      <path class="cls-5" d="M417.79,252.26c-1.37-1.71-1.78-1.89-2.84-2.6-5.09-3.43-9.8-4.38-15.12-1.6-1.08.56-1.4,1.27-2.25,1.99-4.06-1.95-8.62-2.56-12.66-.3-6.47,3.62-10.03,9.64-12.46,16.4-10.14,4.47-20.42,7.21-29.59,12.8-1.13.69-1.94,1.14-2.7,1.52l-.3,3.75h.51l.81,39.33c.95-.19,1.76-.41,2.25-.68,18.37-10.15,26.41-18.61,46.67-26.05,3.93.18,4.71,1.19,9.31,1.21,9.35.03,16.92-2.36,22.31-12.4,5.39-10.04,3.26-24.34-3.94-33.38Z"/>
      <path class="cls-3" d="M342.13,316.01c18.38-12.51,25.23-18.65,45.82-26.9.81-.32.13-.09.17-.09,4.83.28,5.86,1.21,11.48,1.33s12.33-1.44,15.65-8.68c3.33-7.24,1.86-17.56-3.39-24.16-.85-1.07-.48-.66-1.55-1.38-5.62-3.77-7.59-.24-6.26,5.69,1.17,5.21.21,10.12-4.45,11.84-2.14.79-2.04,1.28-2.24,2.45-.46,2.82,2.02,4.63,3.58,6,1.19,1.04,1.65.96,2.75,1.67-1.32,4.9-5.13,3.33-8.23,1.33-1.34-.86-1.08-.75-2.25-1.68,1.46-6.01-4.46-11.23-6.26-14.62-1.8-3.38,1.39-1.72,1.48-3.58.6.74,2.23,2.29,2.72,2.52,2.67,1.27,5.82,2.2,7.21-1.17,1.39-3.37-1.76-7.15-4.36-9.28-.05-.04-.23-.09-.35-.16-6.83-3.56-11.92,7.1-12.76,10.79-.85,3.7-.38,2.67-2.41,4.1-11.99,5.54-23.54,8.31-34.3,16.18-1.35,4.41-1.88,15.46-2.08,19.47-.2,4.01.09,4.9.03,8.31Z"/>
      <path class="cls-4" d="M342.11,315.97c18.71-12.53,24.65-18.4,46.3-27.03-4.1-.78,6.38-11.29-5.69-6.56-12.07,4.73-28.81,14.65-40.37,25.54-.67,2.88-.06,5.33-.24,8.05Z"/>
      <path class="cls-5" d="M415.08,255.19c-1.78-2.39-1.72-1.7-2.26-2.12-3.63-2.75-7.13-3.5-10.55-1.67-2.43,1.3-2.27,3.12-2.94,5.25-.86-1-1.93-1.88-3.04-2.66-.12-.09-.27-.2-.42-.28-2.97-1.54-6.14-2.09-9.15-.36-5.43,3.11-8.74,8.57-10,14.48-.1.45.04.51-.1.73-.14.22-.3.19-.45.26-11.34,5.15-22.25,7.96-32.63,14.6-1.2.77-1.77,1.02-2.88,1.72-.1.32-.19.65-.28.98l.81,33.83c.63-.17,1.2-.36,1.52-.55,18.24-10.91,26.01-18.5,46.36-26.51,4.18.33,5.51,1.1,10.31,1.29,7.78.31,14.64-2.27,19.08-10.35,4.85-8.83,1.89-21.53-3.38-28.63ZM415.24,281.69c-3.33,7.24-10.04,8.8-15.65,8.68-5.6-.13-6.64-1.04-11.44-1.33-.06.02-.12.05-.2.08-20.59,8.25-27.44,14.39-45.82,26.9.06-3.41-.23-4.3-.03-8.31.2-4.01.73-15.06,2.08-19.47,10.76-7.87,22.32-10.64,34.3-16.18,2.03-1.43,1.57-.4,2.41-4.1.85-3.7,5.93-14.35,12.76-10.79.12.06.31.12.35.16,2.61,2.13,5.76,5.9,4.36,9.28-1.39,3.37-4.55,2.44-7.21,1.17-.48-.23-2.12-1.77-2.72-2.52-.09,1.86-3.28.19-1.48,3.58,1.8,3.38,7.72,8.61,6.26,14.62,1.16.93.9.82,2.25,1.68,3.1,2,6.9,3.57,8.23-1.33-1.09-.71-1.55-.63-2.75-1.67-1.57-1.37-4.05-3.18-3.58-6,.19-1.17.1-1.66,2.24-2.45,4.66-1.71,5.62-6.63,4.45-11.84-1.33-5.93.64-9.46,6.26-5.69,1.07.72.69.31,1.55,1.38,5.25,6.59,6.72,16.92,3.39,24.16Z"/>
    </g>
    <g>
      <g>
        <path class="cls-3" d="M205.09,382.79l-1.17,17.27-2.21,32.56s-.04,7.4-9.39,8.51c-3.12.37-7.83,1.19-12.19,1.19-1.37,0-2.72-.08-3.96-.28-9.29-1.52-13.34-9.14,7.98-18.29l-1.32-30.25-.46-10.71h22.72Z"/>
        <polygon class="cls-4" points="205.09 382.79 204.07 397.88 182.73 391.06 182.37 382.79 205.09 382.79"/>
        <path class="cls-5" d="M175.1,380.97l.09,2.14,1.58,36.14c-4.15,2.07-7.38,4.18-9.81,6.39-5.13,4.67-5.78,9.14-5.42,12.08.41,3.36,2.36,6.36,5.49,8.44,2.18,1.45,4.87,2.45,7.99,2.96,1.56.26,3.24.38,5.12.38,3.83,0,7.66-.52,10.74-.94.84-.11,1.63-.22,2.29-.3,6.04-.72,10.85-3.61,13.54-8.14,1.82-3.08,2.14-5.97,2.18-7.15l3.37-49.69.16-2.31h-37.32ZM203.92,400.06l-2.21,32.56s-.04,7.4-9.39,8.51c-3.12.37-7.83,1.19-12.19,1.19-1.37,0-2.72-.08-3.96-.28-9.29-1.52-13.34-9.14,7.98-18.29l-1.32-30.25-.46-10.71h22.72l-1.17,17.27Z"/>
      </g>
      <g>
        <path class="cls-3" d="M242.38,382.79l1.17,17.27,2.21,32.56s.04,7.4,9.39,8.51c3.12.37,7.83,1.19,12.19,1.19,1.37,0,2.72-.08,3.96-.28,9.29-1.52,13.34-9.14-7.98-18.29l1.32-30.25.46-10.71h-22.72Z"/>
        <polygon class="cls-4" points="242.38 382.79 243.4 397.88 264.74 391.06 265.1 382.79 242.38 382.79"/>
        <path class="cls-5" d="M280.52,425.64c-2.43-2.21-5.67-4.33-9.81-6.39l1.58-36.14.21-4.95h-37.63l.35,5.12,3.37,49.69c.05,1.18.36,4.07,2.18,7.15,2.69,4.53,7.5,7.42,13.54,8.14.66.08,1.46.19,2.29.3,3.08.42,6.9.94,10.74.94,1.88,0,3.56-.12,5.12-.38,3.12-.51,5.81-1.5,7.99-2.96,3.13-2.08,5.07-5.08,5.49-8.44.36-2.94-.29-7.41-5.42-12.08ZM271.3,442.04c-1.25.2-2.59.28-3.96.28-4.36,0-9.06-.82-12.19-1.19-9.35-1.11-9.39-8.51-9.39-8.51l-2.21-32.56-1.17-17.27h22.72l-.46,10.71-1.32,30.25c21.32,9.15,17.27,16.77,7.98,18.29Z"/>
      </g>
    </g>
    <g>
      <path class="cls-8" d="M135.11,376.64c-.46.03-.92.03-1.37.03-.19,0-.38-.01-.56-.02-.23-.01-.46-.03-.7-.05-.27-.02-.53-.05-.79-.08-.02,0-.04,0-.06,0-2.2-.31-4.28-1.06-6.1-2.16-.03-.02-.06-.03-.09-.05-.26-.16-.52-.33-.77-.5-.15-.1-.29-.21-.43-.32-.23-.17-.45-.35-.67-.53-.24-.21-.48-.42-.71-.64-.11-.1-.21-.21-.31-.32-.19-.2-.38-.4-.56-.61-.09-.11-.18-.22-.27-.33-.19-.23-.36-.47-.53-.71-.06-.09-.13-.18-.19-.27-.23-.34-.44-.69-.63-1.05-.83-1.56-1.31-3.24-1.43-5l-.56-8.52-5.63-85.23-2.05-31c-.02-.24,0-.47,0-.7,0-.2-.02-.41,0-.61.03-.87.16-1.73.38-2.58.11-.42.24-.84.4-1.25.14-.38.31-.75.49-1.12.05-.1.11-.2.16-.3.13-.26.28-.51.43-.76.08-.12.15-.25.23-.37.14-.22.3-.44.46-.66.09-.12.18-.25.28-.37.18-.23.37-.45.57-.67.21-.23.43-.46.65-.68.12-.12.24-.24.37-.35.23-.21.46-.41.7-.61.02-.02.05-.04.07-.06,1.66-1.33,3.63-2.34,5.77-2.94.02,0,.04-.01.06-.02.25-.07.51-.13.77-.19.23-.05.45-.1.69-.14.18-.03.37-.07.55-.09.45-.07.9-.12,1.36-.15l187.29-12.36c.46-.03.92-.03,1.37-.03.19,0,.37.01.56.02.23.01.47.03.7.05.26.02.53.05.79.08.02,0,.04,0,.07.01,2.2.32,4.28,1.06,6.1,2.16.03.02.05.03.08.05.26.16.52.33.77.51.14.1.27.2.41.3.25.19.5.38.74.59.22.19.44.39.65.59.11.11.22.22.32.33.19.19.37.39.54.59.09.11.19.22.28.34.18.23.36.46.52.7.07.09.13.18.2.28.23.34.44.69.63,1.05.21.39.39.78.55,1.18.33.81.57,1.65.72,2.52.02.12.03.24.04.37.04.31.09.62.11.94l2.05,31,5.63,85.23.56,8.52c.11,1.76-.14,3.48-.76,5.14-.14.38-.31.75-.49,1.12-.05.1-.1.2-.15.3-.14.26-.28.52-.43.77-.07.12-.15.24-.22.36-.15.23-.31.45-.47.67-.09.12-.17.24-.26.36-.2.25-.41.49-.62.73-.19.21-.39.41-.59.61-.13.13-.25.25-.38.37-.22.21-.45.41-.69.6-.03.02-.05.04-.08.06-1.66,1.33-3.63,2.34-5.77,2.94-.02,0-.04.01-.06.02-.26.07-.52.13-.78.19-.23.05-.45.1-.68.14-.18.03-.37.07-.55.09-.45.07-.9.12-1.36.15h0s-187.29,12.36-187.29,12.36h0Z"/>
      <g>
        <path class="cls-5" d="M311.35,197.02l-187.29,12.36c-16.83,1.11-29.67,14.97-28.62,30.9l7.51,113.8.15,2.2.58,8.76c1.05,15.93,15.6,27.98,32.44,26.87l187.29-12.36c16.83-1.11,29.67-14.97,28.62-30.9l-8.24-124.76c-1.05-15.93-15.6-27.98-32.44-26.87ZM342.32,349.29c.7,10.58-8.08,19.8-19.56,20.56l-187.29,12.36c-11.48.76-21.4-7.23-22.09-17.81l-.58-8.76-.15-2.2-7.51-113.8c-.7-10.58,8.08-19.8,19.56-20.56l187.29-12.36c11.48-.76,21.4,7.23,22.09,17.81l8.24,124.76Z"/>
        <g>
          <path class="cls-5" d="M182.25,288.69c-2.68.18-4.99-1.85-5.17-4.53-.29-4.38-4.08-7.7-8.46-7.41s-7.7,4.08-7.41,8.46c.18,2.68-1.85,4.99-4.53,5.17s-4.99-1.85-5.17-4.53c-.64-9.72,6.75-18.16,16.47-18.8,9.72-.64,18.16,6.75,18.8,16.47.18,2.68-1.85,4.99-4.53,5.17Z"/>
          <path class="cls-5" d="M289.52,281.6c-2.68.18-4.99-1.85-5.17-4.53-.29-4.38-4.08-7.7-8.46-7.41-4.37.29-7.7,4.08-7.41,8.46.18,2.68-1.85,4.99-4.53,5.17s-4.99-1.85-5.17-4.53c-.64-9.72,6.75-18.16,16.47-18.8s18.16,6.75,18.8,16.47c.18,2.68-1.85,4.99-4.53,5.17Z"/>
          <path class="cls-5" d="M224.52,346.24c-18.02,1.12-35.65-6.37-47.16-20.04-2.08-2.47-1.77-6.16.71-8.24,2.47-2.08,6.16-1.77,8.24.71,9.14,10.85,23.15,16.79,37.49,15.9s27.51-8.53,35.22-20.43c1.76-2.71,5.38-3.48,8.09-1.72,2.71,1.76,3.48,5.38,1.72,8.09-9.73,14.99-26.29,24.61-44.31,25.74Z"/>
        </g>
      </g>
    </g>
    <g>
      <path class="cls-5" d="M527.59,113.19c0-8.7-8.06-16.48-16.51-16.48h-142.71c-8.25-.01-16.41,7.55-16.42,16.11l-.13,105.62c-.01,9.2,8.01,16.86,16.87,16.89l21.48.07c1.51,0,2.86-.93,3.37-2.35,0-.02.02-.05.03-.07.84-2.33-.87-4.79-3.35-4.8l-20.95-.06c-5.9-.02-10.42-5.07-10.42-11.03l.04-103.05c0-4.78,4.47-10.24,9.39-10.25l140.35-.08c7.78,0,12.12,5.13,12.12,12.4v99.56c0,7.09-3.94,12.5-11.29,12.5h-84.27c-1.64,0-3.06,1.11-3.47,2.69l-.02.07c-.58,2.27,1.13,4.47,3.47,4.47l85.46-.03c8.77,0,17.05-7.47,17.05-16.56l-.09-105.63Z"/>
      <path class="cls-7" d="M385.07,206.42l23.12-22.97,19.17-19.2,19.47,19.69,45.12-45.07,8.56,8.42,6.75-30.22-30.08,6.84,8.11,8.39-27.92,27.52-10.4,10.7-19.41-19.74-25.3,25.14-23.9,23.87c2.14,2.41,4.15,4.45,6.7,6.64Z"/>
      <path class="cls-5" d="M407.08,119.92c-6.08-3.97-14.09-3.78-19.92.99-5.95,4.86-8.15,12.48-5.29,19.77,2.49,6.38,9.26,11.21,16.56,10.77,7.07-.44,13.81-5.01,15.71-12.52,1.94-7.7-.95-15.02-7.06-19.01ZM401,133.97l-.03,11.47-6.47.1.11-11.29-5.31.15c2.82-4.44,5.34-7.93,8.52-11.97l8.48,12.08-5.3-.54Z"/>
      <polygon class="cls-2" points="492.49 209.28 503.55 209.15 503.47 157.47 492.5 157.43 492.49 209.28"/>
      <polygon class="cls-9" points="475.34 209.28 486.45 209.17 486.39 173.82 475.34 174.04 475.34 209.28"/>
      <path class="cls-5" d="M371.54,215.7l25.68.02c1.3,0,2.19,1.29,1.75,2.51,0,.01,0,.03-.01.04-.27.73-.97,1.22-1.75,1.22l-27.15-.04c-1.41,0-2.1-1.18-2.1-2.66v-100.15c0-1.28.67-2.36,1.53-2.4.92-.05,2.08.69,2.08,1.87l-.02,99.6Z"/>
      <path class="cls-5" d="M509.97,219.47h-82.99c-1.21,0-2.1-1.13-1.81-2.31,0-.01,0-.03,0-.04.21-.83.95-1.41,1.81-1.41h82.96c.54,0,1.52,1.06,1.77,1.52.29.56-.72,2.24-1.75,2.24Z"/>
      <polygon class="cls-6" points="458.5 209.23 469.62 209.21 469.47 187.22 458.55 187.19 458.5 209.23"/>
    </g>
    <path class="cls-1" d="M420.64,187.65c-2.51,6.51-4.97,13.03-7.44,19.55-3.01,7.97-8.94,24.1-11.82,32.12-2.1,5.82-4.43,11.56-6.58,17.37,2.99.23,4.47,2.84,4.34,5.34.07.32.12.65.14.98.02.47-.02.92-.13,1.36-.08,2.34-1.59,4.61-4.6,4.75-1.49.07-2.65-.42-3.49-1.2-.36,1.22-.71,2.45-1.02,3.68-2.88,11.18-5.3,22.39-6.11,33.97l.95.31c3.1-4.99,5.67-10.14,8.08-15.35,1.55-3.4,3.03-6.82,4.42-10.28-.09-.07-.19-.15-.28-.22-.62-.62-1.05-1.36-1.29-2.21-.06-.44-.12-.89-.18-1.33-.03-.69.12-1.33.43-1.93.2-.62.55-1.16,1.03-1.61.45-.49.99-.83,1.61-1.03.6-.31,1.24-.46,1.93-.43h.05c1.02-2.9,1.97-5.82,2.82-8.78-.03,0-.06,0-.09,0-.9,0-1.74-.23-2.52-.68-.34-.26-.67-.52-1.01-.78-.62-.62-1.05-1.36-1.29-2.21-.06-.44-.12-.89-.18-1.33-.03-.69.12-1.33.43-1.93.2-.62.55-1.16,1.03-1.61.31-.33.67-.57,1.06-.77.01,0,.03-.02.04-.03,0,0,0,0,0,0,0,0,0,0,.01,0,.41-.26.84-.46,1.32-.59.44-.06.89-.12,1.33-.18.84,0,1.62.21,2.35.6.99-3.96,2.03-7.9,3.12-11.83,3.92-14.16,9.77-38.3,13.31-53.16.29-1.23-1.33-1.73-1.78-.55Z"/>
    <path class="cls-5" d="M422.42,188.21c-1.81,7.6-4.22,17.62-6.67,27.5-.32,1.26-.63,2.51-.94,3.76-.75,2.97-1.49,5.89-2.21,8.7-.65,2.53-1.28,4.96-1.89,7.25-.56,2.12-1.09,4.12-1.6,5.95-1.09,3.93-2.13,7.87-3.12,11.83-.73-.39-1.51-.6-2.35-.6-.44.06-.89.12-1.33.18-.48.13-.92.34-1.32.59-.01,0-.01.01-.01.01-.01,0-.03.01-.04.02-.39.2-.75.44-1.06.78-.49.45-.83.99-1.03,1.61-.32.59-.46,1.23-.43,1.92.06.45.12.89.17,1.33.24.85.67,1.58,1.29,2.21.34.26.68.52,1.01.78.78.45,1.62.68,2.53.68h.09c-.86,2.96-1.81,5.88-2.82,8.78h-.05c-.69-.03-1.33.12-1.93.43-.62.2-1.15.55-1.61,1.03-.48.46-.83.99-1.03,1.61-.31.6-.46,1.24-.43,1.93.06.44.12.89.18,1.33.23.85.66,1.58,1.28,2.21.1.07.19.14.29.22-1.4,3.45-2.88,6.87-4.43,10.27-2.41,5.21-4.98,10.37-8.08,15.36l-.95-.31c.81-11.59,3.23-22.8,6.11-33.98.31-1.24.66-2.46,1.02-3.68.83.78,2,1.27,3.48,1.2,3.02-.14,4.52-2.4,4.61-4.75.1-.44.14-.89.12-1.36-.01-.33-.06-.65-.13-.98.13-2.49-1.35-5.1-4.34-5.33,2.15-5.81,4.48-11.55,6.58-17.37.41-1.15.89-2.46,1.41-3.9.79-2.19,1.69-4.67,2.64-7.25,1.04-2.84,2.14-5.82,3.2-8.7.47-1.28.94-2.54,1.39-3.76,1.21-3.26,2.32-6.22,3.18-8.51,2.47-6.52,4.93-13.04,7.44-19.55.45-1.18,2.07-.67,1.78.56Z"/>
  </g>
</svg>