<?xml version="1.0" encoding="UTF-8"?>
<svg id="Layer_1" data-name="Layer 1" xmlns="http://www.w3.org/2000/svg" xmlns:xlink="http://www.w3.org/1999/xlink" viewBox="0 0 566.93 566.93">
  <defs>
    <style>
      .cls-1 {
        fill: #fff;
      }

      .cls-2 {
        fill: #d1eefc;
      }

      .cls-3 {
        fill: #253e79;
      }

      .cls-4 {
        fill: #f05681;
      }

      .cls-5 {
        fill: #e4f5fd;
      }

      .cls-6 {
        fill: url(#linear-gradient);
      }
    </style>
    <linearGradient id="linear-gradient" x1="283.74" y1="281.64" x2="293.78" y2="224.69" gradientUnits="userSpaceOnUse">
      <stop offset="0" stop-color="#fff"/>
      <stop offset=".43" stop-color="#fcfdfe"/>
      <stop offset=".74" stop-color="#f2fafe"/>
      <stop offset="1" stop-color="#e4f5fd"/>
    </linearGradient>
  </defs>
  <ellipse class="cls-2" cx="283.46" cy="438.5" rx="107.44" ry="11.87"/>
  <g>
    <g>
      <g>
        <g>
          <path class="cls-1" d="M264.82,371.79l-1.17,17.27-2.21,32.56s-.04,7.4-9.39,8.51c-3.12.37-7.83,1.19-12.19,1.19-1.37,0-2.72-.08-3.96-.28-9.29-1.52-13.34-9.14,7.98-18.29l-1.32-30.25-.46-10.71h22.72Z"/>
          <polygon class="cls-2" points="264.82 371.79 263.8 386.88 242.46 380.06 242.1 371.79 264.82 371.79"/>
          <path class="cls-3" d="M234.59,364.61l.33,7.5,1.58,36.14c-4.15,2.07-7.38,4.18-9.81,6.39-5.13,4.67-5.78,9.14-5.42,12.08.41,3.36,2.36,6.36,5.49,8.44,2.18,1.45,4.87,2.45,7.99,2.96,1.56.26,3.24.38,5.12.38,3.83,0,7.66-.52,10.74-.94.84-.11,1.63-.22,2.29-.3,6.04-.72,10.85-3.61,13.54-8.14,1.82-3.08,2.14-5.97,2.18-7.15l3.37-49.69.52-7.67h-37.91ZM261.44,421.62s-.04,7.4-9.39,8.51c-3.12.37-7.83,1.19-12.19,1.19-1.37,0-2.72-.08-3.96-.28-9.29-1.52-13.34-9.14,7.98-18.29l-1.32-30.25-.46-10.71h22.72l-1.17,17.27-2.21,32.56Z"/>
        </g>
        <g>
          <path class="cls-1" d="M302.11,371.79l1.17,17.27,2.21,32.56s.04,7.4,9.39,8.51c3.12.37,7.83,1.19,12.19,1.19,1.37,0,2.72-.08,3.96-.28,9.29-1.52,13.34-9.14-7.98-18.29l1.32-30.25.46-10.71h-22.72Z"/>
          <polygon class="cls-2" points="302.11 371.79 303.13 386.88 324.47 380.06 324.83 371.79 302.11 371.79"/>
          <path class="cls-3" d="M332.34,364.61l-.33,7.5-1.58,36.14c4.15,2.07,7.38,4.18,9.81,6.39,5.13,4.67,5.78,9.14,5.42,12.08-.41,3.36-2.36,6.36-5.49,8.44-2.18,1.45-4.87,2.45-7.99,2.96-1.56.26-3.24.38-5.12.38-3.83,0-7.66-.52-10.74-.94-.84-.11-1.63-.22-2.29-.3-6.04-.72-10.85-3.61-13.54-8.14-1.82-3.08-2.14-5.97-2.18-7.15l-3.37-49.69-.52-7.67h37.91ZM305.49,421.62s.04,7.4,9.39,8.51c3.12.37,7.83,1.19,12.19,1.19,1.37,0,2.72-.08,3.96-.28,9.29-1.52,13.34-9.14-7.98-18.29l1.32-30.25.46-10.71h-22.72l1.17,17.27,2.21,32.56Z"/>
        </g>
      </g>
      <g>
        <g>
          <polygon class="cls-1" points="164.13 295.03 163.37 327.95 141.51 330.37 140.25 304.19 164.13 295.03"/>
          <path class="cls-3" d="M160.41,300.3l-.56,24.42-14.94,1.66-.95-19.77,16.45-6.31M167.84,289.76l-10,3.84-16.45,6.31-4.85,1.86.25,5.19.95,19.77.37,7.64,7.6-.84,14.94-1.66,6.24-.69.15-6.28.56-24.42.25-10.71h0Z"/>
        </g>
        <g>
          <path class="cls-3" d="M154.32,340.96l.08-.02-.23-.85c-.03-.2-.08-.39-.15-.58l-1.47-5.66-16.86-64.99-2.44-9.41-.06.02-2.14-8.24c-1.22-4.72-4.21-8.68-8.41-11.15-4.2-2.47-9.11-3.15-13.83-1.93-4.72,1.22-8.67,4.21-11.14,8.41-2.46,4.19-3.16,9.1-1.93,13.81l4.87,18.75h.06s17.84,68.74,17.84,68.74c.11.71.29,1.41.54,2.09l.03.13h.01c.33.84.79,1.65,1.37,2.4l11.13,15.01c.86,1.09,1.91,2.02,3.11,2.73,3.29,1.93,7.36,2.08,10.89.4,3.43-1.63,5.8-4.8,6.35-8.46l2.34-18.49c.14-.91.14-1.84.02-2.72ZM107.3,266.19l-2.14-8.24c-.19-.72-.27-1.44-.27-2.15,0-.12,0-.24,0-.35,0-.06,0-.12,0-.18,0-.09.01-.18.02-.27,0-.09.02-.18.03-.27.02-.17.05-.34.08-.51,0,0,0,0,0-.01.02-.13.05-.25.08-.38,0-.03.01-.07.03-.11,0-.03.01-.07.03-.1.04-.15.08-.29.13-.43.05-.17.11-.33.18-.49.06-.16.13-.33.21-.48.06-.14.13-.27.2-.4.03-.05.05-.1.08-.15.07-.13.14-.25.22-.37.04-.07.09-.15.14-.22.09-.15.19-.29.3-.43.11-.14.22-.27.33-.41.05-.07.11-.14.18-.2.12-.13.24-.25.37-.38.13-.13.26-.25.39-.35.07-.05.14-.11.2-.16.07-.06.14-.11.21-.16.07-.05.14-.11.22-.16.16-.12.33-.22.51-.33.12-.07.24-.14.36-.21.13-.07.26-.14.4-.2.09-.05.19-.09.28-.13.06-.03.12-.05.18-.07.1-.04.2-.08.3-.11.12-.04.23-.08.35-.11.11-.04.23-.07.35-.1,2.28-.59,4.57-.21,6.45.9,1.88,1.11,3.33,2.92,3.93,5.2l2.14,8.25-14.43,3.74-2.05.53ZM121.23,319.64h0s-2.69-10.37-2.69-10.37l-8.46-32.59,16.43-4.26h.06s9.58,36.92,9.58,36.92l5.21,20.11.87,3.36-5.7,1.48-10.78,2.8-4.53-17.46ZM142.35,360.72c-.17,1.13-1.76,1.68-2.7,1.13-.14-.08-.26-.19-.37-.33l-1.86-2.51-8.5-11.46,10.29-2.67,5.32-1.38-2.18,17.22Z"/>
          <g>
            <g>
              <polygon class="cls-1" points="142.24 332.81 136.54 334.3 125.76 337.1 110.08 276.68 121.25 273.78 126.51 272.42 126.57 272.4 142.24 332.81"/>
              <path class="cls-1" d="M123.79,261.92l-5.32,1.37-11.16,2.9-2.14-8.24c-.94-3.64.61-7.32,3.59-9.27.75-.5,1.59-.88,2.51-1.12,2.28-.59,4.57-.21,6.45.9s3.33,2.92,3.92,5.2l2.14,8.25Z"/>
              <path class="cls-1" d="M139.64,361.85c-.14-.08-.26-.19-.37-.33l-1.86-2.51-8.5-11.46,15.61-4.05-2.18,17.22c-.17,1.13-1.77,1.68-2.71,1.13Z"/>
            </g>
            <g>
              <path class="cls-5" d="M118.47,263.29l-11.16,2.9-2.14-8.24c-.94-3.64.61-7.32,3.59-9.27,1.3.09,2.54.49,3.64,1.14,1.88,1.11,3.33,2.92,3.92,5.2l2.15,8.27Z"/>
              <polygon class="cls-5" points="121.25 273.78 136.54 334.3 125.76 337.1 110.08 276.68 121.25 273.78"/>
              <polygon class="cls-5" points="137.41 359.01 128.92 347.55 139.21 344.88 137.41 359.01"/>
            </g>
          </g>
        </g>
        <polygon class="cls-2" points="149.23 321.05 159.97 319.64 159.85 324.72 150.45 325.77 149.23 321.05"/>
        <g>
          <path class="cls-1" d="M126.54,297.28c4.86,9.44,4.41,20.58-1.16,28.4-3.88,5.45-8.26,6.59-11.25,6.59-2.78,0-5.61-.94-8.39-2.8-3.8-2.54-6.79-6.54-8.42-11.26-3.6-10.41-2.92-18.95,2.07-26.09l.06-.08.06-.08c4.07-5.16,8.46-6.25,11.43-6.25,5.95,0,11.93,4.43,15.6,11.56Z"/>
          <path class="cls-3" d="M110.93,289.31c11.04,0,21.17,20.74,11.52,34.29-2.69,3.78-5.6,5.09-8.33,5.09-2.36,0-4.58-.98-6.4-2.2-3.29-2.2-5.7-5.6-7.02-9.44-2.88-8.35-3.08-16.13,1.62-22.86,2.7-3.43,5.69-4.88,8.61-4.88M110.93,282.13c-3.76,0-9.29,1.32-14.25,7.62l-.13.16-.12.17c-5.61,8.04-6.46,17.9-2.52,29.32,1.89,5.46,5.37,10.1,9.82,13.07,3.38,2.26,6.88,3.4,10.38,3.4,3.83,0,9.4-1.41,14.18-8.1,3.39-4.76,5.19-10.51,5.2-16.64.01-5.32-1.29-10.68-3.77-15.49-4.36-8.46-11.39-13.51-18.8-13.51h0Z"/>
        </g>
        <path class="cls-2" d="M115.62,290.54c5.86,6.84,8.46,19.72,1.71,29.2-3.34,4.69-7.12,6.35-10.42,6.16.27.21.54.41.83.6,3.91,2.61,9.7,4.16,14.72-2.89,8.25-11.59,2.04-28.42-6.83-33.06Z"/>
      </g>
      <g>
        <path class="cls-6" d="M189.62,359.36c-.46,0-.92-.03-1.37-.06-.19-.02-.37-.04-.56-.06-.23-.03-.46-.06-.69-.09-.26-.04-.53-.08-.79-.14-.02,0-.04,0-.06-.01-2.17-.46-4.2-1.34-5.95-2.56-.03-.02-.06-.04-.08-.06-.25-.18-.49-.36-.73-.55-.14-.11-.27-.23-.41-.35-.22-.19-.43-.37-.63-.57-.23-.22-.45-.45-.67-.68-.1-.11-.19-.23-.29-.34-.18-.21-.35-.42-.51-.64-.08-.11-.17-.23-.25-.34-.17-.24-.33-.49-.48-.74-.06-.09-.12-.19-.17-.28-.2-.35-.39-.72-.56-1.09-.73-1.62-1.1-3.32-1.1-5.08v-125.02c0-.24.02-.47.04-.7.01-.2.01-.41.03-.61.09-.87.28-1.72.55-2.55.14-.41.3-.82.48-1.22.17-.37.36-.73.56-1.09.06-.1.12-.19.18-.29.15-.25.31-.49.48-.73.08-.12.17-.24.26-.35.16-.21.33-.42.5-.62.1-.12.2-.24.3-.36.19-.22.4-.42.61-.63.22-.22.46-.43.7-.64.13-.11.26-.22.39-.33.24-.19.49-.38.74-.56.02-.02.05-.03.07-.05,1.74-1.22,3.77-2.1,5.95-2.56.02,0,.04-.01.07-.02.26-.05.52-.09.79-.14.23-.04.46-.07.69-.09.19-.02.37-.04.56-.06.45-.04.91-.06,1.37-.06h187.69c.46,0,.92.03,1.37.06.19.02.37.04.56.06.23.03.46.06.69.09.26.04.53.08.79.14.02,0,.04.01.07.02,2.17.46,4.2,1.34,5.95,2.56.02.02.05.03.07.05.25.18.5.37.74.56.13.11.26.22.39.33.24.21.47.42.7.64.21.21.42.41.61.63.1.12.2.24.3.36.17.2.34.41.5.62.09.12.17.23.26.35.17.24.33.48.48.73.06.1.12.19.18.29.2.35.39.72.56,1.09.18.4.34.8.47,1.21.28.83.46,1.69.55,2.56.01.12.01.25.02.37.02.31.05.63.05.94v125.02c0,1.76-.37,3.47-1.1,5.08-.17.37-.36.73-.56,1.09-.06.1-.12.19-.17.28-.15.25-.31.5-.48.74-.08.12-.16.23-.25.34-.16.22-.34.43-.51.64-.1.11-.19.23-.29.34-.21.23-.44.46-.67.68-.2.2-.41.39-.63.57-.13.12-.27.23-.41.35-.24.19-.48.38-.73.55-.03.02-.06.04-.08.06-1.74,1.22-3.77,2.1-5.95,2.56-.02,0-.04,0-.06.01-.26.05-.52.09-.79.14-.23.04-.46.07-.69.09-.19.02-.37.04-.56.06-.45.04-.91.06-1.37.06h-187.69Z"/>
        <g>
          <path class="cls-3" d="M377.31,191.73h-187.69c-16.87,0-30.6,12.99-30.6,28.95v125.03c0,15.96,13.73,28.95,30.6,28.95h187.69c16.87,0,30.59-12.99,30.59-28.95v-125.03c0-15.96-13.73-28.95-30.59-28.95ZM398.18,345.71c0,10.6-9.36,19.23-20.87,19.23h-187.69c-11.51,0-20.87-8.62-20.87-19.23v-125.03c0-10.6,9.36-19.23,20.87-19.23h187.69c11.51,0,20.87,8.62,20.87,19.23v125.03Z"/>
          <g>
            <path class="cls-3" d="M242.45,274.69c-2.68,0-4.86-2.18-4.86-4.86,0-4.38-3.57-7.95-7.95-7.95s-7.95,3.57-7.95,7.95c0,2.68-2.18,4.86-4.86,4.86s-4.86-2.18-4.86-4.86c0-9.74,7.93-17.67,17.67-17.67s17.67,7.93,17.67,17.67c0,2.68-2.18,4.86-4.86,4.86Z"/>
            <path class="cls-3" d="M349.95,274.69c-2.68,0-4.86-2.18-4.86-4.86,0-4.38-3.57-7.95-7.95-7.95s-7.95,3.57-7.95,7.95c0,2.68-2.18,4.86-4.86,4.86s-4.86-2.18-4.86-4.86c0-9.74,7.93-17.67,17.67-17.67s17.67,7.93,17.67,17.67c0,2.68-2.18,4.86-4.86,4.86Z"/>
            <g>
              <path class="cls-3" d="M319.4,302.61c-1.31-1.1-3.22-1.76-5.93-.78-6.35,2.32-31.36,3.08-32.52,3.11-1.15-.03-26.06-.79-32.41-3.11-2.71-.99-4.62-.33-5.93.78-1.86,1.57-2.56,4.12-2,6.49,1.19,5.04,5,16.44,15.96,23.11,9.97,6.06,19.26,6.24,24.42,6.3h0s0,0,0,0c0,0,.02,0,.02,0h0c5.16-.07,14.48-.24,24.45-6.3,10.96-6.66,14.77-18.07,15.96-23.11.56-2.37-.14-4.92-2-6.49Z"/>
              <path class="cls-1" d="M311.41,307.63c-.15-.28-.47-.43-.78-.35-9.43,2.46-27.61,2.68-29.46,2.69-1.88-.02-20.36-.23-29.79-2.69-.31-.08-.63.06-.78.35-1.39,2.73,3.85,5.25,5.65,6.09,3.65,1.69,7.49,2.49,11.46,2.93,2.77.31,12.03.54,13.18.53,1.17.02,10.64-.22,13.41-.53,3.97-.44,7.81-1.24,11.46-2.93,1.8-.83,7.04-3.36,5.65-6.09Z"/>
              <path class="cls-4" d="M297.32,327.48s-.09-.07-.13-.1c-2.29-1.69-4.69-2.49-7.17-2.93-1.73-.3-7.52-.54-8.23-.52-.74-.02-6.66.22-8.39.52-2.48.44-4.88,1.24-7.16,2.93-.04.03-.08.06-.13.1-.47.35-1.22.94-1.91,1.68,3.17,1.97,9.29,5,17.07,5s14.51-3.16,17.83-5.14c-.65-.68-1.34-1.21-1.78-1.54Z"/>
            </g>
          </g>
        </g>
      </g>
    </g>
    <g>
      <path class="cls-3" d="M398.18,322.7l9.54-1.29c26.76-3.61,43.01-26.07,47.59-33.29,2.05-1.09,5.25-2.83,7.85-4.48,5.28-3.36,12.15-9.53,10.91-24.35-1.25-15.02-17.27-23.32-22.97-24.64-1.08-.26-2.3-.38-3.64-.38-6.46,0-11.36,2.79-13.1,7.47-.35.95-.56,1.91-.63,2.87-4.46.29-8.28,2.69-10.54,6.66-3.62,6.36-2.61,15.67-.44,20.53-3.11,7.47-13.53,14.06-17.44,15.84l-4.46,2.01-.25,4.88-1.93,18.55-.49,9.62Z"/>
      <path class="cls-1" d="M406.66,313.48c26.59-3.59,41.77-29.32,42.91-31.3.04-.08.06-.12.06-.12,0,0,5.42-2.75,9.24-5.18,3.82-2.42,8.12-6.28,7.23-16.92-.89-10.64-13.98-16.86-16.81-17.52-.46-.11-1.11-.17-1.83-.17-3.77,0-9.65,1.73-1.98,8.35,6.74,5.8,4.73,10.32,3.2,12.3-.7.91-.78,2.19-.12,3.13,1.58,2.26,4.48,2.75,6.69,2.75,1.68,0,2.97-.29,2.97-.29,2.83,5.22-2.2,6-5.48,6-1.42,0-2.51-.14-2.51-.14-3.98-8.05-14.1-7.77-15.24-8.74-1.15-.96-.15-3.52-.15-3.52,1.49.38,2.73.54,3.77.54,5.72,0,5.22-4.93,5.22-4.93,0,0-1.94-5.15-8.97-5.15-.13,0-.25,0-.38.01-7.34.18-6.12,12.96-4.24,16.33,1.89,3.38.5,4.32.5,4.32-4.14,13.14-22.15,21.7-22.15,21.7l-1.52,10.35-.41,8.2Z"/>
      <path class="cls-2" d="M406.66,313.48c26.59-3.59,41.77-29.32,42.91-31.3-5.02-9.73-7.37-4.31-7.37-4.31-11.81,20.32-27.77,25.89-35.13,27.41l-.41,8.2Z"/>
      <path class="cls-3" d="M403.04,305.85l1.68-13.56,2.23-1.01c4.83-2.17,17.02-9.87,19.97-19.25l.16-.5c-.07-.17-.18-.39-.33-.67-2.04-3.65-3.09-12.33-.08-17.61,1.67-2.93,4.41-4.59,7.71-4.67.16-.01.32-.01.48-.01,1.45,0,2.77.17,3.95.47-.97-1.72-1.5-3.75-.7-5.91,1.13-3.04,4.63-4.86,9.35-4.86.71,0,1.76.04,2.73.27,2.88.67,18.76,7.4,19.9,21.08,1.04,12.52-4.3,17.61-9.07,20.64-2.95,1.87-6.72,3.88-8.53,4.82-3.29,5.44-18.87,28.8-45.3,32.36l-4.77.65.16-3.21c-9.15-2.58.46-9.03.46-9.03ZM449.57,282.18c.04-.08.06-.12.06-.12,0,0,5.42-2.75,9.24-5.18,3.82-2.42,8.12-6.28,7.23-16.92-.89-10.64-13.98-16.86-16.81-17.52-.46-.11-1.11-.17-1.83-.17-3.77,0-9.65,1.73-1.98,8.35,6.74,5.8,4.73,10.32,3.2,12.3-.7.91-.78,2.19-.12,3.13,1.58,2.26,4.48,2.75,6.69,2.75,1.68,0,2.97-.29,2.97-.29,2.83,5.22-2.2,6-5.48,6-1.42,0-2.51-.14-2.51-.14-3.98-8.05-14.1-7.77-15.24-8.74-1.15-.96-.15-3.52-.15-3.52,1.49.38,2.73.54,3.77.54,5.72,0,5.22-4.93,5.22-4.93,0,0-1.94-5.15-8.97-5.15-.13,0-.25,0-.38.01-7.34.18-6.12,12.96-4.24,16.33,1.89,3.38.5,4.32.5,4.32-4.14,13.14-22.15,21.7-22.15,21.7l-1.52,10.35-.41,8.2c26.59-3.59,41.77-29.32,42.91-31.3Z"/>
    </g>
  </g>
</svg>