<?xml version="1.0" encoding="UTF-8"?>
<svg id="Layer_1" data-name="Layer 1" xmlns="http://www.w3.org/2000/svg" xmlns:xlink="http://www.w3.org/1999/xlink" viewBox="0 0 566.93 566.93">
  <defs>
    <style>
      .cls-1 {
        fill: #263e7a;
      }

      .cls-2 {
        fill: #fff;
      }

      .cls-3 {
        fill: #d1eefc;
      }

      .cls-4 {
        fill: #253e79;
      }

      .cls-5 {
        fill: #3dc3f1;
      }

      .cls-6 {
        fill: url(#linear-gradient);
      }
    </style>
    <linearGradient id="linear-gradient" x1="283.74" y1="281.64" x2="293.78" y2="224.69" gradientUnits="userSpaceOnUse">
      <stop offset="0" stop-color="#fff"/>
      <stop offset=".43" stop-color="#fcfdfe"/>
      <stop offset=".74" stop-color="#f2fafe"/>
      <stop offset="1" stop-color="#e4f5fd"/>
    </linearGradient>
  </defs>
  <ellipse class="cls-3" cx="283.46" cy="437.98" rx="107.44" ry="11.87"/>
  <g>
    <g>
      <g>
        <path class="cls-2" d="M264.82,373.27l-1.17,17.27-2.21,32.56s-.04,7.4-9.39,8.51c-3.12.37-7.83,1.19-12.19,1.19-1.37,0-2.72-.08-3.96-.28-9.29-1.52-13.34-9.14,7.98-18.29l-1.32-30.25-.46-10.71h22.72Z"/>
        <polygon class="cls-3" points="264.82 373.27 263.8 388.37 242.46 381.54 242.1 373.27 264.82 373.27"/>
        <path class="cls-4" d="M234.6,366.09l.33,7.5,1.58,36.14c-4.15,2.07-7.38,4.18-9.81,6.39-5.13,4.67-5.78,9.14-5.42,12.08.41,3.36,2.36,6.36,5.49,8.44,2.18,1.45,4.87,2.45,7.99,2.96,1.56.26,3.24.38,5.12.38,3.83,0,7.66-.52,10.74-.94.84-.11,1.63-.22,2.29-.3,6.04-.72,10.85-3.61,13.54-8.14,1.82-3.08,2.14-5.97,2.18-7.15l3.37-49.69.52-7.67h-37.91ZM261.44,423.1s-.04,7.4-9.39,8.51c-3.12.37-7.83,1.19-12.19,1.19-1.37,0-2.72-.08-3.96-.28-9.29-1.52-13.34-9.14,7.98-18.29l-1.32-30.25-.46-10.71h22.72l-1.17,17.27-2.21,32.56Z"/>
      </g>
      <g>
        <path class="cls-2" d="M302.11,373.27l1.17,17.27,2.21,32.56s.04,7.4,9.39,8.51c3.12.37,7.83,1.19,12.19,1.19,1.37,0,2.72-.08,3.96-.28,9.29-1.52,13.34-9.14-7.98-18.29l1.32-30.25.46-10.71h-22.72Z"/>
        <polygon class="cls-3" points="302.11 373.27 303.14 388.37 324.47 381.54 324.83 373.27 302.11 373.27"/>
        <path class="cls-4" d="M332.34,366.09l-.33,7.5-1.58,36.14c4.15,2.07,7.38,4.18,9.81,6.39,5.13,4.67,5.78,9.14,5.42,12.08-.41,3.36-2.36,6.36-5.49,8.44-2.18,1.45-4.87,2.45-7.99,2.96-1.56.26-3.24.38-5.12.38-3.83,0-7.66-.52-10.74-.94-.84-.11-1.63-.22-2.29-.3-6.04-.72-10.85-3.61-13.54-8.14-1.82-3.08-2.14-5.97-2.18-7.15l-3.37-49.69-.52-7.67h37.91ZM305.49,423.1s.04,7.4,9.39,8.51c3.12.37,7.83,1.19,12.19,1.19,1.37,0,2.72-.08,3.96-.28,9.29-1.52,13.34-9.14-7.98-18.29l1.32-30.25.46-10.71h-22.72l1.17,17.27,2.21,32.56Z"/>
      </g>
    </g>
    <g>
      <path class="cls-6" d="M189.62,359.36c-.46,0-.92-.03-1.37-.06-.19-.02-.37-.04-.56-.06-.23-.03-.46-.06-.69-.09-.26-.04-.53-.08-.79-.14-.02,0-.04,0-.06-.01-2.17-.46-4.2-1.34-5.95-2.56-.03-.02-.06-.04-.08-.06-.25-.18-.49-.36-.73-.55-.14-.11-.27-.23-.41-.35-.22-.19-.43-.37-.63-.57-.23-.22-.45-.45-.67-.68-.1-.11-.19-.23-.29-.34-.18-.21-.35-.42-.51-.64-.08-.11-.17-.23-.25-.34-.17-.24-.33-.49-.48-.74-.06-.09-.12-.19-.17-.28-.2-.35-.39-.72-.56-1.09-.73-1.62-1.1-3.32-1.1-5.08v-125.02c0-.24.02-.47.04-.7.01-.2.01-.41.03-.61.09-.87.28-1.72.55-2.55.14-.41.3-.82.48-1.22.17-.37.36-.73.56-1.09.06-.1.12-.19.18-.29.15-.25.31-.49.48-.73.08-.12.17-.24.26-.35.16-.21.33-.42.5-.62.1-.12.2-.24.3-.36.19-.22.4-.42.61-.63.22-.22.46-.43.7-.64.13-.11.26-.22.39-.33.24-.19.49-.38.74-.56.02-.02.05-.03.07-.05,1.74-1.22,3.77-2.1,5.95-2.56.02,0,.04-.01.07-.02.26-.05.52-.09.79-.14.23-.04.46-.07.69-.09.19-.02.37-.04.56-.06.45-.04.91-.06,1.37-.06h187.69c.46,0,.92.03,1.37.06.19.02.37.04.56.06.23.03.46.06.69.09.26.04.53.08.79.14.02,0,.04.01.07.02,2.17.46,4.2,1.34,5.95,2.56.02.02.05.03.07.05.25.18.5.37.74.56.13.11.26.22.39.33.24.21.47.42.7.64.21.21.42.41.61.63.1.12.2.24.3.36.17.2.34.41.5.62.09.12.17.23.26.35.17.24.33.48.48.73.06.1.12.19.18.29.2.35.39.72.56,1.09.18.4.34.8.47,1.21.28.83.46,1.69.55,2.56.01.12.01.25.02.37.02.31.05.63.05.94v125.02c0,1.76-.37,3.47-1.1,5.08-.17.37-.36.73-.56,1.09-.06.1-.12.19-.17.28-.15.25-.31.5-.48.74-.08.12-.16.23-.25.34-.16.22-.34.43-.51.64-.1.11-.19.23-.29.34-.21.23-.44.46-.67.68-.2.2-.41.39-.63.57-.13.12-.27.23-.41.35-.24.19-.48.38-.73.55-.03.02-.06.04-.08.06-1.74,1.22-3.77,2.1-5.95,2.56-.02,0-.04,0-.06.01-.26.05-.52.09-.79.14-.23.04-.46.07-.69.09-.19.02-.37.04-.56.06-.45.04-.91.06-1.37.06h-187.69Z"/>
      <g>
        <path class="cls-4" d="M377.31,191.73h-187.69c-16.87,0-30.6,12.99-30.6,28.95v125.03c0,15.96,13.73,28.95,30.6,28.95h187.69c16.87,0,30.59-12.99,30.59-28.95v-125.03c0-15.96-13.73-28.95-30.59-28.95ZM398.19,345.71c0,10.6-9.36,19.23-20.87,19.23h-187.69c-11.51,0-20.87-8.62-20.87-19.23v-125.03c0-10.6,9.36-19.23,20.87-19.23h187.69c11.51,0,20.87,8.62,20.87,19.23v125.03Z"/>
        <path class="cls-4" d="M217.27,267.61c1.03-7.17,8.52-12.05,16.69-10.88,8.18,1.17,13.99,7.96,12.97,15.13,0,.05-.03.09-.04.14,0,.05,0,.09,0,.14-1.03,7.17-8.52,12.05-16.69,10.88-8.18-1.17-13.99-7.96-12.96-15.13,0-.05.03-.09.04-.14,0-.05,0-.09,0-.14Z"/>
        <path class="cls-1" d="M233.34,250.54c-4.84,5.61-12.26,8.39-19.59,7.33-2.85-.37-6.04.59-7.19,3.04t0,0c-1.17,2.42,1.38,6,5.81,6.64,10.62,1.53,21.37-2.49,28.38-10.62,2.92-3.39,2.49-7.76.02-8.82h0c-2.48-1.09-5.52.28-7.42,2.43Z"/>
        <path class="cls-4" d="M349.25,267.61c-1.03-7.17-8.52-12.05-16.69-10.88-8.18,1.17-13.99,7.96-12.97,15.13,0,.05.03.09.04.14,0,.05,0,.09,0,.14,1.03,7.17,8.52,12.05,16.69,10.88,8.18-1.17,13.99-7.96,12.96-15.13,0-.05-.03-.09-.04-.14,0-.05,0-.09,0-.14Z"/>
        <path class="cls-1" d="M333.18,250.54c4.84,5.61,12.26,8.39,19.59,7.33,2.85-.37,6.04.59,7.19,3.04t0,0c1.17,2.42-1.38,6-5.81,6.64-10.62,1.53-21.37-2.49-28.38-10.62-2.92-3.39-2.49-7.76-.02-8.82h0c2.48-1.09,5.52.28,7.42,2.43Z"/>
        <path class="cls-4" d="M283.47,297.19c15,0,29.23,7.12,38.07,19.05,1.6,2.16,1.15,5.2-1.01,6.8-2.16,1.6-5.2,1.15-6.8-1.01-7.01-9.46-18.33-15.11-30.26-15.11s-23.25,5.65-30.26,15.12c-1.6,2.16-4.64,2.61-6.8,1.01-2.16-1.6-2.61-4.64-1.01-6.8,8.84-11.93,23.07-19.05,38.07-19.05Z"/>
      </g>
    </g>
    <g>
      <path class="cls-4" d="M383.97,331.65h-.02c-2.54,0-4.5,2.22-4.21,4.75,2.37,20.57,1.05,53.16-10.82,65.33-1.99,2.04-4.77,3.2-7.62,3-.65-.04-1.31-.16-1.94-.37-3.28-1.1-5.73-4.84-2.05-15.59.16-.48-.12-.9-.52-1.03-.24-.08-.51-.05-.75.13-1.88,1.45-4.47,3.04-6.22,2.46-.16-.05-.31-.12-.46-.22-2.97-1.88-.88-9.21,10.35-19.12,0,0,3.38-21.13,2.89-35.3-.08-2.27-1.97-4.05-4.23-4.05h-.09c-1.57,0-2.8,1.31-2.72,2.88.49,10.47-1.61,29.15-2.34,32.67-6.27,5.85-12.81,13.83-12.22,21.26.26,3.25,1.9,6.07,4.52,7.72.64.4,1.32.73,2.03.96.25.08.5.16.75.22-.05,2.87.45,5.35,1.51,7.5,1.5,3.04,4.02,5.22,7.27,6.31,1.15.39,2.4.63,3.71.72,4.9.35,9.74-1.53,13.26-5.14,6.73-6.89,10.94-16.58,12.55-28.8,1.01-7.74.35-35.03.08-43.66-.05-1.47-1.25-2.63-2.73-2.63Z"/>
      <path class="cls-2" d="M362.35,331.65c1.48,13.73-2.62,39.35-2.62,39.35-11.23,9.91-13.32,17.23-10.35,19.12.15.09.3.16.46.22,1.75.58,4.34-1,6.22-2.46.24-.18.51-.21.75-.13.39.13.68.56.52,1.03-3.69,10.74-1.24,14.49,2.05,15.59.63.21,1.29.32,1.94.37,2.85.2,5.62-.95,7.62-3,12.83-13.15,13.33-50.18,10.17-70.08h-16.75Z"/>
      <path class="cls-3" d="M362.6,335.23c.59,14.22-2.88,35.77-2.88,35.77-11.23,9.91-13.32,17.23-10.35,19.12.15.09.3.16.46.22,1.75.58,4.34-1,6.22-2.46.24-.18.51-.21.75-.13-.34-2.02,1.56-6.13,3.8-9.77,3.08-5,4.6-10.69,5.37-16.51,1.4-10.55-3.38-26.23-3.38-26.23Z"/>
    </g>
    <g>
      <path class="cls-4" d="M185.38,331.65h.02c2.54,0,4.5,2.22,4.21,4.75-2.37,20.57-1.05,53.16,10.82,65.33,1.99,2.04,4.77,3.2,7.62,3,.65-.04,1.31-.16,1.94-.37,3.28-1.1,5.73-4.84,2.05-15.59-.16-.48.12-.9.52-1.03.24-.08.51-.05.75.13,1.88,1.45,4.47,3.04,6.22,2.46.16-.05.31-.12.46-.22,2.97-1.88.88-9.21-10.35-19.12,0,0-3.38-21.13-2.89-35.3.08-2.27,1.97-4.05,4.23-4.05h.09c1.57,0,2.8,1.31,2.72,2.88-.49,10.47,1.61,29.15,2.34,32.67,6.27,5.85,12.81,13.83,12.22,21.26-.26,3.25-1.9,6.07-4.52,7.72-.64.4-1.32.73-2.03.96-.25.08-.5.16-.75.22.05,2.87-.45,5.35-1.51,7.5-1.5,3.04-4.02,5.22-7.27,6.31-1.15.39-2.4.63-3.71.72-4.9.35-9.74-1.53-13.26-5.14-6.73-6.89-10.94-16.58-12.55-28.8-1.01-7.74-.35-35.03-.08-43.66.05-1.47,1.25-2.63,2.73-2.63Z"/>
      <path class="cls-2" d="M207,331.65c-1.48,13.73,2.62,39.35,2.62,39.35,11.23,9.91,13.32,17.23,10.35,19.12-.15.09-.3.16-.46.22-1.75.58-4.34-1-6.22-2.46-.24-.18-.51-.21-.75-.13-.39.13-.68.56-.52,1.03,3.69,10.74,1.24,14.49-2.05,15.59-.63.21-1.29.32-1.94.37-2.85.2-5.62-.95-7.62-3-12.83-13.15-13.33-50.18-10.17-70.08h16.75Z"/>
      <path class="cls-3" d="M206.74,335.23c-.59,14.22,2.88,35.77,2.88,35.77,11.23,9.91,13.32,17.23,10.35,19.12-.15.09-.3.16-.46.22-1.75.58-4.34-1-6.22-2.46-.24-.18-.51-.21-.75-.13.34-2.02-1.56-6.13-3.8-9.77-3.08-5-4.6-10.69-5.37-16.51-1.4-10.55,3.38-26.23,3.38-26.23Z"/>
    </g>
  </g>
  <circle class="cls-3" cx="237.97" cy="269.88" r="4.81"/>
  <circle class="cls-3" cx="340.98" cy="269.88" r="4.81"/>
  <g>
    <path class="cls-5" d="M341.79,309.44c-1.55,0-3.19-.77-4.51-2.11-1.28-1.3-2.01-2.91-1.99-4.41.06-4.42,4.86-10.29,5.4-10.94l1.13-1.35,1.16,1.32c.58.67,5.7,6.65,5.7,10.6,0,4.25-3.58,6.89-6.89,6.89Z"/>
    <path class="cls-4" d="M341.85,292.95s5.33,6.11,5.33,9.61-3.06,5.39-5.39,5.39-5.03-2.61-5-5c.06-4.02,5.06-10,5.06-10M341.8,288.33l-2.25,2.7c-.95,1.14-5.69,7.05-5.75,11.88-.03,1.9.85,3.9,2.42,5.49,1.6,1.62,3.64,2.56,5.58,2.56,4.03,0,8.39-3.21,8.39-8.39,0-4.29-4.65-9.95-6.07-11.58l-2.31-2.65h0Z"/>
  </g>
</svg>