<?xml version="1.0" encoding="UTF-8"?>
<svg id="Layer_1" data-name="Layer 1" xmlns="http://www.w3.org/2000/svg" viewBox="0 0 566.93 566.93">
  <defs>
    <style>
      .cls-1 {
        fill: #7cc57b;
      }

      .cls-2 {
        fill: #fff;
      }

      .cls-3 {
        fill: #d1eefc;
      }

      .cls-4 {
        fill: #253e79;
      }

      .cls-5 {
        fill: #e4f5fd;
      }
    </style>
  </defs>
  <g>
    <ellipse class="cls-3" cx="284.46" cy="437.22" rx="107.44" ry="11.87"/>
    <g>
      <g>
        <g>
          <path class="cls-2" d="M264.82,371.79l-.19,2.87-.07,1-.02.28v.06l-.03.43-.04.47h0s-.37,5.51-.37,5.51l-.3,4.48-.03.37-.12,1.8-2.21,32.56s-.04,7.4-9.39,8.51c-3.12.37-7.82,1.19-12.18,1.19-1.38,0-2.72-.08-3.97-.28-9.28-1.52-13.33-9.15,7.99-18.29l-.97-22.32-.18-4-.17-3.93v-.07l-.11-2.37-.23-5.4-.13-2.87h22.72Z"/>
          <polygon class="cls-3" points="264.82 371.8 263.8 386.89 242.46 380.06 242.1 371.8 264.82 371.8"/>
          <path class="cls-4" d="M234.73,367.77l.19,4.34.11,2.55.35,8,.29,6.52v.14l.2,4.51.63,14.42c-4.15,2.07-7.38,4.18-9.81,6.39-5.13,4.67-5.78,9.15-5.42,12.08.41,3.37,2.36,6.37,5.49,8.45,2.18,1.45,4.87,2.45,7.99,2.95,1.56.26,3.24.38,5.12.38,3.83,0,7.66-.51,10.73-.93.84-.12,1.63-.23,2.3-.3,6.04-.72,10.85-3.61,13.54-8.15,1.82-3.08,2.13-5.96,2.18-7.14l2.77-40.81.44-6.51.16-2.38.03-.41.28-4.1h-37.57ZM264.63,374.66l-.07,1-.02.28v.06l-.03.43-.04.47h0s-.37,5.51-.37,5.51l-.3,4.48-.03.37-.12,1.8-2.21,32.56s-.04,7.4-9.39,8.51c-3.12.37-7.82,1.19-12.18,1.19-1.38,0-2.72-.08-3.97-.28-9.28-1.52-13.33-9.15,7.99-18.29l-.97-22.32-.14-3.22s.01,0,.02,0l-.33-7.15-.23-5.4-.13-2.87h22.72l-.19,2.87Z"/>
        </g>
        <g>
          <path class="cls-2" d="M302.11,371.8l1.17,17.27,2.21,32.56s.04,7.4,9.39,8.51c3.12.37,7.83,1.19,12.19,1.19,1.37,0,2.72-.08,3.96-.28,9.29-1.52,13.34-9.14-7.98-18.29l1.32-30.25.46-10.71h-22.72Z"/>
          <polygon class="cls-3" points="302.11 371.8 303.14 386.89 324.47 380.06 324.83 371.8 302.11 371.8"/>
          <path class="cls-4" d="M340.25,414.64c-2.43-2.21-5.67-4.32-9.81-6.39l1.46-33.59.11-2.55.19-4.34h-37.57l.31,4.51.16,2.38,3.22,47.32c.04,1.18.36,4.06,2.18,7.14,2.69,4.54,7.5,7.43,13.54,8.15.66.07,1.46.18,2.29.3,3.08.42,6.91.93,10.74.93,1.88,0,3.56-.12,5.12-.38,3.12-.5,5.81-1.5,7.99-2.95,3.13-2.08,5.08-5.08,5.49-8.45.36-2.93-.29-7.41-5.42-12.08ZM331.03,431.04c-1.24.2-2.59.28-3.96.28-4.36,0-9.06-.82-12.19-1.19-9.35-1.11-9.38-8.51-9.38-8.51l-2.21-32.56-.15-2.17-.83-12.23-.19-2.87h22.72l-.13,2.87-.23,5.4-.11,2.44-1.32,30.25c21.32,9.14,17.27,16.77,7.98,18.29Z"/>
        </g>
      </g>
      <g>
        <path class="cls-4" d="M189.62,359.36c-.46,0-.92-.03-1.37-.06-.19-.02-.37-.04-.56-.06-.23-.03-.46-.06-.69-.09-.26-.04-.53-.08-.79-.14-.02,0-.04,0-.06-.01-2.17-.46-4.2-1.34-5.95-2.56-.03-.02-.06-.04-.08-.06-.25-.18-.49-.36-.73-.55-.14-.11-.27-.23-.41-.35-.22-.19-.43-.37-.63-.57-.23-.22-.45-.45-.67-.68-.1-.11-.19-.23-.29-.34-.18-.21-.35-.42-.51-.64-.08-.11-.17-.23-.25-.34-.17-.24-.33-.49-.48-.74-.06-.09-.12-.19-.17-.28-.2-.35-.39-.72-.56-1.09-.73-1.62-1.1-3.32-1.1-5.08v-125.02c0-.24.02-.47.04-.7.01-.2.01-.41.03-.61.09-.87.28-1.72.55-2.55.14-.41.3-.82.48-1.22.17-.37.36-.73.56-1.09.06-.1.12-.19.18-.29.15-.25.31-.49.48-.73.08-.12.17-.24.26-.35.16-.21.33-.42.5-.62.1-.12.2-.24.3-.36.19-.22.4-.42.61-.63.22-.22.46-.43.7-.64.13-.11.26-.22.39-.33.24-.19.49-.38.74-.56.02-.02.05-.03.07-.05,1.74-1.22,3.77-2.1,5.95-2.56.02,0,.04-.01.07-.02.26-.05.52-.09.79-.14.23-.04.46-.07.69-.09.19-.02.37-.04.56-.06.45-.04.91-.06,1.37-.06h187.69c.46,0,.92.03,1.37.06.19.02.37.04.56.06.23.03.46.06.69.09.26.04.53.08.79.14.02,0,.04.01.07.02,2.17.46,4.2,1.34,5.95,2.56.02.02.05.03.07.05.25.18.5.37.74.56.13.11.26.22.39.33.24.21.47.42.7.64.21.21.42.41.61.63.1.12.2.24.3.36.17.2.34.41.5.62.09.12.17.23.26.35.17.24.33.48.48.73.06.1.12.19.18.29.2.35.39.72.56,1.09.18.4.34.8.47,1.21.28.83.46,1.69.55,2.56.01.12.01.25.02.37.02.31.05.63.05.94v125.02c0,1.76-.37,3.47-1.1,5.08-.17.37-.36.73-.56,1.09-.06.1-.12.19-.17.28-.15.25-.31.5-.48.74-.08.12-.16.23-.25.34-.16.22-.34.43-.51.64-.1.11-.19.23-.29.34-.21.23-.44.46-.67.68-.2.2-.41.39-.63.57-.13.12-.27.23-.41.35-.24.19-.48.38-.73.55-.03.02-.06.04-.08.06-1.74,1.22-3.77,2.1-5.95,2.56-.02,0-.04,0-.06.01-.26.05-.52.09-.79.14-.23.04-.46.07-.69.09-.19.02-.37.04-.56.06-.45.04-.91.06-1.37.06h-187.69Z"/>
        <g>
          <path class="cls-4" d="M212.35,364.94s-.07.07-.11.11c-1.7,1.65-3.66,2.45-6.01,2.45-1.35,0-2.37-.27-2.64-.35l-1.43-.6-1.33.11h-23.54l2.25,6.38c1.5.5,3.06.89,4.66,1.16,1.76.3,3.57.46,5.42.46h142.28l.11-2.55.32-7.17h-119.98Z"/>
          <path class="cls-4" d="M407.91,220.68v125.03c0,.22,0,.45-.02.67-.15,6.91-2.89,13.23-7.33,18.13-1.07,1.18-2.23,2.29-3.49,3.29h-.01c-5.33,4.28-12.22,6.86-19.74,6.86h-45.42l.11-2.55.32-7.17h44.99c11.51,0,20.87-8.63,20.87-19.23v-125.03c0-10.6-9.36-19.22-20.87-19.22h-187.7c-11.51,0-20.87,8.62-20.87,19.22v125.03c0,10.6,9.36,19.23,20.87,19.23h22.73s-.07.07-.11.11c-1.7,1.65-3.66,2.45-6.01,2.45-1.35,0-2.37-.27-2.64-.35l-1.43-.6-1.33.11h-23.54l2.25,6.38c-11.93-3.95-20.51-14.71-20.51-27.33v-125.03c0-15.96,13.72-28.95,30.59-28.95h187.7c16.87,0,30.59,12.99,30.59,28.95Z"/>
        </g>
      </g>
    </g>
    <g>
      <path class="cls-4" d="M204.71,316.63l.05-.06-.63-.61c-.13-.15-.27-.29-.42-.42l-4.14-4.13-47.55-47.4-6.88-6.87-.04.04-6.03-6.01c-3.45-3.44-8.04-5.34-12.91-5.33-4.87,0-9.45,1.91-12.89,5.37-3.44,3.45-5.33,8.03-5.32,12.91,0,4.86,1.9,9.44,5.36,12.88l13.72,13.67.04-.04,50.31,50.15c.45.56.96,1.07,1.53,1.52l.1.1h0c.71.55,1.53,1.01,2.4,1.36l17.21,7.27c1.29.51,2.67.77,4.06.77,3.81,0,7.4-1.95,9.59-5.19,2.12-3.15,2.56-7.08,1.17-10.51l-7.38-17.12c-.35-.85-.81-1.65-1.37-2.35ZM126.22,276.13l-6.03-6.01c-.53-.52-.97-1.1-1.33-1.71-.06-.1-.12-.21-.17-.31-.03-.05-.06-.11-.09-.16-.04-.08-.08-.16-.12-.24-.04-.08-.08-.16-.11-.24-.07-.16-.13-.32-.19-.48,0,0,0,0,0-.01-.05-.12-.09-.24-.12-.37-.01-.03-.02-.06-.03-.1-.01-.03-.02-.06-.03-.1-.04-.15-.08-.29-.11-.44-.04-.17-.07-.35-.1-.52-.03-.17-.05-.35-.07-.52-.01-.15-.02-.3-.03-.45,0-.06,0-.11,0-.17,0-.14,0-.29,0-.43,0-.08,0-.17.01-.26,0-.17.02-.35.05-.52.02-.17.05-.35.08-.52.01-.09.03-.17.05-.26.04-.17.08-.34.13-.51.04-.17.1-.34.16-.51.03-.08.06-.16.09-.25.03-.09.06-.17.1-.25.04-.08.07-.16.11-.24.08-.19.17-.36.27-.54.07-.12.13-.25.21-.36.08-.13.16-.25.24-.37.06-.09.12-.17.18-.25.04-.05.08-.1.12-.15.07-.09.13-.17.2-.25.08-.1.16-.19.24-.28.08-.09.16-.18.25-.27,1.66-1.67,3.83-2.5,6.01-2.51,2.18,0,4.36.82,6.02,2.48l6.04,6.02-10.53,10.55-1.5,1.5ZM165.38,315.09h0s-7.59-7.56-7.59-7.56l-23.85-23.77,11.98-12.02.04-.04,27.02,26.94,14.71,14.67,2.46,2.45-4.16,4.17-7.86,7.89-12.77-12.73ZM204.44,339.73c.42,1.06-.66,2.34-1.75,2.35-.16,0-.32-.03-.49-.1l-2.87-1.21-13.15-5.55,7.51-7.53,3.88-3.9,6.87,15.94Z"/>
      <g>
        <g>
          <polygon class="cls-2" points="190.17 315.76 186.02 319.93 178.16 327.82 133.95 283.75 142.09 275.59 145.93 271.73 145.97 271.69 190.17 315.76"/>
          <path class="cls-2" d="M138.25,264.08l-3.88,3.88-8.14,8.17-6.03-6.01c-2.66-2.65-3.2-6.62-1.61-9.81.39-.81.93-1.57,1.6-2.24,1.66-1.67,3.83-2.5,6.01-2.51,2.18,0,4.35.82,6.02,2.49l6.04,6.02Z"/>
          <path class="cls-2" d="M202.69,342.08c-.16,0-.32-.03-.49-.1l-2.88-1.22-13.14-5.55,11.39-11.43,6.87,15.94c.42,1.06-.67,2.35-1.76,2.35Z"/>
        </g>
        <g>
          <path class="cls-5" d="M134.37,267.96l-8.14,8.17-6.03-6.01c-2.66-2.65-3.2-6.62-1.61-9.81,1.17-.59,2.44-.87,3.71-.87,2.18,0,4.35.82,6.02,2.49l6.05,6.03Z"/>
          <polygon class="cls-5" points="142.09 275.59 186.02 319.93 178.16 327.82 133.95 283.75 142.09 275.59"/>
          <polygon class="cls-5" points="199.33 340.77 186.18 335.22 193.69 327.69 199.33 340.77"/>
        </g>
      </g>
    </g>
    <g>
      <path class="cls-4" d="M178.99,304.47c-1.66-9.16-7.25-15-15.33-16.04-1.14-.15-2.27-.23-3.37-.23-3.68,0-6.89.81-9.64,2.18-2.76,1.37-5.07,3.29-6.95,5.53l-10.09-10.09-4.9,10.13c-8.46,17.47-8.88,30.55-1.2,37.81,4.93,4.67,11.75,7.34,18.71,7.34,12.63,0,23.87-8.33,30.83-22.87,2.07-4.34,2.76-9.22,1.94-13.76ZM169.83,314.77c-6.42,13.42-15.55,18.33-23.61,18.33-5.18,0-9.92-2.03-13.21-5.15-2.12-2.01-2.95-4.9-2.98-8.14-.07-6.86,3.43-15.32,5.88-20.38l4.96,4.96c-.11.32-.21.63-.31.93-.77,2.56-1.66,5.67.92,7,.52.28.99.38,1.41.38.61,0,1.11-.23,1.49-.51.58-.45.94-1.12,1.09-1.84.6-2.93,3.64-14.15,14.82-14.15.75,0,1.53.05,2.35.16,2.76.35,4.64,1.64,5.92,3.26,1.54,1.95,2.22,4.39,2.56,6.28.54,3,.03,6.12-1.29,8.87Z"/>
      <path class="cls-2" d="M169.83,314.77c-6.42,13.42-15.55,18.33-23.61,18.33-5.18,0-9.92-2.03-13.21-5.15-2.12-2.01-2.95-4.9-2.98-8.14-.07-6.86,3.43-15.32,5.88-20.38l4.96,4.96c-.11.32-.21.63-.31.93-.77,2.56-1.66,5.67.92,7,.52.28.99.38,1.41.38.61,0,1.11-.23,1.49-.51.58-.45.94-1.12,1.09-1.84.6-2.93,3.64-14.15,14.82-14.15.75,0,1.53.05,2.35.16,2.76.35,4.64,1.64,5.92,3.26,1.54,1.95,2.22,4.39,2.56,6.28.54,3,.03,6.12-1.29,8.87Z"/>
    </g>
    <path class="cls-3" d="M169.83,314.77c-6.42,13.42-15.55,18.33-23.61,18.33-5.18,0-9.92-2.03-13.21-5.15-2.12-2.01-2.95-4.9-2.98-8.14,2.19,6.73,10.99,10.84,21.53,5.62,9.36-4.63,15.33-10.11,17-25.81,1.54,1.95,2.22,4.39,2.56,6.28.54,3,.03,6.12-1.29,8.87Z"/>
  </g>
  <g>
    <g>
      <path class="cls-1" d="M374.31,221.33c-.2-.39-.36-.87-.47-1.42-.11-.55-.16-1.21-.16-1.97,0-1.51.37-2.69,1.11-3.56.74-.87,1.75-1.3,3.01-1.3.67,0,1.21.12,1.62.35.41.23.77.57,1.1.99.16-.2.42-.39.8-.58.38-.19.77-.28,1.19-.28.97,0,1.75.33,2.35.99.6.66.9,1.52.9,2.58,0,.57-.02,1.05-.06,1.47-.04.41-.07.66-.08.73h-2.29v-.07c.01-.18.04-.48.06-.88.03-.41.04-.8.04-1.18,0-.45-.13-.83-.39-1.13-.26-.3-.55-.46-.88-.46-.2,0-.38.04-.54.12-.16.08-.28.19-.36.32l.99,3.97h-1.95l-.79-3.17c-.14-.57-.35-1-.63-1.29-.28-.3-.64-.45-1.06-.45-.46,0-.83.25-1.11.74-.28.49-.42,1.19-.42,2.07,0,.6.05,1.22.15,1.87.1.65.22,1.14.35,1.47v.06h-2.48Z"/>
      <path class="cls-1" d="M381.58,238.11c-.07-.06-.1-.15-.1-.26v-3.4c-.53.71-1.3,1.06-2.31,1.06s-1.77-.32-2.31-.97-.84-1.49-.87-2.54l-.02-.54.02-.52c.04-1.08.33-1.93.87-2.57.54-.63,1.31-.95,2.32-.95s1.85.37,2.4,1.11v-.6c0-.1.03-.18.1-.25.07-.07.15-.1.25-.1h1.2c.1,0,.19.04.26.1.07.07.1.15.1.25v9.91c0,.1-.04.18-.1.25-.07.07-.16.1-.26.1h-1.29c-.1,0-.18-.03-.25-.1ZM381,233.38c.29-.35.45-.78.47-1.28.02-.24.03-.43.03-.58,0-.14,0-.33-.03-.57-.02-.53-.17-.98-.46-1.35-.28-.37-.71-.56-1.28-.56-1.08,0-1.65.66-1.72,1.99l-.02.45.02.45c.07,1.33.64,1.99,1.72,1.99.55,0,.97-.18,1.26-.53Z"/>
      <path class="cls-1" d="M377.48,252.07c-.61-.28-1.07-.63-1.38-1.06-.3-.42-.47-.86-.49-1.31,0-.09.03-.16.1-.22.06-.05.14-.08.23-.08h1.35c.22,0,.36.1.43.3.22.72.89,1.08,2.01,1.08.61,0,1.09-.14,1.44-.43s.52-.69.52-1.22c0-1-.62-1.5-1.87-1.5h-1.54c-.11,0-.2-.03-.27-.1-.07-.07-.1-.15-.1-.25v-.63c0-.16.07-.31.21-.45l2.68-2.62h-4.28c-.1,0-.18-.04-.25-.11-.07-.07-.1-.15-.1-.25v-.99c0-.11.03-.2.1-.27.07-.07.15-.1.26-.1h6.42c.11,0,.2.04.27.1.07.07.1.16.1.27v.9c0,.15-.07.29-.19.42l-2.59,2.66h.18c.96.09,1.72.38,2.28.88.56.5.85,1.21.85,2.14,0,.66-.18,1.23-.53,1.72-.35.49-.84.87-1.47,1.13s-1.33.4-2.12.4c-.88,0-1.62-.14-2.24-.42Z"/>
      <path class="cls-1" d="M383.05,263.45c-.63.62-1.53.93-2.7.93h-4.54c-.1,0-.18-.03-.25-.1s-.1-.15-.1-.26v-3.97c0-.1.03-.19.1-.25.07-.07.15-.1.25-.1h.88c.1,0,.18.03.25.1.07.07.11.15.11.25v2.41h3.19c.64,0,1.15-.16,1.53-.48.38-.32.58-.73.58-1.23v-1.36l-6.53-1.23c-.1-.01-.19-.05-.26-.12-.07-.07-.11-.15-.11-.25v-1.18c0-.1.04-.18.11-.25s.16-.09.26-.07l6.51,1.33v-.88c0-.1.04-.18.11-.25.07-.07.15-.11.25-.11h.94c.11,0,.2.04.26.11.06.07.1.15.1.25v4.28c0,1-.32,1.81-.95,2.42Z"/>
      <path class="cls-1" d="M375.65,278.93c-.07-.07-.1-.15-.1-.25v-9.75c0-.11.03-.2.1-.27.07-.07.15-.1.26-.1h3.88c1.22,0,2.17.28,2.87.85.69.57,1.04,1.38,1.04,2.42,0,.73-.18,1.34-.53,1.83s-.85.85-1.47,1.07l2.19,3.82c.03.06.05.11.05.16,0,.09-.03.17-.1.22-.07.06-.14.09-.22.09h-1.36c-.16,0-.28-.03-.37-.1s-.16-.17-.23-.3l-1.93-3.55h-2.08v3.59c0,.1-.03.18-.1.25-.06.07-.15.1-.26.1h-1.36c-.1,0-.18-.03-.25-.1ZM379.73,273.39c.6,0,1.05-.13,1.35-.4.3-.27.46-.66.46-1.17s-.15-.9-.46-1.18c-.31-.28-.76-.42-1.35-.42h-2.11v3.17h2.11Z"/>
      <path class="cls-1" d="M375.16,292.31l-1.89.03c-.08,0-.13,0-.15-.03s-.02-.07-.02-.14v-1.13c0-.09,0-.14.03-.16.02-.01.07-.02.14-.02l1.89.03h3.77c-.02-.54-.05-.96-.09-1.24.47.04.81.08,1.01.1.37-.26.89-.69,1.56-1.3h-3.64l-1.97.03c-.08,0-.13,0-.15-.03-.02-.02-.02-.06-.02-.13v-1.12c0-.08,0-.13.03-.15.02-.02.07-.02.14-.02l1.97.03h4.4c.21,0,.36-.02.47-.06.07-.03.14-.04.19-.04.11,0,.32.15.61.46.3.33.45.56.45.69,0,.12-.08.22-.24.3-.13.07-.34.22-.61.45-1.05.86-1.89,1.5-2.53,1.9v.13h3.79l1.87-.03c.09,0,.14.01.15.04.01.02.02.07.02.15v1.13c0,.08,0,.13-.03.14s-.07.02-.15.02l-1.87-.03h-3.79v.77l.04,2.08c0,.49-.15.84-.45,1.07-.29.21-1.05.31-2.29.31-.24,0-.38-.02-.43-.07-.04-.04-.09-.17-.15-.39-.09-.37-.25-.74-.47-1.12.58.06,1.11.09,1.6.09.24,0,.4-.04.47-.12.07-.07.11-.19.11-.37v-2.24h-3.77ZM383.84,284.48l1.97-.03c.09,0,.14,0,.15.03.02.01.03.05.03.12l-.03.84v.69l.03,1.72c0,.08-.01.13-.04.15-.02.02-.07.02-.15.02h-1.24c-.08,0-.12,0-.14-.03s-.02-.07-.02-.14v-1.99h-9.47v1.99c0,.09-.01.14-.04.16-.02.01-.07.02-.15.02h-1.21c-.08,0-.13-.01-.15-.04-.02-.02-.02-.07-.02-.15l.03-1.72v-.56l-.03-.97c0-.07,0-.11.03-.12s.07-.02.15-.02l1.97.03h3.25v-.13c0-.66-.03-1.13-.1-1.42.49,0,1.03.02,1.62.07.15.01.23.07.23.15,0,.05-.03.14-.09.28-.05.15-.07.45-.07.89v.15h3.5Z"/>
      <path class="cls-1" d="M376.31,301.47c.64-.65,1.55-.97,2.74-.97h4.64c.11,0,.2.03.26.1.06.07.1.15.1.25v1.08c0,.11-.03.2-.1.26-.07.06-.15.1-.26.1h-4.57c-.69,0-1.21.19-1.57.55-.36.37-.54.91-.54,1.62s.17,1.21.5,1.55.84.51,1.52.53h1.33c.69-.01,1.21-.14,1.56-.4.35-.26.53-.62.53-1.08,0-.15-.02-.32-.07-.51-.05-.19-.11-.35-.19-.48-.03-.04-.04-.09-.04-.15,0-.08.03-.15.08-.21.06-.06.13-.09.22-.09h.82c.12,0,.22.02.3.05s.14.09.19.19c.12.19.21.4.26.62s.08.52.08.89c0,1.03-.28,1.79-.85,2.27s-1.44.74-2.62.76c-.1,0-.38.01-.84.01s-.74,0-.84-.01c-1.19-.05-2.09-.39-2.69-1.01-.61-.62-.91-1.6-.91-2.94s.32-2.35.96-2.99Z"/>
    </g>
    <path class="cls-1" d="M317.23,336.31c.2-.27.35-.59.48-.95.07-.19.12-.3.15-.34.03-.05.08-.07.15-.07.06,0,.16.01.31.04,1.91.35,3.35,1.14,4.29,2.38.75-1.16,2.09-1.95,4.01-2.38.18-.04.29-.06.33-.06.11,0,.23.13.36.39.17.34.38.63.61.87-2,.25-3.34.83-4.01,1.75h1.31l2.08-.03c.11,0,.17.05.17.15v.93c0,.08,0,.13-.03.15-.02.01-.07.02-.14.02l-2.08-.03h-1.78c-.03.17-.07.42-.1.76h1.4l2.02-.03c.08,0,.12,0,.14.03.01.02.02.06.02.13v.94c0,.1-.05.15-.16.15l-2.02-.03h-1.45c0,.14-.02.38-.02.72h1.14l1.97-.03c.09,0,.14.01.16.04.01.02.02.07.02.15l-.03.97v.96l.03.97c0,.08-.01.13-.04.15-.02.01-.07.02-.15.02l-1.97-.03h-4l-1.99.03c-.08,0-.13-.01-.15-.04-.02-.02-.02-.07-.02-.14l.03-.97v-.96l-.03-.97c0-.09,0-.14.03-.16.02-.01.07-.02.14-.02l1.99.03h1.35c0-.33,0-.57.01-.72h-1.68l-2.03.03c-.09,0-.14,0-.16-.03-.01-.01-.02-.05-.02-.12v-.94c0-.07,0-.12.03-.14s.07-.03.15-.03l2.03.03h1.74c.03-.34.07-.59.1-.76h-2.41l-2.08.03c-.1,0-.15-.06-.15-.17v-.93c0-.1.05-.15.15-.15l2.08.03h1.86c-.82-.9-2.2-1.44-4.16-1.63ZM325.12,342.84h-1.86v1.11h1.86v-1.11ZM319.76,342.84v1.11h2.02v-1.11h-2.02Z"/>
    <g>
      <path class="cls-1" d="M360.24,222.91c-.8,0-1.5-.13-2.09-.39-.59-.26-1.07-.61-1.44-1.06-.38-.45-.65-.97-.83-1.56s-.27-1.22-.27-1.9.09-1.3.27-1.9c.18-.61.46-1.13.83-1.57.38-.45.86-.81,1.45-1.07.59-.26,1.28-.39,2.08-.39.51,0,1.1.04,1.77.13.67.08,1.05.13,1.12.14v2.06h-.06c-.09-.02-.44-.08-1.05-.18-.61-.09-1.21-.14-1.8-.14s-1.09.3-1.45.9c-.36.6-.53,1.26-.53,1.98s.18,1.39.53,2c.35.61.84.91,1.45.91s1.18-.04,1.74-.12c.57-.08.93-.15,1.1-.19h.06v2.03c-.18.03-.6.09-1.28.18s-1.21.12-1.61.12ZM364.4,218.54v-1.07h1.08v1.07h-1.08Z"/>
      <path class="cls-1" d="M356.67,237.16c-.91-.82-1.44-1.96-1.58-3.41-.03-.29-.05-.72-.05-1.3s.02-1.01.05-1.26c.09-.9.35-1.7.78-2.41.43-.71,1.03-1.26,1.8-1.67.77-.4,1.69-.61,2.76-.61,3.52,0,5.38,1.56,5.58,4.69.02.36.03.64.03.85,0,.41,0,.76-.03,1.06-.04.72-.26,1.27-.66,1.66-.4.39-.9.58-1.51.58-.43,0-.79-.08-1.09-.25-.29-.17-.51-.35-.65-.55-.17.27-.39.5-.67.68-.28.18-.69.28-1.24.28-.75,0-1.34-.27-1.77-.81-.43-.54-.65-1.29-.65-2.25s.21-1.71.64-2.25c.43-.54,1.01-.82,1.75-.82.65,0,1.15.23,1.51.7v-.22c0-.11.04-.2.11-.26.07-.06.15-.1.25-.1h.6c.1,0,.18.04.25.11s.1.15.1.25v3.11c0,.37.08.65.23.84s.36.28.62.28c.32,0,.54-.11.67-.34s.19-.49.2-.79c.02-.3.03-.61.03-.93,0-.16,0-.42-.03-.78-.08-1.2-.45-2.08-1.1-2.66s-1.71-.86-3.18-.86c-1.22,0-2.16.31-2.84.93s-1.08,1.48-1.2,2.59c-.03.25-.05.64-.05,1.18s.01.94.05,1.23c.12,1.12.53,1.98,1.22,2.57s1.67.9,2.94.9c.62,0,1.13-.04,1.53-.13.4-.09.7-.19.91-.31.21-.12.43-.26.66-.44.09-.07.16-.12.22-.15.05-.03.13-.04.22-.04h.82c.1,0,.18.03.25.1.07.07.1.15.1.25,0,.05-.03.12-.09.22-1.05,1.17-2.59,1.75-4.63,1.75-1.68,0-2.97-.41-3.88-1.23ZM361.37,233.8c.2-.3.31-.75.31-1.35s-.1-1.05-.31-1.35c-.21-.3-.54-.46-1-.46-.87,0-1.3.6-1.3,1.81,0,.55.11.99.33,1.31.22.32.54.49.97.49.46,0,.79-.15,1-.45Z"/>
      <path class="cls-1" d="M362.03,254.94c-.07-.07-.1-.15-.1-.25v-8.42c0-1.42-.71-2.13-2.14-2.13h-2.1c-.1,0-.18-.03-.25-.1-.07-.07-.1-.15-.1-.25v-.88c0-.11.04-.2.1-.26.07-.06.15-.1.25-.1h2.19c1.33,0,2.32.3,2.98.89.66.59.99,1.51.99,2.76v8.5c0,.1-.03.18-.1.25-.07.07-.15.1-.26.1h-1.2c-.1,0-.18-.03-.25-.1Z"/>
      <path class="cls-1" d="M354.79,301.57c.91.5,1.64,1.01,2.2,1.52.06.05.08.09.08.12s-.03.08-.09.16l-.69.89c-.09.11-.15.16-.19.16-.03,0-.07-.02-.12-.07-.6-.59-1.33-1.13-2.19-1.62-.07-.05-.11-.09-.11-.12,0-.03.04-.08.11-.17l.67-.79c.07-.08.13-.13.18-.13.04,0,.08.02.15.05ZM355.79,305.5c.26.26.55.51.86.73.24.16.36.28.36.37,0,.05-.03.16-.08.35-.32,1.08-.74,2.22-1.27,3.42-.12.29-.19.49-.2.6-.02.13-.08.2-.18.2s-.19-.02-.3-.07c-.45-.24-.86-.49-1.24-.76.29-.39.51-.77.69-1.15.6-1.29,1.05-2.52,1.34-3.69ZM355.34,297.77c.73.42,1.47.95,2.21,1.59l.05.04v-.46c0-.08.01-.13.03-.14s.07-.02.15-.02l2.15.03h.08c0-.43-.03-.85-.08-1.26.51.01,1,.04,1.48.09.16.02.24.08.24.17,0,.03-.03.11-.08.23-.05.1-.08.36-.08.78h2.08c0-.43-.03-.85-.08-1.25.54.02,1.04.04,1.5.09.17.02.25.07.25.15,0,.06-.03.14-.09.23-.06.09-.09.35-.09.78h.45l2.16-.03c.1,0,.15.05.15.16v.93c0,.09-.01.14-.03.16-.02.01-.06.02-.12.02l-2.16-.03h-.45l.03.68c0,.08-.01.13-.03.15-.02.02-.07.02-.15.02h-1.18c-.09,0-.15,0-.17-.03-.02-.02-.02-.07-.02-.14,0-.02,0-.1,0-.24.01-.16.02-.31.02-.43h-2.08l.03.68c0,.07-.01.12-.03.13-.03.01-.08.02-.16.02h-1.18c-.12,0-.18-.05-.18-.15,0-.02,0-.11.02-.25,0-.16.01-.3.02-.43h-.08l-2.15.03c-.09,0-.14-.01-.15-.04-.02-.02-.02-.07-.02-.15v-.3l-.06.08-.67.87c-.09.1-.15.15-.19.15-.03,0-.07-.03-.12-.07-.68-.67-1.4-1.23-2.17-1.69-.08-.04-.11-.07-.11-.1,0-.03.04-.08.11-.16l.66-.8c.08-.08.14-.13.18-.13.03,0,.07.01.13.04ZM368.01,309.89c-.2.27-.37.59-.5.96-.07.19-.12.31-.15.35-.04.05-.09.07-.16.07-.06,0-.17-.01-.33-.04-2-.35-3.49-1.15-4.48-2.4-.78,1.16-2.18,1.96-4.19,2.4-.19.04-.3.06-.34.06-.12,0-.24-.13-.37-.39-.18-.34-.39-.63-.64-.87,2.09-.25,3.49-.84,4.19-1.76h-1.37l-2.17.03c-.12,0-.18-.05-.18-.15v-.93c0-.08.01-.13.03-.15.02-.01.07-.02.15-.02l2.17.03h1.86c.04-.17.07-.42.11-.76h-1.46l-2.12.03c-.08,0-.13-.01-.15-.03-.02-.02-.02-.06-.02-.13v-.94c0-.1.06-.15.17-.15l2.12.03h1.52c.01-.14.02-.38.02-.72h-1.19l-2.06.03c-.09,0-.15-.01-.17-.04-.02-.02-.02-.07-.02-.15l.03-.98v-.97l-.03-.98c0-.08.01-.13.04-.15.02-.01.07-.02.15-.02l2.06.03h4.18l2.08-.03c.09,0,.14.01.15.04.02.02.02.07.02.14l-.03.98v.97l.03.98c0,.09-.01.14-.03.16-.02.01-.07.02-.15.02l-2.08-.03h-1.41c0,.33,0,.57-.02.72h1.76l2.12-.03c.09,0,.15.01.17.03.02.01.02.05.02.12v.94c0,.07-.01.12-.03.14-.02.02-.07.03-.16.03l-2.12-.03h-1.82c-.04.34-.07.59-.11.76h2.52l2.17-.03c.11,0,.16.06.16.17v.93c0,.1-.05.15-.16.15l-2.17-.03h-1.94c.85.91,2.3,1.45,4.34,1.64ZM359.77,303.33h1.94v-1.12h-1.94v1.12ZM365.37,303.33v-1.12h-2.11v1.12h2.11Z"/>
      <path class="cls-1" d="M361.68,278.24c-.07-.07-.11-.16-.11-.26v-1.93h-4.96c-.11,0-.19-.03-.27-.11s-.11-.16-.11-.26v-1.02c0-.16.06-.31.17-.45l4.61-6.16c.05-.08.13-.14.23-.19.1-.05.22-.07.34-.07h1.7c.11,0,.21.03.27.1.07.07.1.15.1.26v6.11h1.39c.11,0,.21.03.28.1.07.06.11.15.11.26v1.05c0,.1-.04.19-.11.26-.07.07-.16.11-.27.11h-1.41v1.93c0,.1-.03.19-.1.26-.07.07-.16.11-.27.11h-1.36c-.1,0-.19-.03-.27-.11ZM361.61,274.34v-4.35l-3.2,4.35h3.2Z"/>
      <path class="cls-1" d="M358.92,292.47v.56c0,.1-.03.19-.1.26-.07.07-.16.11-.27.11h-1.23c-.1,0-.19-.03-.27-.11-.07-.07-.11-.16-.11-.26v-9.97c0-.11.04-.2.11-.26.07-.06.16-.1.27-.1h1.33c.11,0,.21.03.27.1.07.07.1.15.1.26v3.34c.59-.66,1.4-.99,2.41-.99s1.86.33,2.42.99c.56.66.86,1.52.91,2.57.01.12.02.28.02.48s0,.38-.02.5c-.04,1.08-.34,1.95-.91,2.6s-1.37.98-2.42.98-1.91-.36-2.5-1.07ZM362.64,289.93c.01-.1.02-.25.02-.45s0-.35-.02-.45c-.07-1.33-.67-2-1.8-2-.58,0-1.03.18-1.34.53s-.47.79-.49,1.29l-.02.57.02.59c.03.54.19,1,.48,1.37.29.37.74.56,1.34.56,1.13,0,1.73-.67,1.8-2Z"/>
    </g>
    <g>
      <path class="cls-1" d="M337.08,220.45c.07-.07.15-.1.25-.1h4.46c1.42,0,2.13-.71,2.13-2.13v-4.78c0-.1.03-.18.1-.25.07-.07.15-.11.25-.11h.88c.11,0,.2.04.26.11.06.07.1.15.1.25v4.85c0,2.64-1.24,3.97-3.71,3.97h-4.48c-.1,0-.18-.03-.25-.1s-.1-.15-.1-.26v-1.2c0-.1.03-.18.1-.25ZM337.08,213.19c.07-.07.15-.11.25-.11h4.7c.11,0,.2.04.26.11.06.07.1.15.1.25v1.2c0,.11-.03.2-.1.26-.07.06-.15.1-.26.1h-4.7c-.1,0-.18-.03-.25-.1-.07-.07-.1-.15-.1-.26v-1.2c0-.1.03-.18.1-.25Z"/>
      <path class="cls-1" d="M340.31,225.69v-1.36h1.91v1.37c1.41.15,2.5.65,3.25,1.5.68.76,1.02,1.71,1.02,2.87,0,1.34-.44,2.41-1.32,3.2-.75.67-1.73,1.07-2.95,1.2v1.47h-1.91v-1.45c-1.42-.13-2.52-.62-3.29-1.48-.68-.77-1.02-1.73-1.02-2.91,0-1.35.44-2.42,1.33-3.22.75-.67,1.74-1.07,2.98-1.2ZM340.31,227.11c-.79.16-1.4.51-1.81,1.07-.37.5-.56,1.14-.56,1.91,0,.89.24,1.6.72,2.13.4.44.95.73,1.65.85v-5.96ZM342.23,233.06c.78-.15,1.37-.5,1.77-1.07.36-.5.54-1.14.54-1.91,0-.87-.23-1.57-.69-2.09-.39-.44-.93-.73-1.61-.86v5.93Z"/>
      <path class="cls-1" d="M343.74,312.71c.52.04.99.06,1.42.06.21,0,.34-.04.41-.12.06-.07.09-.2.09-.38v-6.42h-3.76v6.12l.03,2.03c0,.09-.01.14-.04.16-.01.01-.06.02-.13.02h-1.26c-.08,0-.12-.01-.14-.04-.02-.02-.02-.07-.02-.15l.03-2.03v-6.12h-3.49v6.31l.03,2.01c0,.08-.01.12-.04.14-.02.01-.06.02-.13.02h-1.26c-.08,0-.12,0-.14-.03-.01-.02-.02-.06-.02-.13l.03-2.1v-5.3l-.03-2.13c0-.08,0-.12.03-.14.02-.01.06-.02.13-.02l2.05.03h2.83v-1.59h-3.84l-1.86.03c-.07,0-.11,0-.12-.03-.02-.02-.02-.07-.02-.15v-1.12c0-.11.05-.17.15-.17l1.86.03h9.46l1.84-.03c.1,0,.15.06.15.17v1.12c0,.09-.01.14-.03.16-.01.01-.05.02-.12.02l-1.84-.03h-4.09v1.59h3.1l2.05-.03c.08,0,.13,0,.15.03.02.02.02.06.02.13l-.03,2.23v4.04l.04,1.77c0,.53-.13.92-.39,1.17-.28.25-.98.37-2.12.37-.23,0-.38-.03-.44-.08-.06-.05-.11-.19-.15-.4-.09-.41-.22-.75-.39-1.03ZM338.38,309.57c.57.41,1.08.87,1.54,1.39.04.05.07.09.07.12,0,.04-.04.1-.12.18l-.69.69c-.07.07-.13.1-.18.1s-.09-.03-.14-.09c-.53-.67-1.04-1.18-1.51-1.54-.05-.05-.08-.09-.08-.12,0-.03.04-.09.13-.15l.64-.56c.08-.07.15-.1.19-.1.03,0,.09.02.15.07ZM338.39,306.59c.66.49,1.18.95,1.56,1.37.05.05.07.09.07.12,0,.04-.04.1-.13.19l-.66.6c-.09.08-.15.12-.19.12-.03,0-.07-.03-.12-.09-.49-.56-1-1.05-1.53-1.46-.06-.04-.09-.08-.09-.12,0-.03.04-.08.12-.15l.67-.57c.06-.05.11-.07.15-.07s.09.02.15.06ZM343.45,306.6c.71.51,1.28.99,1.71,1.44.05.05.07.09.07.12,0,.04-.05.11-.14.2l-.63.61c-.08.08-.15.12-.19.12-.03,0-.08-.03-.12-.08-.56-.61-1.12-1.12-1.69-1.53-.06-.04-.09-.08-.09-.11,0-.03.04-.09.13-.18l.66-.58c.06-.05.11-.08.15-.08s.09.02.14.06ZM343.45,309.45c.64.44,1.2.89,1.66,1.36.05.05.08.09.08.12,0,.05-.04.12-.12.2l-.61.64c-.09.09-.15.13-.19.13-.04,0-.09-.03-.14-.09-.55-.61-1.09-1.12-1.63-1.51-.05-.04-.08-.08-.08-.11s.04-.09.12-.16l.57-.53c.08-.07.14-.11.19-.11.04,0,.09.02.15.07Z"/>
      <path class="cls-1" d="M337.92,296.4c-.07-.07-.14-.16-.19-.28l-2.14-6.95s-.01-.07-.01-.13c0-.09.03-.17.1-.23s.14-.1.22-.1h1.11c.11,0,.2.03.27.09.07.06.11.12.13.19l1.47,4.96,1.56-4.91c.03-.09.08-.17.16-.23s.17-.1.29-.1h.75c.12,0,.22.03.29.1.08.07.13.14.16.23l1.56,4.91,1.47-4.96c0-.07.05-.13.13-.19.07-.06.16-.09.26-.09h1.11c.09,0,.17.03.23.1s.1.14.1.23l-.03.13-2.14,6.95c-.04.12-.1.21-.17.28-.07.06-.18.1-.31.1h-.97c-.26,0-.42-.12-.49-.37l-1.56-4.73-1.56,4.73c-.08.25-.25.37-.51.37h-.96c-.13,0-.23-.03-.31-.1Z"/>
      <path class="cls-1" d="M342.06,283.06c-.07-.07-.1-.15-.1-.25v-7.75l-2.28,1.75c-.06.05-.13.07-.21.07-.12,0-.22-.05-.3-.17l-.63-.81c-.05-.08-.07-.16-.07-.22,0-.12.05-.22.17-.3l3.35-2.59c.09-.07.21-.1.37-.1h1.32c.11,0,.2.03.26.1.06.07.1.15.1.26v9.76c0,.1-.03.18-.1.25-.07.07-.15.1-.26.1h-1.36c-.1,0-.19-.03-.25-.1Z"/>
      <path class="cls-1" d="M263.75,338.85c-.61,0-1.2-.07-1.74-.22-.55-.14-1.02-.35-1.4-.62-.4-.29-.72-.63-.94-1.03-.22-.4-.33-.87-.33-1.42s.11-1.02.32-1.46c.21-.44.46-.75.76-.94-.37-.27-.64-.61-.81-1.02-.18-.41-.26-.85-.26-1.34,0-.29.07-.57.2-.84.13-.26.3-.48.52-.63-1.14-.17-2.05-.71-2.74-1.61-.69-.9-1.03-2-1.03-3.3,0-.68.1-1.31.31-1.89.21-.58.51-1.08.91-1.51.4-.42.9-.75,1.51-.99s1.3-.37,2.07-.37c.72,0,1.34.04,1.85.12s.83.13.95.15v2.08h-.04c-.06-.02-.41-.08-1.05-.17-.64-.09-1.2-.14-1.67-.14-.65,0-1.18.26-1.58.78-.4.52-.6,1.17-.6,1.95,0,.86.25,1.56.75,2.09.5.53,1.16.8,1.97.8.68,0,1.33-.02,1.96-.05s.97-.06,1.02-.06v2.23c-.85,0-1.5.13-1.97.38-.47.26-.7.59-.7,1s.15.72.45.97c.3.25.68.38,1.14.38h1.08v2.03h-1.1c-.42,0-.78.1-1.08.31-.3.2-.45.49-.45.86,0,.42.14.77.42,1.05.28.28.72.42,1.32.42h2.14v2.03h-2.14ZM266.41,330.29v-1.08h1.08v1.08h-1.08ZM266.41,332.46v-1.08h1.08v1.08h-1.08ZM267.93,331.37v-1.08h1.08v1.08h-1.08Z"/>
      <path class="cls-1" d="M260.4,352.2c-.61-.28-1.07-.63-1.38-1.06-.3-.42-.47-.86-.49-1.31,0-.09.03-.16.1-.22.06-.05.14-.08.23-.08h1.35c.22,0,.36.1.43.3.22.72.89,1.08,2.01,1.08.61,0,1.09-.14,1.44-.43.35-.28.52-.69.52-1.22,0-1-.62-1.5-1.87-1.5h-1.54c-.11,0-.2-.04-.27-.11-.07-.07-.1-.15-.1-.25v-.63c0-.16.07-.31.21-.45l2.68-2.62h-4.28c-.1,0-.18-.03-.25-.1s-.1-.15-.1-.25v-.99c0-.11.03-.2.1-.27.07-.07.15-.1.26-.1h6.42c.11,0,.2.04.27.1.07.07.1.16.1.27v.9c0,.15-.07.29-.19.42l-2.59,2.66.18.02c.96.08,1.72.37,2.28.87.56.5.85,1.21.85,2.14,0,.66-.18,1.23-.53,1.72-.35.49-.84.87-1.47,1.13-.62.26-1.33.4-2.12.4-.88,0-1.62-.14-2.24-.42Z"/>
    </g>
    <g>
      <path class="cls-1" d="M321.01,224.85c-.55,0-1.08-.14-1.59-.42-.51-.28-.93-.65-1.27-1.11-.37-.49-.65-1.06-.85-1.7s-.3-1.37-.3-2.16v-6.38h2.63v2.1l.23.23h8.52v2.02h-5.96c.59.52,1.09,1.15,1.48,1.88.39.73.59,1.47.59,2.23,0,.97-.32,1.76-.96,2.39-.64.63-1.48.94-2.51.94ZM321.04,222.83c.32,0,.59-.11.8-.34.21-.23.32-.55.32-.95,0-.45-.09-.87-.26-1.28s-.39-.78-.64-1.13c-.22-.31-.48-.6-.76-.87s-.57-.53-.88-.77v1.44c0,.68.04,1.28.12,1.79.08.51.19.91.32,1.22.13.3.28.52.45.68.17.15.34.23.53.23Z"/>
      <path class="cls-1" d="M317.56,238.38c-.07-.06-.1-.13-.1-.22l.03-.13,3.61-9.66c.07-.25.24-.37.52-.37h1.63c.26,0,.43.12.52.37l3.19,9s.02.07.02.13c0,.09-.03.16-.09.22-.06.06-.13.09-.21.09h-1.3c-.13,0-.23-.03-.3-.09s-.12-.12-.13-.19l-.29-1.17h-4.45l-.7,1.83c-.08.19-.22.28-.43.28h-1.3c-.08,0-.15-.03-.22-.09ZM324.14,234.64l-1.71-4.63-1.69,4.63h3.4Z"/>
      <path class="cls-1" d="M317.48,273.93c.07-.07.15-.1.25-.1h7.07c.1,0,.18.03.25.1s.1.15.1.25v1.23c0,.1-.03.18-.1.25s-.15.1-.25.1h-.61c.75.59,1.12,1.42,1.12,2.5,0,.92-.3,1.65-.91,2.19-.6.54-1.42.81-2.46.81h-4.21c-.1,0-.18-.03-.25-.1s-.1-.15-.1-.26v-1.32c0-.1.03-.19.1-.25.07-.07.15-.11.25-.11h4.12c.59,0,1.05-.14,1.37-.43.32-.28.49-.7.49-1.24s-.17-.94-.49-1.25c-.33-.31-.78-.46-1.36-.46h-4.12c-.1,0-.18-.03-.25-.1-.07-.06-.1-.15-.1-.26v-1.32c0-.1.03-.18.1-.25ZM326.29,277.88c.05-.14.13-.29.23-.45,0-.02.05-.09.12-.21.06-.12.09-.24.09-.36,0-.09-.02-.16-.06-.21s-.1-.1-.18-.17c-.08-.05-.14-.09-.17-.13-.03-.04-.05-.09-.05-.17v-.69c0-.07.02-.13.07-.18s.11-.07.18-.07c.23,0,.47.05.72.16s.46.27.63.49.25.49.25.81c0,.2-.03.37-.08.51s-.13.29-.23.45c-.05.09-.1.18-.14.28-.04.09-.07.19-.07.29,0,.09.02.16.07.22.05.05.11.11.19.16.07.05.12.09.16.14.04.04.05.09.05.16v.69c0,.08-.03.14-.08.19s-.12.07-.19.07c-.23,0-.47-.05-.71-.16-.24-.11-.45-.28-.63-.49-.17-.22-.26-.49-.26-.81,0-.19.03-.35.08-.49Z"/>
      <path class="cls-1" d="M328.61,318.45c.2-.39.36-.87.47-1.42.11-.55.16-1.21.16-1.97,0-1.51-.37-2.69-1.11-3.56-.74-.87-1.75-1.3-3.01-1.3-.67,0-1.21.12-1.62.35-.41.23-.77.57-1.1.99-.16-.2-.42-.39-.8-.58-.38-.19-.77-.28-1.19-.28-.97,0-1.75.33-2.35.99-.6.66-.9,1.52-.9,2.58,0,.57.02,1.05.06,1.47.04.41.07.66.08.73h2.29v-.07c-.01-.18-.04-.47-.06-.88-.03-.41-.04-.8-.04-1.18,0-.45.13-.83.39-1.13.26-.31.55-.46.88-.46.2,0,.38.04.54.12.16.08.28.19.36.32l-.99,3.97h1.95l.79-3.17c.14-.57.35-1,.63-1.29s.64-.45,1.06-.45c.46,0,.83.25,1.11.74.28.49.42,1.18.42,2.07,0,.6-.05,1.22-.15,1.87-.1.65-.22,1.14-.35,1.47v.06h2.48ZM315.41,314.66v-1.08h-1.08v1.08h1.08Z"/>
      <path class="cls-1" d="M319.24,331.16c-.76-.65-1.17-1.56-1.22-2.72,0-.27-.01-.69-.01-1.28s0-1.01.01-1.28c.05-1.13.46-2.03,1.23-2.67s1.83-.97,3.18-.97c.92,0,1.71.14,2.36.43.66.28,1.16.64,1.5,1.06.34.43.52.84.54,1.26v.03c0,.07-.03.13-.09.18-.06.05-.14.08-.22.08h-1.54c-.1,0-.17-.02-.22-.05-.05-.03-.09-.09-.13-.17-.14-.34-.38-.63-.73-.87s-.83-.36-1.45-.36c-.7,0-1.25.17-1.64.52-.39.35-.61.88-.64,1.61,0,.27-.01.67-.01,1.21s0,.93.01,1.21c.06,1.46.83,2.18,2.31,2.18.71,0,1.28-.18,1.71-.53.43-.35.64-.88.64-1.57v-.42h-1.83c-.11,0-.2-.03-.26-.1-.07-.06-.1-.15-.1-.25v-.73c0-.1.03-.18.1-.25s.15-.1.26-.1h3.58c.11,0,.2.03.26.1.07.06.1.15.1.25v1.44c0,.76-.18,1.42-.55,1.98-.36.56-.89,1-1.56,1.3-.68.3-1.47.45-2.38.45-1.37,0-2.43-.32-3.2-.97Z"/>
    </g>
    <g>
      <path class="cls-1" d="M304.26,220.24c-.63.62-1.53.93-2.7.93h-4.54c-.1,0-.18-.03-.25-.1s-.1-.15-.1-.26v-3.97c0-.1.03-.19.1-.25.07-.07.15-.1.25-.1h.88c.1,0,.18.03.25.1.07.07.11.15.11.25v2.41h3.19c.64,0,1.15-.16,1.53-.48.38-.32.58-.73.58-1.23v-1.36l-6.53-1.23c-.1-.01-.19-.05-.26-.12-.07-.07-.11-.15-.11-.25v-1.18c0-.1.04-.18.11-.25s.16-.09.26-.07l6.51,1.33v-.88c0-.1.04-.18.11-.25.07-.07.15-.11.25-.11h.94c.11,0,.2.04.26.11.06.07.1.15.1.25v4.28c0,1-.32,1.81-.95,2.42Z"/>
      <path class="cls-1" d="M306.37,235.03h-4.68v-3.39c.27-.2.5-.39.67-.55.18-.16.32-.34.45-.54.15-.24.26-.49.33-.77.08-.27.11-.64.11-1.1,0-.83-.21-1.49-.62-1.98-.41-.48-.98-.73-1.69-.73s-1.24.23-1.67.7c-.43.47-.64,1.14-.64,2,0,.42.04.78.12,1.08.08.3.19.56.33.79.13.2.28.39.47.56.19.17.4.35.65.54v3.39h-4.68v-2.05h2.35v-.73c-.57-.41-1.05-.95-1.45-1.61-.4-.66-.6-1.4-.6-2.21,0-1.37.47-2.46,1.4-3.28.94-.82,2.18-1.23,3.73-1.23s2.85.41,3.76,1.24c.91.83,1.37,1.91,1.37,3.26,0,.85-.2,1.59-.6,2.22-.4.63-.88,1.17-1.45,1.61v.73h2.35v2.05Z"/>
      <path class="cls-1" d="M308.19,249.45c0,.09-.03.17-.1.24-.07.07-.15.1-.25.1h-1.53c-.19,0-.34-.08-.46-.25l-2.57-4.12h-1.33v4.03c0,.1-.04.18-.1.25-.07.07-.16.1-.26.1h-1.3c-.1,0-.19-.04-.25-.1-.07-.07-.11-.15-.11-.25v-4.01h-1.35l-2.56,4.12c-.1.17-.25.25-.45.25h-1.54c-.09,0-.17-.04-.23-.1-.07-.07-.1-.15-.1-.24,0-.08,0-.13.03-.16l3.11-4.91-2.83-4.57s-.06-.11-.06-.18c0-.09.03-.16.08-.22.05-.06.13-.09.23-.09h1.47c.25,0,.43.09.54.27l2.41,3.98h1.24v-3.89c0-.1.04-.18.11-.25.07-.07.15-.1.25-.1h1.3c.11,0,.2.03.26.1.07.06.1.15.1.26v3.88h1.23s2.43-3.97,2.43-3.97c.11-.18.29-.27.54-.27h1.48c.1,0,.18.03.23.09s.08.13.08.22c0,.04-.02.1-.06.18l-2.83,4.57,3.11,4.91s.03.08.03.16Z"/>
      <path class="cls-1" d="M298.81,263.66c-.06-.07-.09-.14-.09-.23,0-.03,0-.07.03-.13l3.61-8.23h-4.7c-.1,0-.19-.03-.25-.1-.07-.07-.11-.15-.11-.25v-1.05c0-.11.03-.2.1-.27.06-.07.15-.1.26-.1h6.57c.11,0,.2.04.26.1.06.07.1.16.1.27v.93c0,.2-.05.41-.13.64l-3.58,8.17c-.11.24-.27.36-.48.36h-1.36c-.09,0-.16-.03-.22-.1Z"/>
      <path class="cls-1" d="M296.38,275.04l-1.89.03c-.08,0-.13,0-.15-.03s-.02-.07-.02-.14v-1.13c0-.09,0-.14.03-.16.02-.01.07-.02.14-.02l1.89.03h3.77c-.02-.54-.05-.96-.09-1.24.47.04.81.08,1.01.1.37-.26.89-.69,1.56-1.3h-3.64l-1.97.03c-.08,0-.13,0-.15-.03-.02-.02-.02-.06-.02-.13v-1.12c0-.08,0-.13.03-.15.02-.01.07-.02.14-.02l1.97.03h4.4c.21,0,.36-.02.47-.06.07-.03.14-.04.19-.04.11,0,.32.15.61.46.3.33.45.56.45.69,0,.12-.08.22-.24.3-.13.07-.34.22-.61.45-1.05.86-1.89,1.5-2.53,1.9v.13h3.79l1.87-.03c.09,0,.14.01.15.04.01.02.02.07.02.15v1.13c0,.08,0,.13-.03.14s-.07.02-.15.02l-1.87-.03h-3.79v.77l.04,2.08c0,.49-.15.84-.45,1.07-.29.21-1.05.31-2.29.31-.24,0-.38-.02-.43-.07-.04-.04-.09-.17-.15-.39-.09-.37-.25-.74-.47-1.12.58.06,1.11.09,1.6.09.24,0,.4-.04.47-.12.07-.07.11-.19.11-.37v-2.24h-3.77ZM305.06,267.21l1.97-.03c.09,0,.14.01.15.03.02.01.03.05.03.12l-.03.84v.69l.03,1.72c0,.08-.01.13-.04.15-.02.02-.07.02-.15.02h-1.24c-.08,0-.12,0-.14-.03s-.02-.07-.02-.14v-1.99h-9.47v1.99c0,.09-.01.14-.04.16-.02.01-.07.02-.15.02h-1.21c-.08,0-.13-.01-.15-.04-.02-.02-.02-.07-.02-.15l.03-1.72v-.56l-.03-.97c0-.07,0-.11.03-.12s.07-.02.15-.02l1.97.03h3.25v-.13c0-.66-.03-1.13-.1-1.43.49,0,1.03.02,1.62.07.15.01.23.07.23.15,0,.05-.03.14-.09.28-.05.15-.07.45-.07.89v.15h3.5Z"/>
      <path class="cls-1" d="M302.45,289.5v-.97c0-.94-.07-1.77-.2-2.48s-.32-1.31-.56-1.79c-.24-.47-.53-.82-.87-1.04-.34-.23-.71-.34-1.12-.34-.57,0-1.04.24-1.4.73-.36.48-.54,1.17-.54,2.04,0,.63.06,1.26.18,1.87.12.61.29,1.15.51,1.6v.07h-2.53c-.25-.46-.45-.99-.58-1.61-.13-.61-.2-1.25-.2-1.91,0-1.35.42-2.48,1.25-3.4.84-.92,1.93-1.39,3.29-1.39.55,0,1.07.13,1.55.38.48.26.92.62,1.3,1.09.38.46.69,1.03.94,1.69.24.66.4,1.41.47,2.23.09-.3.2-.9.33-1.8.13-.9.19-1.74.19-2.51v-.49h2.26v.61c0,1.1-.21,2.29-.62,3.58-.41,1.28-.98,2.43-1.7,3.42v.42h-1.97ZM299.39,285.92v-1.08h1.08v1.08h-1.08Z"/>
      <path class="cls-1" d="M298.76,334.8c-.59-.28-1.05-.65-1.36-1.11-.31-.46-.48-.95-.5-1.48v-.03c0-.08.03-.14.09-.19.06-.05.14-.07.22-.07h1.39c.23,0,.38.1.45.3.14.44.37.76.7.97.32.21.71.31,1.14.31.56,0,1.03-.17,1.4-.51s.56-.81.56-1.42c0-.54-.19-.98-.56-1.32-.37-.34-.84-.51-1.4-.51-.3,0-.54.04-.73.12-.19.08-.37.19-.55.33-.12.09-.21.15-.28.19-.07.04-.14.05-.23.05h-1.38c-.09,0-.17-.03-.23-.1-.07-.06-.1-.14-.1-.23l.52-9.12c0-.12.05-.22.13-.29s.17-.11.29-.11h5.63c.1,0,.18.04.25.1.07.07.11.16.11.25v1c0,.1-.04.18-.11.25s-.15.1-.25.1h-4.33l-.24,6.44c.49-.34,1.14-.51,1.96-.51.65,0,1.25.14,1.8.41.55.27,1,.67,1.32,1.18s.49,1.11.49,1.79c0,.73-.17,1.37-.51,1.91-.34.54-.82.96-1.43,1.26-.61.29-1.33.44-2.15.44s-1.54-.14-2.13-.42Z"/>
      <path class="cls-1" d="M296.98,348.73c-.09,0-.17-.03-.22-.1-.06-.07-.09-.14-.09-.22v-1.26c0-.1.02-.18.06-.25.04-.07.09-.12.14-.16.04-.04.06-.07.07-.07l4.48-5.48c-.27-.35-.77-1.12-1.13-1.24-.36-.12-.77-.17-1.2-.17h-2.04c-.11,0-.2-.03-.27-.1-.07-.07-.1-.15-.1-.26v-1.02c0-.1.03-.19.1-.26s.16-.1.27-.1h2.05c.8,0,1.47.12,2.01.34.54.23,1.16,1.19,1.61,1.84l1.95-1.99c.09-.05.17-.07.24-.07.09,0,.16.03.22.09s.09.13.09.21v1.21c0,.18-.09.34-.28.48l-4.41,4.86c.24.39,1,1.56,1.28,1.66.28.1.65.16,1.09.16h1.95c.11,0,.2.03.27.1.07.06.1.15.1.26v1.06c0,.11-.03.2-.1.27-.07.07-.16.1-.27.1h-2.02c-.66,0-1.24-.12-1.74-.36-.5-.24-1.13-1.47-1.56-2.16l-2.3,2.52c-.08.06-.16.09-.24.09Z"/>
    </g>
    <g>
      <path class="cls-1" d="M277.18,223.46c-.07-.07-.1-.15-.1-.25v-9.74c0-.11.03-.2.1-.27.06-.07.15-.1.26-.1h1.32c.11,0,.2.04.27.1.07.07.11.16.11.27v3.5l3.38-3.61c.13-.18.32-.27.58-.27h1.48c.08,0,.15.03.22.09s.1.13.1.22c0,.07-.02.13-.06.18l-4.12,4.52,4.4,4.95c.05.06.07.12.07.19,0,.09-.03.16-.1.22s-.14.09-.22.09h-1.54c-.25,0-.44-.09-.58-.27l-3.62-3.97v3.88c0,.11-.03.2-.11.26-.07.07-.16.1-.27.1h-1.32c-.1,0-.18-.04-.25-.1Z"/>
      <path class="cls-1" d="M279.1,238.43c-.06-.06-.09-.14-.09-.23,0-.07.02-.13.06-.19l2.2-3.04c-.22.05-.42.07-.61.06-.67-.02-1.28-.18-1.83-.49s-.98-.73-1.29-1.26c-.31-.53-.47-1.11-.47-1.74s.15-1.22.46-1.77.77-1,1.38-1.35c.61-.34,1.34-.52,2.2-.52s1.6.16,2.22.49c.62.32,1.08.76,1.4,1.3s.47,1.14.47,1.79c0,.4-.07.78-.2,1.14-.13.36-.28.67-.44.94-.17.26-.4.61-.69,1.03l-2.64,3.65c-.06.09-.13.16-.2.22-.07.06-.18.08-.31.08h-1.39c-.09,0-.16-.03-.22-.1ZM282.51,232.92c.37-.34.56-.81.56-1.38s-.19-1.04-.56-1.39c-.38-.35-.84-.52-1.39-.52s-1.01.17-1.39.52c-.37.35-.56.81-.56,1.39s.18,1.04.55,1.38c.37.34.83.52,1.39.52s1.01-.17,1.39-.52Z"/>
      <path class="cls-1" d="M283.59,245.4c-.33,0-.59.04-.79.11s-.33.2-.39.38l-.13.48c-.03.08-.09.14-.17.19-.08.04-.18.07-.29.07h-.63c-.11.01-.19-.04-.25-.15-.06-.11-.07-.22-.05-.34l.12-.7c.09-.5.36-.9.82-1.2.46-.3,1.08-.45,1.87-.45h2.28c.11,0,.2.04.26.1.06.07.1.15.1.25v2.65c0,1.28-.33,2.23-.99,2.86-.66.63-1.59.95-2.78.97h-6.27c-.1.01-.18-.02-.25-.09-.07-.07-.11-.15-.11-.25v-1.15c0-.1.03-.18.1-.25.07-.07.15-.11.26-.11h6.24c1.44-.02,2.16-.74,2.16-2.16v-1.21h-1.09Z"/>
      <path class="cls-1" d="M275.33,287.2c.87.5,1.57,1,2.11,1.51.05.05.08.09.08.12s-.03.08-.09.16l-.66.88c-.08.11-.14.16-.18.16-.03,0-.07-.02-.12-.07-.57-.58-1.27-1.12-2.1-1.61-.07-.05-.1-.09-.1-.12,0-.02.03-.08.1-.17l.64-.79c.07-.08.13-.12.18-.12.03,0,.08.02.14.05ZM276.29,291.1c.25.26.52.5.83.72.23.16.34.28.34.37,0,.05-.02.16-.07.34-.3,1.08-.71,2.21-1.21,3.41-.12.29-.18.49-.19.6-.02.13-.08.2-.17.2-.09,0-.18-.02-.28-.07-.43-.23-.82-.49-1.18-.76.27-.38.49-.77.66-1.14.57-1.28,1-2.5,1.29-3.67ZM275.86,283.41c.7.41,1.41.94,2.11,1.59l.04.04v-.45c0-.08.01-.12.03-.14.02-.01.07-.02.14-.02l2.06.03h.07c0-.42-.02-.84-.07-1.26.49.01.96.04,1.42.09.15.02.23.08.23.17,0,.03-.02.11-.07.23-.05.1-.07.36-.07.77h1.99c0-.43-.02-.84-.07-1.24.52.01.99.04,1.43.09.16.02.24.07.24.15,0,.06-.03.13-.09.23-.06.09-.09.35-.09.77h.43l2.07-.03c.1,0,.15.05.15.16v.93c0,.09,0,.14-.03.16-.02.01-.05.02-.12.02l-2.07-.03h-.43l.03.67c0,.08,0,.13-.03.15-.02.01-.07.02-.14.02h-1.13c-.09,0-.14,0-.16-.03-.01-.02-.02-.07-.02-.14,0-.02,0-.1,0-.24,0-.16.02-.31.02-.43h-1.99l.03.67c0,.07,0,.12-.03.13-.02.02-.08.02-.15.02h-1.13c-.11,0-.17-.05-.17-.15,0-.02,0-.11.01-.25,0-.16,0-.3.02-.42h-.07l-2.06.03c-.08,0-.13-.01-.15-.04-.01-.02-.02-.07-.02-.15v-.3l-.06.08-.64.87c-.08.1-.14.15-.18.15-.02,0-.06-.02-.12-.07-.65-.67-1.35-1.23-2.08-1.68-.07-.04-.11-.07-.11-.1,0-.02.03-.08.1-.16l.63-.8c.08-.08.14-.12.18-.12.03,0,.07.01.12.04ZM287.99,295.47c-.2.27-.35.59-.48.95-.07.19-.12.3-.15.34-.03.05-.08.07-.15.07-.06,0-.16-.01-.31-.04-1.91-.35-3.35-1.14-4.29-2.38-.75,1.16-2.09,1.95-4.01,2.38-.18.04-.29.06-.33.06-.11,0-.23-.13-.36-.39-.17-.34-.38-.63-.61-.87,2-.25,3.34-.83,4.01-1.75h-1.31l-2.08.03c-.11,0-.17-.05-.17-.15v-.93c0-.08,0-.13.03-.15.02-.01.07-.02.14-.02l2.08.03h1.78c.03-.17.07-.42.1-.76h-1.4l-2.02.03c-.08,0-.12,0-.14-.03-.01-.02-.02-.06-.02-.13v-.94c0-.1.05-.15.16-.15l2.02.03h1.45c0-.14.02-.38.02-.72h-1.14l-1.97.03c-.09,0-.14-.01-.16-.04-.01-.02-.02-.07-.02-.15l.03-.97v-.96l-.03-.97c0-.08.01-.13.04-.15.02-.01.07-.02.15-.02l1.97.03h4l1.99-.03c.08,0,.13.01.15.04.02.02.02.07.02.14l-.03.97v.96l.03.97c0,.09,0,.14-.03.16-.02.01-.07.02-.14.02l-1.99-.03h-1.35c0,.33,0,.57-.01.72h1.68l2.03-.03c.09,0,.14,0,.16.03.01.01.02.05.02.12v.94c0,.07,0,.12-.03.14s-.07.03-.15.03l-2.03-.03h-1.74c-.03.34-.07.59-.1.76h2.41l2.08-.03c.1,0,.15.06.15.17v.93c0,.1-.05.15-.15.15l-2.08-.03h-1.86c.82.9,2.2,1.44,4.16,1.63ZM280.1,288.94h1.86v-1.11h-1.86v1.11ZM285.46,288.94v-1.11h-2.02v1.11h2.02Z"/>
      <path class="cls-1" d="M279.86,280.4c-.07-.07-.1-.15-.1-.25v-6.84h-1.21c-.1,0-.18-.04-.25-.11-.07-.07-.11-.16-.11-.26v-.85c0-.1.04-.18.11-.25.07-.07.15-.1.25-.1h1.21v-.61c0-1.79.98-2.68,2.93-2.68h1.02c.11,0,.2.03.26.1.06.07.1.15.1.26v.85c0,.11-.03.2-.1.27-.07.07-.15.1-.25.1h-.96c-.39,0-.66.09-.82.28-.16.19-.23.48-.23.88v.54h1.86c.11,0,.2.03.26.1.06.07.1.15.1.26v.85c0,.11-.03.2-.1.27-.07.07-.15.1-.25.1h-1.86v6.84c0,.1-.04.18-.1.25-.07.07-.16.1-.26.1h-1.23c-.1,0-.19-.03-.25-.1Z"/>
      <path class="cls-1" d="M275.72,263.76c-.2-.39-.36-.87-.47-1.42-.11-.55-.16-1.21-.16-1.97,0-1.51.37-2.69,1.11-3.56s1.75-1.3,3.01-1.3c.67,0,1.21.12,1.62.35.41.23.77.57,1.1.99.16-.2.42-.39.8-.58.38-.19.77-.28,1.19-.28.97,0,1.75.33,2.35.99.6.66.9,1.52.9,2.58,0,.57-.02,1.05-.06,1.47-.04.41-.07.66-.08.73h-2.29v-.07c.01-.18.04-.47.06-.88.03-.41.04-.8.04-1.18,0-.45-.13-.83-.39-1.13-.26-.31-.55-.46-.88-.46-.2,0-.38.04-.54.12-.16.08-.28.19-.36.32l.99,3.97h-1.95l-.79-3.17c-.14-.57-.35-1-.63-1.29s-.64-.45-1.06-.45c-.46,0-.83.25-1.11.74-.28.49-.42,1.18-.42,2.07,0,.6.05,1.22.15,1.87s.22,1.14.35,1.47v.06h-2.48Z"/>
      <path class="cls-1" d="M278.26,335.06c-.54-.65-.83-1.51-.87-2.59v-.49s0-.48,0-.48c.03-1.05.32-1.9.86-2.56.54-.66,1.32-.99,2.33-.99s1.74.33,2.31.99v-5.18c0-.11.03-.2.1-.26.07-.06.16-.1.26-.1h1.27c.11,0,.2.03.26.1.06.07.1.15.1.26v11.77c0,.1-.03.18-.1.25-.07.07-.15.1-.26.1h-1.18c-.1,0-.19-.03-.26-.1s-.1-.15-.1-.25v-.55c-.57.71-1.37,1.06-2.4,1.06s-1.78-.32-2.32-.97ZM282.42,333.88c.28-.37.43-.82.46-1.36,0-.12.02-.31.02-.58s0-.45-.02-.57c-.02-.5-.18-.93-.47-1.28s-.72-.53-1.28-.53c-1.08,0-1.65.66-1.72,1.99v.45s0,.45,0,.45c.07,1.33.64,1.99,1.72,1.99.58,0,1.01-.19,1.29-.55Z"/>
    </g>
    <g>
      <path class="cls-1" d="M256.74,217.98v-1.08h1.08v1.08h-1.08ZM256.74,219.94v-1.08h1.08v1.08h-1.08ZM265.67,225.79v-.07c.14-.26.27-.69.39-1.29s.18-1.19.18-1.78c0-.5-.06-.88-.18-1.16-.12-.28-.28-.41-.48-.41-.18,0-.34.26-.5.77-.16.52-.33,1.06-.52,1.62-.09.27-.21.55-.34.85-.14.3-.29.56-.46.8-.17.22-.36.4-.58.54-.22.14-.46.21-.73.21-1.14,0-2.03-.66-2.68-1.97-.64-1.31-.96-3.22-.96-5.72,0-1.72.31-3.01.93-3.85.62-.84,1.6-1.26,2.95-1.26.61,0,1.16.04,1.65.11.49.07.76.11.82.12v1.99h-.13c-.08-.02-.38-.06-.89-.11s-.99-.08-1.43-.08c-.4,0-.71.21-.92.63-.21.42-.32,1.25-.32,2.49,0,1.86.07,3.26.22,4.21s.4,1.42.75,1.42c.17,0,.33-.18.47-.55.14-.37.31-.91.51-1.63.09-.32.21-.65.36-1s.31-.63.48-.85c.16-.22.36-.4.58-.54.23-.14.48-.21.77-.21.83,0,1.53.34,2.1,1.01.57.67.86,1.54.86,2.62,0,.62-.05,1.21-.16,1.77-.11.55-.23,1-.37,1.35h-2.36Z"/>
      <path class="cls-1" d="M259.42,238.56c-.76-.71-1.17-1.7-1.22-2.96-.01-.29-.01-.75-.01-1.39s0-1.1.01-1.39c.05-1.24.46-2.21,1.24-2.91.77-.7,1.83-1.06,3.18-1.06.92,0,1.71.15,2.36.46.66.31,1.16.7,1.5,1.16.34.46.52.92.54,1.37v.03c0,.08-.03.15-.09.2s-.13.08-.22.08h-1.54c-.1,0-.17-.02-.22-.05-.05-.03-.09-.1-.13-.19-.14-.37-.38-.69-.73-.95-.35-.26-.83-.4-1.45-.4-.7,0-1.24.19-1.64.57-.39.38-.61.96-.64,1.75-.01.29-.01.73-.01,1.32s0,1.02.01,1.32c.06,1.59.83,2.38,2.3,2.38.71,0,1.28-.19,1.71-.58.43-.38.64-.96.64-1.71v-.46h-1.83c-.11,0-.2-.04-.26-.11-.07-.07-.1-.16-.1-.27v-.79c0-.11.03-.2.1-.27.06-.07.15-.11.26-.11h3.58c.11,0,.2.04.26.11.06.07.1.16.1.27v1.57c0,.83-.18,1.55-.55,2.16-.36.61-.89,1.09-1.56,1.41-.68.33-1.47.49-2.38.49-1.37,0-2.43-.35-3.2-1.06Z"/>
      <path class="cls-1" d="M263.46,251.34c-.07-.07-.1-.15-.1-.25v-6.75l-2.28,1.75c-.06.05-.13.07-.21.07-.12,0-.22-.05-.3-.17l-.63-.81c-.05-.08-.07-.15-.07-.22,0-.12.05-.22.16-.3l3.35-2.59c.09-.07.21-.1.37-.1h1.32c.11,0,.2.03.26.1.06.06.1.15.1.26v8.76c0,.1-.03.18-.1.25-.07.07-.15.1-.26.1h-1.36c-.1,0-.18-.04-.25-.1Z"/>
      <path class="cls-1" d="M265.05,260.08c-.61.56-1.58.84-2.92.84s-2.3-.34-3.06-1.03c-.76-.69-1.3-1.57-1.62-2.63l-.19-.61c-.02-.1,0-.19.07-.27s.15-.12.25-.12h1.09c.09,0,.17.03.25.1.08.06.14.15.18.26l.21.52c.23.58.55,1.03.97,1.34.42.31,1.03.47,1.83.47.55,0,.98-.06,1.29-.19s.54-.33.68-.63c.14-.29.21-.71.21-1.23v-2.12c.01-.11.05-.2.11-.26.06-.07.15-.1.25-.1h3.02c.11,0,.2.04.26.1.06.07.1.16.1.26v1.09c0,.11-.03.2-.1.26-.06.06-.15.1-.26.1h-1.72v1.03c0,1.33-.3,2.27-.91,2.83Z"/>
      <path class="cls-1" d="M259.42,273.43c-.76-.71-1.17-1.7-1.22-2.96-.01-.29-.01-.75-.01-1.39s0-1.1.01-1.39c.05-1.24.46-2.21,1.24-2.91.77-.7,1.83-1.06,3.18-1.06.92,0,1.71.15,2.36.46.66.31,1.16.7,1.5,1.16s.52.92.54,1.37v.03c0,.08-.03.15-.09.2-.06.06-.13.08-.22.08h-1.54c-.1,0-.17-.02-.22-.05-.05-.04-.09-.1-.13-.19-.14-.37-.38-.69-.73-.95-.35-.26-.83-.4-1.45-.4-.7,0-1.24.19-1.64.57-.39.38-.61.96-.64,1.75-.01.29-.01.73-.01,1.32s0,1.02.01,1.32c.06,1.59.83,2.38,2.3,2.38.71,0,1.28-.19,1.71-.58.43-.38.64-.96.64-1.71v-.46h-1.83c-.11,0-.2-.04-.26-.1-.07-.07-.1-.16-.1-.27v-.79c0-.11.03-.2.1-.27.06-.07.15-.1.26-.1h3.58c.11,0,.2.03.26.1.06.07.1.16.1.27v1.57c0,.83-.18,1.55-.55,2.16-.36.61-.89,1.09-1.56,1.41-.68.33-1.47.49-2.38.49-1.37,0-2.43-.35-3.2-1.06Z"/>
      <path class="cls-1" d="M266.88,286.78c-.07.06-.15.1-.26.1h-4.04c-.86,0-1.61-.19-2.26-.56-.65-.37-1.15-.89-1.49-1.54s-.51-1.39-.5-2.21v-1.27c0-.73.15-1.37.46-1.92.3-.55.73-.98,1.26-1.29.54-.3,1.14-.46,1.81-.46h4.76c.11,0,.2.03.26.1.06.07.1.15.1.25v1.08c0,.1-.04.19-.1.26-.07.07-.15.1-.25.1l-3.92.03c.06.72.28,1.22.67,1.51s.92.43,1.61.43h1.63c.11,0,.2.03.27.1.07.07.1.15.1.25v1.08c0,.1-.04.19-.1.26-.07.07-.16.1-.27.1h-1.68c-1.05,0-1.89-.3-2.54-.91-.64-.6-1.01-1.47-1.09-2.61-.45.19-.79.47-1.03.85-.23.37-.35.81-.35,1.31v.42c-.01.57.1,1.07.33,1.5.23.43.55.76.97.99.42.23.9.34,1.44.34h3.95c.1,0,.18.03.25.1.07.07.1.16.1.27v1.06c0,.11-.03.2-.1.26Z"/>
    </g>
    <g>
      <path class="cls-1" d="M218.44,314.79v-1.08h1.08v1.08h-1.08ZM218.44,316.75v-1.08h1.08v1.08h-1.08ZM227.38,322.6v-.07c.14-.26.27-.69.39-1.29s.18-1.19.18-1.78c0-.5-.06-.88-.18-1.16-.12-.28-.28-.41-.48-.41-.18,0-.34.26-.5.77-.16.52-.33,1.06-.52,1.62-.09.27-.21.55-.34.85-.14.3-.29.56-.46.8-.17.22-.36.4-.58.54-.22.14-.46.21-.73.21-1.14,0-2.03-.66-2.68-1.97-.64-1.31-.96-3.22-.96-5.72,0-1.72.31-3.01.93-3.85.62-.84,1.6-1.26,2.95-1.26.61,0,1.16.04,1.65.11.49.07.76.11.82.12v1.99h-.13c-.08-.02-.38-.06-.89-.11s-.99-.08-1.43-.08c-.4,0-.71.21-.92.63-.21.42-.32,1.25-.32,2.49,0,1.86.07,3.26.22,4.21s.4,1.42.75,1.42c.17,0,.33-.18.47-.55.14-.37.31-.91.51-1.63.09-.32.21-.65.36-1s.31-.63.48-.85c.16-.22.36-.4.58-.54.23-.14.48-.21.77-.21.83,0,1.53.34,2.1,1.01.57.67.86,1.54.86,2.62,0,.62-.05,1.21-.16,1.77-.11.55-.23,1-.37,1.35h-2.36Z"/>
      <path class="cls-1" d="M221.13,335.37c-.76-.71-1.17-1.7-1.22-2.96-.01-.29-.01-.75-.01-1.39s0-1.1.01-1.39c.05-1.24.46-2.21,1.24-2.91.77-.7,1.83-1.06,3.18-1.06.92,0,1.71.15,2.36.46.66.31,1.16.7,1.5,1.16.34.46.52.92.54,1.37v.03c0,.08-.03.15-.09.2s-.13.08-.22.08h-1.54c-.1,0-.17-.02-.22-.05-.05-.03-.09-.1-.13-.19-.14-.37-.38-.69-.73-.95-.35-.26-.83-.4-1.45-.4-.7,0-1.24.19-1.64.57-.39.38-.61.96-.64,1.75-.01.29-.01.73-.01,1.32s0,1.02.01,1.32c.06,1.59.83,2.38,2.3,2.38.71,0,1.28-.19,1.71-.58.43-.38.64-.96.64-1.71v-.46h-1.83c-.11,0-.2-.04-.26-.11-.07-.07-.1-.16-.1-.27v-.79c0-.11.03-.2.1-.27.06-.07.15-.11.26-.11h3.58c.11,0,.2.04.26.11.06.07.1.16.1.27v1.57c0,.83-.18,1.55-.55,2.16-.36.61-.89,1.09-1.56,1.41-.68.33-1.47.49-2.38.49-1.37,0-2.43-.35-3.2-1.06Z"/>
      <path class="cls-1" d="M225.17,351.15c-.07-.07-.1-.15-.1-.25v-7.75l-2.28,1.75c-.06.05-.13.07-.21.07-.12,0-.22-.05-.3-.17l-.63-.81c-.05-.08-.07-.15-.07-.22,0-.12.05-.22.16-.3l3.35-2.59c.09-.07.21-.1.37-.1h1.32c.11,0,.2.03.26.1.06.06.1.15.1.26v9.76c0,.1-.03.18-.1.25-.07.07-.15.1-.26.1h-1.36c-.1,0-.18-.04-.25-.1Z"/>
    </g>
    <g>
      <path class="cls-1" d="M336.31,324.66v-1.08h1.08v1.08h-1.08ZM336.31,326.62v-1.08h1.08v1.08h-1.08ZM345.25,332.47v-.07c.14-.26.27-.69.39-1.29s.18-1.19.18-1.78c0-.5-.06-.88-.18-1.16-.12-.28-.28-.41-.48-.41-.18,0-.34.26-.5.77-.16.52-.33,1.06-.52,1.62-.09.27-.21.55-.34.85-.14.3-.29.56-.46.8-.17.22-.36.4-.58.54-.22.14-.46.21-.73.21-1.14,0-2.03-.66-2.68-1.97-.64-1.31-.96-3.22-.96-5.72,0-1.72.31-3.01.93-3.85.62-.84,1.6-1.26,2.95-1.26.61,0,1.16.04,1.65.11.49.07.76.11.82.12v1.99h-.13c-.08-.02-.38-.06-.89-.11s-.99-.08-1.43-.08c-.4,0-.71.21-.92.63-.21.42-.32,1.25-.32,2.49,0,1.86.07,3.26.22,4.21s.4,1.42.75,1.42c.17,0,.33-.18.47-.55.14-.37.31-.91.51-1.63.09-.32.21-.65.36-1s.31-.63.48-.85c.16-.22.36-.4.58-.54.23-.14.48-.21.77-.21.83,0,1.53.34,2.1,1.01.57.67.86,1.54.86,2.62,0,.62-.05,1.21-.16,1.77-.11.55-.23,1-.37,1.35h-2.36Z"/>
      <path class="cls-1" d="M339,345.24c-.76-.71-1.17-1.7-1.22-2.96-.01-.29-.01-.75-.01-1.39s0-1.1.01-1.39c.05-1.24.46-2.21,1.24-2.91.77-.7,1.83-1.06,3.18-1.06.92,0,1.71.15,2.36.46.66.31,1.16.7,1.5,1.16.34.46.52.92.54,1.37v.03c0,.08-.03.15-.09.2s-.13.08-.22.08h-1.54c-.1,0-.17-.02-.22-.05-.05-.03-.09-.1-.13-.19-.14-.37-.38-.69-.73-.95-.35-.26-.83-.4-1.45-.4-.7,0-1.24.19-1.64.57-.39.38-.61.96-.64,1.75-.01.29-.01.73-.01,1.32s0,1.02.01,1.32c.06,1.59.83,2.38,2.3,2.38.71,0,1.28-.19,1.71-.58.43-.38.64-.96.64-1.71v-.46h-1.83c-.11,0-.2-.04-.26-.11-.07-.07-.1-.16-.1-.27v-.79c0-.11.03-.2.1-.27.06-.07.15-.11.26-.11h3.58c.11,0,.2.04.26.11.06.07.1.16.1.27v1.57c0,.83-.18,1.55-.55,2.16-.36.61-.89,1.09-1.56,1.41-.68.33-1.47.49-2.38.49-1.37,0-2.43-.35-3.2-1.06Z"/>
    </g>
    <g>
      <path class="cls-1" d="M242.1,214.68l3.27,3.57-4.04,3.84h6.6v1.6h-8.71v-1.42l3.91-3.66-3.68-4.12v-1.42h8.3v1.6h-5.64Z"/>
      <path class="cls-1" d="M236.74,236.93c-.2-.39-.36-.87-.47-1.42-.11-.55-.16-1.21-.16-1.97,0-1.51.37-2.69,1.11-3.56s1.75-1.3,3.01-1.3c.67,0,1.21.12,1.62.35.41.23.77.57,1.1.99.16-.2.42-.39.8-.58s.77-.28,1.19-.28c.96,0,1.75.33,2.35.99.6.66.9,1.52.9,2.58,0,.57-.02,1.05-.06,1.47-.04.41-.07,5.65-.08,5.72h-2.29v-5.07c.01-.18.04-.48.06-.88s.04-.8.04-1.18c0-.45-.13-.83-.39-1.13-.26-.3-.55-.46-.88-.46-.2,0-.39.04-.54.12s-.28.19-.36.32l.99,3.97h-1.95l-.79-3.17c-.14-.57-.35-1-.63-1.29-.28-.3-.64-.45-1.06-.45-.46,0-.83.25-1.11.74s-.42,1.19-.42,2.07c0,.6.05,1.22.15,1.87.1.65.22,1.14.35,1.47v.06h-2.48ZM249.94,233.14v-1.08h1.08v1.08h-1.08Z"/>
      <path class="cls-1" d="M239.4,279.79c.07-.07.15-.1.25-.1h4.46c1.42,0,2.13-.71,2.13-2.12v-3.1c0-.1.04-.19.11-.25.07-.07.15-.11.25-.11h.88c.11,0,.2.04.26.11.06.07.1.15.1.25v3.17c0,2.64-1.24,3.97-3.71,3.97h-4.48c-.1,0-.18-.03-.25-.1-.07-.07-.1-.15-.1-.26v-1.2c0-.1.04-.18.1-.25ZM239.4,274.21c.07-.07.15-.11.25-.11h4.7c.11,0,.2.04.26.11.06.07.1.15.1.25v1.2c0,.11-.03.2-.1.26-.07.07-.15.1-.26.1h-4.7c-.1,0-.18-.03-.25-.1-.07-.07-.1-.15-.1-.26v-1.2c0-.1.04-.19.1-.25Z"/>
      <path class="cls-1" d="M239.24,318.11c-.07-.07-.14-.16-.19-.28l-2.14-6.95s-.02-.07-.02-.13c0-.09.03-.17.1-.23s.14-.1.22-.1h1.11c.11,0,.2.03.27.09.07.06.11.12.13.19l1.47,4.96,1.56-4.91c.03-.09.08-.17.16-.23s.17-.1.29-.1h.75c.12,0,.22.03.29.1s.13.14.16.23l1.56,4.91,1.47-4.96c.01-.07.05-.13.13-.19.07-.06.16-.09.26-.09h1.11c.09,0,.17.03.23.1.07.07.1.14.1.23l-.03.13-2.14,6.95c-.04.12-.1.21-.17.28-.07.06-.18.1-.31.1h-.97c-.26,0-.42-.12-.49-.37l-1.56-4.73-1.56,4.73c-.08.25-.25.37-.51.37h-.96c-.13,0-.23-.03-.31-.1Z"/>
      <path class="cls-1" d="M247.33,324.98v-1.08h1.08v1.08h-1.08ZM247.33,327.14v-1.08h1.08v1.08h-1.08ZM248.85,326.06v-1.08h1.08v1.08h-1.08Z"/>
      <path class="cls-1" d="M245.92,326.41c-.07.07-.15.1-.25.1h-4.46c-1.42,0-2.13.71-2.13,2.14v2.1c0,.1-.04.18-.11.25-.07.07-.15.1-.25.1h-.88c-.11,0-.2-.03-.26-.1-.06-.07-.1-.15-.1-.25v-2.19c0-1.33.3-2.32.89-2.98.59-.66,1.51-.99,2.76-.99h4.54c.1,0,.18.03.25.1.07.07.1.15.1.26v1.2c0,.1-.04.18-.1.25Z"/>
    </g>
    <g>
      <path class="cls-1" d="M226.8,224.59c-.08-.07-.16-.15-.23-.25l-.55-.75c-.46.18-.99.27-1.6.27-1.36,0-2.41-.34-3.17-1.03-.76-.69-1.16-1.71-1.21-3.07-.01-.29-.01-.71-.01-1.27s0-1,.01-1.29c.04-1.33.45-2.35,1.24-3.05.78-.71,1.83-1.06,3.15-1.06s2.37.35,3.14,1.06c.78.71,1.19,1.73,1.23,3.05.02.58.03,1.01.03,1.29s-.01.69-.03,1.27c-.04,1.3-.4,2.29-1.08,2.98l1.05,1.48c.03.06.05.11.05.15v.03c0,.08-.03.15-.09.2-.06.05-.13.08-.21.08h-1.39c-.12,0-.22-.03-.31-.1ZM226.01,221.53c.39-.4.61-1.02.64-1.85.02-.6.03-1,.03-1.21,0-.23-.01-.63-.03-1.21-.03-.83-.24-1.44-.64-1.85-.4-.4-.93-.61-1.59-.61s-1.2.2-1.6.61c-.4.4-.61,1.02-.64,1.85-.01.29-.02.69-.02,1.21s0,.91.02,1.21c.03.83.24,1.44.64,1.85.4.4.93.61,1.6.61s1.2-.2,1.59-.61Z"/>
      <path class="cls-1" d="M221.44,235.05c-.65-.66-1.01-1.53-1.07-2.6-.01-.24-.01-.65-.01-1.23s0-1.01.01-1.26c.05-1.05.41-1.91,1.08-2.57.67-.66,1.66-.99,2.96-.99s2.31.33,2.98.99c.67.66,1.02,1.52,1.06,2.57.02.25.03.67.03,1.26s-.01.99-.03,1.23c-.05,1.07-.4,1.94-1.06,2.6-.65.66-1.65.99-2.99.99s-2.32-.33-2.97-.99ZM225.82,233.95c.31-.37.47-.89.49-1.56.02-.52.03-.91.03-1.18,0-.29-.01-.68-.03-1.17-.02-.66-.19-1.18-.49-1.55-.31-.38-.78-.56-1.41-.56s-1.09.19-1.4.56c-.31.38-.48.89-.5,1.55-.01.24-.01.63-.01,1.17s0,.92.01,1.18c.02.67.19,1.19.5,1.56.31.37.78.56,1.4.56s1.1-.18,1.41-.56Z"/>
      <path class="cls-1" d="M219.54,282.68c-.07-.06-.1-.13-.1-.22l.03-.13,3.61-9.66c.07-.25.24-.37.52-.37h1.63c.26,0,.43.12.52.37l3.61,9.66s.01.07.01.13c0,.09-.03.17-.09.22-.06.06-.13.09-.21.09h-1.3c-.13,0-.23-.03-.3-.09-.07-.06-.11-.12-.13-.19l-.7-1.83h-4.45l-.7,1.83c-.08.19-.22.28-.43.28h-1.3c-.08,0-.15-.03-.22-.09ZM226.12,278.94l-1.71-4.63-1.69,4.63h3.4Z"/>
      <path class="cls-1" d="M220.25,284.83c.07-.07.15-.11.25-.11h.88c.1,0,.18.04.25.11.07.07.1.15.1.25v4.03h3.2c1.43,0,2.14-.71,2.14-2.13v-1.75c0-.1.04-.19.11-.25.07-.07.15-.11.25-.11h.88c.11,0,.2.04.26.11.06.07.1.15.1.25v1.83c0,1.34-.3,2.35-.91,3.02-.6.68-1.54,1.02-2.81,1.02h-3.23v.54c0,.1-.04.18-.1.25-.07.07-.15.1-.25.1h-.88c-.1,0-.18-.03-.25-.1-.07-.07-.1-.15-.1-.26v-6.56c0-.1.04-.19.1-.25Z"/>
      <path class="cls-1" d="M222.23,294.27c.8.1,1.38.21,1.75.34.18.06.27.15.27.27,0,.1-.02.18-.07.24-.1.12-.17.3-.21.54-.01.08-.04.21-.07.4-.02.14-.04.26-.06.34,1.32-.13,2.61-.34,3.9-.63.04,0,.07-.01.1-.01.08,0,.13.06.15.17.1.42.15.76.15,1.02,0,.16-.11.26-.31.3-1.46.3-2.87.51-4.25.63-.06.61-.1,1.12-.11,1.51.6-.21,1.37-.31,2.3-.33.16-.42.24-.79.25-1.1.65.2,1.09.38,1.33.56.18.12.27.23.27.33,0,.06-.03.12-.09.18-.04.04-.11.14-.19.29,1.04.28,1.83.76,2.35,1.45.47.61.71,1.34.71,2.21,0,1.11-.45,2.05-1.34,2.82-.71.62-1.65,1.08-2.82,1.4-.1.03-.19.04-.25.04-.17,0-.3-.11-.41-.32s-.4-.52-.88-.93c.56-.12,1.12-.29,1.68-.53.47-.19.83-.38,1.1-.57.8-.58,1.2-1.33,1.2-2.24,0-.6-.21-1.11-.62-1.51-.32-.31-.73-.53-1.23-.66-.79,1.51-1.74,2.82-2.83,3.92.03.11.12.33.26.68.03.06.04.11.04.15,0,.07-.05.14-.16.22-.3.22-.6.39-.9.52-.06.03-.11.05-.15.05-.05,0-.1-.04-.15-.12-.09-.16-.18-.35-.25-.58-1.04.72-1.91,1.08-2.61,1.08-.55,0-.97-.19-1.26-.56-.26-.33-.39-.76-.39-1.3,0-.97.4-1.93,1.19-2.86.64-.75,1.41-1.34,2.31-1.79.01-.54.04-1.16.07-1.87-.37.01-.7.02-1,.02h-.53c-.45,0-.74-.02-.86-.04-.17-.02-.26-.13-.27-.34-.02-.13-.03-.32-.04-.57-.01-.29-.02-.48-.03-.57.46.05.98.08,1.58.08.1,0,.54,0,1.32-.01.08-.73.12-1.27.12-1.64,0-.23-.02-.45-.07-.67ZM221.93,301.35c-.63.45-1.12.94-1.46,1.48-.31.49-.47.95-.47,1.4,0,.19.06.33.17.44.09.09.2.13.33.13.42,0,1-.29,1.73-.87-.18-1.06-.28-1.92-.3-2.57ZM223.58,302.92c.69-.79,1.26-1.65,1.73-2.59-.63.02-1.27.13-1.91.34.01.83.08,1.58.18,2.24Z"/>
    </g>
    <g>
      <path class="cls-1" d="M210.97,213.08l-3.74,7.89h-2.85l-3.74-7.89h2.84l2.37,5.35,2.37-5.35h2.76Z"/>
      <path class="cls-1" d="M206.25,246.79v-.96c0-.94-.07-1.77-.2-2.48-.13-.71-.32-1.31-.56-1.79-.24-.47-.53-.82-.87-1.05-.34-.23-.71-.34-1.12-.34-.57,0-1.04.24-1.4.73s-.54,1.17-.54,2.04c0,.63.06,1.26.18,1.87s.29,1.15.51,1.6v.07h-2.53c-.25-.46-.45-.99-.58-1.61-.13-.61-.2-1.25-.2-1.91,0-1.35.42-2.48,1.25-3.4.84-.92,1.93-1.39,3.29-1.39.55,0,1.07.13,1.55.38.48.26.92.62,1.3,1.09.38.46.69,1.03.94,1.69.24.67.4,1.41.47,2.23.09-.3.2-.9.33-1.8.13-.9.19-1.74.19-2.51v-.49h2.26v.61c0,1.1-.21,2.29-.62,3.58-.41,1.28-.98,2.43-1.7,3.42v.42h-1.97ZM211.97,241.85v-1.08h1.08v1.08h-1.08Z"/>
      <path class="cls-1" d="M210.94,231.86c.38.49.7,1.02.97,1.59.03.06.04.11.04.13,0,.03-.06.08-.18.15l-.09.06c.19.1.43.17.69.23.22.04.34.15.34.34,0,.04,0,.1,0,.15-.09.69-.31,1.15-.66,1.39-.26.18-.62.3-1.07.37-.47.07-1.19.1-2.15.1-1.36,0-2.25-.1-2.66-.3-.36-.17-.54-.55-.54-1.14v-4.07h-.94c-.11,1.59-.57,2.84-1.4,3.76-.67.75-1.65,1.35-2.93,1.8-.23.07-.36.1-.39.1-.08,0-.19-.1-.31-.31-.2-.34-.45-.65-.76-.93,1.54-.37,2.63-.89,3.25-1.56.61-.66.95-1.62,1.02-2.86h-.2l-2.08.03c-.08,0-.13,0-.15-.03-.01-.02-.02-.07-.02-.14l.03-1.52v-2.89l-.03-1.54c0-.08,0-.12.03-.14.02-.01.07-.02.14-.02l2.08.03h1.18c.14-.26.28-.58.42-.96.13-.34.2-.62.23-.83.65.07,1.18.14,1.59.23.12.03.18.09.18.18,0,.08-.04.16-.12.22-.11.09-.18.2-.23.31-.2.44-.33.72-.4.84h2.95l2.08-.03c.08,0,.13,0,.15.03.01.02.02.06.02.13l-.03,1.54v2.89l.03,1.52c0,.08,0,.13-.03.14s-.06.03-.14.03l-2.08-.03h-1.62v3.4c0,.36.08.57.23.65.12.07.61.1,1.46.1,1.29,0,2.03-.07,2.21-.21.17-.14.27-.41.3-.81l-.18.1c-.06.03-.1.05-.14.05-.05,0-.09-.05-.13-.14l-.11-.26c-.69.19-1.5.37-2.42.53-.15.02-.28.07-.37.15-.08.06-.15.09-.2.09-.08,0-.13-.08-.17-.26-.11-.43-.2-.78-.25-1.05.2,0,.35,0,.45-.01.13-.32.29-.76.48-1.31.09-.26.15-.55.18-.86.57.08.98.16,1.24.22.1.03.15.09.15.17,0,.07-.05.14-.14.2-.04.04-.1.17-.19.37-.11.29-.26.64-.45,1.05l1.23-.23c-.07-.14-.19-.31-.36-.53-.04-.05-.06-.09-.06-.12,0-.03.05-.07.16-.12l.57-.27c.05-.02.1-.04.13-.04.05,0,.1.05.17.14ZM202.23,227.14h2.83v-1.26h-2.83v1.26ZM202.23,229.64h2.83v-1.32h-2.83v1.32ZM209.47,225.88h-2.95v1.26h2.95v-1.26ZM209.47,229.64v-1.32h-2.95v1.32h2.95Z"/>
      <path class="cls-1" d="M212.63,293.3c-.34.34-.61.73-.83,1.17-.11.24-.21.36-.3.36-.06,0-.18-.04-.34-.13-2.84-1.52-4.59-3.73-5.24-6.64-.11.59-.24,1.09-.39,1.49-.44,1.27-1.12,2.34-2.05,3.22-.78.74-1.79,1.4-3.03,1.98-.19.08-.31.12-.36.12-.09,0-.19-.11-.3-.34-.2-.41-.47-.75-.81-1.03,1.53-.58,2.71-1.29,3.54-2.13.73-.73,1.29-1.65,1.67-2.74.44-1.22.66-3.02.66-5.4,0-.73-.04-1.32-.11-1.78.49.01,1.05.05,1.68.11.18.03.27.1.27.2,0,.06-.03.16-.1.3-.06.18-.1.54-.11,1.1v.46c.2,4.9,2.25,8.13,6.15,9.7ZM201.75,284.22l1.16.34c.12.04.18.09.18.14,0,.02,0,.05-.02.1-.45,1.65-1.03,2.99-1.73,4.03-.05.06-.1.09-.15.09-.03,0-.09-.02-.18-.05l-1.07-.53c-.12-.06-.18-.11-.18-.17,0-.03.02-.07.06-.12.77-.93,1.32-2.18,1.66-3.73.02-.09.06-.14.12-.14.02,0,.08.01.17.04ZM208.15,287.93c.76-1.04,1.31-2.07,1.65-3.07.13-.36.21-.64.23-.85.61.21,1.1.4,1.47.56.17.09.26.17.26.26s-.04.16-.13.24c-.13.11-.24.27-.33.47-.47,1.04-.96,1.95-1.48,2.73-.14.21-.23.31-.28.31-.06,0-.18-.06-.36-.18-.36-.21-.7-.37-1.02-.47Z"/>
      <path class="cls-1" d="M205.11,278.23c-.45-.47-.68-1.17-.68-2.09v-3.4h-1.18c-.1,0-.18-.04-.25-.11-.07-.07-.11-.16-.11-.26v-.85c0-.1.04-.18.11-.25.07-.07.15-.1.25-.1h1.18v-2.49c0-.11.04-.2.11-.26.07-.06.15-.1.25-.1h1.21c.11,0,.2.03.26.1.06.07.1.15.1.26v2.49h1.87c.11,0,.2.03.26.1.06.07.1.15.1.26v.85c0,.11-.04.2-.11.27-.07.07-.15.1-.25.1h-1.87v3.25c0,.43.07.75.22.97.15.22.4.33.75.33h1.03c.1,0,.18.03.25.1.07.07.11.15.11.25v.93c0,.1-.03.18-.1.25-.07.07-.15.1-.26.1h-1.21c-.91,0-1.59-.24-2.04-.71Z"/>
      <path class="cls-1" d="M203.63,306.58c-.59-.28-1.05-.65-1.36-1.11-.31-.46-.48-.95-.5-1.48v-.03c0-.08.03-.14.09-.19.06-.05.13-.07.22-.07h1.39c.23,0,.38.1.45.3.14.44.37.76.7.97.32.21.71.31,1.15.31.56,0,1.03-.17,1.4-.51s.56-.81.56-1.42c0-.54-.19-.98-.56-1.32-.37-.34-.84-.51-1.4-.51-.3,0-.54.04-.73.12-.19.08-.37.19-.55.33-.12.09-.21.15-.28.19-.07.04-.14.05-.23.05h-1.38c-.09,0-.17-.03-.23-.1-.07-.06-.1-.14-.1-.23l.52-5.12c0-.12.05-.22.13-.29s.17-.11.29-.11h5.63c.1,0,.18.04.25.1.07.07.1.16.1.25v1c0,.1-.04.18-.1.25-.07.07-.15.1-.25.1h-4.33l-.24,2.44c.49-.34,1.14-.51,1.96-.51.65,0,1.25.14,1.8.41.55.27,1,.67,1.32,1.18.33.51.49,1.11.49,1.79,0,.73-.17,1.37-.51,1.91s-.82.96-1.43,1.26c-.61.29-1.33.44-2.15.44s-1.54-.14-2.13-.42Z"/>
    </g>
    <g>
      <path class="cls-1" d="M187.39,213.08c1.62,0,2.88.59,3.77,1.77.8,1.06,1.2,2.47,1.2,4.23,0,2.02-.52,3.57-1.56,4.66-.88.92-2.02,1.38-3.43,1.38-1.62,0-2.88-.59-3.77-1.78-.8-1.06-1.2-2.47-1.2-4.22,0-2.02.52-3.58,1.56-4.66.88-.92,2.02-1.37,3.42-1.37ZM187.39,214.62c-.96,0-1.69.42-2.2,1.27-.46.77-.69,1.84-.69,3.21,0,1.55.3,2.71.89,3.49.5.65,1.16.97,2,.97.96,0,1.69-.42,2.19-1.26.45-.77.68-1.83.68-3.19,0-1.56-.3-2.73-.88-3.51-.49-.65-1.15-.97-1.99-.97ZM185.38,219.72v-1.53h4.01v1.53h-4.01Z"/>
      <path class="cls-1" d="M191.09,240.54c-.07-.07-.11-.15-.11-.25v-1.47h-8.8c-.1,0-.19-.04-.25-.1s-.1-.15-.1-.25v-7.07c0-.1.03-.18.1-.25s.15-.1.25-.1h1.18c.11,0,.2.03.26.1.06.06.1.15.1.26v5.84h2.25v-5.84c0-.11.03-.2.1-.26.07-.06.15-.1.25-.1h1.08c.11,0,.2.03.26.1s.1.15.1.26v5.84h2.25v-5.84c0-.11.04-.2.11-.26.07-.06.15-.1.25-.1h1.18c.1,0,.18.04.25.1.07.07.1.15.1.25v5.84h.67c.1,0,.18.04.25.11s.1.15.1.25v2.69c0,.11-.03.2-.1.26-.07.06-.15.1-.26.1h-1.24c-.1,0-.18-.04-.25-.1Z"/>
      <path class="cls-1" d="M185.36,253.69c-.06-.06-.09-.14-.09-.23,0-.07.02-.13.06-.19l2.2-3.04c-.22.05-.42.07-.61.06-.67-.02-1.28-.18-1.83-.49s-.98-.73-1.29-1.26c-.31-.53-.47-1.11-.47-1.74s.15-1.22.46-1.77.77-1,1.38-1.35c.61-.34,1.34-.52,2.2-.52s1.6.16,2.22.49c.62.32,1.09.76,1.4,1.3.31.54.47,1.14.47,1.79,0,.4-.06.78-.19,1.14-.13.36-.28.67-.44.94-.16.26-.4.61-.7,1.03l-2.63,3.65c-.06.09-.13.16-.2.22-.07.06-.18.08-.31.08h-1.39c-.09,0-.16-.03-.22-.1ZM188.76,248.18c.37-.34.56-.81.56-1.38s-.19-1.04-.56-1.39-.84-.52-1.38-.52-1.01.17-1.38.52-.56.81-.56,1.39.18,1.04.55,1.38c.37.34.83.52,1.39.52s1.01-.17,1.38-.52Z"/>
      <path class="cls-1" d="M188.89,265.56v-.96c0-.94-.07-1.77-.2-2.48s-.32-1.31-.56-1.79c-.24-.47-.53-.82-.87-1.04s-.71-.34-1.12-.34c-.57,0-1.04.24-1.4.73-.36.48-.54,1.17-.54,2.04,0,.63.06,1.26.18,1.87.12.61.29,1.15.51,1.6v.07h-2.53c-.25-.46-.45-.99-.58-1.61-.13-.61-.2-1.25-.2-1.91,0-1.35.42-2.48,1.25-3.4.84-.92,1.93-1.39,3.29-1.39.55,0,1.07.13,1.55.38.48.26.92.62,1.3,1.09.38.46.69,1.03.94,1.69.24.67.4,1.41.47,2.23.09-.3.2-.9.33-1.8s.19-1.74.19-2.51v-.49h2.26v.61c0,1.1-.21,2.29-.62,3.58s-.98,2.43-1.7,3.42v.42h-1.97Z"/>
      <path class="cls-1" d="M185.21,278.92c-.59-.28-1.05-.65-1.36-1.11-.31-.46-.48-.95-.5-1.48v-.03c0-.08.03-.14.09-.19.06-.05.13-.07.22-.07h1.39c.23,0,.38.1.45.3.14.44.37.76.7.97.32.21.71.31,1.15.31.56,0,1.03-.17,1.4-.51s.56-.81.56-1.42c0-.54-.19-.98-.56-1.32-.37-.34-.84-.51-1.4-.51-.3,0-.54.04-.73.12-.19.08-.37.19-.55.33-.12.09-.21.15-.28.19-.07.04-.14.05-.23.05h-1.38c-.09,0-.17-.03-.23-.1-.07-.06-.1-.14-.1-.23l.52-5.12c0-.12.05-.22.13-.29s.17-.11.29-.11h5.63c.1,0,.18.04.25.1.07.07.1.16.1.25v1c0,.1-.04.18-.1.25-.07.07-.15.1-.25.1h-4.33l-.24,2.44c.49-.34,1.14-.51,1.96-.51.65,0,1.25.14,1.8.41.55.27,1,.67,1.32,1.18.33.51.49,1.11.49,1.79,0,.73-.17,1.37-.51,1.91s-.82.96-1.43,1.26c-.61.29-1.33.44-2.15.44s-1.54-.14-2.13-.42Z"/>
    </g>
  </g>
  <g>
    <path class="cls-1" d="M242.45,266.13c-2.68,0-4.86-2.18-4.86-4.86,0-4.38-3.57-7.95-7.95-7.95s-7.95,3.57-7.95,7.95c0,2.68-2.18,4.86-4.86,4.86s-4.86-2.18-4.86-4.86c0-9.74,7.93-17.67,17.67-17.67s17.67,7.93,17.67,17.67c0,2.68-2.18,4.86-4.86,4.86Z"/>
    <path class="cls-1" d="M349.96,266.13c-2.68,0-4.86-2.18-4.86-4.86,0-4.38-3.57-7.95-7.95-7.95s-7.95,3.57-7.95,7.95c0,2.68-2.18,4.86-4.86,4.86s-4.86-2.18-4.86-4.86c0-9.74,7.93-17.67,17.67-17.67s17.67,7.93,17.67,17.67c0,2.68-2.18,4.86-4.86,4.86Z"/>
    <path class="cls-1" d="M283.47,315.43c-15,0-29.23-7.12-38.07-19.05-1.6-2.16-1.15-5.2,1.01-6.8,2.16-1.6,5.2-1.15,6.8,1.01,7.01,9.46,18.33,15.11,30.26,15.11s23.25-5.65,30.26-15.12c1.6-2.16,4.64-2.61,6.8-1.01,2.16,1.6,2.61,4.64,1.01,6.8-8.84,11.93-23.07,19.05-38.07,19.05Z"/>
  </g>
  <g>
    <g>
      <path class="cls-2" d="M423.42,322.26c-12.62,18.73-28.68,19.34-28.68,19.34,0,0-8.21,10.14-18.98,10.14-3.22,0-6.66-.9-10.19-3.26-3.75-2.5-5.8-4.98-6.75-7.31-1-2.44-.8-4.7-.11-6.63,1.3-3.61,4.71-6.06,8.54-6.41,3.36-.3,7.38-1.25,5.32-4.1-.71-.98-1.88-1.54-3.09-1.54h-.07c-2.78,0-2.54-1.66-1.03-3.56,1.13-1.41,2.69-1.92,4.41-1.92,2.88,0,6.2,1.42,8.7,2.44,1.29.52,2.88.77,4.6.77,3.64,0,7.87-1.11,11.03-3.07,4.67-2.89,13.04-4.89,11.26-15.11-.45-2.59-1.49-4.51-2.8-5.94v-20.65s15.86,12.55,20.36,27.41h0c1.91,6.32,1.76,13.04-2.52,19.4Z"/>
      <path class="cls-4" d="M426.47,286.3c-6.86-9.9-15.56-16.84-15.93-17.13l-12.96-10.25v40.29l2.1,2.29c.15.16.6.66.82,1.91.41,2.37.47,2.67-4.37,5.17-1.06.54-2.15,1.11-3.22,1.77-1.8,1.12-4.55,1.87-6.82,1.87-.92,0-1.45-.13-1.58-.18l-.36-.15c-2.98-1.22-7.05-2.88-11.36-2.88s-8.13,1.75-10.67,4.94c-2.61,3.28-3.06,6.21-2.79,8.41-3.73,2.06-6.68,5.39-8.15,9.47-1.46,4.04-3.4,14.41,9.95,23.31,4.58,3.05,9.5,4.6,14.63,4.6,10.77,0,19.09-6.79,22.95-10.65,6.48-1.29,20.26-5.9,31.34-22.36,7.76-11.52,6.49-25.88-3.58-40.43ZM394.74,341.6s-8.21,10.14-18.98,10.14c-3.22,0-6.66-.9-10.19-3.26-3.75-2.5-5.8-4.98-6.75-7.31-1-2.44-.8-4.7-.11-6.63,1.3-3.61,4.71-6.06,8.54-6.41,3.36-.3,7.38-1.25,5.32-4.1-.71-.98-1.88-1.54-3.09-1.54h-.07c-2.78,0-2.54-1.66-1.03-3.56,1.13-1.41,2.69-1.92,4.41-1.92,2.88,0,6.2,1.42,8.7,2.44,1.29.52,2.88.77,4.6.77,3.64,0,7.87-1.11,11.03-3.07,4.67-2.89,13.04-4.89,11.26-15.11-.45-2.59-1.49-4.51-2.8-5.94v-20.65s15.86,12.55,20.36,27.41h0c1.91,6.32,1.76,13.04-2.52,19.4-12.62,18.73-28.68,19.34-28.68,19.34Z"/>
    </g>
    <path class="cls-3" d="M423.42,322.26c-12.62,18.73-28.68,19.34-28.68,19.34,0,0-8.21,10.14-18.98,10.14-3.22,0-6.66-.9-10.19-3.26-3.75-2.5-5.8-4.98-6.75-7.31,2.07,1.82,14.12,11.36,28.13.59l4.59-4.15s32.61-6.9,34.4-34.74c1.91,6.31,1.76,13.03-2.52,19.39Z"/>
  </g>
</svg>