<?xml version="1.0" encoding="UTF-8"?>
<svg id="Layer_1" data-name="Layer 1" xmlns="http://www.w3.org/2000/svg" xmlns:xlink="http://www.w3.org/1999/xlink" viewBox="0 0 566.93 566.93">
  <defs>
    <style>
      .cls-1 {
        fill: #263e7a;
      }

      .cls-2 {
        fill: #fff;
      }

      .cls-3, .cls-4 {
        fill: #3dc3f1;
      }

      .cls-3, .cls-5, .cls-6 {
        fill-rule: evenodd;
      }

      .cls-7 {
        fill: #d1eefc;
      }

      .cls-8, .cls-5 {
        fill: #253e79;
      }

      .cls-9, .cls-6 {
        fill: #f05681;
      }

      .cls-10 {
        fill: url(#linear-gradient);
      }
    </style>
    <linearGradient id="linear-gradient" x1="5022.3" y1="1526.91" x2="5032.34" y2="1469.97" gradientTransform="translate(5510.14 -355.17) rotate(-170.34) scale(1 -1)" gradientUnits="userSpaceOnUse">
      <stop offset="0" stop-color="#fff"/>
      <stop offset=".43" stop-color="#fcfdfe"/>
      <stop offset=".74" stop-color="#f2fafe"/>
      <stop offset="1" stop-color="#e4f5fd"/>
    </linearGradient>
  </defs>
  <ellipse class="cls-7" cx="283.46" cy="467.63" rx="107.44" ry="11.87"/>
  <g>
    <g>
      <path class="cls-2" d="M307.88,399.04l.3,2.86.11,1,.03.28v.06s.05.43.05.43l.06.47h0s.58,5.49.58,5.49l.47,4.47.04.37.19,1.79,3.47,32.45s.33,7.39,9.71,8.14c3.13.25,7.86.89,12.22.72,1.38-.05,2.71-.19,3.96-.43,9.21-1.88,12.97-9.66-8.69-17.97l.11-22.34.03-4,.02-3.93v-.07s.02-2.37.02-2.37l-.16-3.98-22.5-3.42Z"/>
      <polygon class="cls-7" points="307.88 399.04 309.1 410.41 330.51 410.94 330.38 402.46 307.88 399.04"/>
      <path class="cls-8" d="M337.59,398.15l.13,10.61-.04,6.53v.14s-.02,4.51-.02,4.51l-.07,14.43c4.23,1.91,7.54,3.89,10.05,6.01,5.31,4.47,6.13,8.92,5.88,11.86-.28,3.38-2.11,6.46-5.16,8.66-2.12,1.53-4.77,2.64-7.87,3.26-1.55.32-3.22.5-5.1.58-3.83.15-7.67-.21-10.76-.51-.84-.09-1.64-.17-2.31-.21-6.06-.49-10.98-3.19-13.84-7.62-1.94-3.01-2.36-5.87-2.45-7.05l-4.34-40.67-.69-6.49-.25-2.37-.05-.41-.44-4.09,37.33,2.85ZM308.18,401.9l.11,1,.03.28v.06s.05.43.05.43l.06.47h0s.58,5.49.58,5.49l.47,4.47.04.37.19,1.79,3.47,32.45s.33,7.39,9.71,8.14c3.13.25,7.86.89,12.22.72,1.38-.05,2.71-.19,3.96-.43,9.21-1.88,12.97-9.66-8.69-17.97l.11-22.34.02-3.22s-.01,0-.02,0l.06-7.16-.16-3.98-22.5-3.42.3,2.86Z"/>
    </g>
    <g>
      <path class="cls-2" d="M269.06,392.94l-8.7,14.96-16.41,28.2s-3.32,6.62-12.19,3.47c-2.96-1.05-7.54-2.4-11.45-4.33-1.23-.61-2.4-1.28-3.43-2.01-7.65-5.48-7.9-14.11,15.26-12.86l12.22-27.7,1.47-3.33,23.23,3.6Z"/>
      <polygon class="cls-7" points="269.06 392.94 262.99 403.37 243.7 394.18 246.77 387.23 269.06 392.94"/>
      <path class="cls-8" d="M215.88,414.45c3.16-.9,7-1.36,11.63-1.38l14-31.72,36.04,11.3-2.28,3.91-1.2,2.06-23.86,40.99c-.56,1.04-2.12,3.48-5.12,5.43-4.42,2.88-10.02,3.34-15.75,1.3-.62-.23-1.39-.49-2.19-.75-2.95-.99-6.61-2.23-10.04-3.93-1.69-.83-3.14-1.69-4.42-2.61-2.58-1.83-4.54-3.92-5.85-6.19-1.88-3.25-2.3-6.81-1.18-10.01.98-2.79,3.54-6.51,10.21-8.43ZM216.88,433.23c1.02.73,2.2,1.4,3.43,2.01,3.91,1.93,8.48,3.28,11.45,4.34,8.87,3.15,12.18-3.47,12.18-3.47l16.41-28.21,1.1-1.88,6.16-10.6,1.44-2.49-20.37-10.07-1.16,2.63-2.19,4.94-.98,2.24-12.22,27.7c-23.16-1.26-22.91,7.38-15.26,12.86Z"/>
    </g>
  </g>
  <g>
    <path class="cls-2" d="M482.07,412.32c-4.32,0-8.24-2.29-8.68-2.55l-.13-.08-.12-.09c-.29-.2-7.07-5.02-10.24-7.8-.82-.72-1.95-1.16-2.78-1.28-1.8,8.62-6.79,9.58-8.92,9.58,0,0-.23,0-.35,0-1.98-.09-3.65-.99-4.69-2.55-1.79-2.66-.98-6.26-.49-7.83.25-2.16.08-3.43-.15-5.15-.29-2.17-.64-4.84-.13-9.52-7.36-16.27-25.65-24.02-25.84-24.09l-2.97-1.23.56-3.17,5.74-31.91,4.53,1.77c23.99,9.36,36.66,39.28,39.6,47.07,13.72,5.5,21.93,16.22,23.49,18.39,4.67,6.5,3.96,13.31-1.9,18.2-1.77,1.48-4.03,2.26-6.54,2.26Z"/>
    <path class="cls-8" d="M425.96,330.13c25.65,10.01,37.92,46.43,37.92,46.43,11.98,4.25,20.18,13.19,23.37,17.63,3.19,4.44,3.27,9.05-1.21,12.8-1.17.98-2.58,1.33-3.97,1.33-3.33,0-6.61-1.98-6.61-1.98,0,0-6.86-4.87-9.92-7.55-1.63-1.43-3.96-2.31-5.86-2.31-1.68,0-3.03.68-3.29,2.28-.55,3.36-1.96,7.33-5.18,7.33-.06,0-.12,0-.17,0-3.34-.15-1.43-5.5-1.43-5.5.83-6.35-1.27-7.2-.1-16.15-7.82-18.72-28.42-27.19-28.42-27.19l4.88-27.12M419.81,319.14l-1.72,9.57-4.88,27.12-1.14,6.36,5.98,2.46c.15.06,16.32,6.97,23.27,21.1-.39,4.45-.04,7.13.26,9.34.2,1.48.32,2.37.18,3.83-.73,2.51-1.46,7.05,1.1,10.87,1.75,2.6,4.6,4.17,7.84,4.31.18,0,.35.01.52.01,2.02,0,7.8-.65,11.13-7.57,3.41,2.72,7.9,5.91,8.5,6.34l.25.17.26.16c.87.52,5.45,3.12,10.74,3.12,3.46,0,6.61-1.1,9.1-3.19,7.41-6.2,8.43-15.46,2.58-23.6-4.56-6.35-12.97-14.36-23.62-19.08-4.04-10.08-17.24-38.4-41.26-47.77l-9.06-3.53h0Z"/>
  </g>
  <g>
    <path class="cls-2" d="M174.78,318.71c-25.57-7.09-41.3-35.62-45.03-43.08-14.64-4.19-24.2-14.1-26.03-16.11-5.42-5.98-5.41-13.03.03-18.4,1.91-1.89,4.54-2.88,7.62-2.88,3.9,0,7.42,1.59,7.81,1.77l.13.06.13.07c.32.18,7.78,4.34,11.33,6.82.88.62,2.16,1.04,3.22,1.07.96-9.04,6.16-10.3,8.42-10.4.12,0,.23,0,.34,0,1.92,0,3.6.8,4.73,2.25,1.93,2.48,1.5,6.01,1.17,7.59-.03,2.15.28,3.4.7,5.09.53,2.14,1.18,4.77,1.15,9.47,9.45,15.79,30.79,23.83,31.01,23.91l3.11,1.15-5.58,32.83-4.27-1.18ZM134.7,247.96"/>
    <path class="cls-8" d="M142.76,241.61c3.26,0,1.91,5.35,1.91,5.35-.18,6.4,2.07,7.06,1.83,16.09,10.02,17.94,33.65,26.62,33.65,26.62l-4.29,25.19c-27.39-7.59-43.29-42.62-43.29-42.62-12.75-3.12-22.12-11.27-25.87-15.41-3.75-4.13-4.32-8.72-.12-12.87,1.32-1.31,3.09-1.73,4.81-1.73,3.13,0,6.13,1.39,6.13,1.39,0,0,7.57,4.22,10.99,6.61,1.63,1.13,3.78,1.79,5.62,1.79,2.03,0,3.67-.79,3.78-2.61.21-3.46,1.26-7.64,4.71-7.8.05,0,.1,0,.15,0M142.76,233.61c-.17,0-.35,0-.53.01-4.24.2-8.84,2.71-11.05,8.8-3.82-2.44-9.09-5.39-9.78-5.77l-.26-.14-.27-.12c-.77-.36-4.84-2.14-9.5-2.14-4.15,0-7.76,1.4-10.43,4.04-7.01,6.93-7.09,16.33-.18,23.94,5.34,5.89,14.81,13.07,26.21,16.75,5.06,9.64,21.19,36.52,46.74,43.6l8.54,2.37,1.49-8.73,4.29-25.19,1.12-6.56-6.24-2.29c-.19-.07-19.44-7.35-28.4-21.3-.08-4.5-.75-7.21-1.26-9.28-.35-1.43-.57-2.31-.58-3.73.46-2.51.73-6.93-2.01-10.45-1.88-2.41-4.75-3.79-7.89-3.79h0Z"/>
  </g>
  <g>
    <g>
      <path class="cls-10" d="M382.56,399.6c.45.08.91.13,1.36.17.19.02.37.03.56.04.23.01.47.02.7.02.27,0,.53,0,.8,0,.02,0,.04,0,.06,0,2.22-.09,4.37-.62,6.29-1.52.03-.01.06-.03.09-.04.28-.13.55-.27.81-.42.16-.09.31-.18.46-.27.24-.15.48-.3.72-.46.26-.18.52-.37.77-.56.12-.09.23-.19.34-.28.21-.18.42-.36.61-.55.1-.1.2-.2.3-.3.21-.21.41-.43.6-.65.07-.08.15-.17.22-.25.26-.32.51-.64.73-.98.99-1.47,1.64-3.09,1.93-4.83l1.43-8.42,14.34-84.21,5.21-30.63c.04-.23.06-.47.08-.7.02-.2.06-.4.07-.6.05-.87.02-1.74-.12-2.6-.07-.43-.15-.86-.27-1.29-.1-.39-.23-.78-.37-1.16-.04-.11-.08-.21-.13-.32-.11-.27-.22-.54-.35-.8-.06-.13-.13-.26-.19-.39-.12-.24-.25-.47-.39-.7-.08-.13-.15-.27-.24-.4-.16-.25-.33-.48-.5-.72-.18-.25-.38-.5-.58-.74-.11-.13-.22-.26-.33-.39-.2-.23-.41-.46-.63-.67-.02-.02-.04-.04-.06-.06-1.52-1.49-3.37-2.7-5.43-3.52-.02,0-.04-.02-.06-.03-.25-.1-.5-.18-.75-.27-.22-.07-.44-.14-.67-.21-.18-.05-.36-.1-.54-.15-.44-.11-.89-.21-1.34-.29l-185.03-31.5c-.45-.08-.91-.13-1.36-.17-.19-.02-.37-.03-.56-.04-.23-.01-.47-.02-.7-.02-.27,0-.53,0-.8,0-.02,0-.04,0-.07,0-2.22.09-4.37.62-6.29,1.52-.03.01-.05.02-.08.04-.28.13-.55.28-.82.43-.15.08-.29.17-.44.26-.27.16-.54.33-.79.51-.24.17-.48.34-.71.52-.12.1-.24.2-.36.3-.2.17-.41.35-.6.53-.11.1-.21.2-.31.31-.21.21-.4.42-.59.64-.07.09-.15.17-.22.26-.26.32-.51.64-.73.98-.24.36-.47.74-.67,1.12-.41.78-.74,1.59-.98,2.43-.03.12-.05.24-.08.36-.08.3-.15.61-.21.92l-5.21,30.63-14.34,84.21-1.43,8.42c-.29,1.73-.22,3.48.23,5.19.1.39.23.78.37,1.17.04.1.08.21.12.31.11.27.22.54.35.81.06.13.12.25.19.38.12.24.26.48.4.72.08.13.15.26.23.38.17.27.35.53.54.79.17.23.34.45.53.67.11.14.23.28.34.41.2.23.41.45.63.67.02.02.05.05.07.07,1.52,1.49,3.37,2.7,5.43,3.52.02,0,.04.02.05.02.25.1.5.18.75.27.22.07.44.14.67.21.18.05.36.1.54.15.44.11.88.21,1.34.29h0s185.03,31.5,185.03,31.5h0Z"/>
      <g>
        <path class="cls-8" d="M359.21,401.29s.06.08.09.13c1.4,1.91,3.2,3.03,5.51,3.42,1.33.23,2.38.13,2.66.1l1.51-.35,1.29.33,23.21,3.95-3.29,5.91c-1.56.24-3.17.36-4.79.36-1.79,0-3.6-.15-5.42-.46l-140.26-23.88.32-2.53.89-7.12,118.28,20.14Z"/>
        <path class="cls-8" d="M190.64,226.26l-20.98,123.26c-.04.22-.07.45-.09.66-1.01,6.84.63,13.53,4.18,19.1.86,1.34,1.81,2.63,2.89,3.83h0c4.54,5.12,10.9,8.82,18.31,10.08l44.78,7.62.32-2.53.89-7.12-44.35-7.55c-11.35-1.93-19.13-12.01-17.35-22.46l20.98-123.26c1.78-10.45,12.45-17.38,23.8-15.44l185.04,31.5c11.35,1.93,19.13,12,17.35,22.45l-20.98,123.26c-1.78,10.45-12.45,17.39-23.8,15.45l-22.41-3.81s.06.08.09.13c1.4,1.91,3.2,3.03,5.51,3.42,1.33.23,2.38.13,2.66.1l1.51-.35,1.29.33,23.21,3.95-3.29,5.91c12.42-1.89,22.69-11.06,24.81-23.5l20.98-123.26c2.68-15.73-8.67-30.84-25.3-33.67l-185.04-31.5c-16.63-2.83-32.34,7.67-35.01,23.41Z"/>
      </g>
    </g>
    <g>
      <path class="cls-8" d="M264.83,317.81c1.48-.87,3.47-1.2,5.98.23,5.87,3.35,30.4,8.3,31.54,8.52,1.14.16,25.83,3.59,32.47,2.37,2.83-.52,4.61.45,5.72,1.76,1.57,1.86,1.83,4.49.89,6.73-2.02,4.77-7.69,15.37-19.61,20.1-10.85,4.3-20.03,2.92-25.13,2.12h0s0,0,0,0c0,0-.01,0-.02,0h0c-5.08-.93-14.23-2.67-23.04-10.32-9.68-8.41-11.52-20.29-11.85-25.46-.15-2.43.97-4.83,3.06-6.06Z"/>
      <path class="cls-2" d="M271.87,324.1c.19-.26.53-.34.82-.21,8.89,4.01,26.77,7.27,28.59,7.6,1.86.3,20.11,3.19,29.82,2.34.32-.03.61.17.71.47.92,2.92-4.68,4.53-6.59,5.05-3.88,1.06-7.8,1.2-11.79.96-2.78-.16-11.95-1.48-13.08-1.69-1.16-.18-10.46-2-13.13-2.77-3.84-1.1-7.49-2.53-10.8-4.81-1.63-1.12-6.38-4.5-4.55-6.95Z"/>
      <path class="cls-9" d="M282.43,346.04c.06-.03.1-.05.14-.08,2.54-1.28,5.04-1.67,7.56-1.69,1.76,0,7.5.73,8.2.87.73.1,6.53,1.33,8.18,1.92,2.37.85,4.6,2.04,6.57,4.09.03.04.07.07.11.12.4.42,1.04,1.13,1.6,1.98-3.46,1.41-10,3.37-17.67,2.06-7.84-1.33-13.77-5.55-16.71-8.06.75-.56,1.52-.97,2.01-1.22Z"/>
    </g>
  </g>
  <g>
    <path class="cls-8" d="M248.98,277.72c2.06-6.95,10.18-10.69,18.1-8.34,7.92,2.35,12.69,9.91,10.63,16.86-.01.05-.04.08-.06.13-.01.05-.01.09-.02.14-2.06,6.95-10.18,10.69-18.1,8.34-7.92-2.35-12.69-9.91-10.63-16.86.01-.05.04-.08.06-.13.01-.05.01-.09.02-.14Z"/>
    <path class="cls-1" d="M253.05,255.18c7.72-3.44,16.14-2.38,22.23,1.75,2.39,1.58,5.64,2.04,7.94.55h0c2.29-1.45,1.99-5.48-1.62-8.11-8.65-6.29-20.48-7.99-31.29-3.7-4.49,1.75-6.77,6.34-5.28,8.65t0,0c1.46,2.33,5.01,2.18,8.03.87Z"/>
    <circle class="cls-7" cx="261.73" cy="276.26" r="4.81"/>
  </g>
  <g>
    <path class="cls-8" d="M369.92,294.45c-.44-7.23-7.5-12.71-15.74-12.22-8.25.5-14.6,6.78-14.16,14.02,0,.05.02.09.02.14,0,.05-.01.09,0,.14.44,7.23,7.5,12.71,15.74,12.22,8.25-.5,14.6-6.78,14.16-14.02,0-.05-.02-.09-.02-.14,0-.05.01-.09,0-.14Z"/>
    <path class="cls-1" d="M369.08,270.06c-6.27-3.89-14.48-4.49-21.68-1-2.81,1.33-6.28,1.51-7.97-.61h0c-1.7-2.1.06-6.56,4.32-8.49,10.23-4.7,21.95-3.73,30.96,2.08,3.76,2.43,4.42,6.57,2.27,8.2t0,0c-2.16,1.66-5.44,1.31-7.9-.17Z"/>
    <circle class="cls-7" cx="353.21" cy="290.14" r="4.81"/>
  </g>
  <g>
    <circle class="cls-4" cx="154.64" cy="138.02" r="14.63"/>
    <circle class="cls-4" cx="109.1" cy="169.99" r="14.63"/>
    <circle class="cls-4" cx="154.64" cy="199.24" r="14.63"/>
    <path class="cls-4" d="M105.87,171.79c-.25.17,0,0,0,0-1.25-1.88-1.15-3.96,1.28-5.59,14.13-9.46,29.87-19.69,44.3-28.71,2.48-1.55,4.42-.79,5.63,1.12.25-.16,0,0,0,0,1.2,1.91,1.03,4.01-1.42,5.58-14.28,9.13-29.96,19.31-44.13,28.61-2.43,1.6-4.41.87-5.65-1Z"/>
    <path class="cls-4" d="M105.03,167.81c-.29-.18-.22-.13,0,0,1.35-2.15,3.09-2.65,5.65-1.09,14.91,9.07,30.59,19.32,44.91,29.27,2.46,1.71,2.73,3.53,1.3,5.61.28.19.21.14,0,0-1.43,2.09-3.27,2.5-5.74.84-14.37-9.66-29.96-19.82-44.59-29.07-2.51-1.59-2.87-3.42-1.52-5.56Z"/>
  </g>
  <g>
    <path class="cls-9" d="M322.31,129.8c10.23-1.5,11.44-1.64,15.51-2.04,3.76-.38,5.88-.05,7.3.28,1.89.43,3.29,1.08,4.82,2.22s2.55,2.3,3.51,3.98c.72,1.27,1.64,3.21,2.36,6.92.78,4.01.99,5.22,2.49,15.44,1.5,10.23,1.64,11.44,2.04,15.51.38,3.76.05,5.88-.28,7.3-.43,1.89-1.08,3.29-2.22,4.82-1.14,1.54-2.3,2.55-3.98,3.51-1.27.72-3.21,1.64-6.92,2.36-4.01.78-5.22.99-15.44,2.49-10.23,1.5-11.44,1.64-15.51,2.04-3.76.38-5.88.05-7.3-.28-1.89-.43-3.29-1.08-4.82-2.22s-2.55-2.3-3.51-3.98c-.72-1.27-1.64-3.21-2.36-6.92-.78-4.01-.99-5.22-2.49-15.44s-1.64-11.44-2.04-15.51c-.38-3.76-.05-5.88.28-7.3.43-1.89,1.08-3.29,2.22-4.82,1.14-1.54,2.3-2.55,3.98-3.51,1.27-.72,3.21-1.64,6.92-2.36,4.01-.78,5.22-.99,15.44-2.49M321.3,122.9c-10.4,1.52-11.7,1.76-15.76,2.54-4.05.78-6.74,1.84-9.04,3.14-2.37,1.35-4.32,2.97-6.14,5.41-1.82,2.44-2.81,4.77-3.42,7.43-.59,2.57-.83,5.45-.42,9.56.41,4.11.56,5.42,2.08,15.82,1.52,10.4,1.76,11.7,2.54,15.76.78,4.05,1.84,6.74,3.14,9.04,1.35,2.37,2.97,4.32,5.41,6.14,2.44,1.82,4.77,2.81,7.43,3.42,2.57.59,5.45.83,9.56.42,4.11-.41,5.42-.56,15.82-2.08,10.4-1.52,11.7-1.76,15.76-2.54,4.05-.78,6.74-1.84,9.04-3.14,2.37-1.35,4.32-2.97,6.14-5.41,1.82-2.44,2.81-4.77,3.42-7.43.59-2.57.83-5.45.42-9.56-.41-4.11-.56-5.42-2.08-15.82-1.52-10.4-1.76-11.7-2.54-15.76-.78-4.05-1.84-6.74-3.14-9.04-1.35-2.37-2.97-4.32-5.41-6.14-2.44-1.82-4.77-2.81-7.43-3.42-2.57-.59-5.45-.83-9.56-.42-4.11.41-5.42.56-15.82,2.08h0Z"/>
    <path class="cls-9" d="M324.03,141.54c-10.86,1.59-18.38,11.69-16.78,22.55,1.59,10.86,11.69,18.38,22.55,16.78,10.86-1.59,18.38-11.69,16.78-22.55-1.59-10.86-11.69-18.38-22.55-16.78ZM328.78,173.97c-7.05,1.03-13.6-3.84-14.64-10.9-1.03-7.05,3.84-13.6,10.9-14.64,7.05-1.03,13.6,3.84,14.64,10.9,1.03,7.05-3.84,13.6-10.9,14.64Z"/>
    <circle class="cls-9" cx="344.36" cy="137.76" r="4.64"/>
  </g>
  <g>
    <path class="cls-8" d="M234.32,108.11c10.22.84,11.42.98,15.44,1.5,3.72.48,5.69,1.27,7,1.9,1.73.84,2.94,1.78,4.16,3.23,1.23,1.45,1.95,2.79,2.5,4.64.41,1.39.87,3.47.73,7.21-.15,4.05-.21,5.26-1.05,15.48-.84,10.22-.98,11.42-1.5,15.44-.48,3.72-1.27,5.69-1.9,7-.84,1.73-1.78,2.94-3.23,4.16-1.45,1.23-2.79,1.95-4.64,2.5-1.39.41-3.47.87-7.21.73-4.05-.15-5.26-.21-15.48-1.05s-11.43-.98-15.44-1.5c-3.72-.48-5.69-1.27-7-1.9-1.73-.84-2.94-1.78-4.16-3.23-1.23-1.45-1.95-2.79-2.5-4.64-.41-1.39-.87-3.47-.73-7.21.15-4.05.21-5.26,1.05-15.48.84-10.22.98-11.42,1.5-15.44.48-3.72,1.27-5.69,1.9-7,.84-1.73,1.78-2.94,3.23-4.16,1.45-1.23,2.79-1.95,4.64-2.5,1.39-.41,3.47-.87,7.21-.73,4.05.15,5.26.21,15.48,1.05M234.88,101.22c-10.39-.86-11.7-.92-15.8-1.07-4.09-.15-6.92.27-9.44,1.01-2.6.77-4.84,1.9-7.14,3.85-2.3,1.95-3.79,3.98-4.97,6.41-1.15,2.36-2.02,5.08-2.54,9.14-.52,4.07-.67,5.37-1.53,15.76-.86,10.39-.92,11.7-1.07,15.8-.15,4.09.27,6.92,1.01,9.44.77,2.6,1.9,4.84,3.85,7.14,1.95,2.3,3.98,3.79,6.41,4.97,2.36,1.15,5.08,2.02,9.14,2.54,4.07.52,5.37.67,15.76,1.53,10.39.86,11.7.92,15.8,1.07,4.09.15,6.92-.27,9.44-1.01,2.6-.77,4.84-1.9,7.14-3.85,2.3-1.95,3.79-3.98,4.97-6.41,1.15-2.36,2.02-5.08,2.54-9.14.52-4.07.67-5.37,1.53-15.76.86-10.39.92-11.7,1.07-15.8.15-4.09-.27-6.92-1.01-9.44-.77-2.6-1.9-4.84-3.85-7.14-1.95-2.3-3.98-3.79-6.41-4.97-2.36-1.15-5.08-2.02-9.14-2.54-4.07-.52-5.37-.67-15.76-1.53h0Z"/>
    <g>
      <path class="cls-6" d="M242.59,133.62c2.93,2.49,6.65,4.11,10.77,4.45l.65-7.94c-.78-.06-1.55-.21-2.3-.43l-.52,6.25c-4.13-.34-7.84-1.97-10.77-4.45l-1.34,16.19c-.67,8.1-7.78,14.13-15.89,13.46-3.02-.25-5.76-1.39-7.97-3.15,2.44,2.94,6.02,4.94,10.13,5.28,8.11.67,15.22-5.36,15.89-13.46l1.34-16.19h0ZM246.12,125.85c-1.45-1.87-2.31-4.21-2.33-6.71l.08-1.02-2.2-.18c.29,3.21,1.96,6.06,4.45,7.91h0ZM220.88,152.2c-.79-1.24-1.16-2.71-1.03-4.18.31-3.71,3.56-6.46,7.27-6.16.69.06,1.37.22,2.01.48l.67-8.11c-.76-.17-1.53-.28-2.31-.32l-.52,6.31c-.64-.26-1.32-.43-2.01-.48-3.71-.31-6.96,2.45-7.27,6.16-.22,2.62,1.1,5.01,3.2,6.3Z"/>
      <path class="cls-5" d="M240.42,131.5c2.94,2.49,6.65,4.11,10.77,4.45l.52-6.25c-2.26-.68-4.2-2.05-5.6-3.85-2.49-1.85-4.16-4.71-4.45-7.91l-5.78-.48-2.61,31.7c-.32,3.69-3.57,6.44-7.27,6.13-2.18-.18-4.03-1.38-5.13-3.09-2.1-1.29-3.41-3.68-3.2-6.3.31-3.71,3.56-6.46,7.27-6.16.71.06,1.39.23,2.01.48l.52-6.31c-7.98-.49-14.92,5.48-15.58,13.48-.33,3.99.97,7.74,3.34,10.6,2.21,1.76,4.94,2.91,7.97,3.15,8.11.67,15.22-5.36,15.89-13.46l1.34-16.19Z"/>
      <path class="cls-3" d="M251.71,129.7l.14-1.69c-2.08-.17-4.07-.92-5.74-2.16,1.42,1.84,3.38,3.18,5.6,3.85ZM241.67,117.94c-.03-.31-.04-.61-.05-.92l.08-1.02-7.99-.66-2.61,31.7c-.32,3.69-3.56,6.44-7.26,6.13-1.09-.09-2.09-.43-2.96-.96,1.09,1.71,2.95,2.91,5.13,3.09,3.7.31,6.95-2.44,7.27-6.13l2.61-31.7,5.78.48ZM227.48,133.92l.15-1.8c-.66-.15-1.33-.25-2-.3-8.11-.67-15.22,5.36-15.89,13.46-.42,5.08,1.79,9.77,5.5,12.72-2.37-2.86-3.67-6.61-3.34-10.6.66-8,7.6-13.97,15.58-13.48h0Z"/>
    </g>
  </g>
  <g>
    <path class="cls-4" d="M442.53,121.57c10.99,3.76,12.28,4.25,16.55,5.94,3.95,1.56,5.9,2.97,7.16,4.03,1.67,1.4,2.73,2.77,3.68,4.7s1.37,3.61,1.46,5.79c.07,1.64,0,4.05-1.2,8.13-1.29,4.41-1.69,5.72-5.46,16.71s-4.25,12.28-5.94,16.55c-1.56,3.95-2.97,5.9-4.03,7.16-1.4,1.67-2.77,2.73-4.7,3.68-1.93.95-3.61,1.37-5.79,1.46-1.64.07-4.05,0-8.13-1.2-4.41-1.29-5.72-1.69-16.71-5.46-10.99-3.76-12.28-4.25-16.55-5.94-3.95-1.56-5.9-2.97-7.16-4.03-1.67-1.4-2.73-2.77-3.68-4.7-.95-1.93-1.37-3.61-1.46-5.79-.07-1.64,0-4.05,1.2-8.13,1.29-4.41,1.69-5.72,5.46-16.71,3.76-10.99,4.25-12.28,5.94-16.55,1.56-3.95,2.97-5.9,4.03-7.16,1.4-1.67,2.77-2.73,4.7-3.68,1.93-.95,3.61-1.37,5.79-1.46,1.64-.07,4.05,0,8.13,1.2,4.41,1.29,5.72,1.69,16.71,5.46M445.07,114.15c-11.18-3.83-12.59-4.26-17.05-5.56-4.45-1.3-7.68-1.63-10.64-1.51-3.07.12-5.84.75-8.91,2.25-3.07,1.5-5.26,3.32-7.24,5.66-1.91,2.27-3.63,5.02-5.33,9.33-1.7,4.32-2.23,5.71-6.06,16.88-3.83,11.18-4.26,12.59-5.56,17.05-1.3,4.45-1.63,7.68-1.51,10.64.12,3.07.75,5.84,2.25,8.91,1.5,3.07,3.32,5.26,5.66,7.24,2.27,1.91,5.02,3.63,9.33,5.33,4.32,1.7,5.71,2.23,16.88,6.06s12.59,4.26,17.05,5.56c4.45,1.3,7.68,1.63,10.64,1.51,3.07-.12,5.84-.75,8.91-2.25,3.07-1.5,5.26-3.32,7.24-5.66,1.91-2.27,3.63-5.02,5.33-9.33,1.7-4.32,2.23-5.71,6.06-16.88,3.83-11.18,4.26-12.59,5.56-17.05,1.3-4.45,1.63-7.68,1.51-10.64-.12-3.07-.75-5.84-2.25-8.91-1.5-3.07-3.32-5.26-5.66-7.24-2.27-1.91-5.02-3.63-9.33-5.33-4.32-1.7-5.71-2.23-16.88-6.06h0Z"/>
    <path class="cls-4" d="M443.19,152.45l-6.85-2.35,1.54-4.49c.58-1.69,1.83-1.7,2.62-1.43.79.27,4.84,1.66,4.84,1.66l2.54-7.42-6.65-2.31c-7.39-2.53-10.97,2.42-12.18,5.97l-1.69,4.94-4.27-1.46-2.62,7.64,4.27,1.46c-3.36,9.81-7.41,21.63-7.41,21.63l8.99,3.08s4.09-11.94,7.41-21.63l6.06,2.08,3.4-7.37Z"/>
  </g>
</svg>