<?xml version="1.0" encoding="UTF-8"?>
<svg id="Layer_1" data-name="Layer 1" xmlns="http://www.w3.org/2000/svg" xmlns:xlink="http://www.w3.org/1999/xlink" viewBox="0 0 566.93 566.93">
  <defs>
    <style>
      .cls-1 {
        fill: #263e7a;
      }

      .cls-2 {
        fill: #fff;
      }

      .cls-3 {
        fill: #d1eefc;
      }

      .cls-4 {
        fill: #253e79;
      }

      .cls-5 {
        fill: #f05681;
      }

      .cls-6 {
        fill: #e4f5fd;
      }

      .cls-7 {
        fill: url(#linear-gradient);
      }

      .cls-8 {
        fill: #ead655;
      }
    </style>
    <linearGradient id="linear-gradient" x1="283.74" y1="302.68" x2="293.78" y2="245.74" gradientUnits="userSpaceOnUse">
      <stop offset="0" stop-color="#fff"/>
      <stop offset=".43" stop-color="#fcfdfe"/>
      <stop offset=".74" stop-color="#f2fafe"/>
      <stop offset="1" stop-color="#e4f5fd"/>
    </linearGradient>
  </defs>
  <g>
    <g>
      <path class="cls-8" d="M278.3,203.06c-2.91,0-5.28-2.26-5.28-5.04v-4.4h20.88v4.4c0,2.78-2.37,5.04-5.28,5.04h-10.33Z"/>
      <path class="cls-4" d="M292.91,194.62v3.4c0,2.23-1.92,4.04-4.28,4.04h-10.33c-2.36,0-4.28-1.81-4.28-4.04v-3.4h18.88M294.91,192.62h-22.88v5.4c0,3.33,2.82,6.04,6.28,6.04h10.33c3.46,0,6.28-2.71,6.28-6.04v-5.4h0Z"/>
    </g>
    <g>
      <path class="cls-8" d="M268.51,179.48v-1.34c0-6.84-2.72-13.28-7.65-18.13-5.89-5.79-9.01-13.41-8.78-21.45.46-15.82,14.44-28.79,31.18-28.9h.23c17.33,0,31.42,13.34,31.42,29.73,0,7.63-3.05,14.89-8.59,20.43-5.06,5.06-7.85,11.57-7.85,18.32v1.34h-29.95Z"/>
      <path class="cls-4" d="M283.49,110.66c16.8,0,30.42,12.86,30.42,28.73,0,7.64-3.15,14.58-8.3,19.72-5.16,5.16-8.14,11.93-8.14,19.03v.33h-27.95v-.34c0-7.01-2.81-13.79-7.95-18.84-5.44-5.34-8.71-12.67-8.48-20.71.44-15.41,13.87-27.82,30.19-27.93.07,0,.15,0,.22,0M283.49,108.66h-.23c-8.39.06-16.35,3.17-22.39,8.76-6.08,5.62-9.55,13.12-9.78,21.11-.24,8.33,2.98,16.21,9.08,22.2,4.74,4.65,7.35,10.84,7.35,17.41v2.34h31.95v-2.33c0-6.49,2.68-12.74,7.56-17.62,5.73-5.73,8.89-13.24,8.89-21.14,0-8.23-3.39-15.96-9.54-21.77-6.12-5.78-14.25-8.96-22.88-8.96h0Z"/>
    </g>
    <g>
      <path class="cls-8" d="M273.44,195.62c-2.72,0-4.93-2.11-4.93-4.71v-13.42h29.95v13.42c0,2.6-2.21,4.71-4.93,4.71h-20.09Z"/>
      <path class="cls-4" d="M297.46,178.48v12.42c0,2.05-1.76,3.71-3.93,3.71h-20.09c-2.17,0-3.93-1.66-3.93-3.71v-12.42h27.95M299.46,176.48h-31.95v14.42c0,3.15,2.66,5.71,5.93,5.71h20.09c1.56,0,3.04-.58,4.15-1.63,1.15-1.08,1.78-2.53,1.78-4.08v-12.42s0-2,0-2h0Z"/>
    </g>
    <g>
      <path class="cls-4" d="M278.3,204.92c-4,0-7.25-3.09-7.25-6.9v-.95c-2.69-.94-4.51-3.38-4.51-6.17v-12.76c0-6.36-2.52-12.34-7.1-16.84-6.26-6.15-9.58-14.24-9.33-22.79.24-8.21,3.81-15.91,10.05-21.68,6.23-5.76,14.42-8.97,23.08-9.02h.24c8.86,0,17.21,3.25,23.5,9.15,6.37,5.98,9.88,13.94,9.88,22.43s-3.24,15.82-9.13,21.7c-4.71,4.71-7.31,10.77-7.31,17.05v12.76c0,2.81-1.84,5.25-4.56,6.18v.93c0,3.8-3.25,6.9-7.25,6.9h-10.33ZM276.99,198.02c0,.65.59,1.18,1.31,1.18h10.33c.72,0,1.31-.53,1.31-1.18v-.54h-12.95v.54ZM272.48,190.9c0,.47.43.86.97.86h20.09c.53,0,.97-.38.97-.86v-9.57h-22.02v9.57ZM294.61,175.62c.61-6.84,3.74-13.37,8.86-18.49,4.82-4.82,7.47-11.12,7.47-17.74s-2.87-13.45-8.09-18.34c-5.18-4.86-12.06-7.53-19.36-7.53h-.2c-14.62.1-26.85,11.38-27.24,25.15-.2,6.98,2.51,13.6,7.63,18.63,5.03,4.94,8.09,11.41,8.69,18.32h3.09v-21.5h-1.16c-3.7,0-6.7-2.86-6.7-6.39v-.29c0-3.52,3.01-6.39,6.7-6.39h.39c3.7,0,6.7,2.86,6.7,6.39v.96h4.13v-.96c0-3.52,3.01-6.39,6.7-6.39s6.7,2.86,6.7,6.39v.29c0,3.52-3.01,6.39-6.7,6.39h-.77v21.5h3.15ZM285.52,175.62v-21.5h-4.13v21.5h4.13ZM292.23,148.41c.42,0,.77-.3.77-.67v-.29c0-.37-.34-.67-.77-.67s-.77.3-.77.67v.96h.77ZM274.31,146.78c-.42,0-.77.3-.77.67v.29c0,.37.34.67.77.67h1.16v-.96c0-.37-.34-.67-.77-.67h-.39Z"/>
      <path class="cls-4" d="M283.49,108.81c8.61,0,16.7,3.15,22.82,8.88,6.17,5.79,9.57,13.49,9.57,21.7,0,7.84-3.14,15.3-8.84,21-4.9,4.9-7.6,11.21-7.6,17.75v12.76c0,2.64-1.95,4.85-4.56,5.43v1.69c0,3.25-2.8,5.9-6.25,5.9h-10.33c-3.44,0-6.25-2.65-6.25-5.9v-1.7c-2.59-.59-4.51-2.79-4.51-5.42v-12.76c0-6.63-2.63-12.87-7.4-17.55-6.06-5.95-9.27-13.78-9.03-22.05.23-7.93,3.68-15.38,9.73-20.98,6.05-5.59,14-8.7,22.41-8.76.08,0,.16,0,.24,0M271.44,176.62h5.03v-23.5h-2.16c-3.14,0-5.7-2.42-5.7-5.39v-.29c0-2.97,2.56-5.39,5.7-5.39h.39c3.14,0,5.7,2.42,5.7,5.39v1.96h6.13v-1.96c0-2.97,2.56-5.39,5.7-5.39s5.7,2.42,5.7,5.39v.29c0,2.97-2.56,5.39-5.7,5.39h-1.77v23.5s5.08,0,5.08,0c.39-6.95,3.42-13.57,8.64-18.78,5.01-5.01,7.76-11.56,7.76-18.45s-2.98-13.99-8.41-19.07c-5.37-5.04-12.47-7.8-20.05-7.8-.07,0-.14,0-.2,0-15.16.1-27.82,11.82-28.24,26.12-.21,7.26,2.61,14.15,7.93,19.37,5.11,5.02,8.08,11.58,8.46,18.61M290.46,149.41h1.77c.97,0,1.77-.75,1.77-1.67v-.29c0-.92-.79-1.67-1.77-1.67s-1.77.75-1.77,1.67v1.96M274.31,149.41h2.16v-1.96c0-.92-.79-1.67-1.77-1.67h-.39c-.97,0-1.77.75-1.77,1.67v.29c0,.92.79,1.67,1.77,1.67M280.4,176.62h6.13v-23.5h-6.13v23.5M273.44,192.76h20.09c1.08,0,1.97-.83,1.97-1.86v-10.57h-24.02v10.57c0,1.02.88,1.86,1.97,1.86M278.3,200.2h10.33c1.27,0,2.31-.98,2.31-2.18v-1.54s-14.95,0-14.95,0v1.54c0,1.2,1.04,2.18,2.31,2.18M283.49,106.81h-.25c-8.91.06-17.34,3.36-23.75,9.29-6.44,5.96-10.13,13.91-10.37,22.39-.25,8.83,3.16,17.19,9.63,23.54,4.39,4.31,6.8,10.03,6.8,16.12v12.76c0,2.98,1.79,5.61,4.51,6.84v.27c0,4.35,3.7,7.9,8.25,7.9h10.33c4.55,0,8.25-3.54,8.25-7.9v-.25c2.75-1.22,4.56-3.86,4.56-6.86v-12.76c0-6.01,2.49-11.81,7.02-16.34,6.08-6.08,9.42-14.04,9.42-22.41,0-8.77-3.62-17-10.2-23.16-6.48-6.08-15.07-9.42-24.19-9.42h0ZM273.27,174.62c-.8-6.8-3.91-13.14-8.89-18.03-4.92-4.83-7.53-11.19-7.33-17.89.38-13.24,12.16-24.08,26.25-24.18h.19c7.05,0,13.69,2.58,18.68,7.26,5.01,4.7,7.77,10.95,7.77,17.61s-2.55,12.4-7.18,17.03c-5.06,5.06-8.23,11.46-9.05,18.2h-1.25v-19.5c4.14-.12,7.47-3.38,7.47-7.38v-.29c0-4.07-3.46-7.39-7.7-7.39s-7.68,3.29-7.7,7.34h-2.13c-.02-4.05-3.47-7.34-7.7-7.34h-.39c-4.25,0-7.7,3.31-7.7,7.39v.29c0,4.07,3.46,7.39,7.7,7.39h.16v19.5h-1.19ZM282.4,155.12h2.13v19.5h-2.13v-19.5h0ZM273.48,182.34h20.02v8.42h-.59s-18.88,0-18.88,0h-.55v-8.42h0Z"/>
    </g>
    <g>
      <path class="cls-4" d="M302.75,134.9c-1.21,0-2.29-.7-2.75-1.77-2.74-6.41-9.25-10.55-16.58-10.55h-.13c-1.64,0-2.97-1.27-2.99-2.84,0-.77.3-1.5.88-2.05.55-.53,1.29-.83,2.07-.83h.17c4.8,0,9.43,1.35,13.39,3.9,3.92,2.52,6.92,6.05,8.69,10.2.3.7.3,1.47,0,2.17-.31.73-.9,1.29-1.66,1.57-.35.13-.72.2-1.09.2Z"/>
      <path class="cls-4" d="M283.42,117.86c4.61,0,9.05,1.29,12.84,3.74,3.75,2.42,6.62,5.79,8.31,9.75.41.95-.08,2.03-1.09,2.42-.24.09-.49.14-.73.14-.78,0-1.52-.44-1.82-1.16-2.9-6.79-9.76-11.16-17.5-11.16h-.15c-1.08,0-1.96-.82-1.97-1.84,0-1.03.87-1.86,1.95-1.87.05,0,.11,0,.16,0M283.42,115.86h-.18c-1.04,0-2.02.4-2.76,1.11-.77.74-1.19,1.72-1.18,2.78.02,2.11,1.8,3.83,3.97,3.83h.15c6.94,0,13.09,3.9,15.66,9.95.62,1.45,2.05,2.38,3.66,2.38.5,0,.98-.09,1.45-.27,1-.38,1.81-1.15,2.22-2.12.4-.95.4-2,0-2.95-1.85-4.33-4.98-8.01-9.07-10.65-4.12-2.66-8.93-4.06-13.93-4.06h0Z"/>
    </g>
    <g>
      <path class="cls-4" d="M304.25,142.25c-.77,0-1.53-.3-2.08-.82-.56-.53-.89-1.27-.89-2.04s.33-1.51.89-2.04c.55-.52,1.3-.82,2.08-.82s1.53.3,2.08.82c.57.54.89,1.28.89,2.04s-.32,1.51-.89,2.04c-.55.52-1.31.82-2.08.82Z"/>
      <path class="cls-4" d="M304.25,137.53c.52,0,1.02.2,1.39.54s.58.82.58,1.31-.21.97-.58,1.31c-.37.35-.87.54-1.39.54s-1.02-.2-1.39-.54c-.37-.35-.58-.82-.58-1.31s.21-.97.58-1.31c.37-.35.87-.54,1.39-.54M304.25,135.53c-1.02,0-2.03.4-2.76,1.09-.76.72-1.2,1.73-1.2,2.77s.44,2.05,1.21,2.77c.72.69,1.73,1.09,2.76,1.09s2.04-.4,2.77-1.09c.76-.72,1.2-1.73,1.2-2.76s-.44-2.04-1.2-2.77c-.73-.69-1.74-1.09-2.76-1.09h0Z"/>
    </g>
    <g>
      <path class="cls-4" d="M319.41,125.69c-.78,0-1.52-.29-2.08-.82-.57-.54-.89-1.27-.89-2.04s.32-1.5.89-2.04l3.66-3.46c.56-.53,1.3-.82,2.08-.82,0,0,0,0,0,0,.78,0,1.52.29,2.08.82.57.54.89,1.27.89,2.04s-.32,1.5-.89,2.04l-3.67,3.46c-.56.53-1.29.82-2.08.82Z"/>
      <path class="cls-4" d="M323.07,117.51c.5,0,1.01.18,1.39.54.77.73.77,1.9,0,2.63l-3.66,3.46c-.38.36-.89.54-1.39.54s-1.01-.18-1.39-.54c-.77-.73-.77-1.9,0-2.63l3.66-3.46c.38-.36.89-.54,1.39-.54M323.07,115.51c-1.04,0-2.02.39-2.76,1.09l-3.66,3.46c-.78.73-1.2,1.71-1.2,2.77,0,1.05.43,2.04,1.2,2.77.74.7,1.73,1.09,2.76,1.09s2.02-.39,2.76-1.09l3.66-3.46c.78-.73,1.2-1.71,1.2-2.77,0-1.05-.43-2.04-1.2-2.77-.74-.7-1.73-1.09-2.76-1.09h0Z"/>
    </g>
    <g>
      <path class="cls-4" d="M323.07,162.27c-.78,0-1.52-.29-2.08-.82l-3.67-3.46c-.57-.54-.89-1.27-.89-2.04s.32-1.5.89-2.04c.56-.53,1.3-.82,2.08-.82s1.52.29,2.08.82l3.67,3.46c.57.54.89,1.27.89,2.04,0,.77-.32,1.5-.89,2.04-.56.53-1.3.82-2.08.82Z"/>
      <path class="cls-4" d="M319.41,154.09c.5,0,1.01.18,1.39.54l3.66,3.46c.77.73.77,1.9,0,2.63-.38.36-.89.54-1.39.54s-1.01-.18-1.39-.54l-3.66-3.46c-.77-.73-.77-1.9,0-2.63.38-.36.89-.54,1.39-.54M319.41,152.09c-1.04,0-2.02.39-2.76,1.09-.78.73-1.2,1.72-1.2,2.77,0,1.05.43,2.03,1.2,2.77l3.66,3.46c.74.7,1.73,1.09,2.76,1.09s2.02-.39,2.76-1.09c.78-.73,1.2-1.71,1.2-2.77,0-1.05-.43-2.04-1.2-2.77l-3.66-3.46c-.74-.7-1.73-1.09-2.76-1.09h0Z"/>
    </g>
    <g>
      <path class="cls-4" d="M326.67,142.25c-1.64,0-2.97-1.28-2.97-2.86s1.33-2.86,2.97-2.86h5.18c1.64,0,2.97,1.28,2.97,2.86s-1.33,2.86-2.97,2.86h-5.18Z"/>
      <path class="cls-4" d="M331.85,137.53c1.09,0,1.97.83,1.97,1.86s-.88,1.86-1.97,1.86h-5.18c-1.09,0-1.97-.83-1.97-1.86s.88-1.86,1.97-1.86h5.18M331.85,135.53h-5.18c-2.19,0-3.97,1.73-3.97,3.86s1.78,3.86,3.97,3.86h5.18c2.19,0,3.97-1.73,3.97-3.86s-1.78-3.86-3.97-3.86h0Z"/>
    </g>
    <g>
      <path class="cls-4" d="M247.52,125.69c-.78,0-1.52-.29-2.08-.82l-3.67-3.46c-.57-.54-.89-1.27-.89-2.04,0-.77.32-1.5.89-2.04.56-.53,1.3-.82,2.08-.82s1.52.29,2.08.82l3.66,3.46c.57.54.89,1.27.89,2.04s-.32,1.5-.89,2.04c-.56.53-1.29.82-2.08.82Z"/>
      <path class="cls-4" d="M243.86,117.51c.5,0,1.01.18,1.39.54l3.66,3.46c.77.73.77,1.9,0,2.63-.38.36-.89.54-1.39.54s-1.01-.18-1.39-.54l-3.66-3.46c-.77-.73-.77-1.9,0-2.63.38-.36.89-.54,1.39-.54M243.86,115.51c-1.04,0-2.02.39-2.76,1.09-.78.73-1.2,1.72-1.2,2.77s.43,2.04,1.2,2.77l3.66,3.46c.74.7,1.73,1.09,2.76,1.09s2.02-.39,2.76-1.09c.78-.73,1.2-1.72,1.2-2.77s-.43-2.04-1.2-2.77l-3.66-3.46c-.74-.7-1.73-1.09-2.76-1.09h0Z"/>
    </g>
    <g>
      <path class="cls-4" d="M243.86,162.27c-.78,0-1.52-.29-2.08-.82-.57-.54-.89-1.27-.89-2.04,0-.77.32-1.5.89-2.04l3.67-3.46c.56-.53,1.3-.82,2.08-.82s1.52.29,2.08.82c.57.54.89,1.27.89,2.04s-.32,1.5-.89,2.04l-3.66,3.46c-.56.53-1.3.82-2.08.82Z"/>
      <path class="cls-4" d="M247.52,154.09c.5,0,1.01.18,1.39.54.77.73.77,1.9,0,2.63l-3.66,3.46c-.38.36-.89.54-1.39.54s-1.01-.18-1.39-.54c-.77-.73-.77-1.9,0-2.63l3.66-3.46c.38-.36.89-.54,1.39-.54M247.52,152.09c-1.04,0-2.02.39-2.76,1.09l-3.66,3.46c-.78.73-1.2,1.71-1.2,2.77,0,1.05.43,2.04,1.2,2.77.74.7,1.73,1.09,2.76,1.09s2.02-.39,2.76-1.09l3.66-3.46c.78-.73,1.2-1.72,1.2-2.77,0-1.05-.43-2.03-1.2-2.77-.74-.7-1.73-1.09-2.76-1.09h0Z"/>
    </g>
    <g>
      <path class="cls-4" d="M235.08,142.25c-1.64,0-2.97-1.28-2.97-2.86s1.33-2.86,2.97-2.86h5.18c1.64,0,2.97,1.28,2.97,2.86s-1.33,2.86-2.97,2.86h-5.18Z"/>
      <path class="cls-4" d="M240.26,137.53c1.09,0,1.97.83,1.97,1.86s-.88,1.86-1.97,1.86h-5.18c-1.09,0-1.97-.83-1.97-1.86s.88-1.86,1.97-1.86h5.18M240.26,135.53h-5.18c-2.19,0-3.97,1.73-3.97,3.86s1.78,3.86,3.97,3.86h5.18c2.19,0,3.97-1.73,3.97-3.86s-1.78-3.86-3.97-3.86h0Z"/>
    </g>
  </g>
  <ellipse class="cls-3" cx="284.46" cy="458.25" rx="107.44" ry="11.87"/>
  <g>
    <g>
      <g>
        <path class="cls-2" d="M264.82,392.83l-.19,2.87-.07,1-.02.28v.06l-.03.43-.04.47h0s-.37,5.51-.37,5.51l-.3,4.48-.03.37-.12,1.8-2.21,32.56s-.04,7.4-9.39,8.51c-3.12.37-7.82,1.19-12.18,1.19-1.38,0-2.72-.08-3.97-.28-9.28-1.52-13.33-9.15,7.99-18.29l-.97-22.32-.18-4-.17-3.93v-.07l-.11-2.37-.23-5.4-.13-2.87h22.72Z"/>
        <polygon class="cls-3" points="264.82 392.83 263.8 407.92 242.46 401.1 242.1 392.83 264.82 392.83"/>
        <path class="cls-4" d="M234.73,388.81l.19,4.34.11,2.55.35,8,.29,6.52v.14l.2,4.51.63,14.42c-4.15,2.07-7.38,4.18-9.81,6.39-5.13,4.67-5.78,9.15-5.42,12.08.41,3.37,2.36,6.37,5.49,8.45,2.18,1.45,4.87,2.45,7.99,2.95,1.56.26,3.24.38,5.12.38,3.83,0,7.66-.51,10.73-.93.84-.12,1.63-.23,2.3-.3,6.04-.72,10.85-3.61,13.54-8.15,1.82-3.08,2.13-5.96,2.18-7.14l2.77-40.81.44-6.51.16-2.38.03-.41.28-4.1h-37.57ZM264.63,395.7l-.07,1-.02.28v.06l-.03.43-.04.47h0s-.37,5.51-.37,5.51l-.3,4.48-.03.37-.12,1.8-2.21,32.56s-.04,7.4-9.39,8.51c-3.12.37-7.82,1.19-12.18,1.19-1.38,0-2.72-.08-3.97-.28-9.28-1.52-13.33-9.15,7.99-18.29l-.97-22.32-.14-3.22s.01,0,.02,0l-.33-7.15-.23-5.4-.13-2.87h22.72l-.19,2.87Z"/>
      </g>
      <g>
        <path class="cls-2" d="M302.11,392.83l1.17,17.27,2.21,32.56s.04,7.4,9.39,8.51c3.12.37,7.83,1.19,12.19,1.19,1.37,0,2.72-.08,3.96-.28,9.29-1.52,13.34-9.14-7.98-18.29l1.32-30.25.46-10.71h-22.72Z"/>
        <polygon class="cls-3" points="302.11 392.83 303.14 407.92 324.47 401.1 324.83 392.83 302.11 392.83"/>
        <path class="cls-4" d="M340.25,435.68c-2.43-2.21-5.67-4.32-9.81-6.39l1.46-33.59.11-2.55.19-4.34h-37.57l.31,4.51.16,2.38,3.22,47.32c.04,1.18.36,4.06,2.18,7.14,2.69,4.54,7.5,7.43,13.54,8.15.66.07,1.46.18,2.29.3,3.08.42,6.91.93,10.74.93,1.88,0,3.56-.12,5.12-.38,3.12-.5,5.81-1.5,7.99-2.95,3.13-2.08,5.08-5.08,5.49-8.45.36-2.93-.29-7.41-5.42-12.08ZM331.03,452.08c-1.24.2-2.59.28-3.96.28-4.36,0-9.06-.82-12.19-1.19-9.35-1.11-9.38-8.51-9.38-8.51l-2.21-32.56-.15-2.17-.83-12.23-.19-2.87h22.72l-.13,2.87-.23,5.4-.11,2.44-1.32,30.25c21.32,9.14,17.27,16.77,7.98,18.29Z"/>
      </g>
    </g>
    <g>
      <path class="cls-7" d="M189.62,380.4c-.46,0-.92-.03-1.37-.06-.19-.02-.37-.04-.56-.06-.23-.03-.46-.06-.69-.09-.26-.04-.53-.08-.79-.14-.02,0-.04,0-.06-.01-2.17-.46-4.2-1.34-5.95-2.56-.03-.02-.06-.04-.08-.06-.25-.18-.49-.36-.73-.55-.14-.11-.27-.23-.41-.35-.22-.19-.43-.37-.63-.57-.23-.22-.45-.45-.67-.68-.1-.11-.19-.23-.29-.34-.18-.21-.35-.42-.51-.64-.08-.11-.17-.23-.25-.34-.17-.24-.33-.49-.48-.74-.06-.09-.12-.19-.17-.28-.2-.35-.39-.72-.56-1.09-.73-1.62-1.1-3.32-1.1-5.08v-125.02c0-.24.02-.47.04-.7.01-.2.01-.41.03-.61.09-.87.28-1.72.55-2.55.14-.41.3-.82.48-1.22.17-.37.36-.73.56-1.09.06-.1.12-.19.18-.29.15-.25.31-.49.48-.73.08-.12.17-.24.26-.35.16-.21.33-.42.5-.62.1-.12.2-.24.3-.36.19-.22.4-.42.61-.63.22-.22.46-.43.7-.64.13-.11.26-.22.39-.33.24-.19.49-.38.74-.56.02-.02.05-.03.07-.05,1.74-1.22,3.77-2.1,5.95-2.56.02,0,.04-.01.07-.02.26-.05.52-.09.79-.14.23-.04.46-.07.69-.09.19-.02.37-.04.56-.06.45-.04.91-.06,1.37-.06h187.69c.46,0,.92.03,1.37.06.19.02.37.04.56.06.23.03.46.06.69.09.26.04.53.08.79.14.02,0,.04.01.07.02,2.17.46,4.2,1.34,5.95,2.56.02.02.05.03.07.05.25.18.5.37.74.56.13.11.26.22.39.33.24.21.47.42.7.64.21.21.42.41.61.63.1.12.2.24.3.36.17.2.34.41.5.62.09.12.17.23.26.35.17.24.33.48.48.73.06.1.12.19.18.29.2.35.39.72.56,1.09.18.4.34.8.47,1.21.28.83.46,1.69.55,2.56.01.12.01.25.02.37.02.31.05.63.05.94v125.02c0,1.76-.37,3.47-1.1,5.08-.17.37-.36.73-.56,1.09-.06.1-.12.19-.17.28-.15.25-.31.5-.48.74-.08.12-.16.23-.25.34-.16.22-.34.43-.51.64-.1.11-.19.23-.29.34-.21.23-.44.46-.67.68-.2.2-.41.39-.63.57-.13.12-.27.23-.41.35-.24.19-.48.38-.73.55-.03.02-.06.04-.08.06-1.74,1.22-3.77,2.1-5.95,2.56-.02,0-.04,0-.06.01-.26.05-.52.09-.79.14-.23.04-.46.07-.69.09-.19.02-.37.04-.56.06-.45.04-.91.06-1.37.06h-187.69Z"/>
      <g>
        <path class="cls-4" d="M212.35,385.98s-.07.07-.11.11c-1.7,1.65-3.66,2.45-6.01,2.45-1.35,0-2.37-.27-2.64-.35l-1.43-.6-1.33.11h-23.54l2.25,6.38c1.5.5,3.06.89,4.66,1.16,1.76.3,3.57.46,5.42.46h142.28l.11-2.55.32-7.17h-119.98Z"/>
        <path class="cls-4" d="M407.91,241.72v125.03c0,.22,0,.45-.02.67-.15,6.91-2.89,13.23-7.33,18.13-1.07,1.18-2.23,2.29-3.49,3.29h-.01c-5.33,4.28-12.22,6.86-19.74,6.86h-45.42l.11-2.55.32-7.17h44.99c11.51,0,20.87-8.63,20.87-19.23v-125.03c0-10.6-9.36-19.22-20.87-19.22h-187.7c-11.51,0-20.87,8.62-20.87,19.22v125.03c0,10.6,9.36,19.23,20.87,19.23h22.73s-.07.07-.11.11c-1.7,1.65-3.66,2.45-6.01,2.45-1.35,0-2.37-.27-2.64-.35l-1.43-.6-1.33.11h-23.54l2.25,6.38c-11.93-3.95-20.51-14.71-20.51-27.33v-125.03c0-15.96,13.72-28.95,30.59-28.95h187.7c16.87,0,30.59,12.99,30.59,28.95Z"/>
        <g>
          <path class="cls-4" d="M340.31,285.03c-1.03-7.17-8.52-12.05-16.69-10.88-8.18,1.17-13.99,7.96-12.97,15.13,0,.05.03.09.04.14,0,.05,0,.09,0,.14,1.03,7.17,8.52,12.05,16.69,10.88,8.18-1.17,13.99-7.96,12.96-15.13,0-.05-.03-.09-.04-.14,0-.05,0-.09,0-.14Z"/>
          <path class="cls-1" d="M337.73,261.03c-6.5-3.56-14.42-3.56-20.92,0-2.54,1.35-5.86,1.56-7.81-.33t0,0c-1.94-1.86-.81-6.11,3.11-8.25,9.41-5.16,20.89-5.15,30.3,0,3.92,2.15,5.06,6.39,3.11,8.25h0c-1.94,1.88-5.27,1.68-7.8.33Z"/>
          <circle class="cls-3" cx="329.5" cy="281.92" r="4.81"/>
        </g>
        <g>
          <path class="cls-4" d="M219.83,285.03c1.03-7.17,8.52-12.05,16.69-10.88,8.18,1.17,13.99,7.96,12.97,15.13,0,.05-.03.09-.04.14,0,.05,0,.09,0,.14-1.03,7.17-8.52,12.05-16.69,10.88-8.18-1.17-13.99-7.96-12.96-15.13,0-.05.03-.09.04-.14,0-.05,0-.09,0-.14Z"/>
          <path class="cls-1" d="M222.41,261.03c6.5-3.56,14.42-3.56,20.92,0,2.54,1.35,5.86,1.56,7.8-.33h0c1.94-1.86.81-6.11-3.11-8.25-9.41-5.16-20.89-5.15-30.3,0-3.92,2.15-5.06,6.39-3.11,8.25h0c1.94,1.88,5.27,1.68,7.81.33Z"/>
          <circle class="cls-3" cx="238.64" cy="281.92" r="4.81"/>
        </g>
      </g>
    </g>
  </g>
  <path class="cls-3" d="M412.56,373.05c-2.54,7.12-8.83,14.05-15.49,15.79,1.26-1,2.42-2.11,3.49-3.29,4.44-4.9,7.18-11.22,7.33-18.13.01-.22.02-.45.02-.67v-8.13c2.69,2.2,6.49,9.26,4.65,14.43Z"/>
  <g>
    <g>
      <path class="cls-8" d="M278.3,202.56c-2.63,0-4.78-2.04-4.78-4.54v-3.9h19.88v3.9c0,2.5-2.14,4.54-4.78,4.54h-10.33Z"/>
      <path class="cls-4" d="M292.91,194.62v3.4c0,2.23-1.92,4.04-4.28,4.04h-10.33c-2.36,0-4.28-1.81-4.28-4.04v-3.4h18.88M293.91,193.62h-20.88v4.4c0,2.78,2.37,5.04,5.28,5.04h10.33c2.91,0,5.28-2.26,5.28-5.04v-4.4h0Z"/>
    </g>
    <g>
      <path class="cls-8" d="M269.01,178.98v-.84c0-6.98-2.77-13.54-7.8-18.48-5.79-5.69-8.86-13.18-8.63-21.08.45-15.56,14.21-28.3,30.69-28.41h.22c17.05,0,30.92,13.11,30.92,29.23,0,7.5-3,14.63-8.45,20.08-5.16,5.16-8,11.79-8,18.68v.84h-28.95Z"/>
      <path class="cls-4" d="M283.49,110.66c16.8,0,30.42,12.86,30.42,28.73,0,7.64-3.15,14.58-8.3,19.72-5.16,5.16-8.14,11.93-8.14,19.03v.33h-27.95v-.34c0-7.01-2.81-13.79-7.95-18.84-5.44-5.34-8.71-12.67-8.48-20.71.44-15.41,13.87-27.82,30.19-27.93.07,0,.15,0,.22,0M283.49,109.66h-.23c-8.14.05-15.86,3.07-21.72,8.49-5.88,5.44-9.24,12.69-9.46,20.41-.23,8.05,2.89,15.67,8.78,21.45,4.93,4.84,7.65,11.28,7.65,18.13v1.34h29.95v-1.33c0-6.76,2.79-13.26,7.85-18.32,5.54-5.54,8.59-12.8,8.59-20.43,0-7.95-3.28-15.42-9.22-21.04-5.93-5.6-13.82-8.69-22.2-8.69h0Z"/>
    </g>
    <g>
      <path class="cls-8" d="M273.44,195.12c-2.44,0-4.43-1.89-4.43-4.21v-12.92h28.95v12.92c0,2.32-1.99,4.21-4.43,4.21h-20.09Z"/>
      <path class="cls-4" d="M297.46,178.48v12.42c0,2.05-1.76,3.71-3.93,3.71h-20.09c-2.17,0-3.93-1.66-3.93-3.71v-12.42h27.95M298.46,177.48h-29.95v13.42c0,2.6,2.21,4.71,4.93,4.71h20.09c1.31,0,2.54-.48,3.47-1.36.95-.89,1.47-2.08,1.47-3.35v-12.42s0-1,0-1h0Z"/>
    </g>
    <path class="cls-4" d="M283.49,108.81c-.08,0-.16,0-.24,0-8.41.06-16.36,3.17-22.41,8.76-6.05,5.59-9.5,13.04-9.73,20.98-.24,8.27,2.97,16.1,9.03,22.05,4.77,4.69,7.4,10.92,7.4,17.55v12.76c0,2.62,1.93,4.82,4.51,5.42v1.7c0,3.25,2.8,5.9,6.25,5.9h10.33c3.44,0,6.25-2.65,6.25-5.9v-1.69c2.61-.58,4.56-2.79,4.56-5.43v-12.76c0-6.55,2.7-12.85,7.6-17.75,5.7-5.7,8.84-13.16,8.84-21,0-8.21-3.4-15.92-9.57-21.7-6.11-5.73-14.21-8.88-22.82-8.88ZM290.94,198.02c0,1.2-1.04,2.18-2.31,2.18h-10.33c-1.27,0-2.31-.98-2.31-2.18v-1.54h14.95v1.54ZM295.5,190.9c0,1.02-.88,1.86-1.97,1.86h-.62s-18.88,0-18.88,0h-.58c-1.08,0-1.97-.83-1.97-1.86v-10.57s24.02,0,24.02,0v10.57h0ZM276.46,149.41h-2.16c-.97,0-1.77-.75-1.77-1.67v-.29c0-.92.79-1.67,1.77-1.67h.39c.97,0,1.77.75,1.77,1.67v1.96h0ZM286.52,176.62h-6.13s0-23.5,0-23.5h6.13s0,23.5,0,23.5ZM304.18,157.84c-5.22,5.22-8.25,11.84-8.64,18.78h-5.08s0-23.5,0-23.5h1.77c3.14,0,5.7-2.42,5.7-5.39v-.29c0-2.97-2.56-5.39-5.7-5.39s-5.7,2.42-5.7,5.39v1.96h-6.13v-1.96c0-2.97-2.56-5.39-5.7-5.39h-.39c-3.14,0-5.7,2.42-5.7,5.39v.29c0,2.97,2.56,5.39,5.7,5.39h2.16s0,23.5,0,23.5h-5.03c-.38-7.03-3.35-13.58-8.46-18.61-5.32-5.23-8.14-12.11-7.93-19.37.41-14.3,13.08-26.02,28.24-26.12,7.65-.05,14.83,2.72,20.25,7.8,5.42,5.08,8.41,11.85,8.41,19.07,0,6.89-2.76,13.44-7.76,18.45ZM290.46,149.41v-1.96c0-.92.79-1.67,1.77-1.67.98,0,1.77.75,1.77,1.67v.29c0,.92-.79,1.67-1.77,1.67h-1.77Z"/>
    <path class="cls-4" d="M296.26,121.6c-3.84-2.48-8.34-3.77-13.01-3.74-1.09,0-1.96.84-1.95,1.87,0,1.02.89,1.84,1.97,1.84h.01s.09,0,.14,0c7.75,0,14.61,4.37,17.5,11.16.31.72,1.05,1.16,1.82,1.16.24,0,.49-.04.73-.14,1.01-.38,1.5-1.47,1.09-2.42-1.69-3.96-4.56-7.33-8.31-9.75Z"/>
    <path class="cls-4" d="M302.86,138.08c-.37.35-.58.82-.58,1.31,0,.49.21.97.58,1.31.37.35.87.54,1.39.54.52,0,1.02-.2,1.39-.54.37-.35.58-.82.58-1.31s-.21-.97-.58-1.31-.87-.54-1.39-.54-1.02.2-1.39.54Z"/>
    <g>
      <path class="cls-4" d="M319.41,125.19c-.65,0-1.27-.24-1.73-.68-.47-.45-.73-1.04-.73-1.68s.26-1.23.73-1.68l3.66-3.46c.47-.44,1.08-.68,1.73-.68s1.27.24,1.73.68c.47.45.73,1.04.73,1.68s-.26,1.23-.73,1.68l-3.66,3.46c-.46.44-1.08.68-1.73.68Z"/>
      <path class="cls-4" d="M323.07,117.51c.5,0,1.01.18,1.39.54.77.73.77,1.9,0,2.63l-3.66,3.46c-.38.36-.89.54-1.39.54s-1.01-.18-1.39-.54c-.77-.73-.77-1.9,0-2.63l3.66-3.46c.38-.36.89-.54,1.39-.54M323.07,116.51c-.78,0-1.52.29-2.08.82l-3.66,3.46c-.57.54-.89,1.27-.89,2.04,0,.77.32,1.5.89,2.04.56.53,1.3.82,2.08.82s1.52-.29,2.08-.82l3.66-3.46c.57-.54.89-1.27.89-2.04,0-.77-.32-1.5-.89-2.04-.56-.53-1.3-.82-2.08-.82h0Z"/>
    </g>
    <g>
      <path class="cls-4" d="M323.07,161.77c-.65,0-1.27-.24-1.73-.68l-3.67-3.46c-.47-.45-.73-1.04-.73-1.68s.26-1.23.73-1.68c.46-.44,1.08-.68,1.73-.68s1.27.24,1.73.68l3.67,3.46c.47.45.73,1.04.73,1.68,0,.64-.26,1.23-.73,1.68-.47.44-1.08.68-1.73.68Z"/>
      <path class="cls-4" d="M319.41,154.09c.5,0,1.01.18,1.39.54l3.66,3.46c.77.73.77,1.9,0,2.63-.38.36-.89.54-1.39.54s-1.01-.18-1.39-.54l-3.66-3.46c-.77-.73-.77-1.9,0-2.63.38-.36.89-.54,1.39-.54M319.41,153.09c-.78,0-1.52.29-2.08.82-.57.54-.89,1.27-.89,2.04,0,.77.32,1.5.89,2.04l3.66,3.46c.56.53,1.3.82,2.08.82s1.52-.29,2.08-.82c.57-.54.89-1.27.89-2.04,0-.77-.32-1.5-.89-2.04l-3.66-3.46c-.56-.53-1.3-.82-2.08-.82h0Z"/>
    </g>
    <g>
      <path class="cls-4" d="M326.67,141.75c-1.36,0-2.47-1.06-2.47-2.36s1.11-2.36,2.47-2.36h5.18c1.36,0,2.47,1.06,2.47,2.36s-1.11,2.36-2.47,2.36h-5.18Z"/>
      <path class="cls-4" d="M331.85,137.53c1.09,0,1.97.83,1.97,1.86s-.88,1.86-1.97,1.86h-5.18c-1.09,0-1.97-.83-1.97-1.86s.88-1.86,1.97-1.86h5.18M331.85,136.53h-5.18c-1.64,0-2.97,1.28-2.97,2.86s1.33,2.86,2.97,2.86h5.18c1.64,0,2.97-1.28,2.97-2.86s-1.33-2.86-2.97-2.86h0Z"/>
    </g>
    <g>
      <path class="cls-4" d="M247.52,125.19c-.65,0-1.27-.24-1.73-.68l-3.67-3.46c-.47-.45-.73-1.04-.73-1.68,0-.64.26-1.23.73-1.68.47-.44,1.08-.68,1.73-.68s1.27.24,1.73.68l3.67,3.46c.47.45.73,1.04.73,1.68s-.26,1.23-.73,1.68c-.46.44-1.08.68-1.73.68Z"/>
      <path class="cls-4" d="M243.86,117.51c.5,0,1.01.18,1.39.54l3.66,3.46c.77.73.77,1.9,0,2.63-.38.36-.89.54-1.39.54s-1.01-.18-1.39-.54l-3.66-3.46c-.77-.73-.77-1.9,0-2.63.38-.36.89-.54,1.39-.54M243.86,116.51c-.78,0-1.52.29-2.08.82-.57.54-.89,1.27-.89,2.04s.32,1.5.89,2.04l3.66,3.46c.56.53,1.3.82,2.08.82s1.52-.29,2.08-.82c.57-.54.89-1.27.89-2.04s-.32-1.5-.89-2.04l-3.66-3.46c-.56-.53-1.3-.82-2.08-.82h0Z"/>
    </g>
    <g>
      <path class="cls-4" d="M243.86,161.77c-.65,0-1.27-.24-1.73-.68-.47-.45-.73-1.04-.73-1.68,0-.64.26-1.23.73-1.68l3.67-3.46c.47-.44,1.08-.68,1.74-.68s1.27.24,1.73.68c.47.45.73,1.04.73,1.68s-.26,1.23-.73,1.68l-3.66,3.46c-.47.44-1.08.68-1.73.68Z"/>
      <path class="cls-4" d="M247.52,154.09c.5,0,1.01.18,1.39.54.77.73.77,1.9,0,2.63l-3.66,3.46c-.38.36-.89.54-1.39.54s-1.01-.18-1.39-.54c-.77-.73-.77-1.9,0-2.63l3.66-3.46c.38-.36.89-.54,1.39-.54M247.52,153.09c-.78,0-1.52.29-2.08.82l-3.66,3.46c-.57.54-.89,1.27-.89,2.04,0,.77.32,1.5.89,2.04.56.53,1.3.82,2.08.82s1.52-.29,2.08-.82l3.66-3.46c.57-.54.89-1.27.89-2.04,0-.77-.32-1.5-.89-2.04-.56-.53-1.3-.82-2.08-.82h0Z"/>
    </g>
    <g>
      <path class="cls-4" d="M235.08,141.75c-1.36,0-2.47-1.06-2.47-2.36s1.11-2.36,2.47-2.36h5.18c1.36,0,2.47,1.06,2.47,2.36s-1.11,2.36-2.47,2.36h-5.18Z"/>
      <path class="cls-4" d="M240.26,137.53c1.09,0,1.97.83,1.97,1.86s-.88,1.86-1.97,1.86h-5.18c-1.09,0-1.97-.83-1.97-1.86s.88-1.86,1.97-1.86h5.18M240.26,136.53h-5.18c-1.64,0-2.97,1.28-2.97,2.86s1.33,2.86,2.97,2.86h5.18c1.64,0,2.97-1.28,2.97-2.86s-1.33-2.86-2.97-2.86h0Z"/>
    </g>
  </g>
  <g>
    <path class="cls-2" d="M425.75,345.25c-12.62,18.73-28.68,19.34-28.68,19.34,0,0-8.21,10.14-18.98,10.14-3.22,0-6.66-.9-10.19-3.26-3.75-2.5-5.8-4.98-6.75-7.31-1-2.44-.8-4.7-.11-6.63,1.3-3.61,4.71-6.06,8.54-6.41,3.36-.3,7.38-1.25,5.32-4.1-.71-.98-1.88-1.54-3.09-1.54h-.07c-2.78,0-2.54-1.66-1.03-3.56,1.13-1.41,2.69-1.92,4.41-1.92,2.88,0,6.2,1.42,8.7,2.44,1.29.52,2.88.77,4.6.77,3.64,0,7.87-1.11,11.03-3.07,4.67-2.89,13.04-4.89,11.26-15.11-.45-2.59-1.49-4.51-2.8-5.94v-20.65s15.86,12.55,20.36,27.41h0c1.91,6.32,1.76,13.04-2.52,19.4Z"/>
    <path class="cls-4" d="M428.8,309.29c-6.86-9.9-15.56-16.84-15.93-17.13l-12.96-10.25v40.29l2.1,2.29c.15.16.6.66.82,1.91.41,2.37.47,2.67-4.37,5.17-1.06.54-2.15,1.11-3.22,1.77-1.8,1.12-4.55,1.87-6.82,1.87-.92,0-1.45-.13-1.58-.18l-.36-.15c-2.98-1.22-7.05-2.88-11.36-2.88s-8.13,1.75-10.67,4.94c-2.61,3.28-3.06,6.21-2.79,8.41-3.73,2.06-6.68,5.39-8.15,9.47-1.46,4.04-3.4,14.41,9.95,23.31,4.58,3.05,9.5,4.6,14.63,4.6,10.77,0,19.09-6.79,22.95-10.65,6.48-1.29,20.26-5.9,31.34-22.36,7.76-11.52,6.49-25.88-3.58-40.43ZM397.07,364.59s-8.21,10.14-18.98,10.14c-3.22,0-6.66-.9-10.19-3.26-3.75-2.5-5.8-4.98-6.75-7.31-1-2.44-.8-4.7-.11-6.63,1.3-3.61,4.71-6.06,8.54-6.41,3.36-.3,7.38-1.25,5.32-4.1-.71-.98-1.88-1.54-3.09-1.54h-.07c-2.78,0-2.54-1.66-1.03-3.56,1.13-1.41,2.69-1.92,4.41-1.92,2.88,0,6.2,1.42,8.7,2.44,1.29.52,2.88.77,4.6.77,3.64,0,7.87-1.11,11.03-3.07,4.67-2.89,13.04-4.89,11.26-15.11-.45-2.59-1.49-4.51-2.8-5.94v-20.65s15.86,12.55,20.36,27.41h0c1.91,6.32,1.76,13.04-2.52,19.4-12.62,18.73-28.68,19.34-28.68,19.34Z"/>
  </g>
  <g>
    <path class="cls-4" d="M319.4,319.52c-1.31-1.1-3.22-1.76-5.93-.78-6.35,2.32-31.36,3.08-32.52,3.11-1.15-.03-26.06-.79-32.41-3.11-2.71-.99-4.62-.33-5.93.78-1.86,1.57-2.56,4.12-2,6.49,1.19,5.04,5,16.44,15.96,23.11,9.97,6.06,19.26,6.24,24.42,6.3h0s0,0,0,0c0,0,.02,0,.02,0h0c5.16-.07,14.48-.24,24.45-6.3,10.96-6.66,14.77-18.07,15.96-23.11.56-2.37-.14-4.92-2-6.49Z"/>
    <path class="cls-2" d="M311.41,324.54c-.15-.28-.47-.43-.78-.35-9.43,2.46-27.61,2.68-29.46,2.69-1.88-.02-20.36-.23-29.79-2.69-.31-.08-.63.06-.78.35-1.39,2.73,3.85,5.25,5.65,6.09,3.65,1.69,7.49,2.49,11.46,2.93,2.77.31,12.03.54,13.18.53,1.17.02,10.64-.22,13.41-.53,3.97-.44,7.81-1.24,11.46-2.93,1.8-.83,7.04-3.36,5.65-6.09Z"/>
    <path class="cls-5" d="M297.32,344.39s-.09-.07-.13-.1c-2.29-1.69-4.69-2.49-7.17-2.93-1.73-.3-7.52-.54-8.23-.52-.74-.02-6.66.22-8.39.52-2.48.44-4.88,1.24-7.16,2.93-.04.03-.08.06-.13.1-.47.35-1.22.94-1.91,1.68,3.17,1.97,9.29,5,17.07,5s14.51-3.16,17.83-5.14c-.65-.68-1.34-1.21-1.78-1.54Z"/>
  </g>
  <g>
    <path class="cls-4" d="M204.71,337.67l.05-.06-.63-.61c-.13-.15-.27-.29-.42-.42l-4.14-4.13-47.55-47.4-6.88-6.87-.04.04-6.03-6.01c-3.45-3.44-8.04-5.34-12.91-5.33-4.87,0-9.45,1.91-12.89,5.37-3.44,3.45-5.33,8.03-5.32,12.91,0,4.86,1.9,9.44,5.36,12.88l13.72,13.67.04-.04,50.31,50.15c.45.56.96,1.07,1.53,1.52l.1.1h0c.71.55,1.53,1.01,2.4,1.36l17.21,7.27c1.29.51,2.67.77,4.06.77,3.81,0,7.4-1.95,9.59-5.19,2.12-3.15,2.56-7.08,1.17-10.51l-7.38-17.12c-.35-.85-.81-1.65-1.37-2.35ZM126.22,297.16l-6.03-6.01c-.53-.52-.97-1.1-1.33-1.71-.06-.1-.12-.21-.17-.31-.03-.05-.06-.11-.09-.16-.04-.08-.08-.16-.12-.24-.04-.08-.08-.16-.11-.24-.07-.16-.13-.32-.19-.48,0,0,0,0,0-.01-.05-.12-.09-.24-.12-.37-.01-.03-.02-.06-.03-.1-.01-.03-.02-.06-.03-.1-.04-.15-.08-.29-.11-.44-.04-.17-.07-.35-.1-.52-.03-.17-.05-.35-.07-.52-.01-.15-.02-.3-.03-.45,0-.06,0-.11,0-.17,0-.14,0-.29,0-.43,0-.08,0-.17.01-.26,0-.17.02-.35.05-.52.02-.17.05-.35.08-.52.01-.09.03-.17.05-.26.04-.17.08-.34.13-.51.04-.17.1-.34.16-.51.03-.08.06-.16.09-.25.03-.09.06-.17.1-.25.04-.08.07-.16.11-.24.08-.19.17-.36.27-.54.07-.12.13-.25.21-.36.08-.13.16-.25.24-.37.06-.09.12-.17.18-.25.04-.05.08-.1.12-.15.07-.09.13-.17.2-.25.08-.1.16-.19.24-.28.08-.09.16-.18.25-.27,1.66-1.67,3.83-2.5,6.01-2.51,2.18,0,4.36.82,6.02,2.48l6.04,6.02-10.53,10.55-1.5,1.5ZM165.38,336.13h0s-7.59-7.56-7.59-7.56l-23.85-23.77,11.98-12.02.04-.04,27.02,26.94,14.71,14.67,2.46,2.45-4.16,4.17-7.86,7.89-12.77-12.73ZM204.44,360.77c.42,1.06-.66,2.34-1.75,2.35-.16,0-.32-.03-.49-.1l-2.87-1.21-13.15-5.55,7.51-7.53,3.88-3.9,6.87,15.94Z"/>
    <g>
      <g>
        <polygon class="cls-2" points="190.17 336.79 186.02 340.97 178.16 348.86 133.95 304.79 142.09 296.62 145.93 292.77 145.97 292.73 190.17 336.79"/>
        <path class="cls-2" d="M138.25,285.11l-3.88,3.88-8.14,8.17-6.03-6.01c-2.66-2.65-3.2-6.62-1.61-9.81.39-.81.93-1.57,1.6-2.24,1.66-1.67,3.83-2.5,6.01-2.51,2.18,0,4.35.82,6.02,2.49l6.04,6.02Z"/>
        <path class="cls-2" d="M202.69,363.12c-.16,0-.32-.03-.49-.1l-2.88-1.22-13.14-5.55,11.39-11.43,6.87,15.94c.42,1.06-.67,2.35-1.76,2.35Z"/>
      </g>
      <g>
        <path class="cls-6" d="M134.37,289l-8.14,8.17-6.03-6.01c-2.66-2.65-3.2-6.62-1.61-9.81,1.17-.59,2.44-.87,3.71-.87,2.18,0,4.35.82,6.02,2.49l6.05,6.03Z"/>
        <polygon class="cls-6" points="142.09 296.62 186.02 340.97 178.16 348.86 133.95 304.79 142.09 296.62"/>
        <polygon class="cls-6" points="199.33 361.81 186.18 356.25 193.69 348.72 199.33 361.81"/>
      </g>
    </g>
  </g>
  <g>
    <path class="cls-4" d="M178.99,325.51c-1.66-9.16-7.25-15-15.33-16.04-1.14-.15-2.27-.23-3.37-.23-3.68,0-6.89.81-9.64,2.18-2.76,1.37-5.07,3.29-6.95,5.53l-10.09-10.09-4.9,10.13c-8.46,17.47-8.88,30.55-1.2,37.81,4.93,4.67,11.75,7.34,18.71,7.34,12.63,0,23.87-8.33,30.83-22.87,2.07-4.34,2.76-9.22,1.94-13.76ZM169.83,335.81c-6.42,13.42-15.55,18.33-23.61,18.33-5.18,0-9.92-2.03-13.21-5.15-2.12-2.01-2.95-4.9-2.98-8.14-.07-6.86,3.43-15.32,5.88-20.38l4.96,4.96c-.11.32-.21.63-.31.93-.77,2.56-1.66,5.67.92,7,.52.28.99.38,1.41.38.61,0,1.11-.23,1.49-.51.58-.45.94-1.12,1.09-1.84.6-2.93,3.64-14.15,14.82-14.15.75,0,1.53.05,2.35.16,2.76.35,4.64,1.64,5.92,3.26,1.54,1.95,2.22,4.39,2.56,6.28.54,3,.03,6.12-1.29,8.87Z"/>
    <path class="cls-2" d="M169.83,335.81c-6.42,13.42-15.55,18.33-23.61,18.33-5.18,0-9.92-2.03-13.21-5.15-2.12-2.01-2.95-4.9-2.98-8.14-.07-6.86,3.43-15.32,5.88-20.38l4.96,4.96c-.11.32-.21.63-.31.93-.77,2.56-1.66,5.67.92,7,.52.28.99.38,1.41.38.61,0,1.11-.23,1.49-.51.58-.45.94-1.12,1.09-1.84.6-2.93,3.64-14.15,14.82-14.15.75,0,1.53.05,2.35.16,2.76.35,4.64,1.64,5.92,3.26,1.54,1.95,2.22,4.39,2.56,6.28.54,3,.03,6.12-1.29,8.87Z"/>
  </g>
  <path class="cls-3" d="M169.83,335.81c-6.42,13.42-15.55,18.33-23.61,18.33-5.18,0-9.92-2.03-13.21-5.15-2.12-2.01-2.95-4.9-2.98-8.14,2.19,6.73,10.99,10.84,21.53,5.62,9.36-4.63,15.33-10.11,17-25.81,1.54,1.95,2.22,4.39,2.56,6.28.54,3,.03,6.12-1.29,8.87Z"/>
  <path class="cls-3" d="M425.75,345.25c-12.62,18.73-28.68,19.34-28.68,19.34,0,0-8.21,10.14-18.98,10.14-3.22,0-6.66-.9-10.19-3.26-3.75-2.5-5.8-4.98-6.75-7.31,2.07,1.82,14.12,11.36,28.13.59l4.59-4.15s32.61-6.9,34.4-34.74c1.91,6.31,1.76,13.03-2.52,19.39Z"/>
</svg>