<?xml version="1.0" encoding="UTF-8"?>
<svg id="Layer_1" data-name="Layer 1" xmlns="http://www.w3.org/2000/svg" xmlns:xlink="http://www.w3.org/1999/xlink" viewBox="0 0 566.93 566.93">
  <defs>
    <style>
      .cls-1 {
        fill: #263e7a;
      }

      .cls-2 {
        fill: #7cc57b;
      }

      .cls-3 {
        fill: #fff;
      }

      .cls-4 {
        fill: #d1eefc;
      }

      .cls-5 {
        fill: #253e79;
      }

      .cls-6 {
        fill: #f05681;
      }

      .cls-7 {
        fill: url(#linear-gradient);
      }

      .cls-8 {
        fill: #ead655;
      }
    </style>
    <linearGradient id="linear-gradient" x1="1137.47" y1="594.48" x2="1147.51" y2="537.53" gradientTransform="translate(-930.72 -112.39) rotate(-9.66)" gradientUnits="userSpaceOnUse">
      <stop offset="0" stop-color="#fff"/>
      <stop offset=".43" stop-color="#fcfdfe"/>
      <stop offset=".74" stop-color="#f2fafe"/>
      <stop offset="1" stop-color="#e4f5fd"/>
    </linearGradient>
  </defs>
  <ellipse class="cls-4" cx="301.19" cy="437.18" rx="107.44" ry="11.87"/>
  <g>
    <g>
      <path class="cls-3" d="M285.31,374.59l-.3,2.86-.11,1-.03.28v.06s-.05.43-.05.43l-.06.47h0s-.58,5.49-.58,5.49l-.47,4.47-.04.37-.19,1.79-3.47,32.45s-.33,7.39-9.71,8.14c-3.13.25-7.86.89-12.22.72-1.38-.05-2.71-.19-3.96-.43-9.21-1.88-12.97-9.66,8.69-17.97l-.11-22.34-.03-4-.02-3.93v-.07s-.02-2.37-.02-2.37l.16-3.98,22.5-3.42Z"/>
      <polygon class="cls-4" points="285.31 374.6 284.09 385.97 262.68 386.49 262.81 378.02 285.31 374.6"/>
      <path class="cls-5" d="M255.6,373.71l-.13,10.61.04,6.53v.14s.02,4.51.02,4.51l.07,14.43c-4.23,1.91-7.54,3.89-10.05,6.01-5.31,4.47-6.13,8.92-5.88,11.86.28,3.38,2.11,6.46,5.16,8.66,2.12,1.53,4.77,2.64,7.87,3.26,1.55.32,3.22.5,5.1.58,3.83.15,7.67-.21,10.76-.51.84-.09,1.64-.17,2.31-.21,6.06-.49,10.98-3.19,13.84-7.62,1.94-3.01,2.36-5.87,2.45-7.05l4.34-40.67.69-6.49.25-2.37.05-.41.44-4.09-37.33,2.85ZM285,377.45l-.11,1-.03.28v.06s-.05.43-.05.43l-.06.47h0s-.58,5.49-.58,5.49l-.47,4.47-.04.37-.19,1.79-3.47,32.45s-.33,7.39-9.71,8.14c-3.13.25-7.86.89-12.22.72-1.38-.05-2.71-.19-3.96-.43-9.21-1.88-12.97-9.66,8.69-17.97l-.11-22.34-.02-3.22s.01,0,.02,0l-.06-7.16.16-3.98,22.5-3.42-.3,2.86Z"/>
    </g>
    <g>
      <path class="cls-3" d="M324.13,368.5l8.7,14.96,16.41,28.2s3.32,6.62,12.19,3.47c2.96-1.05,7.54-2.4,11.45-4.33,1.23-.61,2.4-1.28,3.43-2.01,7.65-5.48,7.9-14.11-15.26-12.86l-12.22-27.7-1.47-3.33-23.23,3.6Z"/>
      <polygon class="cls-4" points="324.13 368.5 330.2 378.93 349.49 369.74 346.42 362.78 324.13 368.5"/>
      <path class="cls-5" d="M377.31,390c-3.16-.9-7-1.36-11.63-1.38l-14-31.72-36.04,11.3,2.28,3.91,1.2,2.06,23.86,40.99c.56,1.04,2.12,3.48,5.12,5.43,4.42,2.88,10.02,3.34,15.75,1.3.62-.23,1.39-.49,2.19-.75,2.95-.99,6.61-2.23,10.04-3.93,1.69-.83,3.14-1.69,4.42-2.61,2.58-1.83,4.54-3.92,5.85-6.19,1.88-3.25,2.3-6.81,1.18-10.01-.98-2.79-3.54-6.51-10.21-8.43ZM376.31,408.79c-1.02.73-2.2,1.4-3.43,2.01-3.91,1.93-8.48,3.28-11.45,4.34-8.87,3.15-12.18-3.47-12.18-3.47l-16.41-28.21-1.1-1.88-6.16-10.6-1.44-2.49,20.37-10.07,1.16,2.63,2.19,4.94.98,2.24,12.22,27.7c23.16-1.26,22.91,7.38,15.26,12.86Z"/>
    </g>
  </g>
  <g>
    <g>
      <path class="cls-7" d="M210.63,375.16c-.45.08-.91.13-1.36.17-.19.02-.37.03-.56.04-.23.01-.47.02-.7.02-.27,0-.53,0-.8,0-.02,0-.04,0-.06,0-2.22-.09-4.37-.62-6.29-1.52-.03-.01-.06-.03-.09-.04-.28-.13-.55-.27-.81-.42-.16-.09-.31-.18-.46-.27-.24-.15-.48-.3-.72-.46-.26-.18-.52-.37-.77-.56-.12-.09-.23-.19-.34-.28-.21-.18-.42-.36-.61-.55-.1-.1-.2-.2-.3-.3-.21-.21-.41-.43-.6-.65-.07-.08-.15-.17-.22-.25-.26-.32-.51-.64-.73-.98-.99-1.47-1.64-3.09-1.93-4.83l-1.43-8.42-14.34-84.21-5.21-30.63c-.04-.23-.06-.47-.08-.7-.02-.2-.06-.4-.07-.6-.05-.87-.02-1.74.12-2.6.07-.43.15-.86.27-1.29.1-.39.23-.78.37-1.16.04-.11.08-.21.13-.32.11-.27.22-.54.35-.8.06-.13.13-.26.19-.39.12-.24.25-.47.39-.7.08-.13.15-.27.24-.4.16-.25.33-.48.5-.72.18-.25.38-.5.58-.74.11-.13.22-.26.33-.39.2-.23.41-.46.63-.67.02-.02.04-.04.06-.06,1.52-1.49,3.37-2.7,5.43-3.52.02,0,.04-.02.06-.03.25-.1.5-.18.75-.27.22-.07.44-.14.67-.21.18-.05.36-.1.54-.15.44-.11.89-.21,1.34-.29l185.03-31.5c.45-.08.91-.13,1.36-.17.19-.02.37-.03.56-.04.23-.01.47-.02.7-.02.27,0,.53,0,.8,0,.02,0,.04,0,.07,0,2.22.09,4.37.62,6.29,1.52.03.01.05.02.08.04.28.13.55.28.82.43.15.08.29.17.44.26.27.16.54.33.79.51.24.17.48.34.71.52.12.1.24.2.36.3.2.17.41.35.6.53.11.1.21.2.31.31.21.21.4.42.59.64.07.09.15.17.22.26.26.32.51.64.73.98.24.36.47.74.67,1.12.41.78.74,1.59.98,2.43.03.12.05.24.08.36.08.3.15.61.21.92l5.21,30.63,14.34,84.21,1.43,8.42c.29,1.73.22,3.48-.23,5.19-.1.39-.23.78-.37,1.17-.04.1-.08.21-.12.31-.11.27-.22.54-.35.81-.06.13-.12.25-.19.38-.12.24-.26.48-.4.72-.08.13-.15.26-.23.38-.17.27-.35.53-.54.79-.17.23-.34.45-.53.67-.11.14-.23.28-.34.41-.2.23-.41.45-.63.67-.02.02-.05.05-.07.07-1.52,1.49-3.37,2.7-5.43,3.52-.02,0-.04.02-.05.02-.25.1-.5.18-.75.27-.22.07-.44.14-.67.21-.18.05-.36.1-.54.15-.44.11-.88.21-1.34.29h0s-185.03,31.5-185.03,31.5h0Z"/>
      <g>
        <path class="cls-5" d="M233.98,376.85s-.06.08-.09.13c-1.4,1.91-3.2,3.03-5.51,3.42-1.33.23-2.38.13-2.66.1l-1.51-.35-1.29.33-23.21,3.95,3.29,5.91c1.56.24,3.17.36,4.79.36,1.79,0,3.6-.15,5.42-.46l140.26-23.88-.32-2.53-.89-7.12-118.28,20.14Z"/>
        <path class="cls-5" d="M402.55,201.81l20.98,123.26c.04.22.07.45.09.66,1.01,6.84-.63,13.53-4.18,19.1-.86,1.34-1.81,2.63-2.89,3.83h0c-4.54,5.12-10.9,8.82-18.31,10.08l-44.78,7.62-.32-2.53-.89-7.12,44.35-7.55c11.35-1.93,19.13-12.01,17.35-22.46l-20.98-123.26c-1.78-10.45-12.45-17.38-23.8-15.44l-185.04,31.5c-11.35,1.93-19.13,12-17.35,22.45l20.98,123.26c1.78,10.45,12.45,17.39,23.8,15.45l22.41-3.81s-.06.08-.09.13c-1.4,1.91-3.2,3.03-5.51,3.42-1.33.23-2.38.13-2.66.1l-1.51-.35-1.29.33-23.21,3.95,3.29,5.91c-12.42-1.89-22.69-11.06-24.81-23.5l-20.98-123.26c-2.68-15.73,8.67-30.84,25.3-33.67l185.04-31.5c16.63-2.83,32.34,7.67,35.01,23.41Z"/>
        <g>
          <path class="cls-5" d="M343.18,255.86c-2.22-6.9-10.42-10.45-18.28-7.92-7.86,2.53-12.46,10.2-10.24,17.09.01.05.04.08.06.13.01.05.01.09.03.14,2.22,6.9,10.42,10.45,18.28,7.92,7.86-2.53,12.46-10.2,10.24-17.09-.01-.05-.04-.08-.06-.13-.01-.05-.01-.09-.03-.14Z"/>
          <path class="cls-1" d="M338.9,233.6c-7.9-3.42-16.39-2.21-22.41,2.02-2.37,1.61-5.6,2.11-7.95.68t0,0c-2.33-1.39-2.16-5.37,1.39-8.07,8.51-6.44,20.36-8.42,31.37-4.28,4.56,1.68,7.03,6.31,5.64,8.69h0c-1.37,2.41-4.95,2.28-8.03.97Z"/>
          <circle class="cls-4" cx="332" cy="254.6" r="4.81"/>
        </g>
        <path class="cls-5" d="M248.51,282.83c-2.65.45-5.16-1.33-5.61-3.98-.74-4.32-4.85-7.24-9.17-6.5-4.32.74-7.24,4.85-6.5,9.17.45,2.65-1.33,5.16-3.98,5.61s-5.16-1.33-5.61-3.98c-1.64-9.61,4.85-18.75,14.46-20.39,9.61-1.64,18.75,4.85,20.39,14.46.45,2.65-1.33,5.16-3.98,5.61Z"/>
        <path class="cls-5" d="M297.22,324.54c-14.79,2.52-30.01-2.11-40.73-12.39-1.94-1.86-2-4.93-.14-6.87,1.86-1.94,4.93-2,6.87-.14,8.5,8.15,20.6,11.82,32.37,9.82,11.76-2,21.97-9.47,27.29-19.98,1.21-2.39,4.14-3.35,6.53-2.14,2.39,1.21,3.35,4.14,2.14,6.53-6.71,13.24-19.55,22.65-34.33,25.17Z"/>
      </g>
    </g>
    <path class="cls-4" d="M429.18,330.5c-1.31,7.45-6.35,15.33-12.62,18.17,1.07-1.2,2.03-2.49,2.89-3.83,3.55-5.58,5.2-12.27,4.18-19.1-.03-.22-.06-.45-.09-.66l-1.36-8.01c3.02,1.72,7.95,8.04,7.01,13.44Z"/>
    <g>
      <path class="cls-5" d="M328.36,293.36c-1.48-.87-3.47-1.2-5.98.23-5.87,3.35-30.4,8.3-31.54,8.52-1.14.16-25.83,3.59-32.47,2.37-2.83-.52-4.61.45-5.72,1.76-1.57,1.86-1.83,4.49-.89,6.73,2.02,4.77,7.69,15.37,19.61,20.1,10.85,4.3,20.03,2.92,25.13,2.12h0s0,0,0,0c0,0,.01,0,.02,0h0c5.08-.93,14.23-2.67,23.04-10.32,9.68-8.41,11.52-20.29,11.85-25.46.15-2.43-.97-4.83-3.06-6.06Z"/>
      <path class="cls-3" d="M321.32,299.66c-.19-.26-.53-.34-.82-.21-8.89,4.01-26.77,7.27-28.59,7.6-1.86.3-20.11,3.19-29.82,2.34-.32-.03-.61.17-.71.47-.92,2.92,4.68,4.53,6.59,5.05,3.88,1.06,7.8,1.2,11.79.96,2.78-.16,11.95-1.48,13.08-1.69,1.16-.18,10.46-2,13.13-2.77,3.84-1.1,7.49-2.53,10.8-4.81,1.63-1.12,6.38-4.5,4.55-6.95Z"/>
      <path class="cls-6" d="M310.76,321.59c-.06-.03-.1-.05-.14-.08-2.54-1.28-5.04-1.67-7.56-1.69-1.76,0-7.5.73-8.2.87-.73.1-6.53,1.33-8.18,1.92-2.37.85-4.6,2.04-6.57,4.09-.03.04-.07.07-.11.12-.4.42-1.04,1.13-1.6,1.98,3.46,1.41,10,3.37,17.67,2.06,7.84-1.33,13.77-5.55,16.71-8.06-.75-.56-1.52-.97-2.01-1.22Z"/>
    </g>
  </g>
  <g>
    <path class="cls-3" d="M171.55,332.55c-25.74-.73-47.76-24.63-53.15-30.96-14.77-.56-26.12-7.88-28.31-9.4-6.59-4.55-8.21-11.19-4.35-17.78,1.96-3.34,5.78-5.18,10.76-5.18,1.98,0,3.5.29,3.67.33l.15.03.15.04c.34.1,8.35,2.35,12.28,3.89.59.23,1.32.36,2.04.36.4,0,.74-.04,1-.09-1.26-9,3.38-11.48,5.5-12.13.63-.2,1.27-.29,1.89-.29,3.76,0,6.33,3.33,6.49,8.33.49,2.11,1.08,3.25,1.88,4.79,1,1.95,2.24,4.34,3.33,8.91,12.41,12.84,32.25,13.96,32.45,13.97l3.22.16.54,3.18,5.35,31.98-4.86-.14Z"/>
    <path class="cls-5" d="M123.16,265.36c2.49,0,2.49,4.81,2.49,4.81,1.35,6.26,3.62,6.35,5.54,15.17,13.67,14.99,35.92,16.02,35.92,16.02l4.55,27.18c-27.52-.78-51.36-30.93-51.36-30.93h-.13c-12.65,0-23.33-5.63-27.82-8.72-4.5-3.11-6.13-7.42-3.17-12.46,1.57-2.67,4.88-3.21,7.31-3.21,1.64,0,2.88.25,2.88.25,0,0,8.11,2.27,11.89,3.76,1.09.43,2.32.64,3.51.64,2.92,0,5.56-1.28,5.12-3.7-.62-3.41-.63-7.72,2.57-8.7.26-.08.49-.12.71-.12M123.16,257.36c-1.02,0-2.06.16-3.07.47-2.03.63-7.63,3.08-8.43,11.04-4.12-1.41-9.42-2.9-10.13-3.1l-.29-.08-.3-.06c-.34-.07-2.13-.4-4.45-.4-6.45,0-11.5,2.54-14.21,7.16-4.89,8.33-2.72,17.4,5.53,23.09,6.43,4.44,17.05,9.15,28.68,10,7.2,8.13,29.18,30.34,54.95,31.06l9.72.27-1.6-9.59-4.55-27.18-1.07-6.37-6.46-.3c-.16,0-17.71-1.06-29.02-12.02-1.13-4.32-2.37-6.72-3.39-8.7-.68-1.32-1.09-2.12-1.45-3.53-.38-6.98-4.58-11.77-10.47-11.77h0Z"/>
  </g>
  <g>
    <path class="cls-3" d="M407.14,252.61l3.12-1.15c.21-.08,21.56-8.11,31.01-23.9-.02-4.7.62-7.33,1.15-9.47.42-1.69.72-2.94.7-5.09-.33-1.58-.76-5.11,1.17-7.59,1.13-1.45,2.81-2.25,4.73-2.25.11,0,.22,0,.34,0,2.26.11,7.46,1.36,8.42,10.4,1.06-.03,2.33-.45,3.22-1.07,3.55-2.47,11.01-6.64,11.33-6.82l.13-.07.13-.06c.39-.18,3.91-1.77,7.81-1.77,3.07,0,5.71,1,7.62,2.89,5.44,5.37,5.45,12.43.03,18.4-1.83,2.02-11.39,11.92-26.03,16.11-3.73,7.45-19.45,35.99-45.03,43.08l-4.27,1.18-5.59-32.84Z"/>
    <path class="cls-5" d="M449.03,207.16s.1,0,.15,0c3.45.16,4.5,4.34,4.71,7.8.11,1.81,1.75,2.61,3.78,2.61,1.84,0,3.99-.65,5.62-1.79,3.43-2.39,10.99-6.6,10.99-6.6,0,0,3-1.39,6.13-1.39,1.72,0,3.48.42,4.81,1.73,4.2,4.15,3.63,8.74-.12,12.87-3.75,4.13-13.12,12.28-25.87,15.4,0,0-15.9,35.02-43.29,42.62l-4.29-25.19s23.63-8.68,33.65-26.62c-.24-9.03,2-9.69,1.83-16.09,0,0-1.35-5.35,1.91-5.35M449.03,199.16h0c-3.14,0-6.01,1.38-7.89,3.79-2.74,3.52-2.47,7.94-2.01,10.45-.01,1.43-.23,2.3-.58,3.73-.51,2.06-1.18,4.78-1.26,9.28-8.96,13.95-28.21,21.23-28.41,21.31l-6.21,2.31,1.1,6.54,4.29,25.19,1.49,8.73,8.54-2.37c25.55-7.08,41.68-33.96,46.74-43.6,11.39-3.68,20.86-10.86,26.21-16.75,6.9-7.61,6.83-17.01-.18-23.94-2.67-2.64-6.28-4.04-10.43-4.04-4.66,0-8.73,1.78-9.5,2.14l-.27.12-.26.14c-.69.38-5.96,3.33-9.78,5.77-2.21-6.09-6.81-8.59-11.05-8.8-.18,0-.36-.01-.53-.01h0Z"/>
  </g>
  <path class="cls-6" d="M155.03,159.19c7.26,11.1,4.15,25.99-6.95,33.26s-30.42,8.22-37.68-2.88c-7.26-11.1.27-30.06,11.38-37.32,11.1-7.26,25.99-4.15,33.26,6.95Z"/>
  <path class="cls-8" d="M275.24,119.58c0,13.27-10.76,24.02-24.02,24.02s-28.72-9.16-28.72-22.43,15.45-25.62,28.72-25.62,24.02,10.76,24.02,24.02Z"/>
  <path class="cls-2" d="M416.56,139.28c0,13.27-10.76,24.02-24.02,24.02s-31.96-15.04-31.96-28.3,18.69-19.74,31.96-19.74,24.02,10.76,24.02,24.02Z"/>
  <path class="cls-5" d="M107.58,243.06c-.88-6.77-1.31-13.64-.65-20.46.16-2.26.47-4.76,1.39-6.84,1.22-2.87,2.86-5.57,5.35-7.72l.46.21c.04,3.28-.5,6.15-1.03,8.98-.93,4.23-2.71,8.22-3.2,12.57-.78,4.39-1.25,8.82-1.82,13.27,0,0-.5,0-.5,0h0Z"/>
  <path class="cls-5" d="M423.09,159c5.07,3.19,9.89,6.82,14.34,10.86,2.23,2.02,4.73,3.85,6.4,6.4,1.68,2.52,3.12,5.25,3.73,8.47l-.41.29c-2.85-1.59-5.05-3.54-7.17-5.56-3.08-3.13-5.24-7.02-8.29-10.2-2.87-3.39-5.85-6.64-8.92-9.88,0,0,.32-.39.32-.39h0Z"/>
  <path class="cls-5" d="M290.37,115.01c10.08-.74,20.24-.91,30.33-.02,10.21.47,20.42,2.63,29.27,7.97,0,0-.14.48-.14.48-2.61.02-5.14-.2-7.64-.48-4.96-.53-9.88-1.25-14.73-2.42-7.25-1.84-14.67-2.81-22.1-3.66-4.97-.6-9.98-.97-15-1.37,0,0,0-.5,0-.5h0Z"/>
  <path class="cls-5" d="M164.87,148.12c6.52-5.47,13.51-10.54,21.16-14.36,7.53-4.26,15.87-7,24.61-6.8,0,0,.14.48.14.48-5.31,3.6-11.14,6.15-17.2,8.05-6.03,1.67-11.74,4.21-17.33,7.01-3.76,1.85-7.41,3.96-11.1,6.04,0,0-.29-.41-.29-.41h0Z"/>
</svg>