<?xml version="1.0" encoding="UTF-8"?>
<svg id="Layer_1" data-name="Layer 1" xmlns="http://www.w3.org/2000/svg" xmlns:xlink="http://www.w3.org/1999/xlink" viewBox="0 0 566.93 566.93">
  <defs>
    <style>
      .cls-1 {
        fill: #263e7a;
      }

      .cls-2 {
        fill: #7cc57b;
      }

      .cls-3 {
        fill: url(#New_Gradient_Swatch_1-3);
      }

      .cls-3, .cls-4 {
        stroke-width: 7px;
      }

      .cls-3, .cls-4, .cls-5, .cls-6 {
        stroke: #253e79;
        stroke-miterlimit: 10;
      }

      .cls-3, .cls-4, .cls-6 {
        stroke-linecap: round;
      }

      .cls-7 {
        fill: #fff;
      }

      .cls-8 {
        fill: #d1eefc;
      }

      .cls-4, .cls-5, .cls-6 {
        fill: none;
      }

      .cls-9 {
        fill: #253e79;
      }

      .cls-10 {
        fill: #f05681;
      }

      .cls-5, .cls-6 {
        stroke-width: 5px;
      }

      .cls-11 {
        fill: url(#New_Gradient_Swatch_1-2);
      }

      .cls-12 {
        fill: #3dc3f1;
      }

      .cls-13 {
        fill: #e4f5fd;
      }

      .cls-14 {
        fill: url(#linear-gradient);
      }

      .cls-15 {
        fill: #ead655;
      }

      .cls-16 {
        fill: url(#New_Gradient_Swatch_1);
      }
    </style>
    <linearGradient id="linear-gradient" x1="281.28" y1="298.77" x2="291.32" y2="241.83" gradientUnits="userSpaceOnUse">
      <stop offset="0" stop-color="#fff"/>
      <stop offset=".43" stop-color="#fcfdfe"/>
      <stop offset=".74" stop-color="#f2fafe"/>
      <stop offset="1" stop-color="#e4f5fd"/>
    </linearGradient>
    <linearGradient id="New_Gradient_Swatch_1" data-name="New Gradient Swatch 1" x1="326.59" y1="307.49" x2="326.59" y2="265.04" gradientUnits="userSpaceOnUse">
      <stop offset="0" stop-color="#e4f5fd"/>
      <stop offset=".08" stop-color="#e9f6fd" stop-opacity=".8"/>
      <stop offset=".17" stop-color="#eef8fd" stop-opacity=".62"/>
      <stop offset=".26" stop-color="#f2fafe" stop-opacity=".45"/>
      <stop offset=".35" stop-color="#f6fbfe" stop-opacity=".31"/>
      <stop offset=".46" stop-color="#f9fdfe" stop-opacity=".2"/>
      <stop offset=".56" stop-color="#fcfdfe" stop-opacity=".11"/>
      <stop offset=".68" stop-color="#fdfefe" stop-opacity=".05"/>
      <stop offset=".81" stop-color="#fefefe" stop-opacity=".01"/>
      <stop offset="1" stop-color="#fff" stop-opacity="0"/>
    </linearGradient>
    <linearGradient id="New_Gradient_Swatch_1-2" data-name="New Gradient Swatch 1" x1="-4002.92" x2="-4002.92" gradientTransform="translate(-3767.5) rotate(-180) scale(1 -1)" xlink:href="#New_Gradient_Swatch_1"/>
    <linearGradient id="New_Gradient_Swatch_1-3" data-name="New Gradient Swatch 1" x1="281.01" y1="276.78" x2="281.01" y2="273.89" xlink:href="#New_Gradient_Swatch_1"/>
  </defs>
  <g>
    <g>
      <polygon class="cls-7" points="163.23 310.62 162.47 343.53 140.61 345.96 139.35 319.77 163.23 310.62"/>
      <path class="cls-9" d="M159.52,315.89l-.56,24.42-14.94,1.66-.95-19.77,16.45-6.31M164.49,305.67l-7.54,3.51-16.45,6.31-4.85,1.86.25,5.19.95,19.77.37,7.64,7.6-.84,14.94-1.66,6.24-.69-1.5-41.08Z"/>
    </g>
    <g>
      <path class="cls-9" d="M153.42,356.54l.08-.02-.23-.85c-.03-.2-.08-.39-.15-.58l-1.47-5.66-16.86-64.99-2.44-9.41-.06.02-2.14-8.24c-1.22-4.72-4.21-8.68-8.41-11.15-4.2-2.47-9.11-3.15-13.83-1.93-4.72,1.22-8.67,4.21-11.14,8.41-2.46,4.19-3.16,9.1-1.93,13.81l4.87,18.75h.06s17.84,68.74,17.84,68.74c.11.71.29,1.41.54,2.09l.03.13h.01c.33.84.79,1.65,1.37,2.4l11.13,15.01c.86,1.09,1.91,2.02,3.11,2.73,3.29,1.93,7.36,2.08,10.89.4,3.43-1.63,5.8-4.8,6.35-8.46l2.34-18.49c.14-.91.14-1.84.02-2.72ZM106.41,281.77l-2.14-8.24c-.19-.72-.27-1.44-.27-2.15,0-.12,0-.24,0-.35,0-.06,0-.12,0-.18,0-.09.01-.18.02-.27,0-.09.02-.18.03-.27.02-.17.05-.34.08-.51,0,0,0,0,0-.01.02-.13.05-.25.08-.38,0-.03.01-.07.03-.11,0-.03.01-.07.03-.1.04-.15.08-.29.13-.43.05-.17.11-.33.18-.49.06-.16.13-.33.21-.48.06-.14.13-.27.2-.4.03-.05.05-.1.08-.15.07-.13.14-.25.22-.37.04-.07.09-.15.14-.22.09-.15.19-.29.3-.43.11-.14.22-.27.33-.41.05-.07.11-.14.18-.2.12-.13.24-.25.37-.38.13-.13.26-.25.39-.35.07-.05.14-.11.2-.16.07-.06.14-.11.21-.16.07-.05.14-.11.22-.16.16-.12.33-.22.51-.33.12-.07.24-.14.36-.21.13-.07.26-.14.4-.2.09-.05.19-.09.28-.13.06-.03.12-.05.18-.07.1-.04.2-.08.3-.11.12-.04.23-.08.35-.11.11-.04.23-.07.35-.1,2.28-.59,4.57-.21,6.45.9,1.88,1.11,3.33,2.92,3.93,5.2l2.14,8.25-14.43,3.74-2.05.53ZM120.34,335.23h0s-2.69-10.37-2.69-10.37l-8.46-32.59,16.43-4.26h.06s9.58,36.92,9.58,36.92l5.21,20.11.87,3.36-5.7,1.48-10.78,2.8-4.53-17.46ZM141.45,376.3c-.17,1.13-1.76,1.68-2.7,1.13-.14-.08-.26-.19-.37-.33l-1.86-2.51-8.5-11.46,10.29-2.67,5.32-1.38-2.18,17.22Z"/>
      <g>
        <g>
          <polygon class="cls-7" points="141.34 348.4 135.65 349.88 124.87 352.68 109.19 292.26 120.35 289.37 125.61 288 125.67 287.99 141.34 348.4"/>
          <path class="cls-7" d="M122.89,277.5l-5.32,1.37-11.16,2.9-2.14-8.24c-.94-3.64.61-7.32,3.59-9.27.75-.5,1.59-.88,2.51-1.12,2.28-.59,4.57-.21,6.45.9,1.88,1.11,3.33,2.92,3.92,5.2l2.14,8.25Z"/>
          <path class="cls-7" d="M138.75,377.43c-.14-.08-.26-.19-.37-.33l-1.86-2.51-8.5-11.46,15.61-4.05-2.18,17.22c-.17,1.13-1.77,1.68-2.71,1.13Z"/>
        </g>
        <g>
          <path class="cls-13" d="M117.57,278.88l-11.16,2.9-2.14-8.24c-.94-3.64.61-7.32,3.59-9.27,1.3.09,2.54.49,3.64,1.14,1.88,1.11,3.33,2.92,3.92,5.2l2.15,8.27Z"/>
          <polygon class="cls-13" points="120.35 289.37 135.65 349.88 124.87 352.68 109.19 292.26 120.35 289.37"/>
          <polygon class="cls-13" points="136.52 374.59 128.02 363.13 138.31 360.46 136.52 374.59"/>
        </g>
      </g>
    </g>
    <polygon class="cls-8" points="148.33 336.63 159.07 335.23 158.95 340.31 149.56 341.35 148.33 336.63"/>
    <g>
      <path class="cls-7" d="M125.64,312.87c4.86,9.44,4.41,20.58-1.16,28.4-3.88,5.45-8.26,6.59-11.25,6.59-2.78,0-5.61-.94-8.39-2.8-3.8-2.54-6.79-6.54-8.42-11.26-3.6-10.41-2.92-18.95,2.07-26.09l.06-.08.06-.08c4.07-5.16,8.46-6.25,11.43-6.25,5.95,0,11.93,4.43,15.6,11.56Z"/>
      <path class="cls-9" d="M110.04,304.9c11.04,0,21.17,20.74,11.52,34.29-2.69,3.78-5.6,5.09-8.33,5.09-2.36,0-4.58-.98-6.4-2.2-3.29-2.2-5.7-5.6-7.02-9.44-2.88-8.35-3.08-16.13,1.62-22.86,2.7-3.43,5.69-4.88,8.61-4.88M110.04,297.71c-3.76,0-9.29,1.32-14.25,7.62l-.13.16-.12.17c-5.61,8.04-6.46,17.9-2.52,29.32,1.89,5.46,5.37,10.1,9.82,13.07,3.38,2.26,6.88,3.4,10.38,3.4,3.83,0,9.4-1.41,14.18-8.1,3.39-4.76,5.19-10.51,5.2-16.64.01-5.32-1.29-10.68-3.77-15.49-4.36-8.46-11.39-13.51-18.8-13.51h0Z"/>
    </g>
    <path class="cls-8" d="M114.72,306.12c5.86,6.84,8.46,19.72,1.71,29.2-3.34,4.69-7.12,6.35-10.42,6.16.27.21.54.41.83.6,3.91,2.61,9.7,4.16,14.72-2.89,8.25-11.59,2.04-28.42-6.83-33.06Z"/>
  </g>
  <g>
    <path class="cls-9" d="M432.24,355.04c-7.89-27.74-25.4-29.15-28.83-29.15-.45,0-.68.02-.68.02l-1.51.12v11.95l2-4.08s.06-.01.19-.01c1.75,0,14.72.77,21.14,23.34,6.89,24.22-16.3,30.22-16.96,38.78-.28,3.48-2.11,4.61-4.43,5.57-.41.17-.3.76.14.77,1.52.02,3.6.12,6.08.41,1.11.13,1.79,1.32,1.32,2.34-.99,2.16-3.85,5.26-12.15,5.69-.32.01-.63.02-.94.02-12.36,0-20.26-12.76-14.84-24.47.11-.23.22-.45.33-.67h-8.66c-2.51,7.39-1.63,15.39,2.52,21.89,4.5,7.05,12.22,11.25,20.65,11.25.45,0,.9,0,1.35-.04,12.72-.65,17.37-6.75,19.01-10.33,1.28-2.8,1.15-6.07-.36-8.75-.54-.97-1.24-1.82-2.06-2.54.66-.92,2.47-2.6,3.83-3.87,7.02-6.54,18.77-17.48,12.86-38.24Z"/>
    <path class="cls-7" d="M424.55,357.23c-6.42-22.57-19.39-23.34-21.14-23.34-.13,0-.19.01-.19.01l-2,4.08-3.11,32.14-8.89,10.67v4.89h-6.12c-.11.22-.22.43-.33.67-5.42,11.71,2.48,24.47,14.84,24.47.31,0,.62,0,.94-.02,8.3-.43,11.16-3.53,12.15-5.69.47-1.02-.21-2.21-1.32-2.34-2.48-.29-4.56-.39-6.08-.41-.44-.01-.55-.6-.14-.77,2.32-.96,4.15-2.09,4.43-5.57.66-8.56,23.85-14.56,16.96-38.78Z"/>
    <path class="cls-8" d="M410.1,369.12c-2.54,7.12-8.83,14.05-15.49,15.79,1.26-1,2.42-2.11,3.49-3.29,4.44-4.9,7.18-11.22,7.33-18.13.01-.22.02-.45.02-.67v-8.13c2.69,2.2,6.49,9.26,4.65,14.43Z"/>
  </g>
  <ellipse class="cls-8" cx="284.46" cy="454.34" rx="107.44" ry="11.87"/>
  <g>
    <g>
      <g>
        <path class="cls-7" d="M262.36,388.92l-.19,2.87-.07,1-.02.28v.06l-.03.43-.04.47h0s-.37,5.51-.37,5.51l-.3,4.48-.03.37-.12,1.8-2.21,32.56s-.04,7.4-9.39,8.51c-3.12.37-7.82,1.19-12.18,1.19-1.38,0-2.72-.08-3.97-.28-9.28-1.52-13.33-9.15,7.99-18.29l-.97-22.32-.18-4-.17-3.93v-.07l-.11-2.37-.23-5.4-.13-2.87h22.72Z"/>
        <polygon class="cls-8" points="262.36 388.92 261.34 404.02 240 397.19 239.64 388.92 262.36 388.92"/>
        <path class="cls-9" d="M232.27,384.9l.19,4.34.11,2.55.35,8,.29,6.52v.14l.2,4.51.63,14.42c-4.15,2.07-7.38,4.18-9.81,6.39-5.13,4.67-5.78,9.15-5.42,12.08.41,3.37,2.36,6.37,5.49,8.45,2.18,1.45,4.87,2.45,7.99,2.95,1.56.26,3.24.38,5.12.38,3.83,0,7.66-.51,10.73-.93.84-.12,1.63-.23,2.3-.3,6.04-.72,10.85-3.61,13.54-8.15,1.82-3.08,2.13-5.96,2.18-7.14l2.77-40.81.44-6.51.16-2.38.03-.41.28-4.1h-37.57ZM262.17,391.79l-.07,1-.02.28v.06l-.03.43-.04.47h0s-.37,5.51-.37,5.51l-.3,4.48-.03.37-.12,1.8-2.21,32.56s-.04,7.4-9.39,8.51c-3.12.37-7.82,1.19-12.18,1.19-1.38,0-2.72-.08-3.97-.28-9.28-1.52-13.33-9.15,7.99-18.29l-.97-22.32-.14-3.22s.01,0,.02,0l-.33-7.15-.23-5.4-.13-2.87h22.72l-.19,2.87Z"/>
      </g>
      <g>
        <path class="cls-7" d="M299.65,388.92l1.17,17.27,2.21,32.56s.04,7.4,9.39,8.51c3.12.37,7.83,1.19,12.19,1.19,1.37,0,2.72-.08,3.96-.28,9.29-1.52,13.34-9.14-7.98-18.29l1.32-30.25.46-10.71h-22.72Z"/>
        <polygon class="cls-8" points="299.65 388.92 300.67 404.02 322.01 397.19 322.37 388.92 299.65 388.92"/>
        <path class="cls-9" d="M337.79,431.77c-2.43-2.21-5.67-4.32-9.81-6.39l1.46-33.59.11-2.55.19-4.34h-37.57l.31,4.51.16,2.38,3.22,47.32c.04,1.18.36,4.06,2.18,7.14,2.69,4.54,7.5,7.43,13.54,8.15.66.07,1.46.18,2.29.3,3.08.42,6.91.93,10.74.93,1.88,0,3.56-.12,5.12-.38,3.12-.5,5.81-1.5,7.99-2.95,3.13-2.08,5.08-5.08,5.49-8.45.36-2.93-.29-7.41-5.42-12.08ZM328.57,448.17c-1.24.2-2.59.28-3.96.28-4.36,0-9.06-.82-12.19-1.19-9.35-1.11-9.38-8.51-9.38-8.51l-2.21-32.56-.15-2.17-.83-12.23-.19-2.87h22.72l-.13,2.87-.23,5.4-.11,2.44-1.32,30.25c21.32,9.14,17.27,16.77,7.98,18.29Z"/>
      </g>
    </g>
    <g>
      <path class="cls-14" d="M187.16,376.49c-.46,0-.92-.03-1.37-.06-.19-.02-.37-.04-.56-.06-.23-.03-.46-.06-.69-.09-.26-.04-.53-.08-.79-.14-.02,0-.04,0-.06-.01-2.17-.46-4.2-1.34-5.95-2.56-.03-.02-.06-.04-.08-.06-.25-.18-.49-.36-.73-.55-.14-.11-.27-.23-.41-.35-.22-.19-.43-.37-.63-.57-.23-.22-.45-.45-.67-.68-.1-.11-.19-.23-.29-.34-.18-.21-.35-.42-.51-.64-.08-.11-.17-.23-.25-.34-.17-.24-.33-.49-.48-.74-.06-.09-.12-.19-.17-.28-.2-.35-.39-.72-.56-1.09-.73-1.62-1.1-3.32-1.1-5.08v-125.02c0-.24.02-.47.04-.7.01-.2.01-.41.03-.61.09-.87.28-1.72.55-2.55.14-.41.3-.82.48-1.22.17-.37.36-.73.56-1.09.06-.1.12-.19.18-.29.15-.25.31-.49.48-.73.08-.12.17-.24.26-.35.16-.21.33-.42.5-.62.1-.12.2-.24.3-.36.19-.22.4-.42.61-.63.22-.22.46-.43.7-.64.13-.11.26-.22.39-.33.24-.19.49-.38.74-.56.02-.02.05-.03.07-.05,1.74-1.22,3.77-2.1,5.95-2.56.02,0,.04-.01.07-.02.26-.05.52-.09.79-.14.23-.04.46-.07.69-.09.19-.02.37-.04.56-.06.45-.04.91-.06,1.37-.06h187.69c.46,0,.92.03,1.37.06.19.02.37.04.56.06.23.03.46.06.69.09.26.04.53.08.79.14.02,0,.04.01.07.02,2.17.46,4.2,1.34,5.95,2.56.02.02.05.03.07.05.25.18.5.37.74.56.13.11.26.22.39.33.24.21.47.42.7.64.21.21.42.41.61.63.1.12.2.24.3.36.17.2.34.41.5.62.09.12.17.23.26.35.17.24.33.48.48.73.06.1.12.19.18.29.2.35.39.72.56,1.09.18.4.34.8.47,1.21.28.83.46,1.69.55,2.56.01.12.01.25.02.37.02.31.05.63.05.94v125.02c0,1.76-.37,3.47-1.1,5.08-.17.37-.36.73-.56,1.09-.06.1-.12.19-.17.28-.15.25-.31.5-.48.74-.08.12-.16.23-.25.34-.16.22-.34.43-.51.64-.1.11-.19.23-.29.34-.21.23-.44.46-.67.68-.2.2-.41.39-.63.57-.13.12-.27.23-.41.35-.24.19-.48.38-.73.55-.03.02-.06.04-.08.06-1.74,1.22-3.77,2.1-5.95,2.56-.02,0-.04,0-.06.01-.26.05-.52.09-.79.14-.23.04-.46.07-.69.09-.19.02-.37.04-.56.06-.45.04-.91.06-1.37.06h-187.69Z"/>
      <g>
        <path class="cls-9" d="M209.89,382.07s-.07.07-.11.11c-1.7,1.65-3.66,2.45-6.01,2.45-1.35,0-2.37-.27-2.64-.35l-1.43-.6-1.33.11h-23.54l2.25,6.38c1.5.5,3.06.89,4.66,1.16,1.76.3,3.57.46,5.42.46h142.28l.11-2.55.32-7.17h-119.98Z"/>
        <path class="cls-9" d="M405.45,237.81v125.03c0,.22,0,.45-.02.67-.15,6.91-2.89,13.23-7.33,18.13-1.07,1.18-2.23,2.29-3.49,3.29h-.01c-5.33,4.28-12.22,6.86-19.74,6.86h-45.42l.11-2.55.32-7.17h44.99c11.51,0,20.87-8.63,20.87-19.23v-125.03c0-10.6-9.36-19.22-20.87-19.22h-187.7c-11.51,0-20.87,8.62-20.87,19.22v125.03c0,10.6,9.36,19.23,20.87,19.23h22.73s-.07.07-.11.11c-1.7,1.65-3.66,2.45-6.01,2.45-1.35,0-2.37-.27-2.64-.35l-1.43-.6-1.33.11h-23.54l2.25,6.38c-11.93-3.95-20.51-14.71-20.51-27.33v-125.03c0-15.96,13.72-28.95,30.59-28.95h187.7c16.87,0,30.59,12.99,30.59,28.95Z"/>
        <g>
          <path class="cls-1" d="M336.21,253.12c-6.5-3.56-14.42-3.56-20.92,0-2.54,1.35-5.86,1.56-7.81-.33h0c-1.94-1.86-.81-6.11,3.11-8.25,9.41-5.15,20.89-5.15,30.3,0,3.92,2.15,5.06,6.39,3.11,8.25h0c-1.95,1.88-5.27,1.68-7.81.33Z"/>
          <path class="cls-9" d="M338.78,281.12c-1.03-7.17-8.52-12.05-16.69-10.88-8.18,1.17-13.99,7.96-12.97,15.13,0,.05.03.09.04.14,0,.05,0,.09,0,.14,1.03,7.17,8.52,12.05,16.69,10.88,8.18-1.17,13.99-7.96,12.96-15.13,0-.05-.03-.09-.04-.14,0-.05,0-.09,0-.14Z"/>
          <circle class="cls-8" cx="327.98" cy="278.01" r="4.81"/>
        </g>
        <g>
          <path class="cls-9" d="M218.31,281.12c1.03-7.17,8.52-12.05,16.69-10.88,8.18,1.17,13.99,7.96,12.97,15.13,0,.05-.03.09-.04.14,0,.05,0,.09,0,.14-1.03,7.17-8.52,12.05-16.69,10.88-8.18-1.17-13.99-7.96-12.96-15.13,0-.05.03-.09.04-.14,0-.05,0-.09,0-.14Z"/>
          <path class="cls-1" d="M220.88,257.12c6.5-3.56,14.42-3.56,20.92,0,2.54,1.35,5.86,1.56,7.8-.33h0c1.94-1.86.81-6.11-3.11-8.25-9.41-5.15-20.89-5.15-30.3,0-3.93,2.14-5.06,6.39-3.11,8.25h0c1.94,1.88,5.27,1.68,7.81.33Z"/>
          <circle class="cls-8" cx="237.12" cy="278.01" r="4.81"/>
        </g>
      </g>
    </g>
  </g>
  <g>
    <path class="cls-9" d="M319.4,315.61c-1.31-1.1-3.22-1.76-5.93-.78-6.35,2.32-31.36,3.08-32.52,3.11-1.15-.03-26.06-.79-32.41-3.11-2.71-.99-4.62-.33-5.93.78-1.86,1.57-2.56,4.12-2,6.49,1.19,5.04,5,16.44,15.96,23.11,9.97,6.06,19.26,6.24,24.42,6.3h0s0,0,0,0c0,0,.02,0,.02,0h0c5.16-.07,14.48-.24,24.45-6.3,10.96-6.66,14.77-18.07,15.96-23.11.56-2.37-.14-4.92-2-6.49Z"/>
    <path class="cls-7" d="M311.41,320.63c-.15-.28-.47-.43-.78-.35-9.43,2.46-27.61,2.68-29.46,2.69-1.88-.02-20.36-.23-29.79-2.69-.31-.08-.63.06-.78.35-1.39,2.73,3.85,5.25,5.65,6.09,3.65,1.69,7.49,2.49,11.46,2.93,2.77.31,12.03.54,13.18.53,1.17.02,10.64-.22,13.41-.53,3.97-.44,7.81-1.24,11.46-2.93,1.8-.83,7.04-3.36,5.65-6.09Z"/>
    <path class="cls-10" d="M297.32,340.48s-.09-.07-.13-.1c-2.29-1.69-4.69-2.49-7.17-2.93-1.73-.3-7.52-.54-8.23-.52-.74-.02-6.66.22-8.39.52-2.48.44-4.88,1.24-7.16,2.93-.04.03-.08.06-.13.1-.47.35-1.22.94-1.91,1.68,3.17,1.97,9.29,5,17.07,5s14.51-3.16,17.83-5.14c-.65-.68-1.34-1.21-1.78-1.54Z"/>
  </g>
  <g>
    <g>
      <path class="cls-16" d="M319.05,307.49c-13.86,0-25.14-11.28-25.14-25.14v-6.46c0-5.98,4.86-10.84,10.84-10.84h42.11c6.84,0,12.41,5.57,12.41,12.41v6.44c0,13.01-10.58,23.59-23.59,23.59h-16.63Z"/>
      <path class="cls-9" d="M346.86,268.04c5.2,0,9.41,4.21,9.41,9.41v6.44c0,11.37-9.22,20.59-20.59,20.59h-16.63c-12.23,0-22.14-9.91-22.14-22.14v-6.46c0-4.33,3.51-7.84,7.84-7.84h42.11M346.86,262.04h-42.11c-7.63,0-13.84,6.21-13.84,13.84v6.46c0,15.52,12.62,28.14,28.14,28.14h16.63c14.66,0,26.59-11.93,26.59-26.59v-6.44c0-8.5-6.91-15.41-15.41-15.41h0Z"/>
    </g>
    <path class="cls-4" d="M359.7,275.34l34.64-16.17s17.15-6.92,17.15,11.39"/>
    <g>
      <path class="cls-11" d="M226.34,307.49c-13.01,0-23.59-10.58-23.59-23.59v-6.44c0-6.84,5.57-12.41,12.41-12.41h42.11c5.98,0,10.84,4.86,10.84,10.84v6.46c0,13.86-11.28,25.14-25.14,25.14h-16.63Z"/>
      <path class="cls-9" d="M257.26,268.04c4.33,0,7.84,3.51,7.84,7.84v6.46c0,12.23-9.91,22.14-22.14,22.14h-16.63c-11.37,0-20.59-9.22-20.59-20.59v-6.44c0-5.2,4.21-9.41,9.41-9.41h42.11M257.26,262.04h-42.11c-8.5,0-15.41,6.91-15.41,15.41v6.44c0,14.66,11.93,26.59,26.59,26.59h16.63c15.52,0,28.14-12.62,28.14-28.14v-6.46c0-7.63-6.21-13.84-13.84-13.84h0Z"/>
    </g>
    <path class="cls-4" d="M202.14,275.25l-34.46-16.08s-17.15-6.92-17.15,11.39"/>
    <path class="cls-3" d="M270.01,276.78c7.33-3.85,14.67-3.85,22,0"/>
  </g>
  <g>
    <g>
      <rect class="cls-10" x="346.58" y="153.27" width="45.56" height="26" rx="5.91" ry="5.91"/>
      <path class="cls-9" d="M386.23,156.27c1.61,0,2.91,1.3,2.91,2.91v14.19c0,1.61-1.3,2.91-2.91,2.91h-33.74c-1.61,0-2.91-1.3-2.91-2.91v-14.19c0-1.61,1.3-2.91,2.91-2.91h33.74M386.23,150.27h-33.74c-4.91,0-8.91,4-8.91,8.91v14.19c0,4.91,4,8.91,8.91,8.91h33.74c4.91,0,8.91-4,8.91-8.91v-14.19c0-4.91-4-8.91-8.91-8.91h0Z"/>
    </g>
    <g>
      <rect class="cls-15" x="407.76" y="175.53" width="45.56" height="26" rx="5.91" ry="5.91"/>
      <path class="cls-9" d="M447.41,178.53c1.61,0,2.91,1.3,2.91,2.91v14.19c0,1.61-1.3,2.91-2.91,2.91h-33.74c-1.61,0-2.91-1.3-2.91-2.91v-14.19c0-1.61,1.3-2.91,2.91-2.91h33.74M447.41,172.53h-33.74c-4.91,0-8.91,4-8.91,8.91v14.19c0,4.91,4,8.91,8.91,8.91h33.74c4.91,0,8.91-4,8.91-8.91v-14.19c0-4.91-4-8.91-8.91-8.91h0Z"/>
    </g>
    <g>
      <rect class="cls-12" x="407.76" y="108.68" width="45.56" height="26" rx="5.91" ry="5.91"/>
      <path class="cls-9" d="M447.41,111.68c1.61,0,2.91,1.3,2.91,2.91v14.19c0,1.61-1.3,2.91-2.91,2.91h-33.74c-1.61,0-2.91-1.3-2.91-2.91v-14.19c0-1.61,1.3-2.91,2.91-2.91h33.74M447.41,105.68h-33.74c-4.91,0-8.91,4-8.91,8.91v14.19c0,4.91,4,8.91,8.91,8.91h33.74c4.91,0,8.91-4,8.91-8.91v-14.19c0-4.91-4-8.91-8.91-8.91h0Z"/>
    </g>
    <g>
      <rect class="cls-2" x="459.52" y="217.79" width="45.55" height="26" rx="5.91" ry="5.91"/>
      <path class="cls-9" d="M499.17,220.79c1.61,0,2.91,1.3,2.91,2.91v14.19c0,1.61-1.3,2.91-2.91,2.91h-33.74c-1.61,0-2.91-1.3-2.91-2.91v-14.19c0-1.61,1.3-2.91,2.91-2.91h33.74M499.17,214.79h-33.74c-4.91,0-8.91,4-8.91,8.91v14.19c0,4.91,4,8.91,8.91,8.91h33.74c4.91,0,8.91-4,8.91-8.91v-14.19c0-4.91-4-8.91-8.91-8.91h0Z"/>
    </g>
    <path class="cls-5" d="M369.36,153.82v-26.15c0-3.31,2.69-6,6-6h27.09"/>
    <g>
      <line class="cls-6" x1="402.27" y1="121.68" x2="393.97" y2="113.38"/>
      <line class="cls-6" x1="393.97" y1="129.97" x2="402.27" y2="121.68"/>
    </g>
    <path class="cls-5" d="M454.19,230.79h-17.64c-3.31,0-6-2.69-6-6v-22.5"/>
    <g>
      <line class="cls-6" x1="454.01" y1="230.79" x2="445.71" y2="222.49"/>
      <line class="cls-6" x1="445.71" y1="239.08" x2="454.01" y2="230.79"/>
    </g>
    <g>
      <line class="cls-6" x1="482.3" y1="212.29" x2="490.6" y2="203.99"/>
      <line class="cls-6" x1="474.01" y1="203.99" x2="482.3" y2="212.29"/>
    </g>
    <path class="cls-6" d="M452.56,121.7h23.74c3.31,0,6,2.69,6,6v83.7"/>
    <g>
      <line class="cls-6" x1="429.93" y1="170.05" x2="438.23" y2="161.75"/>
      <line class="cls-6" x1="421.63" y1="161.75" x2="429.93" y2="170.05"/>
    </g>
    <line class="cls-6" x1="429.93" y1="135.44" x2="429.93" y2="169.16"/>
  </g>
</svg>