<?xml version="1.0" encoding="UTF-8"?>
<svg id="Layer_1" data-name="Layer 1" xmlns="http://www.w3.org/2000/svg" xmlns:xlink="http://www.w3.org/1999/xlink" viewBox="0 0 566.93 566.93">
  <defs>
    <style>
      .cls-1 {
        fill: #263e7a;
      }

      .cls-2 {
        fill: url(#linear-gradient-2);
      }

      .cls-3 {
        fill: #7cc57b;
      }

      .cls-4 {
        fill: #fff;
      }

      .cls-5 {
        fill: #d1eefc;
      }

      .cls-6 {
        fill: #253e79;
      }

      .cls-7 {
        fill: url(#linear-gradient-3);
      }

      .cls-8 {
        fill: #f05681;
      }

      .cls-9 {
        fill: #e4f5fd;
      }

      .cls-10 {
        fill: url(#linear-gradient);
      }

      .cls-11 {
        fill: #ead655;
      }
    </style>
    <linearGradient id="linear-gradient" x1="867.39" y1="611.43" x2="870.17" y2="595.69" gradientTransform="translate(-697.38 -225.38) rotate(-7.24)" gradientUnits="userSpaceOnUse">
      <stop offset="0" stop-color="#fff"/>
      <stop offset=".43" stop-color="#fcfdfe"/>
      <stop offset=".74" stop-color="#f2fafe"/>
      <stop offset="1" stop-color="#e4f5fd"/>
    </linearGradient>
    <linearGradient id="linear-gradient-2" x1="954.19" y1="609.03" x2="956.87" y2="593.85" xlink:href="#linear-gradient"/>
    <linearGradient id="linear-gradient-3" x1="1020.79" y1="584.6" x2="1021.94" y2="578.1" xlink:href="#linear-gradient"/>
  </defs>
  <g>
    <path class="cls-10" d="M258.4,267.2c-2.5,3.2-2.63,7.64-.35,11l5.35,7.82c1.13,1.65-.52,3.78-2.4,3.1l-8.91-3.21c-3.82-1.38-8.09-.14-10.57,3.08l-5.79,7.5c-1.22,1.58-3.76.67-3.69-1.34l.31-9.45c.13-4.06-2.38-7.74-6.2-9.1l-8.92-3.18c-1.88-.68-1.8-3.37.13-3.93l9.09-2.63c3.9-1.13,6.63-4.65,6.75-8.71l.27-9.46c.06-2,2.64-2.76,3.76-1.1l5.32,7.84c2.27,3.36,6.46,4.86,10.36,3.72l9.08-2.67c1.92-.57,3.44,1.66,2.22,3.24l-5.81,7.48Z"/>
    <path class="cls-2" d="M350.67,255.42l-7.74,5.45c-3.32,2.34-4.75,6.55-3.54,10.42l2.82,9.04c.61,1.91-1.6,3.47-3.2,2.27l-7.58-5.69c-3.24-2.43-7.7-2.49-11.01-.14l-7.72,5.48c-1.64,1.17-3.79-.45-3.14-2.34l3.06-8.96c1.32-3.85,0-8.09-3.26-10.51l-7.59-5.66c-1.6-1.2-.74-3.75,1.26-3.71l9.46.14c4.06.06,7.7-2.5,8.99-6.35l3.03-8.96c.64-1.9,3.33-1.87,3.92.05l2.79,9.05c1.19,3.88,4.75,6.54,8.82,6.59l9.46.11c2.01.02,2.8,2.59,1.17,3.74Z"/>
    <path class="cls-7" d="M388.51,215.53l2.68,21.06-1.03-1.33c-2.98-3.86-4.27-8.65-3.65-13.48.28-2.22.96-4.34,2-6.25Z"/>
  </g>
  <path class="cls-4" d="M388.51,215.53l-.89-7.01c-.04-.32-.1-.62-.17-.94-.02-.12-.03-.24-.06-.36-.21-.85-.5-1.68-.88-2.47-.19-.39-.39-.78-.62-1.14-.22-.36-.45-.69-.69-1.01-.07-.09-.14-.18-.22-.27-.18-.23-.37-.46-.57-.67-.09-.1-.19-.21-.29-.32-.19-.19-.38-.38-.57-.55-.11-.11-.23-.21-.34-.32-.22-.18-.45-.37-.68-.55-.26-.19-.51-.37-.77-.54l-.43-.28c-.26-.16-.52-.32-.8-.46-.02-.02-.05-.02-.08-.04-1.89-.99-4.01-1.61-6.23-1.79-.02,0-.04,0-.06,0-.27-.03-.54-.03-.8-.04-.23-.01-.47-.01-.7,0-.19,0-.37,0-.56.01-.45.02-.91.06-1.37.11l-186.19,23.67c-.46.06-.91.14-1.35.23-.19.03-.37.08-.55.13-.23.05-.45.11-.67.18-.26.07-.52.15-.77.24-.02,0-.04.01-.07.02-2.09.73-4,1.86-5.57,3.29-.03.02-.05.04-.07.06-.23.21-.44.43-.66.65-.12.13-.22.25-.34.38-.21.23-.41.47-.61.71-.18.23-.36.47-.53.7-.09.13-.17.26-.25.39-.15.22-.29.45-.42.68-.07.13-.15.26-.21.38-.14.26-.26.53-.37.79-.05.1-.11.2-.14.31-.15.37-.3.75-.42,1.15-.13.42-.24.85-.32,1.27-.16.86-.24,1.72-.22,2.6,0,.2.03.4.05.6.02.24.02.47.05.71l15.76,124.02c.22,1.75.8,3.4,1.73,4.9.22.35.45.68.69,1.01.06.09.13.17.2.26.18.24.38.46.58.68.09.1.19.21.28.31.2.2.39.38.6.57.1.1.22.2.32.3.25.2.49.4.75.59.22.17.47.33.7.49.15.1.3.2.45.3.26.16.52.32.79.45.03.02.06.03.09.05,1.89.99,4.01,1.61,6.23,1.79.02,0,.04,0,.06,0,.26.02.53.02.8.04.23,0,.46,0,.7,0,.18,0,.37,0,.56-.01.45-.03.91-.06,1.37-.11l186.19-23.67c.46-.06.91-.15,1.35-.23.19-.04.36-.09.55-.13.22-.06.45-.12.67-.18.25-.08.51-.16.77-.24.02,0,.04-.01.05-.02,2.1-.73,4.01-1.86,5.58-3.29.03-.02.05-.05.08-.07.23-.2.44-.42.65-.64.13-.13.24-.26.36-.4.19-.21.37-.42.55-.64.2-.25.39-.5.57-.76.09-.12.16-.25.24-.37.15-.23.29-.46.43-.7.08-.12.14-.25.21-.37.14-.27.27-.53.38-.8.05-.1.1-.19.14-.3.15-.38.3-.76.42-1.15.52-1.69.66-3.43.44-5.18l-12.2-95.95-1.03-1.33c-2.98-3.86-4.27-8.65-3.65-13.48.28-2.22.96-4.34,2-6.25ZM264.21,259.72l-5.81,7.48c-2.5,3.2-2.63,7.64-.35,11l5.35,7.82c1.13,1.65-.52,3.78-2.4,3.1l-8.91-3.21c-3.82-1.38-8.09-.14-10.57,3.08l-5.79,7.5c-1.22,1.58-3.76.67-3.69-1.34l.31-9.45c.13-4.06-2.38-7.74-6.2-9.1l-8.92-3.18c-1.88-.68-1.8-3.37.13-3.93l9.09-2.63c3.9-1.13,6.63-4.65,6.75-8.71l.27-9.46c.06-2,2.64-2.76,3.76-1.1l5.32,7.84c2.27,3.36,6.46,4.86,10.36,3.72l9.08-2.67c1.92-.57,3.44,1.66,2.22,3.24ZM350.67,255.42l-7.74,5.45c-3.32,2.34-4.75,6.55-3.54,10.42l2.82,9.04c.61,1.91-1.6,3.47-3.2,2.27l-7.58-5.69c-3.24-2.43-7.7-2.49-11.01-.14l-7.72,5.48c-1.64,1.17-3.79-.45-3.14-2.34l3.06-8.96c1.32-3.85,0-8.09-3.26-10.51l-7.59-5.66c-1.6-1.2-.74-3.75,1.26-3.71l9.46.14c4.06.06,7.7-2.5,8.99-6.35l3.03-8.96c.64-1.9,3.33-1.87,3.92.05l2.79,9.05c1.19,3.88,4.75,6.54,8.82,6.59l9.46.11c2.01.02,2.8,2.59,1.17,3.74Z"/>
  <g>
    <path class="cls-6" d="M177.33,341.09l-9.54-1.29c-26.76-3.61-43.01-26.07-47.59-33.29-2.05-1.09-5.25-2.83-7.85-4.48-5.28-3.36-12.15-9.53-10.91-24.35,1.25-15.02,17.27-23.32,22.97-24.64,1.08-.26,2.3-.38,3.64-.38,6.46,0,11.36,2.79,13.1,7.47.35.95.56,1.91.63,2.87,4.46.29,8.28,2.69,10.54,6.66,3.62,6.36,2.61,15.67.44,20.53,3.11,7.47,13.53,14.06,17.44,15.84l4.46,2.01.25,4.88,1.93,18.55.49,9.62Z"/>
    <path class="cls-4" d="M168.85,331.87c-26.59-3.59-41.77-29.32-42.91-31.3-.04-.08-.06-.12-.06-.12,0,0-5.42-2.75-9.24-5.18-3.82-2.42-8.12-6.28-7.23-16.92.89-10.64,13.98-16.86,16.81-17.52.46-.11,1.11-.17,1.83-.17,3.77,0,9.65,1.73,1.98,8.35-6.74,5.8-4.73,10.32-3.2,12.3.7.91.78,2.19.12,3.13-1.58,2.26-4.48,2.75-6.69,2.75-1.68,0-2.97-.29-2.97-.29-2.83,5.22,2.2,6,5.48,6,1.42,0,2.51-.14,2.51-.14,3.98-8.05,14.1-7.77,15.24-8.74,1.15-.96.15-3.52.15-3.52-1.49.38-2.73.54-3.77.54-5.72,0-5.22-4.93-5.22-4.93,0,0,1.94-5.15,8.97-5.15.13,0,.25,0,.38.01,7.34.18,6.12,12.96,4.24,16.33-1.89,3.38-.5,4.32-.5,4.32,4.14,13.14,22.15,21.7,22.15,21.7l1.52,10.35.41,8.2Z"/>
    <path class="cls-5" d="M168.85,331.87c-26.59-3.59-41.77-29.32-42.91-31.3,5.02-9.73,7.37-4.31,7.37-4.31,11.81,20.32,27.77,25.89,35.13,27.41l.41,8.2Z"/>
    <path class="cls-6" d="M172.47,324.24l-1.68-13.56-2.23-1.01c-4.83-2.17-17.02-9.87-19.97-19.25l-.16-.5c.07-.17.18-.39.33-.67,2.04-3.65,3.09-12.33.08-17.61-1.67-2.93-4.41-4.59-7.71-4.67-.16-.01-.32-.01-.48-.01-1.45,0-2.77.17-3.95.47.97-1.72,1.5-3.75.7-5.91-1.13-3.04-4.63-4.86-9.35-4.86-.71,0-1.76.04-2.73.27-2.88.67-18.76,7.4-19.9,21.08-1.04,12.52,4.3,17.61,9.07,20.64,2.95,1.87,6.72,3.88,8.53,4.82,3.29,5.44,18.87,28.8,45.3,32.36l4.77.65-.16-3.21c9.15-2.58-.46-9.03-.46-9.03ZM125.94,300.57c-.04-.08-.06-.12-.06-.12,0,0-5.42-2.75-9.24-5.18-3.82-2.42-8.12-6.28-7.23-16.92.89-10.64,13.98-16.86,16.81-17.52.46-.11,1.11-.17,1.83-.17,3.77,0,9.65,1.73,1.98,8.35-6.74,5.8-4.73,10.32-3.2,12.3.7.91.78,2.19.12,3.13-1.58,2.26-4.48,2.75-6.69,2.75-1.68,0-2.97-.29-2.97-.29-2.83,5.22,2.2,6,5.48,6,1.42,0,2.51-.14,2.51-.14,3.98-8.05,14.1-7.77,15.24-8.74,1.15-.96.15-3.52.15-3.52-1.49.38-2.73.54-3.77.54-5.72,0-5.22-4.93-5.22-4.93,0,0,1.94-5.15,8.97-5.15.13,0,.25,0,.38.01,7.34.18,6.12,12.96,4.24,16.33-1.89,3.38-.5,4.32-.5,4.32,4.14,13.14,22.15,21.7,22.15,21.7l1.52,10.35.41,8.2c-26.59-3.59-41.77-29.32-42.91-31.3Z"/>
  </g>
  <g>
    <g>
      <g>
        <path class="cls-4" d="M320.95,430.32c-2.75,0-5.7-1.48-9.3-4.66-2.87-2.54-7.55-15.1-7.69-17.88-.05-1.01-.13-1.91-.22-2.78-.52-5.4-.31-9.52,7.06-13.46,1.08-.58,2.4-1.25,4.38-2.25.85-.43,2.71-1.35,3.86-1.91,2.31-1.84,3.49-4,3.59-6.6.16-3.83-2.01-7.27-2.03-7.31l-3.96-6.29,33.71-4.28,2.17,12.7v.09c.08.57.15,1.13.21,1.7,1.19,11.65-.58,25.6-24.12,31.73,0,.08.01.15.02.23.56,8.46.72,15.21-2.64,18.8-1.33,1.42-3.07,2.18-5.03,2.18h0Z"/>
        <path class="cls-6" d="M347.05,367.35l1.51,8.84c.07.55.13,1.08.19,1.62,1.26,12.3-1.4,23.33-24.32,28.18.17,6.07,2.26,20.33-3.47,20.33-1.57,0-3.72-1.07-6.66-3.66-1.82-1.6-6.23-12.96-6.34-15.08-.3-6.35-2.02-8.91,4.73-12.52,1.21-.65,2.67-1.39,4.29-2.2.96-.48,3.13-1.56,4.18-2.06,4.01-3.02,5.34-6.6,5.47-9.86.22-5.23-2.67-9.64-2.67-9.64l-.59-.94,23.68-3.01M353.64,358.45l-7.6.97-23.68,3.01-12.45,1.58,6.69,10.62.59.94.04.06c.43.71,1.49,2.92,1.4,4.97-.04.97-.29,2.1-1.77,3.39-1.14.56-2.68,1.32-3.5,1.73-1.98.99-3.32,1.68-4.45,2.28-9.49,5.07-9.72,11.36-9.15,17.37.08.83.16,1.68.2,2.58.11,2.08,1.15,5.56,3.11,10.37,3.24,7.95,4.99,9.5,5.93,10.33,4.37,3.86,8.17,5.66,11.95,5.66,3.05,0,5.87-1.22,7.95-3.44,3.97-4.24,4.3-10.74,3.89-18.79,9.07-2.83,15.47-7.06,19.46-12.86,5.26-7.64,5.06-16.35,4.46-22.24-.07-.63-.13-1.22-.21-1.81l-.02-.17-.03-.17-1.51-8.84-1.29-7.55h0Z"/>
      </g>
      <path class="cls-5" d="M323.36,370.36l.6.94s2.89,4.41,2.67,9.64l22.12-3.13c-.06-.54-.12-1.07-.19-1.62l-1.51-8.84-23.68,3.01Z"/>
    </g>
    <g>
      <path class="cls-4" d="M242.88,378.57l-3.94,8.71-7.9,17.42c-.31-.02-.6-.03-.89-.05-.08,0-.16,0-.24,0-.29-.01-.58-.03-.86-.04-.85-.04-1.67-.06-2.46-.06-.22,0-.46-.01-.69,0-.21,0-.44,0-.65,0-.06,0-.12,0-.18,0-.95.02-1.85.06-2.7.13-.06,0-.14,0-.2.01,0,0-.01,0-.02,0-.14,0-.27.01-.41.03-.67.05-1.3.13-1.9.21-.25.04-.47.07-.7.11-.24.04-.46.07-.68.12h-.05c-.58.12-1.12.24-1.63.38,0,.01-.03.01-.04.01-.91.25-1.7.54-2.37.88-.2.09-.39.19-.57.29-.31.17-.58.35-.84.55-.03.02-.06.04-.08.06-.13.11-.26.2-.37.32-.06.06-.13.12-.18.16-.04.05-.1.09-.13.15-.06.06-.12.13-.18.19-.07.08-.14.17-.2.27-.06.08-.11.16-.16.23-.06.1-.12.2-.16.3-.07.12-.11.24-.16.36-.02.03-.02.05-.03.08-.02.03-.03.06-.04.11-.03.08-.06.18-.08.26-.02.06-.03.13-.05.2-.03.15-.05.31-.06.47,0,.03,0,.06,0,.1h0c-.01.08-.01.16,0,.23,0,.08,0,.15,0,.23,0,.11.02.21.03.32.01.1.04.21.06.31.03.13.05.26.1.39.02.06.03.12.06.18.03.12.08.23.12.35h0c.03.12.07.2.13.32.02.04.05.09.07.13.11.23.24.46.38.7.05.07.1.16.15.23.2.3.41.6.66.89.14.18.31.35.47.53.16.17.33.35.51.52.4.38.85.78,1.34,1.15.16.12.31.24.48.37h0c1.01.75,2.18,1.43,3.41,2.05,1.45.73,3.01,1.39,4.54,1.98,1.27.49,2.53.94,3.7,1.34.39.13.76.27,1.13.4.74.25,1.42.49,2.05.72.56.2,1.12.37,1.65.51h0c.21.05.41.1.6.13.02,0,.05,0,.07.01.07.01.15.03.21.04.22.04.43.08.65.1.19.03.38.04.56.06.05,0,.1,0,.15.01.15.01.3.01.46.01.02,0,.03,0,.05,0,.1,0,.2,0,.31,0s.21,0,.31,0c.1,0,.2,0,.3-.02.1,0,.2-.02.3-.03.09,0,.18-.01.28-.03.47-.06.91-.16,1.32-.28,0,0,.03-.01.04-.01.05,0,.1-.02.15-.04.04,0,.08-.02.11-.03.2-.07.41-.14.6-.23.18-.07.34-.14.51-.23h0c.11-.05.2-.11.29-.16.09-.04.15-.08.23-.13.09-.05.19-.1.27-.17.13-.08.24-.15.35-.24s.22-.16.33-.24c.1-.08.2-.16.29-.24.19-.17.37-.33.53-.5.05-.04.08-.07.13-.12.12-.13.22-.24.32-.35.06-.08.12-.15.18-.22l.16-.2c.1-.12.18-.24.25-.35.18-.25.26-.42.26-.42l16.68-28.05,1.11-1.88.9-1.52h0s5.37-9.02,5.37-9.02l1.46-2.46-3.6-1.82-21.75,2.76Z"/>
      <polygon class="cls-5" points="242.88 378.57 238.93 387.28 238.93 387.29 239.08 387.72 261.38 389.12 261.39 389.12 266.76 380.1 268.22 377.63 268.22 377.62 264.64 375.81 242.88 378.57"/>
      <polygon class="cls-6" points="231.05 404.71 238.93 387.29 238.93 387.28 231.04 404.71 231.05 404.71"/>
      <polygon class="cls-6" points="242.88 378.57 238.93 387.28 242.88 378.57 242.88 378.57"/>
      <path class="cls-6" d="M223.55,404.61c.27-.01.55-.03.82-.03.23,0,.45-.02.68-.03-.95.02-1.85.06-2.7.13.38-.03.78-.06,1.19-.07Z"/>
      <path class="cls-6" d="M222.14,404.69c-.14,0-.27.01-.41.03.2-.02.42-.03.63-.05-.06,0-.14,0-.2.01,0,0-.01,0-.02,0Z"/>
      <path class="cls-6" d="M221.34,404.76c.14-.02.27-.03.4-.04-.67.05-1.3.13-1.9.21.47-.07.97-.12,1.5-.17Z"/>
      <path class="cls-6" d="M217.21,405.44c.37-.1.78-.19,1.2-.27-.58.11-1.12.23-1.63.38.14-.03.28-.07.43-.11Z"/>
      <path class="cls-6" d="M214.04,406.61c.1-.05.22-.12.33-.17-.2.09-.39.19-.57.29.08-.04.15-.08.24-.12Z"/>
      <path class="cls-6" d="M213.05,407.23c.05-.05.11-.08.17-.12.12-.09.24-.16.37-.24.06-.05.14-.1.21-.14-.31.17-.58.35-.84.55.02-.01.06-.04.08-.05Z"/>
      <path class="cls-6" d="M211.31,409.41s-.03.06-.04.11c.01-.06.03-.13.07-.19-.02.03-.02.05-.03.08Z"/>
      <path class="cls-6" d="M211.67,413.01c.11.23.24.46.38.7-.15-.23-.27-.46-.38-.7Z"/>
      <path class="cls-6" d="M211.6,412.88s.05.09.07.13c-.02-.04-.04-.08-.06-.12h-.01Z"/>
      <path class="cls-6" d="M264.64,375.81l3.58,1.81h0s-1.46,2.47-1.46,2.47l-5.37,9.02h0s-.9,1.52-.9,1.52l-1.11,1.88-16.68,28.05s-.08.16-.26.42c-.07.11-.15.23-.25.35l-.16.2c-.06.08-.12.15-.18.22-.06.08-.13.16-.2.24-.04.03-.08.07-.12.12-.04.05-.08.08-.13.12-.16.17-.34.34-.53.5-.09.08-.19.16-.29.24-.1.08-.21.17-.33.24-.11.08-.22.16-.35.24-.08.06-.18.11-.27.17-.07.05-.14.09-.23.13-.09.05-.19.1-.29.15h0c-.13.07-.27.15-.41.2-.03.01-.06.03-.1.03-.11.05-.24.1-.36.15-.08.03-.15.06-.23.08-.03.01-.07.03-.11.03-.05.02-.1.03-.15.05h0s-.03,0-.04,0c-.33.1-.66.17-1.02.24h-.03s-.27.04-.27.04c-.1.01-.19.02-.28.03-.1.01-.2.03-.3.03-.1.01-.2.02-.3.02-.1.01-.2,0-.31,0-.1,0-.2,0-.31,0-.02,0-.03,0-.05,0-.15,0-.3,0-.46-.01-.05,0-.1,0-.15-.01-.18-.02-.37-.03-.56-.06-.2-.02-.42-.06-.65-.1-.06-.01-.14-.03-.21-.04-.02,0-.05,0-.07-.01-.2-.04-.4-.08-.6-.14h0c-.53-.13-1.09-.3-1.65-.51-.62-.22-1.31-.47-2.05-.72-.37-.13-.74-.26-1.13-.4-1.17-.41-2.43-.85-3.7-1.34-1.53-.59-3.08-1.25-4.54-1.98-1.23-.62-2.39-1.3-3.41-2.05h0c-.17-.12-.33-.25-.48-.37-.49-.37-.93-.77-1.34-1.15-.18-.17-.35-.35-.51-.52-.16-.18-.33-.35-.47-.53-.25-.29-.46-.6-.66-.89-.05-.07-.1-.16-.15-.23-.18-.27-.32-.55-.45-.83-.05-.11-.1-.2-.13-.31h0c-.05-.12-.1-.24-.12-.36-.03-.07-.05-.13-.06-.18-.04-.14-.07-.26-.1-.39-.02-.07-.04-.13-.04-.19l-.02-.13c-.01-.11-.03-.21-.03-.32,0-.08,0-.15,0-.23,0-.07,0-.15,0-.22h0c0-.05,0-.08,0-.11,0-.16.03-.33.06-.47,0-.07.02-.13.05-.2.02-.08.05-.18.08-.26.01-.06.03-.13.07-.19.04-.13.09-.24.16-.36.05-.11.11-.2.16-.3.05-.08.1-.16.16-.23.06-.1.13-.19.2-.27.05-.07.11-.14.18-.19.02-.03.03-.04.05-.07.03-.02.05-.05.08-.08.05-.06.12-.12.18-.16.12-.12.25-.21.37-.32.03-.02.06-.04.08-.06.26-.2.53-.38.84-.55.18-.1.37-.21.57-.29.67-.34,1.46-.63,2.37-.88,0,0,.03,0,.04-.01.51-.14,1.05-.26,1.63-.38h.05c.22-.05.44-.09.68-.12.23-.05.46-.08.7-.11.59-.09,1.23-.16,1.9-.21,1.03-.1,2.14-.15,3.33-.17.06,0,.12,0,.18,0,.21,0,.44,0,.65,0,.23,0,.46,0,.69,0,.79,0,1.61.02,2.46.06.28,0,.57.02.86.04.08,0,.16,0,.24,0,.29,0,.59.03.89.05l7.9-17.42,3.94-8.71-8.36,1.06-8.03,17.72c-4.63-.02-8.47.4-11.63,1.28-6.69,1.85-9.29,5.55-10.3,8.33-1.16,3.19-.76,6.75,1.08,10.01,1.3,2.28,3.24,4.39,5.79,6.25,1.28.94,2.72,1.8,4.4,2.65,3.42,1.73,7.07,3,10.01,4.02.79.27,1.55.54,2.17.77,5.72,2.09,11.31,1.68,15.76-1.16,3.02-1.93,4.61-4.35,5.17-5.39l24.25-40.75,1.21-2.06,2.31-3.88-4.97-2.52-7.11.9Z"/>
    </g>
    <g>
      <path class="cls-6" d="M226.99,374.35s-.06.08-.1.12c-1.48,1.85-3.32,2.89-5.65,3.19-1.34.17-2.39.03-2.66-.01l-1.49-.41-1.31.28-23.35,2.97,3.04,6.05c1.55.31,3.15.5,4.77.56,1.78.08,3.6,0,5.43-.23l141.14-17.94-.21-2.54-.36-4.33-.23-2.82-119.02,15.13Z"/>
      <g>
        <path class="cls-6" d="M409.67,260.69l8.89,69.92c.03.22.05.45.06.67.72,6.87-1.2,13.49-4.99,18.91-.91,1.31-1.92,2.55-3.05,3.7h0c-4.75,4.92-11.26,8.35-18.72,9.3l-45.06,5.73-.21-2.54-.35-4.33h0s-.23-2.82-.23-2.82l44.63-5.67c11.42-1.45,19.62-11.19,18.28-21.71l-4.58-36.03c.05-.94.1-1.88.15-2.81-.15.1-.31.18-.47.26l-6.08-47.8,3.3,4.28,8.44,10.95Z"/>
        <path class="cls-6" d="M404.48,293c-.04.93-.1,1.87-.15,2.81l-.32-2.55c.16-.08.32-.16.47-.26Z"/>
        <path class="cls-6" d="M402.79,206.58l6.88,54.11-8.44-10.95-3.3-4.28-4.79-37.66c-1.34-10.52-11.71-17.89-23.13-16.44l-186.2,23.67c-11.42,1.45-19.62,11.18-18.28,21.7l15.77,124.03c1.34,10.52,11.71,17.9,23.13,16.44l22.55-2.87s-.06.08-.1.12c-1.48,1.85-3.32,2.89-5.65,3.19-1.34.17-2.39.03-2.66-.01l-1.49-.41-1.31.28-23.35,2.97,3.04,6.05c-12.33-2.41-22.2-12.01-23.79-24.53l-15.77-124.03c-2.01-15.83,9.96-30.45,26.7-32.58l186.2-23.67c16.53-2.1,31.61,8.75,33.91,24.28.04.2.06.39.08.58Z"/>
        <polygon class="cls-6" points="346.25 362.04 346.59 366.37 346.24 362.04 346.25 362.04"/>
      </g>
      <path class="cls-1" d="M258.4,264.2c-2.5,3.2-2.63,7.64-.35,11l5.35,7.82c1.13,1.65-.52,3.78-2.4,3.1l-8.91-3.21c-3.82-1.38-8.09-.14-10.57,3.08l-5.79,7.5c-1.22,1.58-3.76.67-3.69-1.34l.31-9.45c.13-4.06-2.38-7.74-6.2-9.1l-8.92-3.18c-1.88-.68-1.8-3.37.13-3.93l9.09-2.63c3.9-1.13,6.63-4.65,6.75-8.71l.27-9.46c.06-2,2.64-2.76,3.76-1.1l5.32,7.84c2.27,3.36,6.46,4.86,10.36,3.72l9.08-2.67c1.92-.57,3.44,1.66,2.22,3.24l-5.81,7.48Z"/>
      <path class="cls-1" d="M350.67,252.42l-7.74,5.45c-3.32,2.34-4.75,6.55-3.54,10.42l2.82,9.04c.61,1.91-1.6,3.47-3.2,2.27l-7.58-5.69c-3.24-2.43-7.7-2.49-11.01-.14l-7.72,5.48c-1.64,1.17-3.79-.45-3.14-2.34l3.06-8.96c1.32-3.85,0-8.09-3.26-10.51l-7.59-5.66c-1.6-1.2-.74-3.75,1.26-3.71l9.46.14c4.06.06,7.7-2.5,8.99-6.35l3.03-8.96c.64-1.9,3.33-1.87,3.92.05l2.79,9.05c1.19,3.88,4.75,6.54,8.82,6.59l9.46.11c2.01.02,2.8,2.59,1.17,3.74Z"/>
    </g>
  </g>
  <g>
    <path class="cls-6" d="M327.04,292.91c-1.49-1.32-3.5-1.96-6.02-.29-5.9,3.9-30.59,8.08-31.73,8.27-1.15.1-25.99,2.22-32.68-.08-2.85-.98-4.64.14-5.75,1.79-1.58,2.34-1.84,5.85-.88,8.95,2.04,6.61,7.76,21.41,19.77,28.97,10.92,6.87,20.17,5.94,25.3,5.37h0s0,0,0,0c0,0,.01,0,.02,0h0c5.11-.74,14.32-2.15,23.18-11.54,9.73-10.32,11.57-26.08,11.89-32.99.15-3.24-.98-6.58-3.09-8.45Z"/>
    <path class="cls-4" d="M321.59,300.44c-.2-.36-.56-.51-.87-.36-9.44,4.55-28.41,7.26-30.34,7.53-1.97.23-21.32,2.39-31.6.35-.34-.07-.65.17-.75.57-.99,3.84,4.92,6.53,6.94,7.41,4.1,1.78,8.26,2.35,12.48,2.4,2.95.04,12.67-.87,13.87-1.05,1.23-.13,11.09-1.71,13.93-2.49,4.07-1.11,7.95-2.7,11.48-5.45,1.74-1.36,6.79-5.44,4.87-8.91Z"/>
    <path class="cls-8" d="M309.31,329.85c-.06-.05-.1-.08-.14-.12-2.54-1.97-5.03-2.74-7.54-3.02-1.75-.18-7.48.22-8.17.33-.73.07-6.5,1.13-8.15,1.74-2.36.9-4.58,2.27-6.53,4.81-.03.05-.07.09-.11.15-.4.53-1.04,1.41-1.59,2.48,3.45,2.24,9.97,5.52,17.61,4.55,7.81-.99,13.71-6.03,16.64-9.09-.75-.83-1.52-1.45-2.01-1.84Z"/>
  </g>
  <path class="cls-3" d="M135.39,187.04l1.85-8.15c.21-.92,1.44-1.07,1.87-.24l3.72,7.22c1.78,3.46,5,5.95,8.79,6.81l7.92,1.79c.92.21,1.07,1.44.24,1.87l-7.43,3.83c-3.32,1.71-5.72,4.81-6.55,8.45l-1.85,8.15c-.21.92-1.44,1.07-1.87.24l-3.83-7.43c-1.71-3.32-4.81-5.72-8.45-6.55l-8.15-1.85c-.92-.21-1.07-1.44-.24-1.87l7.43-3.83c3.32-1.71,5.72-4.81,6.55-8.45Z"/>
  <path class="cls-11" d="M401.28,146.53l1.98-8.76c.22-.98,1.55-1.15,2.01-.26l4,7.76c1.91,3.71,5.37,6.39,9.44,7.31l8.51,1.93c.98.22,1.15,1.55.26,2.01l-7.99,4.11c-3.57,1.84-6.15,5.16-7.03,9.08l-1.98,8.76c-.22.98-1.55,1.15-2.01.26l-4.11-7.99c-1.84-3.57-5.16-6.15-9.08-7.03l-8.76-1.98c-.98-.22-1.15-1.55-.26-2.01l7.99-4.11c3.57-1.84,6.15-5.16,7.03-9.08Z"/>
  <path class="cls-3" d="M364.13,145.39l1.06-4.7c.12-.53.83-.62,1.08-.14l2.14,4.17c1.03,1.99,2.88,3.43,5.07,3.93l4.57,1.03c.53.12.62.83.14,1.08l-4.29,2.21c-1.92.99-3.3,2.77-3.78,4.87l-1.06,4.7c-.12.53-.83.62-1.08.14l-2.21-4.29c-.99-1.92-2.77-3.3-4.87-3.78l-4.7-1.06c-.53-.12-.62-.83-.14-1.08l4.29-2.21c1.92-.99,3.3-2.77,3.78-4.87Z"/>
  <path class="cls-3" d="M426.65,185.58l1.63-6.29c.18-.71,1.15-.8,1.46-.14l2.72,5.7c1.3,2.73,3.74,4.74,6.67,5.5l6.11,1.58c.71.18.8,1.15.14,1.46l-5.86,2.8c-2.62,1.25-4.56,3.6-5.28,6.41l-1.63,6.29c-.18.71-1.15.8-1.46.14l-2.8-5.86c-1.25-2.62-3.6-4.56-6.41-5.28l-6.29-1.63c-.71-.18-.8-1.15-.14-1.46l5.86-2.8c2.62-1.25,4.56-3.6,5.28-6.41Z"/>
  <path class="cls-11" d="M436.11,347.58l1.63-6.29c.18-.71,1.15-.8,1.46-.14l2.72,5.7c1.3,2.73,3.74,4.74,6.67,5.5l6.11,1.58c.71.18.8,1.15.14,1.46l-5.86,2.8c-2.62,1.25-4.56,3.6-5.28,6.41l-1.63,6.29c-.18.71-1.15.8-1.46.14l-2.8-5.86c-1.25-2.62-3.6-4.56-6.41-5.28l-6.29-1.63c-.71-.18-.8-1.15-.14-1.46l5.86-2.8c2.62-1.25,4.56-3.6,5.28-6.41Z"/>
  <path class="cls-3" d="M412.1,376.67l1.2-4.65c.14-.52.85-.59,1.08-.1l2.01,4.22c.96,2.02,2.77,3.51,4.93,4.07l4.52,1.17c.52.14.59.85.1,1.08l-4.34,2.07c-1.94.92-3.37,2.66-3.91,4.74l-1.2,4.65c-.14.52-.85.59-1.08.1l-2.07-4.34c-.92-1.94-2.66-3.37-4.74-3.91l-4.65-1.2c-.52-.14-.59-.85-.1-1.08l4.34-2.07c1.94-.92,3.37-2.66,3.91-4.74Z"/>
  <path class="cls-11" d="M168.35,168.98l1.05-4.63c.12-.52.82-.61,1.06-.14l2.11,4.1c1.01,1.96,2.84,3.38,4.99,3.87l4.5,1.02c.52.12.61.82.14,1.06l-4.22,2.17c-1.89.97-3.25,2.73-3.72,4.8l-1.05,4.63c-.12.52-.82.61-1.06.14l-2.17-4.22c-.97-1.89-2.73-3.25-4.8-3.72l-4.63-1.05c-.52-.12-.61-.82-.14-1.06l4.22-2.17c1.89-.97,3.25-2.73,3.72-4.8Z"/>
  <path class="cls-11" d="M126.86,227.67l.78-3.45c.09-.39.61-.45.79-.1l1.57,3.05c.75,1.46,2.11,2.52,3.72,2.88l3.35.76c.39.09.45.61.1.79l-3.14,1.62c-1.41.72-2.42,2.03-2.77,3.57l-.78,3.45c-.09.39-.61.45-.79.1l-1.62-3.14c-.72-1.41-2.03-2.42-3.57-2.77l-3.45-.78c-.39-.09-.45-.61-.1-.79l3.14-1.62c1.41-.72,2.42-2.03,2.77-3.57Z"/>
  <g>
    <g>
      <g>
        <path class="cls-4" d="M445.92,288.52s-.07.09-.1.13h0c-2.27,3.08-4.27,5.71-6.08,8.02-9.02,11.46-13.34,14.4-23.09,18.93l-4.54-35.71c3.27-2.14,6.54-4.28,9.92-6.19,1.27-.73,2.55-1.41,3.86-2.06,6,6.53,12.13,11.87,19.6,16.61h0s0,0,.01,0c.13.08.26.18.41.26Z"/>
        <path class="cls-6" d="M451.01,287.65h-.01c-2.58-1.62-3.09-2.12-6.51-4.1-1.54-.89-3.92-2.76-6.32-4.81-.01,0-.01-.02-.01-.02h-.01c-3.15-2.7-6.32-5.73-7.76-7.37-2.54-2.91-2.14-2.1-4.04-4.24-2.56,1.58-1.5.93-5,2.88-.46.25-.97.55-1.52.87-2.29,1.38-5.29,3.3-8.22,5.15l1.07,8.43c4.02-2.38,7.99-4.85,11.92-7.38.29-.19.58-.38.87-.56,4.1,4.38,8.3,8.44,13.14,11.92.8.58,1.63,1.15,2.47,1.7-.96,1.67-1.89,3.22-2.82,4.66-2.38,3.64-4.75,6.55-7.41,9.02-.08.07-.15.13-.23.2-3.89,3.58-8.39,6.2-14.35,8.71l.94,7.37c9.73-4.08,15.66-6.79,25.97-18.9,1.47-1.73,3.04-3.64,4.71-5.79,1.12-2.54,2.07-5.1,3.45-7.52-.12-.08-.23-.14-.34-.21Z"/>
      </g>
      <path class="cls-5" d="M442.66,291.11c-1.27,1.64-2.51,3.15-3.71,4.55-2.85,3.3-5.5,5.94-8.1,8.13-.08.07-.15.13-.23.2-4.72,3.93-9.25,6.37-14.37,8.49l-.8-6.28c7.24-3.34,13.86-7.15,20.43-14.51.91-1.02,1.82-2.11,2.73-3.28.08-.09.15-.18.23-.28,1.12,1.31,4.87,1.62,3.82,2.98Z"/>
    </g>
    <g>
      <path class="cls-6" d="M481.63,307.03l-5.03-18c-.23-.91-.59-1.78-1.05-2.56h0s-.08-.11-.08-.11c-.37-.62-.82-1.19-1.32-1.71l-7.61-9.87-2.22-2.89-2.28-2.96h0s-2.66-3.46-2.66-3.46l-20.29-26.33-2.42-3.14-2.33-3.03-3.54-4.59.05-.04-11.82-15.35c-2.97-3.86-7.28-6.32-12.09-6.94-1.43-.19-2.85-.21-4.24-.06-3.34.32-6.51,1.58-9.24,3.68-.03.02-.05.04-.07.06-2.05,1.59-3.7,3.57-4.89,5.79-1.04,1.92-1.72,4.03-2,6.25-.63,4.83.67,9.61,3.65,13.48l1.03,1.33,4.17,5.41-.06.04,2.64,3.42,3.3,4.28,8.44,10.95,10.62,13.78,2.2,2.85,2.58,3.35,11.28,14.64,2.38,3.08.69.89.78,1.01,2.02,2.63,1.44,1.87,2.13,2.76c.11.16.23.31.37.47l.52.7.06-.05c.63.64,1.35,1.2,2.16,1.66l16.05,9.49c3.22,1.82,7.18,1.88,10.58.18,3.5-1.76,5.87-5.07,6.36-8.85.18-1.37.09-2.77-.25-4.12ZM406.23,233.62l-3.18,2.45-5.2-6.75c-1.44-1.86-1.98-4.13-1.7-6.3s1.38-4.21,3.24-5.64c.34-.26.69-.49,1.05-.69.08-.05.16-.09.25-.13.17-.09.34-.17.51-.25.1-.04.2-.09.3-.12.07-.03.13-.05.19-.06.04-.01.09-.03.13-.05.16-.06.33-.11.5-.15.17-.05.35-.09.52-.13.23-.05.45-.09.68-.12.12-.02.25-.03.37-.04h.05s.08-.02.13-.01h.08c.09-.01.17-.01.26-.01.09-.01.17,0,.26,0,.18,0,.35,0,.53.01.09,0,.17.02.26.03.08,0,.16.02.25.03.07.01.15.02.23.03.05,0,.09.02.15.03.06,0,.11.02.17.03.06,0,.11.02.18.04.18.04.35.09.53.13.17.05.34.1.49.16.2.07.39.14.57.23.27.11.51.24.76.38.04.01.1.05.14.07.08.05.15.09.23.14,0,0,.01,0,.02.02.19.12.36.25.54.37.12.1.24.19.35.29.12.1.24.2.34.31.19.18.38.37.56.56.13.14.25.29.37.45l5.19,6.74-9.14,7.04-1.17.9ZM409.63,244.7l.05-.04,4.31-3.32,9.15-7.04,3.44,4.47,2.32,3,2.43,3.16,15.8,20.51h0s5.71,7.42,5.71,7.42l2.68,3.48,2.49,3.23,3.22,4.18-8.82,6.79-.93.71-3.75,2.89-1.44-1.86h0s-.3-.4-.3-.4t-.01,0l-7.33-9.51s-.01-.02-.01-.02h-.01s-28.99-37.63-28.99-37.63ZM472.24,309.91c-.03.19-.09.38-.19.57-.11.18-.24.34-.39.48s-.33.26-.52.36c-.08.04-.15.07-.22.09-.05.02-.08.03-.12.03-.15.05-.31.07-.47.07-.06,0-.11,0-.16,0-.17-.03-.33-.08-.47-.16l-14.94-8.84,4.36-3.36,4.01-3.09,4.41-3.4h0s3.84,13.75,3.84,13.75l.84,3.01c.04.17.05.34.03.5Z"/>
      <g>
        <g>
          <polygon class="cls-4" points="447.72 294.14 452.39 290.55 461.21 283.76 423.12 234.31 413.98 241.35 409.67 244.66 409.63 244.7 447.72 294.14"/>
          <path class="cls-4" d="M403.05,236.07l4.35-3.36,9.14-7.04-5.19-6.74c-2.29-2.98-6.16-4.01-9.52-2.85-.85.28-1.67.72-2.42,1.3-1.86,1.44-2.97,3.48-3.25,5.65s.26,4.42,1.7,6.29l5.2,6.75Z"/>
          <path class="cls-4" d="M472.24,309.9c.02-.16,0-.33-.03-.49l-.84-3.01-3.84-13.74-12.78,9.84,14.94,8.84c1,.55,2.41-.36,2.55-1.44Z"/>
        </g>
        <g>
          <path class="cls-9" d="M407.4,232.71l9.14-7.04-5.19-6.74c-2.29-2.98-6.16-4.01-9.52-2.85-.73,1.08-1.17,2.31-1.34,3.57-.28,2.16.26,4.42,1.7,6.29l5.21,6.77Z"/>
          <polygon class="cls-9" points="413.98 241.35 452.39 290.55 461.21 283.76 423.12 234.31 413.98 241.35"/>
          <polygon class="cls-9" points="471.36 306.4 467.53 292.66 459.1 299.15 471.36 306.4"/>
        </g>
      </g>
    </g>
    <g>
      <path class="cls-4" d="M429.29,259.94c4.47,9.63,13.55,16.11,23.14,16.51,6.69.28,10.28-2.48,12.11-4.84,1.71-2.2,2.7-5.01,2.94-8.34.33-4.56-.99-9.37-3.72-13.56-6.02-9.23-13.17-13.93-21.87-14.37h-.1s-.1,0-.1,0c-6.57.05-10.13,2.85-11.95,5.19-3.65,4.7-3.82,12.14-.44,19.42Z"/>
      <path class="cls-6" d="M466.77,247.75c-6.6-10.12-14.9-15.5-24.7-16h-.21s-.2,0-.2,0c-2.87.02-5.29.49-7.3,1.23-3.62,1.31-5.98,3.45-7.45,5.35-.11.15-.23.3-.34.46-2.91,4.02-3.91,9.26-2.98,14.87.42,2.56,1.23,5.19,2.45,7.8,2.28,4.91,5.7,9.23,9.91,12.48,2.02,1.57,4.17,2.85,6.43,3.81h0c3.15,1.37,6.48,2.15,9.89,2.29,2.15.09,4.04-.08,5.71-.45,4.05-.87,6.78-2.85,8.56-4.8.3-.32.57-.65.82-.97,2.15-2.76,3.39-6.23,3.68-10.29.39-5.33-1.14-10.94-4.29-15.77ZM462.91,267.32c-.04.11-.09.2-.13.3-.04.11-.09.2-.14.3-.09.17-.18.35-.28.51-.09.17-.19.34-.31.49h0c-.12.2-.26.38-.4.54-.06.09-.13.17-.2.24-.09.11-.17.21-.27.32-.09.09-.19.2-.29.29-.14.14-.31.28-.47.41-.16.13-.34.26-.52.39-.18.12-.36.24-.55.35-.2.12-.4.23-.62.33-.12.07-.25.12-.38.18h0c-.2.09-.4.16-.62.24s-.44.15-.68.21c-.26.07-.54.14-.82.2-.28.06-.56.1-.86.14h0c-.39.05-.79.08-1.21.1-.42.01-.86.02-1.32,0-.08,0-.16,0-.24,0-.24,0-.48-.02-.71-.05-.22-.01-.44-.04-.65-.06-.3-.02-.58-.07-.86-.11-.35-.05-.69-.1-1.03-.18-.02,0-.04,0-.05-.01-.25-.04-.49-.1-.73-.17-.02,0-.05,0-.07-.02-.21-.04-.41-.1-.62-.16-.2-.05-.4-.11-.6-.18-.18-.06-.37-.12-.55-.18-.44-.15-.88-.31-1.3-.5-.24-.1-.49-.21-.73-.33-.25-.11-.48-.23-.72-.35-.79-.39-1.55-.85-2.28-1.34-.12-.09-.24-.16-.35-.25-.12-.08-.24-.16-.37-.26-.17-.11-.32-.23-.47-.35-.17-.11-.32-.23-.46-.35-.28-.22-.55-.44-.81-.67-.14-.11-.27-.23-.4-.34-.39-.35-.77-.72-1.13-1.1-.13-.13-.24-.25-.36-.38-.36-.38-.7-.77-1.02-1.16-.12-.15-.24-.28-.36-.43-.12-.16-.24-.31-.36-.47-.12-.16-.23-.31-.35-.47-.15-.2-.29-.41-.43-.61-.37-.53-.71-1.06-1.03-1.6-.18-.29-.35-.58-.49-.87-.13-.24-.25-.46-.36-.69-.09-.17-.17-.34-.25-.51-.19-.37-.36-.75-.51-1.13-.07-.17-.14-.33-.2-.5-.22-.56-.41-1.11-.59-1.66-.1-.3-.18-.6-.26-.9-.06-.22-.12-.46-.17-.68s-.1-.45-.15-.68c-.17-.86-.28-1.7-.33-2.52-.02-.4-.02-.79-.02-1.19-.02-.2,0-.38.02-.58.03-.57.09-1.13.19-1.67h0c.13-.79.35-1.55.64-2.25.32-.8.74-1.54,1.26-2.21,1.41-1.82,3.56-3.11,6.53-3.59.81-.13,1.68-.2,2.6-.21,8.2.41,14.22,5.34,19.05,12.74,2.02,3.1,3.21,6.71,3.18,10.32,0,.34,0,.68-.03,1.02-.03.28-.05.56-.08.85-.03.25-.07.5-.12.76s-.1.51-.16.76c-.1.44-.22.87-.38,1.3-.07.22-.16.43-.25.65Z"/>
    </g>
    <path class="cls-5" d="M430.66,247.18c1.81,8.82,10.38,18.78,22.01,19.26,5.76.24,9.38-1.73,11.26-4.45,0,.34-.01.68-.04,1.02-.34,4.69-2.67,10.21-11.32,9.85-14.21-.59-23.7-15.83-21.92-25.68Z"/>
  </g>
  <ellipse class="cls-5" cx="284.46" cy="454.34" rx="107.44" ry="11.87"/>
</svg>