<?xml version="1.0" encoding="UTF-8"?>
<svg id="Layer_1" data-name="Layer 1" xmlns="http://www.w3.org/2000/svg" xmlns:xlink="http://www.w3.org/1999/xlink" viewBox="0 0 566.93 566.93">
  <defs>
    <style>
      .cls-1 {
        fill: #263e7a;
      }

      .cls-2, .cls-3 {
        fill: #fff;
      }

      .cls-4 {
        fill: #d1eefc;
      }

      .cls-5, .cls-6 {
        fill: #253e79;
      }

      .cls-7 {
        fill: none;
        stroke-width: 5px;
      }

      .cls-7, .cls-3 {
        stroke: #253e79;
        stroke-miterlimit: 10;
      }

      .cls-6 {
        font-family: Fredoka-SemiBold, Fredoka;
        font-size: 67.19px;
        font-weight: 600;
      }

      .cls-8 {
        fill: url(#linear-gradient);
      }

      .cls-3 {
        stroke-width: 6px;
      }
    </style>
    <linearGradient id="linear-gradient" x1="283.74" y1="281.64" x2="293.78" y2="224.69" gradientUnits="userSpaceOnUse">
      <stop offset="0" stop-color="#fff"/>
      <stop offset=".43" stop-color="#fcfdfe"/>
      <stop offset=".74" stop-color="#f2fafe"/>
      <stop offset="1" stop-color="#e4f5fd"/>
    </linearGradient>
  </defs>
  <g>
    <path class="cls-5" d="M434.7,337.93c-7.89-27.74-25.4-29.15-28.83-29.15-.45,0-.68.02-.68.02l-1.51.12v11.95l2-4.08s.06-.01.19-.01c1.75,0,14.72.77,21.14,23.34,6.89,24.22-16.3,30.22-16.96,38.78-.28,3.48-2.11,4.61-4.43,5.57-.41.17-.3.76.14.77,1.52.02,3.6.12,6.08.41,1.11.13,1.79,1.32,1.32,2.34-.99,2.16-3.85,5.26-12.15,5.69-.32.01-.63.02-.94.02-12.36,0-20.26-12.76-14.84-24.47.11-.23.22-.45.33-.67h-8.66c-2.51,7.39-1.63,15.39,2.52,21.89,4.5,7.05,12.22,11.25,20.65,11.25.45,0,.9,0,1.35-.04,12.72-.65,17.37-6.75,19.01-10.33,1.28-2.8,1.15-6.07-.36-8.75-.54-.97-1.24-1.82-2.06-2.54.66-.92,2.47-2.6,3.83-3.87,7.02-6.54,18.77-17.48,12.86-38.24Z"/>
    <path class="cls-2" d="M427.01,340.12c-6.42-22.57-19.39-23.34-21.14-23.34-.13,0-.19.01-.19.01l-2,4.08-3.11,32.14-8.89,10.67v4.89h-6.12c-.11.22-.22.43-.33.67-5.42,11.71,2.48,24.47,14.84,24.47.31,0,.62,0,.94-.02,8.3-.43,11.16-3.53,12.15-5.69.47-1.02-.21-2.21-1.32-2.34-2.48-.29-4.56-.39-6.08-.41-.44-.01-.55-.6-.14-.77,2.32-.96,4.15-2.09,4.43-5.57.66-8.56,23.85-14.56,16.96-38.78Z"/>
    <path class="cls-4" d="M412.56,352.01c-2.54,7.12-8.83,14.05-15.49,15.79,1.26-1,2.42-2.11,3.49-3.29,4.44-4.9,7.18-11.22,7.33-18.13.01-.22.02-.45.02-.67v-8.13c2.69,2.2,6.49,9.26,4.65,14.43Z"/>
  </g>
  <ellipse class="cls-4" cx="284.46" cy="437.21" rx="107.44" ry="11.87"/>
  <g>
    <g>
      <g>
        <path class="cls-2" d="M264.82,371.79l-.19,2.87-.07,1-.02.28v.06l-.03.43-.04.47h0s-.37,5.51-.37,5.51l-.3,4.48-.03.37-.12,1.8-2.21,32.56s-.04,7.4-9.39,8.51c-3.12.37-7.82,1.19-12.18,1.19-1.38,0-2.72-.08-3.97-.28-9.28-1.52-13.33-9.15,7.99-18.29l-.97-22.32-.18-4-.17-3.93v-.07l-.11-2.37-.23-5.4-.13-2.87h22.72Z"/>
        <polygon class="cls-4" points="264.82 371.79 263.8 386.88 242.46 380.06 242.1 371.79 264.82 371.79"/>
        <path class="cls-5" d="M234.6,364.61v.33s.32,7.17.32,7.17l.11,2.55.35,8,.06,1.35c.99-1.07,1.34-1.82,1.34-1.82,0,0,2.4.2,5.79.24l-.11-2.37-.23-5.4-.13-2.87h22.72l-.19,2.87-.07,1-.02.28v.06l-.03.43-.04.47h0s-.37,5.51-.37,5.51l-.3,4.48-.03.37-.12,1.8-2.21,32.56s-.04,7.4-9.39,8.51c-3.12.37-7.82,1.19-12.18,1.19-1.38,0-2.72-.08-3.97-.28-9.28-1.52-13.33-9.15,7.99-18.29l-.97-22.32-.18-4c-1.56-.01-2.93-.06-3.99-.11-.65.76-1.53,1.63-2.68,2.54-.13.09-.26.19-.4.3v.16l.2,4.51.63,14.42c-4.15,2.07-7.38,4.18-9.81,6.39-5.13,4.67-5.78,9.15-5.42,12.08.41,3.37,2.36,6.37,5.49,8.45,2.18,1.45,4.87,2.45,7.99,2.95,1.56.26,3.24.38,5.12.38,3.83,0,7.66-.51,10.73-.93.84-.12,1.63-.23,2.3-.3,6.04-.72,10.85-3.61,13.54-8.15,1.82-3.08,2.13-5.96,2.18-7.14l2.77-40.81.44-6.51.16-2.38.03-.41.47-6.93.02-.33h-37.91Z"/>
      </g>
      <g>
        <path class="cls-2" d="M302.11,371.79l1.17,17.27,2.21,32.56s.04,7.4,9.39,8.51c3.12.37,7.83,1.19,12.19,1.19,1.37,0,2.72-.08,3.96-.28,9.29-1.52,13.34-9.14-7.98-18.29l1.32-30.25.46-10.71h-22.72Z"/>
        <polygon class="cls-4" points="302.11 371.79 303.14 386.88 324.47 380.06 324.83 371.79 302.11 371.79"/>
        <path class="cls-5" d="M340.25,414.64c-2.43-2.21-5.67-4.32-9.81-6.39l1.46-33.59.11-2.55.32-7.17v1.62s-37.91,0-37.91,0l.02-1.62.5,7.34.16,2.38,3.22,47.32c.04,1.18.36,4.06,2.18,7.14,2.69,4.54,7.5,7.43,13.54,8.15.66.07,1.46.18,2.29.3,3.08.42,6.91.93,10.74.93,1.88,0,3.56-.12,5.12-.38,3.12-.5,5.81-1.5,7.99-2.95,3.13-2.08,5.08-5.08,5.49-8.45.36-2.93-.29-7.41-5.42-12.08ZM331.03,431.04c-1.24.2-2.59.28-3.96.28-4.36,0-9.06-.82-12.19-1.19-9.35-1.11-9.38-8.51-9.38-8.51l-2.21-32.56-.15-2.17-.83-12.23-.19-2.87h22.72l-.13,2.87-.23,5.4-.11,2.44-1.32,30.25c21.32,9.14,17.27,16.77,7.98,18.29Z"/>
      </g>
    </g>
    <g>
      <path class="cls-8" d="M189.62,359.36c-.46,0-.92-.03-1.37-.06-.19-.02-.37-.04-.56-.06-.23-.03-.46-.06-.69-.09-.26-.04-.53-.08-.79-.14-.02,0-.04,0-.06-.01-2.17-.46-4.2-1.34-5.95-2.56-.03-.02-.06-.04-.08-.06-.25-.18-.49-.36-.73-.55-.14-.11-.27-.23-.41-.35-.22-.19-.43-.37-.63-.57-.23-.22-.45-.45-.67-.68-.1-.11-.19-.23-.29-.34-.18-.21-.35-.42-.51-.64-.08-.11-.17-.23-.25-.34-.17-.24-.33-.49-.48-.74-.06-.09-.12-.19-.17-.28-.2-.35-.39-.72-.56-1.09-.73-1.62-1.1-3.32-1.1-5.08v-125.02c0-.24.02-.47.04-.7.01-.2.01-.41.03-.61.09-.87.28-1.72.55-2.55.14-.41.3-.82.48-1.22.17-.37.36-.73.56-1.09.06-.1.12-.19.18-.29.15-.25.31-.49.48-.73.08-.12.17-.24.26-.35.16-.21.33-.42.5-.62.1-.12.2-.24.3-.36.19-.22.4-.42.61-.63.22-.22.46-.43.7-.64.13-.11.26-.22.39-.33.24-.19.49-.38.74-.56.02-.02.05-.03.07-.05,1.74-1.22,3.77-2.1,5.95-2.56.02,0,.04-.01.07-.02.26-.05.52-.09.79-.14.23-.04.46-.07.69-.09.19-.02.37-.04.56-.06.45-.04.91-.06,1.37-.06h187.69c.46,0,.92.03,1.37.06.19.02.37.04.56.06.23.03.46.06.69.09.26.04.53.08.79.14.02,0,.04.01.07.02,2.17.46,4.2,1.34,5.95,2.56.02.02.05.03.07.05.25.18.5.37.74.56.13.11.26.22.39.33.24.21.47.42.7.64.21.21.42.41.61.63.1.12.2.24.3.36.17.2.34.41.5.62.09.12.17.23.26.35.17.24.33.48.48.73.06.1.12.19.18.29.2.35.39.72.56,1.09.18.4.34.8.47,1.21.28.83.46,1.69.55,2.56.01.12.01.25.02.37.02.31.05.63.05.94v125.02c0,1.76-.37,3.47-1.1,5.08-.17.37-.36.73-.56,1.09-.06.1-.12.19-.17.28-.15.25-.31.5-.48.74-.08.12-.16.23-.25.34-.16.22-.34.43-.51.64-.1.11-.19.23-.29.34-.21.23-.44.46-.67.68-.2.2-.41.39-.63.57-.13.12-.27.23-.41.35-.24.19-.48.38-.73.55-.03.02-.06.04-.08.06-1.74,1.22-3.77,2.1-5.95,2.56-.02,0-.04,0-.06.01-.26.05-.52.09-.79.14-.23.04-.46.07-.69.09-.19.02-.37.04-.56.06-.45.04-.91.06-1.37.06h-187.69Z"/>
      <g>
        <path class="cls-5" d="M212.35,364.94s-.07.07-.11.11c-1.7,1.65-3.66,2.45-6.01,2.45-1.35,0-2.37-.27-2.64-.35l-1.43-.6-1.33.11h-23.54l2.25,6.38c1.5.5,3.06.89,4.66,1.16,1.76.3,3.57.46,5.42.46h142.28l.11-2.55.32-7.17h-119.98Z"/>
        <path class="cls-5" d="M407.91,220.68v125.03c0,.22,0,.45-.02.67-.15,6.91-2.89,13.23-7.33,18.13-1.07,1.18-2.23,2.29-3.49,3.29h-.01c-5.33,4.28-12.22,6.86-19.74,6.86h-45.42l.11-2.55.32-7.17h44.99c11.51,0,20.87-8.63,20.87-19.23v-125.03c0-10.6-9.36-19.22-20.87-19.22h-187.7c-11.51,0-20.87,8.62-20.87,19.22v125.03c0,10.6,9.36,19.23,20.87,19.23h22.73s-.07.07-.11.11c-1.7,1.65-3.66,2.45-6.01,2.45-1.35,0-2.37-.27-2.64-.35l-1.43-.6-1.33.11h-23.54l2.25,6.38c-11.93-3.95-20.51-14.71-20.51-27.33v-125.03c0-15.96,13.72-28.95,30.59-28.95h187.7c16.87,0,30.59,12.99,30.59,28.95Z"/>
        <g>
          <path class="cls-5" d="M242.74,386.43c-1.56-.01-2.93-.06-3.99-.11-.65.76-1.53,1.63-2.68,2.54-.13.09-.26.19-.4.3-.58.43-1.23.86-1.95,1.3l1.95-1.14.2,4.51c-3.64,2.19-8.76,4.17-15.9,5.05-2.02.24-4.03.37-5.98.37-15.76,0-28.07-8.2-32.93-21.92l-1.52-4.29c1.5.5,3.06.89,4.66,1.16,1.76.3,3.57.46,5.42.46h-1.02c.6,1.68,1.33,3.24,2.19,4.68h0c4.65,7.77,12.97,11.91,23.2,11.91,1.63,0,3.3-.11,5.01-.32,9.76-1.19,14.44-4.73,16.44-6.92.99-1.07,1.34-1.82,1.34-1.82,0,0,2.4.2,5.79.24v.07l.17,3.93Z"/>
          <path class="cls-2" d="M287.21,336.51c-1.12,4.04-5.39,6.32-7.15,7.11-.76.36-5.2,2.95-9.74,5.64,1.67,2.09,3.02,5.13,3.31,10.1.06,1,.07,2.08.04,3.25-.02.79-.07,1.57-.14,2.33-.25,2.48-.76,4.8-1.51,6.93-.35.97-.75,1.9-1.2,2.79-1.63,3.23-3.9,5.87-6.72,7.75-1.77,1.21-3.75,2.12-5.92,2.68-.39.11-.8.21-1.21.29-3.52.7-7.9,1.06-13.04,1.06-.41,0-.8,0-1.19-.01l-.17-3.93v-.07c-3.39-.04-5.79-.24-5.79-.24,0,0-.35.75-1.34,1.82-2,2.19-6.68,5.73-16.44,6.92-1.71.21-3.38.32-5.01.32-10.23,0-18.55-4.14-23.2-11.9h0c-.86-1.45-1.59-3.01-2.19-4.69h1.02c-1.85,0-3.66-.16-5.42-.46l-1.25-3.54h18.6s.66.24.66.24c.01.01,1.69.6,4.02.6,3.39,0,6.35-1.2,8.8-3.58,1.2-1.17,2.2-2.15,3.03-2.98,1.69-1.66,2.67-2.68,3.25-3.29-.02-.63-.02-1.41.01-2.29.15-4.16,1.05-10.65,4.84-15.15,1.72-2.04.37-6.69-1.74-10.39-.95-1.68-1.06-3.72-.28-5.48,1.21-2.75,3.61-4.39,6.43-4.39,2.32,0,4.76,1.08,7.47,3.3,4.3,3.52,5.2,8.24,5.79,11.36.15.8.37,1.94.58,2.49h.12c.21,0,.46-.01.74-.05,6.35-.88,21.42-8.75,26.98-11.86.97-.69,3.86-2.51,7.14-2.51,2.69,0,5.03,1.22,6.59,3.43,1.38,1.98,1.82,4.25,1.23,6.4Z"/>
          <path class="cls-5" d="M289.25,327.81c-2.3-3.26-5.89-5.13-9.86-5.13-4.2,0-7.73,2.06-9.27,3.12-6.6,3.69-16.76,8.73-22.65,10.6-.73-3.48-2.17-8.38-6.9-12.25-3.45-2.82-6.72-4.2-10-4.2-4.38,0-8.25,2.6-10.09,6.78-1.29,2.9-1.11,6.3.47,9.07,1.63,2.87,2.09,5.23,2,6.02-4.47,5.44-5.5,12.81-5.64,17.54-.01.24-.02.47-.02.69-.98,1-2.53,2.55-4.94,4.89-.03.04-.07.07-.11.11-1.7,1.65-3.66,2.45-6.01,2.45-1.35,0-2.37-.27-2.64-.35l-1.43-.6-1.33.11h-23.54l2.25,6.38c1.5.5,3.06.89,4.66,1.16,1.76.3,3.57.46,5.42.46h11.21s2.23.84,5.4.84c1.59,0,3.41-.21,5.3-.84,2.07-.69,4.24-1.89,6.29-3.87,2.95-2.87,4.77-4.69,5.87-5.85,1.79-1.87,1.76-2.01,1.7-2.01h-.02s-.12-1.45-.03-3.57c.14-3.57.9-9.04,3.88-12.57,3.96-4.71.07-12.51-1.32-14.95-.33-.58-.37-1.27-.1-1.88.39-.9,1.2-2.01,2.77-2.01,1.17,0,2.77.62,4.93,2.39,6.67,5.46,2.27,14.76,9.03,14.76.39,0,.82-.03,1.29-.09,8.59-1.19,28.59-12.45,28.59-12.45,0,0,2.49-1.88,4.98-1.88,1.2,0,2.4.44,3.32,1.74,2.81,4-2.97,6.96-4.3,7.55-1.33.59-12.5,7.26-12.5,7.26,0,0-2.46.89-1.13,2.22,1.18,1.19,4.35,2.49,4.84,9.91.06.94.08,1.98.05,3.13-.02.72-.07,1.43-.14,2.12,0,.11-.02.22-.03.33-.41,3.79-1.53,7.08-3.27,9.72-.52.81-1.1,1.55-1.75,2.23h-.01v.02c-2.17,2.31-4.97,3.88-8.28,4.54-2.14.43-4.48.68-6.79.83h-.01c-1.89.12-3.77.16-5.46.16-.47,0-.92,0-1.36-.01v.07l.17,3.93c-1.56-.01-2.93-.06-3.99-.11-.04.05-.09.1-.14.16-.74.78-2.54,2.35-2.89,2.64-.02.02-.04.03-.05.04-.58.43-1.23.86-1.95,1.3l1.95-1.14.2,4.51c1.89-1.14,3.38-2.33,4.54-3.45.77.02,1.61.04,2.51.05.33.01.67.01,1.01.01,5.4,0,10.05-.39,13.83-1.14,2.15-.43,4.16-1.12,6.01-2.04,2.97-1.47,5.53-3.53,7.62-6.09,1.56-1.91,2.85-4.09,3.85-6.51,1.21-2.92,1.99-6.18,2.29-9.72.07-.73.11-1.47.13-2.22.04-1.19.02-2.31-.03-3.36-.19-3.62-.88-6.44-1.85-8.68,2.87-1.69,5.29-3.09,6-3.45,2.36-1.07,7.74-4.06,9.28-9.65.92-3.33.28-6.8-1.81-9.77Z"/>
        </g>
        <g>
          <path class="cls-5" d="M344.16,270.14c-1.03-7.17-8.52-12.05-16.69-10.88-8.18,1.17-13.99,7.96-12.97,15.13,0,.05.03.09.04.14,0,.05,0,.09,0,.14,1.03,7.17,8.52,12.05,16.69,10.88,8.18-1.17,13.99-7.96,12.96-15.13,0-.05-.03-.09-.04-.14,0-.05,0-.09,0-.14Z"/>
          <circle class="cls-4" cx="334.17" cy="272.83" r="4.81"/>
          <path class="cls-1" d="M288.38,315.18c-8.54-.53-17.73-.88-27.52-1.53-1.73-.14-2.52-2.85-1.48-6.25,1.04-3.39,3.53-5.73,5.27-5.09,7.78,2.42,15.94,3.07,23.91,3.55,7.99.24,16.02.15,24.06-1.27,1.81-.41,4.17,2.15,4.98,5.47.82,3.33-.16,5.76-1.91,5.71-9.92-.35-18.75-.36-27.32-.6Z"/>
          <path class="cls-5" d="M253.67,263.82l-17.47-.02s-.01.02-.02.02h-13.61c-2.75,0-4.98,2.23-4.98,4.98s2.23,4.98,4.98,4.98h9.13s-.01.09-.01.14c0,7.25,5.89,13.14,13.14,13.14s13.14-5.89,13.14-13.14c0-.05-.01-.09-.01-.14,0-.05.01-.09.01-.14.47-7.25-4.3-9.82-4.3-9.82Z"/>
          <path class="cls-1" d="M253.7,254.97c-10.92,1.88-21.94.97-32.08-2.46-2.26-.76-3.36-3-2.54-4.83.2-.45.39-.91.59-1.36.81-1.84,2.96-2.7,4.87-2.06,8.78,2.94,18.35,3.72,27.86,2.05,2.07-.36,4.14.79,4.6,2.75.11.48.21.97.32,1.45.45,1.95-1.17,4.04-3.61,4.46Z"/>
          <path class="cls-1" d="M341.59,243.99c-6.5-3.56-14.42-3.56-20.92,0-2.54,1.35-5.86,1.56-7.8-.33h0c-1.94-1.86-.81-6.11,3.11-8.25,9.41-5.15,20.89-5.15,30.3,0,3.92,2.15,5.06,6.39,3.11,8.25h0c-1.94,1.89-5.27,1.67-7.8.33Z"/>
        </g>
      </g>
    </g>
  </g>
  <circle class="cls-7" cx="359.16" cy="260.04" r="5.11"/>
  <circle class="cls-7" cx="375.5" cy="245.8" r="7.12"/>
  <path class="cls-3" d="M461.3,191.73c0-8.25-5.3-15.13-12.38-16.84.3-1.32.47-2.69.47-4.11,0-9.53-7.07-17.26-15.8-17.26-3.53,0-6.77,1.28-9.4,3.41-1.97-6.68-8.02-12.08-15.87-13.3-9.15-1.42-17.71,3.32-20.79,10.93-2.71-2.38-6.14-3.8-9.88-3.8-8.73,0-15.8,7.73-15.8,17.26,0,.94.09,1.86.22,2.77-.07,0-.15-.01-.22-.01-8.73,0-15.8,7.73-15.8,17.26,0,8.5,5.64,15.56,13.05,16.98-.93,2.47-1.28,5.23-.75,8.13,1.22,6.66,6.78,11.84,13.52,12.52,4.13.41,7.95-.83,10.92-3.13,1.54,7.59,8.07,13.61,16.38,14.32,9.54.81,17.96-5.68,19.49-14.72,3.12,4.45,8.53,7.17,14.53,6.41,6.35-.8,11.61-5.63,12.98-11.88.6-2.72.43-5.33-.28-7.7,8.55-.22,15.42-7.85,15.42-17.24Z"/>
  <text class="cls-6" transform="translate(387.51 212.02)"><tspan x="0" y="0">?</tspan></text>
  <path class="cls-4" d="M263.79,353.25s4.88,7.33,2.96,13.92c-1.92,6.58-3.04,5.78-3.04,5.78,0,0,3.31-5.27.08-19.69Z"/>
  <path class="cls-4" d="M236.78,382.19s-.35.75-1.34,1.82c-2,2.19-6.68,5.73-16.44,6.92-1.71.21-3.38.32-5.01.32-10.23,0-18.55-4.14-23.2-11.9h0c19.65,9.86,39.28,4.95,44.59,3.31.91-.29,1.4-.47,1.4-.47Z"/>
</svg>