<?xml version="1.0" encoding="UTF-8"?>
<svg id="Layer_1" data-name="Layer 1" xmlns="http://www.w3.org/2000/svg" xmlns:xlink="http://www.w3.org/1999/xlink" viewBox="0 0 566.93 566.93">
  <defs>
    <style>
      .cls-1 {
        fill: #263e7a;
      }

      .cls-2 {
        fill: #fff;
      }

      .cls-3 {
        fill: #d1eefc;
      }

      .cls-4 {
        fill: #253e79;
      }

      .cls-5 {
        fill: #f05681;
      }

      .cls-6 {
        fill: #3dc3f1;
      }

      .cls-7 {
        fill: #e4f5fd;
      }

      .cls-8 {
        fill: url(#linear-gradient);
      }
    </style>
    <linearGradient id="linear-gradient" x1="283.74" y1="281.64" x2="293.78" y2="224.69" gradientUnits="userSpaceOnUse">
      <stop offset="0" stop-color="#fff"/>
      <stop offset=".43" stop-color="#fcfdfe"/>
      <stop offset=".74" stop-color="#f2fafe"/>
      <stop offset="1" stop-color="#e4f5fd"/>
    </linearGradient>
  </defs>
  <ellipse class="cls-3" cx="301.19" cy="437.18" rx="107.44" ry="11.87"/>
  <g>
    <g>
      <path class="cls-2" d="M264.82,371.79l-1.17,17.27-2.21,32.56s-.04,7.4-9.39,8.51c-3.12.37-7.83,1.19-12.19,1.19-1.37,0-2.72-.08-3.96-.28-9.29-1.52-13.34-9.14,7.98-18.29l-1.32-30.25-.46-10.71h22.72Z"/>
      <polygon class="cls-3" points="264.82 371.79 263.8 386.88 242.46 380.06 242.1 371.79 264.82 371.79"/>
      <path class="cls-4" d="M234.6,364.61l.33,7.5,1.58,36.14c-4.15,2.07-7.38,4.18-9.81,6.39-5.13,4.67-5.78,9.14-5.42,12.08.41,3.36,2.36,6.36,5.49,8.44,2.18,1.45,4.87,2.45,7.99,2.96,1.56.26,3.24.38,5.12.38,3.83,0,7.66-.52,10.74-.94.84-.11,1.63-.22,2.29-.3,6.04-.72,10.85-3.61,13.54-8.14,1.82-3.08,2.14-5.97,2.18-7.15l3.37-49.69.52-7.67h-37.91ZM261.44,421.62s-.04,7.4-9.39,8.51c-3.12.37-7.83,1.19-12.19,1.19-1.37,0-2.72-.08-3.96-.28-9.29-1.52-13.34-9.14,7.98-18.29l-1.32-30.25-.46-10.71h22.72l-1.17,17.27-2.21,32.56Z"/>
    </g>
    <g>
      <path class="cls-2" d="M302.11,371.79l1.17,17.27,2.21,32.56s.04,7.4,9.39,8.51c3.12.37,7.83,1.19,12.19,1.19,1.37,0,2.72-.08,3.96-.28,9.29-1.52,13.34-9.14-7.98-18.29l1.32-30.25.46-10.71h-22.72Z"/>
      <polygon class="cls-3" points="302.11 371.79 303.14 386.88 324.47 380.06 324.83 371.79 302.11 371.79"/>
      <path class="cls-4" d="M332.34,364.61l-.33,7.5-1.58,36.14c4.15,2.07,7.38,4.18,9.81,6.39,5.13,4.67,5.78,9.14,5.42,12.08-.41,3.36-2.36,6.36-5.49,8.44-2.18,1.45-4.87,2.45-7.99,2.96-1.56.26-3.24.38-5.12.38-3.83,0-7.66-.52-10.74-.94-.84-.11-1.63-.22-2.29-.3-6.04-.72-10.85-3.61-13.54-8.14-1.82-3.08-2.14-5.97-2.18-7.15l-3.37-49.69-.52-7.67h37.91ZM305.49,421.62s.04,7.4,9.39,8.51c3.12.37,7.83,1.19,12.19,1.19,1.37,0,2.72-.08,3.96-.28,9.29-1.52,13.34-9.14-7.98-18.29l1.32-30.25.46-10.71h-22.72l1.17,17.27,2.21,32.56Z"/>
    </g>
  </g>
  <g>
    <path class="cls-4" d="M412.13,298.54c.46.57,11.26,14.32,20.26,32.27,5.39,10.74,9.02,20.79,10.79,29.87,2.35,12.1,1.42,22.63-2.78,31.3-2.2,4.54-6.19,7.86-10.95,9.08-1.27.33-2.53.49-3.75.49-3.44,0-6.51-1.27-8.9-3.68-1.69-1.7-2.95-3.9-3.81-6.63-.25.02-.51.03-.78.03-.75,0-1.5-.09-2.23-.27-3-.74-5.46-2.89-6.73-5.89-2.92-6.87.76-16.5,4.85-24.04-.48-4.05-2.02-13.66-6.42-22.49l-.67-1.34-.07-1.5-1.63-32.38-1.13-22.45,13.94,17.63ZM407.79,328.83l.33,6.55c6.51,13.06,7.36,27.24,7.36,27.24-7.51,12.96-7.17,20.57-3.76,21.41.17.04.33.06.5.06,1.84,0,3.8-2.33,5.12-4.3.17-.25.42-.36.67-.36.41,0,.82.31.82.82-.09,11.36,3.42,14.13,6.88,14.13.66,0,1.32-.1,1.96-.27,2.76-.71,5.03-2.69,6.27-5.26,15.35-31.72-27.44-85.85-27.44-85.85l1.3,25.83Z"/>
    <path class="cls-2" d="M406.49,303l1.3,25.83.33,6.55c6.51,13.06,7.36,27.24,7.36,27.24-7.51,12.96-7.17,20.57-3.76,21.41.17.04.33.06.5.06,1.84,0,3.8-2.33,5.12-4.3.17-.25.42-.36.67-.36.41,0,.82.31.82.82-.09,11.36,3.42,14.13,6.88,14.13.66,0,1.32-.1,1.96-.27,2.76-.71,5.03-2.69,6.27-5.26,15.35-31.72-27.44-85.85-27.44-85.85Z"/>
    <path class="cls-3" d="M408.12,335.38c6.51,13.06,7.36,27.24,7.36,27.24-7.51,12.96-7.17,20.57-3.76,21.41.17.04.33.06.5.06,1.84,0,3.8-2.33,5.12-4.3.17-.25.42-.36.67-.36-.96-1.81-.46-6.3.51-10.47,1.33-5.72,1.32-11.67-.14-17.36-1.81-7.1-5.05-16.19-10.59-22.75l.33,6.55Z"/>
  </g>
  <path class="cls-8" d="M189.62,359.36c-.46,0-.92-.03-1.37-.06-.19-.02-.37-.04-.56-.06-.23-.03-.46-.06-.69-.09-.26-.04-.53-.08-.79-.14-.02,0-.04,0-.06-.01-2.17-.46-4.2-1.34-5.95-2.56-.03-.02-.06-.04-.08-.06-.25-.18-.49-.36-.73-.55-.14-.11-.27-.23-.41-.35-.22-.19-.43-.37-.63-.57-.23-.22-.45-.45-.67-.68-.1-.11-.19-.23-.29-.34-.18-.21-.35-.42-.51-.64-.08-.11-.17-.23-.25-.34-.17-.24-.33-.49-.48-.74-.06-.09-.12-.19-.17-.28-.2-.35-.39-.72-.56-1.09-.73-1.62-1.1-3.32-1.1-5.08v-125.02c0-.24.02-.47.04-.7.01-.2.01-.41.03-.61.09-.87.28-1.72.55-2.55.14-.41.3-.82.48-1.22.17-.37.36-.73.56-1.09.06-.1.12-.19.18-.29.15-.25.31-.49.48-.73.08-.12.17-.24.26-.35.16-.21.33-.42.5-.62.1-.12.2-.24.3-.36.19-.22.4-.42.61-.63.22-.22.46-.43.7-.64.13-.11.26-.22.39-.33.24-.19.49-.38.74-.56.02-.02.05-.03.07-.05,1.74-1.22,3.77-2.1,5.95-2.56.02,0,.04-.01.07-.02.26-.05.52-.09.79-.14.23-.04.46-.07.69-.09.19-.02.37-.04.56-.06.45-.04.91-.06,1.37-.06h187.69c.46,0,.92.03,1.37.06.19.02.37.04.56.06.23.03.46.06.69.09.26.04.53.08.79.14.02,0,.04.01.07.02,2.17.46,4.2,1.34,5.95,2.56.02.02.05.03.07.05.25.18.5.37.74.56.13.11.26.22.39.33.24.21.47.42.7.64.21.21.42.41.61.63.1.12.2.24.3.36.17.2.34.41.5.62.09.12.17.23.26.35.17.24.33.48.48.73.06.1.12.19.18.29.2.35.39.72.56,1.09.18.4.34.8.47,1.21.28.83.46,1.69.55,2.56.01.12.01.25.02.37.02.31.05.63.05.94v125.02c0,1.76-.37,3.47-1.1,5.08-.17.37-.36.73-.56,1.09-.06.1-.12.19-.17.28-.15.25-.31.5-.48.74-.08.12-.16.23-.25.34-.16.22-.34.43-.51.64-.1.11-.19.23-.29.34-.21.23-.44.46-.67.68-.2.2-.41.39-.63.57-.13.12-.27.23-.41.35-.24.19-.48.38-.73.55-.03.02-.06.04-.08.06-1.74,1.22-3.77,2.1-5.95,2.56-.02,0-.04,0-.06.01-.26.05-.52.09-.79.14-.23.04-.46.07-.69.09-.19.02-.37.04-.56.06-.45.04-.91.06-1.37.06h-187.69Z"/>
  <path class="cls-4" d="M377.31,191.73h-187.69c-16.87,0-30.6,12.99-30.6,28.95v125.03c0,15.96,13.73,28.95,30.6,28.95h187.69c16.87,0,30.59-12.99,30.59-28.95v-125.03c0-15.96-13.73-28.95-30.59-28.95ZM398.19,345.71c0,10.6-9.36,19.23-20.87,19.23h-187.69c-11.51,0-20.87-8.62-20.87-19.23v-125.03c0-10.6,9.36-19.23,20.87-19.23h187.69c11.51,0,20.87,8.62,20.87,19.23v125.03Z"/>
  <ellipse class="cls-3" cx="284.46" cy="437.22" rx="107.44" ry="11.87"/>
  <g>
    <g>
      <path class="cls-2" d="M264.82,371.79l-.19,2.87-.07,1-.02.28v.06l-.03.43-.04.47h0s-.37,5.51-.37,5.51l-.3,4.48-.03.37-.12,1.8-2.21,32.56s-.04,7.4-9.39,8.51c-3.12.37-7.82,1.19-12.18,1.19-1.38,0-2.72-.08-3.97-.28-9.28-1.52-13.33-9.15,7.99-18.29l-.97-22.32-.18-4-.17-3.93v-.07l-.11-2.37-.23-5.4-.13-2.87h22.72Z"/>
      <polygon class="cls-3" points="264.82 371.8 263.8 386.89 242.46 380.06 242.1 371.8 264.82 371.8"/>
      <path class="cls-4" d="M234.73,367.77l.19,4.34.11,2.55.35,8,.29,6.52v.14l.2,4.51.63,14.42c-4.15,2.07-7.38,4.18-9.81,6.39-5.13,4.67-5.78,9.15-5.42,12.08.41,3.37,2.36,6.37,5.49,8.45,2.18,1.45,4.87,2.45,7.99,2.95,1.56.26,3.24.38,5.12.38,3.83,0,7.66-.51,10.73-.93.84-.12,1.63-.23,2.3-.3,6.04-.72,10.85-3.61,13.54-8.15,1.82-3.08,2.13-5.96,2.18-7.14l2.77-40.81.44-6.51.16-2.38.03-.41.28-4.1h-37.57ZM264.63,374.66l-.07,1-.02.28v.06l-.03.43-.04.47h0s-.37,5.51-.37,5.51l-.3,4.48-.03.37-.12,1.8-2.21,32.56s-.04,7.4-9.39,8.51c-3.12.37-7.82,1.19-12.18,1.19-1.38,0-2.72-.08-3.97-.28-9.28-1.52-13.33-9.15,7.99-18.29l-.97-22.32-.14-3.22s.01,0,.02,0l-.33-7.15-.23-5.4-.13-2.87h22.72l-.19,2.87Z"/>
    </g>
    <g>
      <path class="cls-2" d="M302.11,371.8l1.17,17.27,2.21,32.56s.04,7.4,9.39,8.51c3.12.37,7.83,1.19,12.19,1.19,1.37,0,2.72-.08,3.96-.28,9.29-1.52,13.34-9.14-7.98-18.29l1.32-30.25.46-10.71h-22.72Z"/>
      <polygon class="cls-3" points="302.11 371.8 303.14 386.89 324.47 380.06 324.83 371.8 302.11 371.8"/>
      <path class="cls-4" d="M340.25,414.64c-2.43-2.21-5.67-4.32-9.81-6.39l1.46-33.59.11-2.55.19-4.34h-37.57l.31,4.51.16,2.38,3.22,47.32c.04,1.18.36,4.06,2.18,7.14,2.69,4.54,7.5,7.43,13.54,8.15.66.07,1.46.18,2.29.3,3.08.42,6.91.93,10.74.93,1.88,0,3.56-.12,5.12-.38,3.12-.5,5.81-1.5,7.99-2.95,3.13-2.08,5.08-5.08,5.49-8.45.36-2.93-.29-7.41-5.42-12.08ZM331.03,431.04c-1.24.2-2.59.28-3.96.28-4.36,0-9.06-.82-12.19-1.19-9.35-1.11-9.38-8.51-9.38-8.51l-2.21-32.56-.15-2.17-.83-12.23-.19-2.87h22.72l-.13,2.87-.23,5.4-.11,2.44-1.32,30.25c21.32,9.14,17.27,16.77,7.98,18.29Z"/>
    </g>
  </g>
  <g>
    <g>
      <path class="cls-4" d="M340.31,261c-1.03-7.17-8.52-12.05-16.69-10.88-8.18,1.17-13.99,7.96-12.97,15.13,0,.05.03.09.04.14,0,.05,0,.09,0,.14,1.03,7.17,8.52,12.05,16.69,10.88,8.18-1.17,13.99-7.96,12.96-15.13,0-.05-.03-.09-.04-.14,0-.05,0-.09,0-.14Z"/>
      <path class="cls-1" d="M337.73,237c-6.5-3.56-14.42-3.56-20.92,0-2.54,1.35-5.86,1.56-7.8-.33h0c-1.94-1.86-.81-6.11,3.11-8.25,9.41-5.16,20.89-5.15,30.3,0,3.92,2.15,5.06,6.39,3.11,8.25t0,0c-1.94,1.88-5.27,1.67-7.8.33Z"/>
      <circle class="cls-3" cx="329.5" cy="268.69" r="4.81"/>
    </g>
    <g>
      <path class="cls-4" d="M219.83,261c1.03-7.17,8.52-12.05,16.69-10.88,8.18,1.17,13.99,7.96,12.97,15.13,0,.05-.03.09-.04.14,0,.05,0,.09,0,.14-1.03,7.17-8.52,12.05-16.69,10.88-8.18-1.17-13.99-7.96-12.96-15.13,0-.05.03-.09.04-.14,0-.05,0-.09,0-.14Z"/>
      <path class="cls-1" d="M222.41,237c6.5-3.56,14.42-3.56,20.92,0,2.54,1.35,5.86,1.56,7.8-.33h0c1.94-1.86.81-6.11-3.11-8.25-9.41-5.16-20.89-5.15-30.3,0-3.92,2.15-5.06,6.39-3.11,8.25h0c1.94,1.88,5.27,1.67,7.8.33Z"/>
      <circle class="cls-3" cx="238.64" cy="268.69" r="4.81"/>
    </g>
  </g>
  <g>
    <g>
      <path class="cls-4" d="M204.71,316.63l.05-.06-.63-.61c-.13-.15-.27-.29-.42-.42l-4.14-4.13-47.55-47.4-6.88-6.87-.04.04-6.03-6.01c-3.45-3.44-8.04-5.34-12.91-5.33-4.87,0-9.45,1.91-12.89,5.37-3.44,3.45-5.33,8.03-5.32,12.91,0,4.86,1.9,9.44,5.36,12.88l13.72,13.67.04-.04,50.31,50.15c.45.56.96,1.07,1.53,1.52l.1.1h0c.71.55,1.53,1.01,2.4,1.36l17.21,7.27c1.29.51,2.67.77,4.06.77,3.81,0,7.4-1.95,9.59-5.19,2.12-3.15,2.56-7.08,1.17-10.51l-7.38-17.12c-.35-.85-.81-1.65-1.37-2.35ZM126.22,276.13l-6.03-6.01c-.53-.52-.97-1.1-1.33-1.71-.06-.1-.12-.21-.17-.31-.03-.05-.06-.11-.09-.16-.04-.08-.08-.16-.12-.24-.04-.08-.08-.16-.11-.24-.07-.16-.13-.32-.19-.48,0,0,0,0,0-.01-.05-.12-.09-.24-.12-.37-.01-.03-.02-.06-.03-.1-.01-.03-.02-.06-.03-.1-.04-.15-.08-.29-.11-.44-.04-.17-.07-.35-.1-.52-.03-.17-.05-.35-.07-.52-.01-.15-.02-.3-.03-.45,0-.06,0-.11,0-.17,0-.14,0-.29,0-.43,0-.08,0-.17.01-.26,0-.17.02-.35.05-.52.02-.17.05-.35.08-.52.01-.09.03-.17.05-.26.04-.17.08-.34.13-.51.04-.17.1-.34.16-.51.03-.08.06-.16.09-.25.03-.09.06-.17.1-.25.04-.08.07-.16.11-.24.08-.19.17-.36.27-.54.07-.12.13-.25.21-.36.08-.13.16-.25.24-.37.06-.09.12-.17.18-.25.04-.05.08-.1.12-.15.07-.09.13-.17.2-.25.08-.1.16-.19.24-.28.08-.09.16-.18.25-.27,1.66-1.67,3.83-2.5,6.01-2.51,2.18,0,4.36.82,6.02,2.48l6.04,6.02-10.53,10.55-1.5,1.5ZM165.38,315.09h0s-7.59-7.56-7.59-7.56l-23.85-23.77,11.98-12.02.04-.04,27.02,26.94,14.71,14.67,2.46,2.45-4.16,4.17-7.86,7.89-12.77-12.73ZM204.44,339.73c.42,1.06-.66,2.34-1.75,2.35-.16,0-.32-.03-.49-.1l-2.87-1.21-13.15-5.55,7.51-7.53,3.88-3.9,6.87,15.94Z"/>
      <g>
        <g>
          <polygon class="cls-2" points="190.17 315.76 186.02 319.93 178.16 327.82 133.95 283.75 142.09 275.59 145.93 271.73 145.97 271.69 190.17 315.76"/>
          <path class="cls-2" d="M138.25,264.08l-3.88,3.88-8.14,8.17-6.03-6.01c-2.66-2.65-3.2-6.62-1.61-9.81.39-.81.93-1.57,1.6-2.24,1.66-1.67,3.83-2.5,6.01-2.51,2.18,0,4.35.82,6.02,2.49l6.04,6.02Z"/>
          <path class="cls-2" d="M202.69,342.08c-.16,0-.32-.03-.49-.1l-2.88-1.22-13.14-5.55,11.39-11.43,6.87,15.94c.42,1.06-.67,2.35-1.76,2.35Z"/>
        </g>
        <g>
          <path class="cls-7" d="M134.37,267.96l-8.14,8.17-6.03-6.01c-2.66-2.65-3.2-6.62-1.61-9.81,1.17-.59,2.44-.87,3.71-.87,2.18,0,4.35.82,6.02,2.49l6.05,6.03Z"/>
          <polygon class="cls-7" points="142.09 275.59 186.02 319.93 178.16 327.82 133.95 283.75 142.09 275.59"/>
          <polygon class="cls-7" points="199.33 340.77 186.18 335.22 193.69 327.69 199.33 340.77"/>
        </g>
      </g>
    </g>
    <g>
      <path class="cls-4" d="M178.99,304.47c-1.66-9.16-7.25-15-15.33-16.04-1.14-.15-2.27-.23-3.37-.23-3.68,0-6.89.81-9.64,2.18-2.76,1.37-5.07,3.29-6.95,5.53l-10.09-10.09-4.9,10.13c-8.46,17.47-8.88,30.55-1.2,37.81,4.93,4.67,11.75,7.34,18.71,7.34,12.63,0,23.87-8.33,30.83-22.87,2.07-4.34,2.76-9.22,1.94-13.76ZM169.83,314.77c-6.42,13.42-15.55,18.33-23.61,18.33-5.18,0-9.92-2.03-13.21-5.15-2.12-2.01-2.95-4.9-2.98-8.14-.07-6.86,3.43-15.32,5.88-20.38l4.96,4.96c-.11.32-.21.63-.31.93-.77,2.56-1.66,5.67.92,7,.52.28.99.38,1.41.38.61,0,1.11-.23,1.49-.51.58-.45.94-1.12,1.09-1.84.6-2.93,3.64-14.15,14.82-14.15.75,0,1.53.05,2.35.16,2.76.35,4.64,1.64,5.92,3.26,1.54,1.95,2.22,4.39,2.56,6.28.54,3,.03,6.12-1.29,8.87Z"/>
      <path class="cls-2" d="M169.83,314.77c-6.42,13.42-15.55,18.33-23.61,18.33-5.18,0-9.92-2.03-13.21-5.15-2.12-2.01-2.95-4.9-2.98-8.14-.07-6.86,3.43-15.32,5.88-20.38l4.96,4.96c-.11.32-.21.63-.31.93-.77,2.56-1.66,5.67.92,7,.52.28.99.38,1.41.38.61,0,1.11-.23,1.49-.51.58-.45.94-1.12,1.09-1.84.6-2.93,3.64-14.15,14.82-14.15.75,0,1.53.05,2.35.16,2.76.35,4.64,1.64,5.92,3.26,1.54,1.95,2.22,4.39,2.56,6.28.54,3,.03,6.12-1.29,8.87Z"/>
    </g>
    <path class="cls-3" d="M169.83,314.77c-6.42,13.42-15.55,18.33-23.61,18.33-5.18,0-9.92-2.03-13.21-5.15-2.12-2.01-2.95-4.9-2.98-8.14,2.19,6.73,10.99,10.84,21.53,5.62,9.36-4.63,15.33-10.11,17-25.81,1.54,1.95,2.22,4.39,2.56,6.28.54,3,.03,6.12-1.29,8.87Z"/>
  </g>
  <g>
    <path class="cls-4" d="M321.54,294.35c-8.84,11.93-23.07,19.05-38.07,19.05s-29.23-7.12-38.07-19.05c-1.6-2.15-1.14-5.2,1.01-6.79,2.16-1.6,5.2-1.15,6.8,1.01,7.02,9.46,18.33,15.11,30.26,15.11,2.39,0,4.74-.23,7.05-.66h0c.5-.09.99-.2,1.48-.32.35-.08.7-.16,1.04-.26.15-.04.29-.08.43-.12.3-.08.6-.17.9-.26.44-.13.88-.27,1.31-.42,3.06-1.03,5.97-2.45,8.65-4.21.1-.07.19-.13.29-.19.17-.12.35-.24.52-.36.24-.17.47-.33.7-.51,2.18-1.59,4.2-3.43,6-5.49l.18-.21c.33-.37.64-.75.94-1.14.03-.04.06-.07.09-.11.24-.28.46-.57.67-.86.11-.14.22-.28.34-.4,1.66-1.8,4.44-2.1,6.46-.61,2.16,1.6,2.61,4.65,1.01,6.8Z"/>
    <g>
      <path class="cls-5" d="M313.06,289.42s-.06.07-.09.11c-.3.39-.61.77-.94,1.14l-.18.21c-1.8,2.06-3.82,3.9-6,5.49-.23.18-.46.34-.7.51-.17.12-.35.24-.52.36-.1.06-.19.12-.29.19-2.68,1.76-5.59,3.18-8.65,4.21-.43.15-.87.29-1.31.42-.11-3.12-.16-14.2,4-19.22,1.35-1.64,3-2.44,5.04-2.44,5.81,0,8.49,5.34,9.64,9.02Z"/>
      <path class="cls-4" d="M303.42,278.9c-10.87,0-10.52,19.91-10.37,23.54.15-.04.29-.08.43-.12.3-.08.6-.17.9-.26.44-.13.88-.27,1.31-.42-.13-4.45.3-13.72,3.67-17.79,1.1-1.33,2.39-1.95,4.06-1.95,5.46,0,7.73,5.48,8.61,8.77.33-.37.64-.75.94-1.14.03-.04.06-.07.09-.11.24-.28.46-.57.67-.86.11-.14.22-.28.34-.4-1.39-4.02-4.4-9.26-10.65-9.26Z"/>
    </g>
    <path class="cls-4" d="M306.54,295.85c-.96.88-2.22,1.61-2.34,1.7.11-1.2.12-2.39.06-3.62h0c-.06-1.48-.85-4.19-.38-4.32.68-.35,2.16,3.95,2.66,6.24Z"/>
  </g>
  <path class="cls-6" d="M222.41,344.38c2.95,4.09,7.88,6.29,12.9,5.24,4.66-.97,8.4-4.99,9.48-9.55-1.52.2-3.05.4-4.57.6,5.89,8.02,16.42,11.6,25.8,7.74,4.52-1.86,8.64-5.18,10.87-9.59,2.3-4.56,2.32-10.04-1.16-14.01-3.15-3.6-8.4-3.72-12.09-.92-3.98,3.01-5.42,8.09-3.93,12.82,1.34,4.26,4.59,8.03,8.7,9.81,3.9,1.69,8.13,2.51,12.32,3.04,4.3.55,8.7.51,13.01.08,3.89-.39,7.79-1.1,11.43-2.56,4.85-1.93,9.43-5.06,11.91-9.79,1.43-2.73,2.29-5.95,1.67-9.02-.82-4.06-5.19-7.32-9.35-6.51-5.1.99-7.82,6.92-8.1,11.6-.32,5.16,2.52,9.38,6.49,12.42,3.7,2.83,8.44,3.82,12.99,4.28,7.42.74,15.12-.99,21.23-5.33,2.01-1.42,3.85-3.05,5.51-4.86,2.17-2.37-1.36-5.91-3.54-3.54-4.6,5.02-10.82,8.29-17.38,8.8-1.36.11-2.72.12-4.08.06-.63-.03-1.25-.08-1.87-.14-.28-.03-.55-.06-.83-.1.5.06-.45-.07-.58-.09-1.75-.29-3.48-.7-5.16-1.26-.09-.03-1.22-.37-1.22-.45,0-.06.71.37.42.18-.31-.21-.7-.35-1.03-.53-.72-.41-1.4-.88-2.04-1.42-2.85-2.43-4.59-5.48-3.74-9.3.38-1.71,1.16-3.5,2.53-4.66,1.21-1.02,2.26-.88,3.53-.05.82.53,1.23,1.38,1.37,2.15.17.99.01,1.91-.28,2.98-.15.55-.33,1.08-.55,1.61.18-.44-.03.05-.11.21-.1.2-.19.39-.3.58-.38.7-.81,1.36-1.28,1.99.33-.45,0-.01-.15.16-.13.16-.27.31-.41.47-.31.34-.64.68-.98.99-.36.34-.74.66-1.13.97-.29.23.32-.23.01-.01-.09.06-.17.13-.26.19-.27.19-.53.38-.81.55-2.3,1.51-4.24,2.3-6.81,3.05-3.36.97-6.82,1.44-10.31,1.6-3.49.17-7.1.11-10.49-.41-3.13-.48-6.69-1.19-9.43-2.38-3.02-1.32-5.46-4.05-6.29-7.26-.79-3.01.42-6.45,3.47-7.66,2.83-1.13,5.25,1.39,5.67,4.25.55,3.7-1.99,7.23-4.62,9.53-5.85,5.11-14.33,5.26-20.6.9-1.43-.99-2.72-2.28-3.75-3.68-1.18-1.61-4.03-1.68-4.57.6-.67,2.85-2.75,5.26-5.64,5.98s-5.93-.57-7.59-2.87c-.79-1.09-2.18-1.62-3.42-.9-1.08.63-1.69,2.32-.9,3.42h0Z"/>
</svg>