<?xml version="1.0" encoding="UTF-8"?>
<svg id="Layer_1" data-name="Layer 1" xmlns="http://www.w3.org/2000/svg" xmlns:xlink="http://www.w3.org/1999/xlink" viewBox="0 0 566.93 566.93">
  <defs>
    <style>
      .cls-1 {
        fill: #263e7a;
      }

      .cls-2 {
        fill: #f05681;
      }

      .cls-2, .cls-3, .cls-4 {
        stroke: #253e79;
        stroke-miterlimit: 10;
        stroke-width: 6px;
      }

      .cls-5, .cls-4 {
        fill: #fff;
      }

      .cls-6 {
        fill: #d1eefc;
      }

      .cls-7 {
        fill: #253e79;
      }

      .cls-8 {
        fill: #3dc3f1;
      }

      .cls-3 {
        fill: none;
      }

      .cls-9 {
        fill: url(#linear-gradient);
      }

      .cls-10 {
        fill: #ead655;
      }
    </style>
    <linearGradient id="linear-gradient" x1="283.74" y1="281.64" x2="293.78" y2="224.69" gradientUnits="userSpaceOnUse">
      <stop offset="0" stop-color="#fff"/>
      <stop offset=".43" stop-color="#fcfdfe"/>
      <stop offset=".74" stop-color="#f2fafe"/>
      <stop offset="1" stop-color="#e4f5fd"/>
    </linearGradient>
  </defs>
  <ellipse class="cls-6" cx="301.19" cy="437.18" rx="107.44" ry="11.87"/>
  <g>
    <g>
      <path class="cls-5" d="M264.82,371.79l-1.17,17.27-2.21,32.56s-.04,7.4-9.39,8.51c-3.12.37-7.83,1.19-12.19,1.19-1.37,0-2.72-.08-3.96-.28-9.29-1.52-13.34-9.14,7.98-18.29l-1.32-30.25-.46-10.71h22.72Z"/>
      <polygon class="cls-6" points="264.82 371.79 263.8 386.88 242.46 380.06 242.1 371.79 264.82 371.79"/>
      <path class="cls-7" d="M234.6,364.61l.33,7.5,1.58,36.14c-4.15,2.07-7.38,4.18-9.81,6.39-5.13,4.67-5.78,9.14-5.42,12.08.41,3.36,2.36,6.36,5.49,8.44,2.18,1.45,4.87,2.45,7.99,2.96,1.56.26,3.24.38,5.12.38,3.83,0,7.66-.52,10.74-.94.84-.11,1.63-.22,2.29-.3,6.04-.72,10.85-3.61,13.54-8.14,1.82-3.08,2.14-5.97,2.18-7.15l3.37-49.69.52-7.67h-37.91ZM261.44,421.62s-.04,7.4-9.39,8.51c-3.12.37-7.83,1.19-12.19,1.19-1.37,0-2.72-.08-3.96-.28-9.29-1.52-13.34-9.14,7.98-18.29l-1.32-30.25-.46-10.71h22.72l-1.17,17.27-2.21,32.56Z"/>
    </g>
    <g>
      <path class="cls-5" d="M302.11,371.79l1.17,17.27,2.21,32.56s.04,7.4,9.39,8.51c3.12.37,7.83,1.19,12.19,1.19,1.37,0,2.72-.08,3.96-.28,9.29-1.52,13.34-9.14-7.98-18.29l1.32-30.25.46-10.71h-22.72Z"/>
      <polygon class="cls-6" points="302.11 371.79 303.14 386.88 324.47 380.06 324.83 371.79 302.11 371.79"/>
      <path class="cls-7" d="M332.34,364.61l-.33,7.5-1.58,36.14c4.15,2.07,7.38,4.18,9.81,6.39,5.13,4.67,5.78,9.14,5.42,12.08-.41,3.36-2.36,6.36-5.49,8.44-2.18,1.45-4.87,2.45-7.99,2.96-1.56.26-3.24.38-5.12.38-3.83,0-7.66-.52-10.74-.94-.84-.11-1.63-.22-2.29-.3-6.04-.72-10.85-3.61-13.54-8.14-1.82-3.08-2.14-5.97-2.18-7.15l-3.37-49.69-.52-7.67h37.91ZM305.49,421.62s.04,7.4,9.39,8.51c3.12.37,7.83,1.19,12.19,1.19,1.37,0,2.72-.08,3.96-.28,9.29-1.52,13.34-9.14-7.98-18.29l1.32-30.25.46-10.71h-22.72l1.17,17.27,2.21,32.56Z"/>
    </g>
  </g>
  <path class="cls-9" d="M189.62,359.36c-.46,0-.92-.03-1.37-.06-.19-.02-.37-.04-.56-.06-.23-.03-.46-.06-.69-.09-.26-.04-.53-.08-.79-.14-.02,0-.04,0-.06-.01-2.17-.46-4.2-1.34-5.95-2.56-.03-.02-.06-.04-.08-.06-.25-.18-.49-.36-.73-.55-.14-.11-.27-.23-.41-.35-.22-.19-.43-.37-.63-.57-.23-.22-.45-.45-.67-.68-.1-.11-.19-.23-.29-.34-.18-.21-.35-.42-.51-.64-.08-.11-.17-.23-.25-.34-.17-.24-.33-.49-.48-.74-.06-.09-.12-.19-.17-.28-.2-.35-.39-.72-.56-1.09-.73-1.62-1.1-3.32-1.1-5.08v-125.02c0-.24.02-.47.04-.7.01-.2.01-.41.03-.61.09-.87.28-1.72.55-2.55.14-.41.3-.82.48-1.22.17-.37.36-.73.56-1.09.06-.1.12-.19.18-.29.15-.25.31-.49.48-.73.08-.12.17-.24.26-.35.16-.21.33-.42.5-.62.1-.12.2-.24.3-.36.19-.22.4-.42.61-.63.22-.22.46-.43.7-.64.13-.11.26-.22.39-.33.24-.19.49-.38.74-.56.02-.02.05-.03.07-.05,1.74-1.22,3.77-2.1,5.95-2.56.02,0,.04-.01.07-.02.26-.05.52-.09.79-.14.23-.04.46-.07.69-.09.19-.02.37-.04.56-.06.45-.04.91-.06,1.37-.06h187.69c.46,0,.92.03,1.37.06.19.02.37.04.56.06.23.03.46.06.69.09.26.04.53.08.79.14.02,0,.04.01.07.02,2.17.46,4.2,1.34,5.95,2.56.02.02.05.03.07.05.25.18.5.37.74.56.13.11.26.22.39.33.24.21.47.42.7.64.21.21.42.41.61.63.1.12.2.24.3.36.17.2.34.41.5.62.09.12.17.23.26.35.17.24.33.48.48.73.06.1.12.19.18.29.2.35.39.72.56,1.09.18.4.34.8.47,1.21.28.83.46,1.69.55,2.56.01.12.01.25.02.37.02.31.05.63.05.94v125.02c0,1.76-.37,3.47-1.1,5.08-.17.37-.36.73-.56,1.09-.06.1-.12.19-.17.28-.15.25-.31.5-.48.74-.08.12-.16.23-.25.34-.16.22-.34.43-.51.64-.1.11-.19.23-.29.34-.21.23-.44.46-.67.68-.2.2-.41.39-.63.57-.13.12-.27.23-.41.35-.24.19-.48.38-.73.55-.03.02-.06.04-.08.06-1.74,1.22-3.77,2.1-5.95,2.56-.02,0-.04,0-.06.01-.26.05-.52.09-.79.14-.23.04-.46.07-.69.09-.19.02-.37.04-.56.06-.45.04-.91.06-1.37.06h-187.69Z"/>
  <path class="cls-7" d="M283.47,316.99c-15,0-29.23-7.12-38.07-19.05-1.6-2.16-1.15-5.2,1.01-6.8,2.16-1.6,5.2-1.15,6.8,1.01,7.01,9.46,18.33,15.11,30.26,15.11s23.25-5.65,30.26-15.12c1.6-2.16,4.64-2.61,6.8-1.01,2.16,1.6,2.61,4.64,1.01,6.8-8.84,11.93-23.07,19.05-38.07,19.05Z"/>
  <path class="cls-7" d="M377.31,191.73h-187.69c-16.87,0-30.6,12.99-30.6,28.95v125.03c0,15.96,13.73,28.95,30.6,28.95h187.69c16.87,0,30.59-12.99,30.59-28.95v-125.03c0-15.96-13.73-28.95-30.59-28.95ZM398.19,345.71c0,10.6-9.36,19.23-20.87,19.23h-187.69c-11.51,0-20.87-8.62-20.87-19.23v-125.03c0-10.6,9.36-19.23,20.87-19.23h187.69c11.51,0,20.87,8.62,20.87,19.23v125.03Z"/>
  <ellipse class="cls-6" cx="284.46" cy="437.22" rx="107.44" ry="11.87"/>
  <g>
    <g>
      <path class="cls-5" d="M264.82,371.79l-.19,2.87-.07,1-.02.28v.06l-.03.43-.04.47h0s-.37,5.51-.37,5.51l-.3,4.48-.03.37-.12,1.8-2.21,32.56s-.04,7.4-9.39,8.51c-3.12.37-7.82,1.19-12.18,1.19-1.38,0-2.72-.08-3.97-.28-9.28-1.52-13.33-9.15,7.99-18.29l-.97-22.32-.18-4-.17-3.93v-.07l-.11-2.37-.23-5.4-.13-2.87h22.72Z"/>
      <polygon class="cls-6" points="264.82 371.8 263.8 386.89 242.46 380.06 242.1 371.8 264.82 371.8"/>
      <path class="cls-7" d="M234.73,367.77l.19,4.34.11,2.55.35,8,.29,6.52v.14l.2,4.51.63,14.42c-4.15,2.07-7.38,4.18-9.81,6.39-5.13,4.67-5.78,9.15-5.42,12.08.41,3.37,2.36,6.37,5.49,8.45,2.18,1.45,4.87,2.45,7.99,2.95,1.56.26,3.24.38,5.12.38,3.83,0,7.66-.51,10.73-.93.84-.12,1.63-.23,2.3-.3,6.04-.72,10.85-3.61,13.54-8.15,1.82-3.08,2.13-5.96,2.18-7.14l2.77-40.81.44-6.51.16-2.38.03-.41.28-4.1h-37.57ZM264.63,374.66l-.07,1-.02.28v.06l-.03.43-.04.47h0s-.37,5.51-.37,5.51l-.3,4.48-.03.37-.12,1.8-2.21,32.56s-.04,7.4-9.39,8.51c-3.12.37-7.82,1.19-12.18,1.19-1.38,0-2.72-.08-3.97-.28-9.28-1.52-13.33-9.15,7.99-18.29l-.97-22.32-.14-3.22s.01,0,.02,0l-.33-7.15-.23-5.4-.13-2.87h22.72l-.19,2.87Z"/>
    </g>
    <g>
      <path class="cls-5" d="M302.11,371.8l1.17,17.27,2.21,32.56s.04,7.4,9.39,8.51c3.12.37,7.83,1.19,12.19,1.19,1.37,0,2.72-.08,3.96-.28,9.29-1.52,13.34-9.14-7.98-18.29l1.32-30.25.46-10.71h-22.72Z"/>
      <polygon class="cls-6" points="302.11 371.8 303.14 386.89 324.47 380.06 324.83 371.8 302.11 371.8"/>
      <path class="cls-7" d="M340.25,414.64c-2.43-2.21-5.67-4.32-9.81-6.39l1.46-33.59.11-2.55.19-4.34h-37.57l.31,4.51.16,2.38,3.22,47.32c.04,1.18.36,4.06,2.18,7.14,2.69,4.54,7.5,7.43,13.54,8.15.66.07,1.46.18,2.29.3,3.08.42,6.91.93,10.74.93,1.88,0,3.56-.12,5.12-.38,3.12-.5,5.81-1.5,7.99-2.95,3.13-2.08,5.08-5.08,5.49-8.45.36-2.93-.29-7.41-5.42-12.08ZM331.03,431.04c-1.24.2-2.59.28-3.96.28-4.36,0-9.06-.82-12.19-1.19-9.35-1.11-9.38-8.51-9.38-8.51l-2.21-32.56-.15-2.17-.83-12.23-.19-2.87h22.72l-.13,2.87-.23,5.4-.11,2.44-1.32,30.25c21.32,9.14,17.27,16.77,7.98,18.29Z"/>
    </g>
  </g>
  <g>
    <g>
      <path class="cls-7" d="M340.31,261c-1.03-7.17-8.52-12.05-16.69-10.88-8.18,1.17-13.99,7.96-12.97,15.13,0,.05.03.09.04.14,0,.05,0,.09,0,.14,1.03,7.17,8.52,12.05,16.69,10.88,8.18-1.17,13.99-7.96,12.96-15.13,0-.05-.03-.09-.04-.14,0-.05,0-.09,0-.14Z"/>
      <path class="cls-1" d="M337.73,237c-6.5-3.56-14.42-3.56-20.92,0-2.54,1.35-5.86,1.56-7.8-.33h0c-1.94-1.86-.81-6.11,3.11-8.25,9.41-5.16,20.89-5.15,30.3,0,3.92,2.15,5.06,6.39,3.11,8.25h0c-1.94,1.88-5.27,1.67-7.8.33Z"/>
      <circle class="cls-6" cx="329.5" cy="268.69" r="4.81"/>
    </g>
    <g>
      <path class="cls-7" d="M219.83,261c1.03-7.17,8.52-12.05,16.69-10.88,8.18,1.17,13.99,7.96,12.97,15.13,0,.05-.03.09-.04.14,0,.05,0,.09,0,.14-1.03,7.17-8.52,12.05-16.69,10.88-8.18-1.17-13.99-7.96-12.96-15.13,0-.05.03-.09.04-.14,0-.05,0-.09,0-.14Z"/>
      <path class="cls-1" d="M222.41,237c6.5-3.56,14.42-3.56,20.92,0,2.54,1.35,5.86,1.56,7.8-.33h0c1.94-1.86.81-6.11-3.11-8.25-9.41-5.16-20.89-5.15-30.3,0-3.92,2.15-5.06,6.39-3.11,8.25h0c1.94,1.88,5.27,1.67,7.8.33Z"/>
      <circle class="cls-6" cx="238.64" cy="268.69" r="4.81"/>
    </g>
  </g>
  <g>
    <g>
      <g>
        <path class="cls-10" d="M154.27,390.51c-2.62,0-4.7-.89-5.99-2.57-1.45-1.87-1.74-4.5-.88-7.8l.2-.77,45.88-38.47c.62-.51,1.38-.78,2.15-.78.88,0,1.71.34,2.34.95l4.88,4.77c.68.66,1.04,1.58,1.01,2.52s-.46,1.83-1.18,2.44l-45.85,39.39-.64.13c-.14.03-.9.17-1.93.17Z"/>
        <path class="cls-7" d="M195.64,342.63c.22,0,.43.08.6.24l4.88,4.77c.36.35.34.95-.04,1.27l-45.36,38.97s-.61.12-1.44.12c-2.24,0-6.12-.87-4.45-7.23l45.27-37.95c.16-.13.35-.19.54-.19M195.64,337.63c-1.35,0-2.67.47-3.72,1.33l-45.31,37.99-1.22,1.02-.4,1.54c-1.07,4.09-.63,7.44,1.32,9.96,1.76,2.28,4.59,3.54,7.97,3.54,1.23,0,2.17-.17,2.42-.22l1.28-.26.99-.85,45.36-38.97c1.23-1.05,1.99-2.6,2.04-4.25.06-1.65-.59-3.25-1.76-4.4l-4.88-4.77c-1.1-1.08-2.56-1.67-4.09-1.67h0Z"/>
      </g>
      <g>
        <path class="cls-8" d="M222.41,352.65c-2.18,0-3.7-1.4-3.98-1.69l-7.54-7.68c-.94.51-1.71.77-2.18.89-3.76,1.89-4.6,3.84-4.69,4.06-.47,1.21-1.61,1.99-2.9,1.99-.81,0-1.57-.31-2.15-.88l-4.76-4.63c-.64-.63-.99-1.5-.96-2.4.03-.9.44-1.74,1.13-2.32,3.43-2.88,6.6-4.2,9.05-4.78l-3.66-4.95-.07-.11c-1.27-2.16-1.87-4.27-1.79-6.28.18-4.01,5.12-5.72,5.68-5.9l32.08-10.82c.17-.05,1.51-.48,3.04-.48s2.77.4,3.74,1.2c2.63,2.14,1.66,6.24,1.44,7.04l-.06.2-.09.19c-.57,1.23-14.03,30.1-16.33,34.04-1.61,2.74-3.61,3.31-5,3.31Z"/>
        <path class="cls-7" d="M238.71,309.17c.76,0,1.56.15,2.15.63,1.5,1.22.61,4.44.61,4.44,0,0-13.95,29.95-16.22,33.83-.94,1.6-1.97,2.08-2.85,2.08-1.25,0-2.21-.96-2.21-.96l-6.67-6.79s5.39-7.33,6.61-8.88c.81-1.03.72-4.87-.55-4.87-.65,0-1.6,1-2.89,3.87-3.83,8.5-8.83,9.28-8.83,9.28-4,1.94-5.67,4.21-6.18,5.53-.1.25-.33.39-.57.39-.15,0-.29-.05-.41-.17l-4.76-4.63c-.29-.28-.27-.75.03-1.01,4.78-4.02,8.85-4.61,10.84-4.61.85,0,1.32.11,1.32.11l-6.29-8.52c-.88-1.49-1.52-3.17-1.44-4.9.11-2.39,3.95-3.63,3.95-3.63l32.11-10.83s1.06-.35,2.24-.35M238.71,304.17h0c-1.88,0-3.49.5-3.8.6l-32.12,10.83c-3.45,1.12-7.19,3.85-7.38,8.16-.11,2.5.61,5.08,2.13,7.66l.13.22.15.21,1.54,2.08c-2.03.87-4.27,2.18-6.61,4.14-1.22,1.03-1.96,2.53-2.02,4.14-.06,1.6.56,3.16,1.71,4.28l4.76,4.64c1.05,1.02,2.43,1.58,3.9,1.58,2.33,0,4.38-1.41,5.23-3.58.16-.33,1.06-1.47,3.27-2.62.21-.06.45-.14.72-.24l6.3,6.41.02.02.02.02c.57.57,2.66,2.41,5.74,2.41,1.68,0,4.84-.59,7.16-4.55,2.32-3.97,15-31.16,16.44-34.25l.18-.38.11-.4c.85-3.08.7-7.23-2.27-9.65-.96-.79-2.68-1.75-5.31-1.75h0Z"/>
      </g>
    </g>
    <g>
      <path class="cls-7" d="M201.25,359.11l-1.33-5.13c-.48.21-1.02.35-1.62.4-.13,1.4-1.1,2.18-2.07,3.18-1.12,1.15-2.35,2.4-3.93,2.43-.23.1-.47.2-.72.27-.44.06-.89.12-1.33.17-.9,0,2.78-3.34,2-3.79-2.51-1.31-6.63-5.97-5.83-7.7.34-.74-.18-.45.47-.92.8-.58,1.67-2.03,2.67-1.95.08-.07.27-.43.36-.5-.37-.71-.47.15-.48-.66.06-.45.12-.89.18-1.33.16-.65.45-1.22.9-1.7.08-.14.2-.24.3-.37-.35-.47-.73-.93-1.17-1.34-2.74-2.53-7.61-5.55-15.28-5.61h-.25c-3.03,0-5.51.38-7.4.86l.02-2.21.28-24.69.16-14.45-12.34,7.54c-2.36,1.44-23.19,14.65-26.55,32.81-1.42,7.68.51,15.21,5.58,21.79l.6.78.77.61,13.02,10.29c2.61,6.71,9.16,16.16,21.33,19.22l.14.04.14.03c.43.09,1.34.25,2.52.25,1.96,0,3.85-.42,5.54-1.22,6.38-.06,10.41-2.43,12.68-5.54,2.74-.78,5.92-2.34,8.31-5.43,2.23-2.88,4.44-8.02,2.32-16.12ZM185.26,373.43c-.17,0-.27-.01-.27-.01-.15,4.16-4.65,4.78-7.3,4.78-1.12,0-1.92-.11-1.92-.11-1.12,1.12-2.5,1.33-3.37,1.33-.51,0-.85-.08-.85-.08-13.11-3.3-16.44-16.25-16.44-16.25l-14.89-11.78c-16.45-21.33,18.81-42.89,18.81-42.89l-.28,24.69c-.7-.05-1.33-.07-1.9-.07-12.06,0,4.47,9.68,9.39,10.98,0,0,2.71-1.47,7.89-1.47h.2c5.18.04,8.28,1.99,9.9,3.48.61.57.43,1.62-.35,1.91-1.2.44-4.1,1.01-3.92,4.13.16,2.74,3.71,5.56,6.01,7.68,1.76,1.62,3.45,2.07,4.79,2.07,1.65,0,2.75-.69,2.75-.69,3.07,11.78-6.53,12.3-8.25,12.3Z"/>
      <path class="cls-5" d="M185.26,373.43c-.17,0-.27-.01-.27-.01-.15,4.16-4.65,4.78-7.3,4.78-1.12,0-1.92-.11-1.92-.11-1.12,1.12-2.5,1.33-3.37,1.33-.51,0-.85-.08-.85-.08-13.11-3.3-16.44-16.25-16.44-16.25l-14.89-11.78c-16.45-21.33,18.81-42.89,18.81-42.89l-.28,24.69c-.7-.05-1.33-.07-1.9-.07-12.06,0,4.47,9.68,9.39,10.98,0,0,2.71-1.47,7.89-1.47h.2c5.18.04,8.28,1.99,9.9,3.48.61.57.43,1.62-.35,1.91-1.2.44-4.1,1.01-3.92,4.13.16,2.74,3.71,5.56,6.01,7.68,1.76,1.62,3.45,2.07,4.79,2.07,1.65,0,2.75-.69,2.75-.69,3.07,11.78-6.53,12.3-8.25,12.3Z"/>
    </g>
  </g>
  <g>
    <path class="cls-2" d="M339.44,338.13l-7.48,16.83c-.68,1.52-.44,3.3.61,4.59l15.94,19.66c.74.92,1.82,1.5,3,1.62l68.73,6.91c1.82.18,3.56-.77,4.39-2.39l7.63-14.91c.92-1.8.51-3.99-1-5.33l-18.15-16.16c-.6-.54-1.35-.9-2.14-1.05l-66.68-12.32c-2.02-.37-4.02.69-4.86,2.56Z"/>
    <path class="cls-3" d="M340.35,334.24l18.22,21.55c1.12,1.33,1.37,3.19.62,4.76l-9.52,20.09"/>
    <line class="cls-4" x1="360.41" y1="357.97" x2="433.82" y2="367.77"/>
  </g>
  <g>
    <g>
      <path class="cls-2" d="M387.49,427.11l-.86,16.87c-.08,1.53.71,2.96,2.05,3.72l20.26,11.44c.95.53,2.07.67,3.12.38l61.53-17.12c1.63-.45,2.81-1.85,2.99-3.51l1.63-15.29c.2-1.84-.88-3.57-2.63-4.22l-21-7.72c-.7-.26-1.46-.32-2.19-.18l-61.56,11.81c-1.86.36-3.24,1.93-3.34,3.81Z"/>
      <path class="cls-3" d="M386.98,423.48l22.86,12.3c1.41.76,2.23,2.27,2.11,3.86l-1.54,20.34"/>
      <line class="cls-4" x1="412.15" y1="437.03" x2="478.67" y2="420.81"/>
    </g>
    <g>
      <path class="cls-2" d="M312.23,443.78l-.94,18.42c-.09,1.67.78,3.23,2.23,4.06l22.12,12.49c1.03.58,2.26.73,3.41.41l67.18-18.69c1.77-.49,3.07-2.02,3.26-3.83l1.78-16.69c.21-2.01-.97-3.9-2.87-4.6l-22.93-8.43c-.76-.28-1.59-.35-2.39-.19l-67.21,12.89c-2.03.39-3.54,2.11-3.64,4.16Z"/>
      <path class="cls-3" d="M311.68,439.83l24.95,13.43c1.54.83,2.44,2.47,2.31,4.21l-1.68,22.2"/>
      <line class="cls-4" x1="339.16" y1="454.61" x2="411.78" y2="436.91"/>
    </g>
    <g>
      <path class="cls-2" d="M314.84,418.54l-1.36,18.33c-.12,1.66.7,3.24,2.13,4.09l21.74,12.96c1.01.6,2.23.78,3.39.49l67.35-17.06c1.78-.45,3.1-1.94,3.34-3.74l2.16-16.58c.26-2-.87-3.91-2.75-4.65l-22.64-8.92c-.75-.3-1.58-.38-2.38-.25l-67.24,11.28c-2.03.34-3.57,2.02-3.72,4.06Z"/>
      <path class="cls-3" d="M314.38,414.59l24.55,13.95c1.51.86,2.37,2.52,2.2,4.25l-2.19,22.08"/>
      <line class="cls-4" x1="341.41" y1="429.95" x2="414.16" y2="414"/>
    </g>
  </g>
  <g>
    <path class="cls-5" d="M399.28,367.12c-8.78,0-21.23-.85-27.92-8.22-3.33-3.67-4.74-8.36-4.19-13.96,1.42-14.52,14.46-22.55,36.74-22.63v-23.66l5.91,3.21c.89.49,21.8,12.04,23.02,30.33.28,1.52.84,6.39-2.43,10.8-2.98,4.04-8.1,6.29-15.2,6.71l-1.38.08c-.55,2.71-1.42,5.32-2.59,7.73-3.85,7.95-8.63,9.62-11.96,9.62Z"/>
    <path class="cls-7" d="M407.91,305.36s20.06,10.89,20.95,27.33c0,0,2.92,12.01-13.89,13,0,0-.26-6.5-2.74-6.5h-.02c-1.34.01-1.67,2.14-1.7,4.11-.06,4.31-1,8.58-2.88,12.45-1.84,3.81-4.58,7.36-8.36,7.36-8.15,0-29.83-.4-28.13-17.8,1.59-16.35,20.75-19.02,33.12-19.02,4.51,0,8.11.36,9.64.53.15.02.29.03.44.03.57,0,1.14-.14,1.64-.43.74-.44,1.3-1.2.1-2.38-1.84-1.8-8.16-1.83-8.16-1.83v-16.85M399.91,291.91v26.49c-21.9,1.08-35.2,10.47-36.73,26.14-.82,8.43,2.38,13.92,5.21,17.04,7.75,8.55,21.34,9.54,30.88,9.54,4.48,0,10.81-2.06,15.56-11.87.88-1.81,1.6-3.72,2.17-5.69,7.54-.74,13.13-3.49,16.61-8.21,3.98-5.38,3.56-11.3,3.19-13.62-1.48-20.36-24.12-32.88-25.09-33.41l-11.82-6.41h0ZM418.55,342.71h0Z"/>
  </g>
  <g>
    <g>
      <path class="cls-10" d="M325.23,194.73c-.32,0-.63-.05-.94-.15-5.85-1.93-22-3.18-41.15-3.18s-35.21,1.25-41.08,3.18c-.31.1-.62.15-.94.15-.62,0-1.24-.19-1.75-.57-.78-.56-1.24-1.46-1.25-2.42,0-1.42.14-34.92,25.92-43.51.31-.1.63-.15.95-.15.5,0,.99.12,1.44.37l-.02-.53c0-.22,0-.45.05-.67.08-.44.93-4.31,6.41-6.41,4.5-1.73,10.04-1.82,10.28-1.83.32,0,5.86.1,10.36,1.83,5.47,2.1,6.33,5.97,6.41,6.41.04.22.06.45.05.67l-.02.53c.44-.24.94-.37,1.44-.37.32,0,.64.05.95.15,25.78,8.59,25.92,42.09,25.92,43.51,0,.96-.47,1.86-1.25,2.42-.52.37-1.13.56-1.75.56Z"/>
      <path class="cls-7" d="M283.17,142.01s5.19.07,9.25,1.63c4.06,1.56,4.53,4.15,4.53,4.15l-1,23c0,1.49,1.21,2.71,2.71,2.71s2.71-1.21,2.71-2.71v-19.7c24.02,8,23.87,40.65,23.87,40.65-6.71-2.21-24.4-3.33-42.09-3.33s-35.26,1.11-42.02,3.33c0,0-.15-32.65,23.87-40.65v19.7c0,1.49,1.21,2.71,2.71,2.71s2.71-1.21,2.71-2.71l-1-23s.47-2.59,4.53-4.15,9.25-1.63,9.25-1.63M283.17,136.01s-.06,0-.09,0c-.64,0-6.39.14-11.31,2.03-5.03,1.93-7.04,5.16-7.83,7.14-.29.05-.58.12-.86.22-27.82,9.27-27.98,44.86-27.97,46.37,0,1.92.94,3.72,2.49,4.84,1.03.75,2.26,1.13,3.51,1.13.63,0,1.26-.1,1.87-.3,5.5-1.81,21.64-3.03,40.14-3.03s34.73,1.22,40.21,3.03c.61.2,1.25.3,1.88.3,1.24,0,2.47-.39,3.5-1.13,1.56-1.12,2.49-2.92,2.5-4.84,0-1.51-.15-37.1-27.97-46.37-.28-.09-.57-.17-.86-.22-.79-1.98-2.8-5.21-7.83-7.14-4.91-1.88-10.67-2.02-11.31-2.03-.03,0-.06,0-.09,0h0Z"/>
    </g>
    <g>
      <path class="cls-10" d="M283.05,210.89c-29.92,0-41.42-6.16-45.61-9.84-1.24-1.08-1.75-2.75-1.35-4.34.41-1.59,1.65-2.8,3.26-3.16,16.06-3.59,38.62-3.78,42.98-3.78h1.44c4.36,0,26.92.18,42.98,3.78,1.6.36,2.85,1.57,3.26,3.16.41,1.59-.11,3.26-1.35,4.34-4.19,3.67-15.69,9.84-45.61,9.84Z"/>
      <path class="cls-7" d="M283.78,192.77c4.27,0,26.56.18,42.32,3.7,1.07.24,1.41,1.59.59,2.32-3.53,3.09-14.17,9.09-43.63,9.09s-40.1-6-43.63-9.09c-.83-.73-.49-2.08.59-2.32,15.76-3.53,38.05-3.7,42.32-3.7.47,0,.72,0,.72,0,0,0,.25,0,.72,0M283.78,186.77c-.38,0-.62,0-.72,0-.1,0-.35,0-.72,0-4.41,0-27.27.19-43.63,3.85-2.71.61-4.82,2.66-5.51,5.35-.69,2.69.19,5.5,2.28,7.34,5.51,4.83,18.24,10.58,47.58,10.58s42.07-5.75,47.58-10.58c2.09-1.83,2.97-4.65,2.28-7.34-.69-2.69-2.8-4.74-5.51-5.35-16.37-3.66-39.22-3.85-43.63-3.85h0Z"/>
    </g>
  </g>
</svg>