<?xml version="1.0" encoding="UTF-8"?>
<svg id="Layer_1" data-name="Layer 1" xmlns="http://www.w3.org/2000/svg" xmlns:xlink="http://www.w3.org/1999/xlink" viewBox="0 0 566.93 566.93">
  <defs>
    <style>
      .cls-1 {
        fill: #fff;
      }

      .cls-2 {
        fill: #d1eefc;
      }

      .cls-3 {
        fill: #253e79;
      }

      .cls-4 {
        fill: #f05681;
      }

      .cls-5 {
        fill: #3dc3f1;
      }

      .cls-6 {
        fill: url(#linear-gradient);
      }
    </style>
    <linearGradient id="linear-gradient" x1="1009.29" y1="736.82" x2="1019.33" y2="679.87" gradientTransform="translate(-828.25 -233.78) rotate(-9.66)" gradientUnits="userSpaceOnUse">
      <stop offset="0" stop-color="#fff"/>
      <stop offset=".43" stop-color="#fcfdfe"/>
      <stop offset=".74" stop-color="#f2fafe"/>
      <stop offset="1" stop-color="#e4f5fd"/>
    </linearGradient>
  </defs>
  <ellipse class="cls-2" cx="283.46" cy="477.63" rx="107.44" ry="11.87"/>
  <g>
    <g>
      <path class="cls-1" d="M285.31,415.04l-.3,2.86-.11,1-.03.28v.06s-.05.43-.05.43l-.06.47h0s-.58,5.49-.58,5.49l-.47,4.47-.04.37-.19,1.79-3.47,32.45s-.33,7.39-9.71,8.14c-3.13.25-7.86.89-12.22.72-1.38-.05-2.71-.19-3.96-.43-9.21-1.88-12.97-9.66,8.69-17.97l-.11-22.34-.03-4-.02-3.93v-.07s-.02-2.37-.02-2.37l.16-3.98,22.5-3.42Z"/>
      <polygon class="cls-2" points="285.31 415.04 284.09 426.41 262.68 426.94 262.81 418.46 285.31 415.04"/>
      <path class="cls-3" d="M255.6,414.15l-.13,10.61.04,6.53v.14s.02,4.51.02,4.51l.07,14.43c-4.23,1.91-7.54,3.89-10.05,6.01-5.31,4.47-6.13,8.92-5.88,11.86.28,3.38,2.11,6.46,5.16,8.66,2.12,1.53,4.77,2.64,7.87,3.26,1.55.32,3.22.5,5.1.58,3.83.15,7.67-.21,10.76-.51.84-.09,1.64-.17,2.31-.21,6.06-.49,10.98-3.19,13.84-7.62,1.94-3.01,2.36-5.87,2.45-7.05l4.34-40.67.69-6.49.25-2.37.05-.41.44-4.09-37.33,2.85ZM285,417.9l-.11,1-.03.28v.06s-.05.43-.05.43l-.06.47h0s-.58,5.49-.58,5.49l-.47,4.47-.04.37-.19,1.79-3.47,32.45s-.33,7.39-9.71,8.14c-3.13.25-7.86.89-12.22.72-1.38-.05-2.71-.19-3.96-.43-9.21-1.88-12.97-9.66,8.69-17.97l-.11-22.34-.02-3.22s.01,0,.02,0l-.06-7.16.16-3.98,22.5-3.42-.3,2.86Z"/>
    </g>
    <g>
      <path class="cls-1" d="M324.13,408.94l8.7,14.96,16.41,28.2s3.32,6.62,12.19,3.47c2.96-1.05,7.54-2.4,11.45-4.33,1.23-.61,2.4-1.28,3.43-2.01,7.65-5.48,7.9-14.11-15.26-12.86l-12.22-27.7-1.47-3.33-23.23,3.6Z"/>
      <polygon class="cls-2" points="324.13 408.94 330.2 419.37 349.49 410.18 346.42 403.23 324.13 408.94"/>
      <path class="cls-3" d="M377.31,430.45c-3.16-.9-7-1.36-11.63-1.38l-14-31.72-36.04,11.3,2.28,3.91,1.2,2.06,23.86,40.99c.56,1.04,2.12,3.48,5.12,5.43,4.42,2.88,10.02,3.34,15.75,1.3.62-.23,1.39-.49,2.19-.75,2.95-.99,6.61-2.23,10.04-3.93,1.69-.83,3.14-1.69,4.42-2.61,2.58-1.83,4.54-3.92,5.85-6.19,1.88-3.25,2.3-6.81,1.18-10.01-.98-2.79-3.54-6.51-10.21-8.43ZM376.31,449.23c-1.02.73-2.2,1.4-3.43,2.01-3.91,1.93-8.48,3.28-11.45,4.34-8.87,3.15-12.18-3.47-12.18-3.47l-16.41-28.21-1.1-1.88-6.16-10.6-1.44-2.49,20.37-10.07,1.16,2.63,2.19,4.94.98,2.24,12.22,27.7c23.16-1.26,22.91,7.38,15.26,12.86Z"/>
    </g>
  </g>
  <g>
    <path class="cls-1" d="M111.11,428.32c-2.51,0-4.77-.78-6.54-2.26-5.86-4.9-6.56-11.7-1.9-18.2,1.56-2.17,9.77-12.89,23.49-18.39,2.94-7.78,15.61-37.71,39.6-47.07l4.53-1.77,6.32,35.09-2.99,1.23c-.18.08-18.48,7.82-25.83,24.09.51,4.67.16,7.34-.13,9.51-.23,1.73-.4,3-.15,5.15.49,1.58,1.3,5.17-.48,7.83-1.05,1.56-2.71,2.46-4.69,2.55-.12,0-.23,0-.35,0-2.13,0-7.12-.96-8.92-9.58-.83.12-1.96.56-2.78,1.28-3.18,2.78-9.96,7.6-10.24,7.8l-.12.09-.13.08c-.43.26-4.36,2.55-8.68,2.55Z"/>
    <path class="cls-3" d="M167.23,346.13l4.88,27.12s-20.6,8.47-28.42,27.19c1.17,8.95-.93,9.81-.1,16.15,0,0,1.91,5.35-1.43,5.5-.06,0-.12,0-.17,0-3.22,0-4.62-3.98-5.18-7.33-.26-1.6-1.61-2.28-3.29-2.28-1.91,0-4.24.88-5.86,2.31-3.06,2.68-9.92,7.55-9.92,7.55,0,0-3.28,1.98-6.61,1.98-1.39,0-2.8-.35-3.97-1.33-4.48-3.75-4.4-8.36-1.21-12.8,3.19-4.44,11.4-13.39,23.37-17.63,0,0,12.28-36.42,37.92-46.43M173.38,335.14l-9.06,3.53c-24.02,9.37-37.22,37.69-41.26,47.77-10.65,4.72-19.06,12.73-23.62,19.08-5.85,8.14-4.83,17.41,2.58,23.6,2.5,2.09,5.64,3.19,9.1,3.19,5.29,0,9.87-2.6,10.74-3.12l.26-.16.25-.17c.6-.43,5.09-3.62,8.5-6.34,3.33,6.92,9.11,7.57,11.13,7.57.17,0,.35,0,.53-.01,3.23-.14,6.09-1.71,7.84-4.31,2.56-3.81,1.83-8.35,1.1-10.87-.14-1.45-.02-2.35.18-3.83.29-2.21.65-4.89.26-9.34,6.95-14.13,23.12-21.04,23.29-21.11l5.98-2.46-1.17-6.35-4.88-27.12-1.72-9.57h0Z"/>
  </g>
  <g>
    <path class="cls-1" d="M408.55,303.06l3.12-1.15c.21-.08,21.56-8.11,31.01-23.9-.02-4.71.62-7.33,1.15-9.47.42-1.69.72-2.94.7-5.09-.33-1.58-.76-5.11,1.17-7.59,1.13-1.45,2.81-2.25,4.73-2.25.11,0,.22,0,.34,0,2.26.11,7.46,1.36,8.42,10.4,1.06-.03,2.33-.45,3.22-1.07,3.55-2.47,11.01-6.64,11.33-6.82l.13-.07.13-.06c.39-.18,3.91-1.77,7.81-1.77,3.07,0,5.71,1,7.62,2.89,5.44,5.38,5.45,12.43.03,18.4-1.83,2.01-11.38,11.92-26.03,16.11-3.73,7.45-19.45,35.99-45.03,43.08l-4.27,1.18-5.59-32.84Z"/>
    <path class="cls-3" d="M450.43,257.61s.1,0,.15,0c3.45.16,4.5,4.34,4.71,7.8.11,1.81,1.75,2.61,3.78,2.61,1.84,0,3.99-.65,5.62-1.79,3.43-2.39,10.99-6.6,10.99-6.6,0,0,3-1.39,6.13-1.39,1.72,0,3.48.42,4.81,1.73,4.2,4.15,3.63,8.74-.12,12.87s-13.12,12.28-25.87,15.41c0,0-15.9,35.02-43.29,42.62l-4.29-25.19s23.63-8.68,33.65-26.62c-.24-9.03,2-9.69,1.83-16.09,0,0-1.35-5.35,1.91-5.35M450.43,249.61h0c-3.14,0-6.01,1.38-7.89,3.79-2.74,3.52-2.47,7.94-2.01,10.45-.01,1.43-.23,2.3-.58,3.73-.51,2.06-1.18,4.78-1.26,9.28-8.96,13.95-28.21,21.23-28.41,21.31l-6.21,2.31,1.1,6.54,4.29,25.19,1.49,8.73,8.54-2.37c25.55-7.08,41.68-33.96,46.74-43.6,11.4-3.68,20.86-10.86,26.21-16.75,6.9-7.61,6.83-17-.18-23.94-2.67-2.64-6.28-4.04-10.43-4.04-4.66,0-8.73,1.78-9.5,2.14l-.27.12-.26.14c-.69.38-5.96,3.33-9.78,5.77-2.21-6.09-6.81-8.59-11.05-8.8-.18,0-.36-.01-.53-.01h0Z"/>
  </g>
  <g>
    <g>
      <path class="cls-6" d="M210.63,415.6c-.45.08-.91.13-1.36.17-.19.02-.37.03-.56.04-.23.01-.47.02-.7.02-.27,0-.53,0-.8,0-.02,0-.04,0-.06,0-2.22-.09-4.37-.62-6.29-1.52-.03-.01-.06-.03-.09-.04-.28-.13-.55-.27-.81-.42-.16-.09-.31-.18-.46-.27-.24-.15-.48-.3-.72-.46-.26-.18-.52-.37-.77-.56-.12-.09-.23-.19-.34-.28-.21-.18-.42-.36-.61-.55-.1-.1-.2-.2-.3-.3-.21-.21-.41-.43-.6-.65-.07-.08-.15-.17-.22-.25-.26-.32-.51-.64-.73-.98-.99-1.47-1.64-3.09-1.93-4.83l-1.43-8.42-14.34-84.21-5.21-30.63c-.04-.23-.06-.47-.08-.7-.02-.2-.06-.4-.07-.6-.05-.87-.02-1.74.12-2.6.07-.43.15-.86.27-1.29.1-.39.23-.78.37-1.16.04-.11.08-.21.13-.32.11-.27.22-.54.35-.8.06-.13.13-.26.19-.39.12-.24.25-.47.39-.7.08-.13.15-.27.24-.4.16-.25.33-.48.5-.72.18-.25.38-.5.58-.74.11-.13.22-.26.33-.39.2-.23.41-.46.63-.67.02-.02.04-.04.06-.06,1.52-1.49,3.37-2.7,5.43-3.52.02,0,.04-.02.06-.03.25-.1.5-.18.75-.27.22-.07.44-.14.67-.21.18-.05.36-.1.54-.15.44-.11.89-.21,1.34-.29l185.03-31.5c.45-.08.91-.13,1.36-.17.19-.02.37-.03.56-.04.23-.01.47-.02.7-.02.27,0,.53,0,.8,0,.02,0,.04,0,.07,0,2.22.09,4.37.62,6.29,1.52.03.01.05.02.08.04.28.13.55.28.82.43.15.08.29.17.44.26.27.16.54.33.79.51.24.17.48.34.71.52.12.1.24.2.36.3.2.17.41.35.6.53.11.1.21.2.31.31.21.21.4.42.59.64.07.09.15.17.22.26.26.32.51.64.73.98.24.36.47.74.67,1.12.41.78.74,1.59.98,2.43.03.12.05.24.08.36.08.3.15.61.21.92l5.21,30.63,14.34,84.21,1.43,8.42c.29,1.73.22,3.48-.23,5.19-.1.39-.23.78-.37,1.17-.04.1-.08.21-.12.31-.11.27-.22.54-.35.81-.06.13-.12.25-.19.38-.12.24-.26.48-.4.72-.08.13-.15.26-.23.38-.17.27-.35.53-.54.79-.17.23-.34.45-.53.67-.11.14-.23.28-.34.41-.2.23-.41.45-.63.67-.02.02-.05.05-.07.07-1.52,1.49-3.37,2.7-5.43,3.52-.02,0-.04.02-.05.02-.25.1-.5.18-.75.27-.22.07-.44.14-.67.21-.18.05-.36.1-.54.15-.44.11-.88.21-1.34.29h0s-185.03,31.5-185.03,31.5h0Z"/>
      <g>
        <path class="cls-3" d="M233.98,417.29s-.06.08-.09.13c-1.4,1.91-3.2,3.03-5.51,3.42-1.33.23-2.38.13-2.66.1l-1.51-.35-1.29.33-23.21,3.95,3.29,5.91c1.56.24,3.17.36,4.79.36,1.79,0,3.6-.15,5.42-.46l140.26-23.88-.32-2.53-.89-7.12-118.28,20.14Z"/>
        <path class="cls-3" d="M402.55,242.26l20.98,123.26c.04.22.07.45.09.66,1.01,6.84-.63,13.53-4.18,19.1-.86,1.34-1.81,2.63-2.89,3.83h0c-4.54,5.12-10.9,8.82-18.31,10.08l-44.78,7.62-.32-2.53-.89-7.12,44.35-7.55c11.35-1.93,19.13-12.01,17.35-22.46l-20.98-123.26c-1.78-10.45-12.45-17.38-23.8-15.44l-185.04,31.5c-11.35,1.93-19.13,12-17.35,22.45l20.98,123.26c1.78,10.45,12.45,17.39,23.8,15.45l22.41-3.81s-.06.08-.09.13c-1.4,1.91-3.2,3.03-5.51,3.42-1.33.23-2.38.13-2.66.1l-1.51-.35-1.29.33-23.21,3.95,3.29,5.91c-12.42-1.89-22.69-11.06-24.81-23.5l-20.98-123.26c-2.68-15.73,8.67-30.84,25.3-33.67l185.04-31.5c16.63-2.83,32.34,7.67,35.01,23.41Z"/>
        <path class="cls-3" d="M248.51,323.27c-2.65.45-5.16-1.33-5.61-3.98-.74-4.32-4.85-7.24-9.17-6.5s-7.24,4.85-6.5,9.17c.45,2.65-1.33,5.16-3.98,5.61-2.65.45-5.16-1.33-5.61-3.98-1.64-9.61,4.85-18.75,14.46-20.39,9.61-1.64,18.75,4.85,20.39,14.46.45,2.65-1.33,5.16-3.98,5.61Z"/>
        <path class="cls-3" d="M344.98,306.06c-2.65.45-5.16-1.33-5.61-3.98-.74-4.32-4.85-7.24-9.17-6.5s-7.24,4.85-6.5,9.17c.45,2.65-1.33,5.16-3.98,5.61s-5.16-1.33-5.61-3.98c-1.64-9.61,4.85-18.75,14.46-20.39,9.61-1.64,18.75,4.85,20.39,14.46.45,2.65-1.33,5.16-3.98,5.61Z"/>
      </g>
    </g>
    <path class="cls-2" d="M429.18,370.95c-1.31,7.45-6.35,15.33-12.62,18.17,1.07-1.2,2.03-2.49,2.89-3.83,3.55-5.58,5.2-12.27,4.18-19.1-.03-.22-.06-.45-.09-.66l-1.36-8.01c3.02,1.72,7.95,8.04,7.01,13.44Z"/>
    <g>
      <path class="cls-3" d="M328.36,333.81c-1.48-.87-3.47-1.2-5.98.23-5.87,3.35-30.4,8.3-31.54,8.52-1.14.16-25.83,3.59-32.47,2.37-2.83-.52-4.61.45-5.72,1.76-1.57,1.86-1.83,4.49-.89,6.73,2.02,4.77,7.69,15.37,19.61,20.1,10.85,4.3,20.03,2.92,25.13,2.12h0s0,0,0,0c0,0,.01,0,.02,0h0c5.08-.93,14.23-2.67,23.04-10.32,9.68-8.41,11.52-20.29,11.85-25.46.15-2.43-.97-4.83-3.06-6.06Z"/>
      <path class="cls-1" d="M321.32,340.1c-.19-.26-.53-.34-.82-.21-8.89,4.01-26.77,7.27-28.59,7.6-1.86.3-20.11,3.19-29.82,2.34-.32-.03-.61.17-.71.47-.92,2.92,4.68,4.53,6.59,5.05,3.88,1.06,7.8,1.2,11.79.96,2.78-.16,11.95-1.48,13.08-1.69,1.16-.18,10.46-2,13.13-2.77,3.84-1.1,7.49-2.53,10.8-4.81,1.63-1.12,6.38-4.5,4.55-6.95Z"/>
      <path class="cls-4" d="M310.76,362.04c-.06-.03-.1-.05-.14-.08-2.54-1.28-5.04-1.67-7.56-1.69-1.76,0-7.5.73-8.2.87-.73.1-6.53,1.33-8.18,1.92-2.37.85-4.6,2.04-6.57,4.09-.03.04-.07.07-.11.12-.4.42-1.04,1.13-1.6,1.98,3.46,1.41,10,3.37,17.67,2.06,7.84-1.33,13.77-5.55,16.71-8.06-.75-.56-1.52-.97-2.01-1.22Z"/>
    </g>
  </g>
  <g>
    <g>
      <path class="cls-4" d="M371.98,195.56h89.15c7.13,0,12.92,5.79,12.92,12.92v46.21c0,7.13-5.79,12.92-12.92,12.92h-89.15c-7.13,0-12.92-5.79-12.92-12.92v-46.21c0-7.13,5.79-12.92,12.92-12.92Z"/>
      <path class="cls-3" d="M461.13,198.56c5.48,0,9.92,4.44,9.92,9.92v46.21c0,5.48-4.44,9.92-9.92,9.92h-89.15c-5.48,0-9.92-4.44-9.92-9.92v-46.21c0-5.48,4.44-9.92,9.92-9.92h89.15M461.13,192.56h-89.15c-8.78,0-15.92,7.14-15.92,15.92v46.21c0,8.78,7.14,15.92,15.92,15.92h89.15c8.78,0,15.92-7.14,15.92-15.92v-46.21c0-8.78-7.14-15.92-15.92-15.92h0Z"/>
    </g>
    <path class="cls-1" d="M399.17,220.65v21.89c0,3.19,2.98,5.41,5.79,4.32l26.15-10.12c3.69-1.43,3.82-6.92.21-8.55l-26.15-11.77c-2.85-1.28-6,.94-6,4.23Z"/>
  </g>
  <g>
    <path class="cls-3" d="M463.77,123.68c.63-6.84-.97-13.23-4.76-18.52-6.04-8.46-17.26-13.51-30.02-13.51-.59,0-1.2,0-1.81.03-13.1.07-24.15,4.48-30.37,12.14-2.09,2.59-3.6,5.48-4.48,8.58-2-.64-4.12-.98-6.3-.98-6.17,0-11.77,2.68-15.37,7.36-2.21,2.87-3.52,6.33-3.87,10.14-.21-.01-.42-.01-.63-.01-7.12,0-13.72,3.41-17.69,9.11-2.47,3.57-3.78,7.71-3.78,11.99,0,14.54,12.67,26.38,28.24,26.38,0,0,7.74.07,9.45.08,1.66,0,3.01-1.34,3.01-3h0c0-1.65-1.33-2.99-2.98-3-3.99-.02-.47-.05-.47-.09h-9.01c-12.28,0-22.24-9.13-22.24-20.38,0-1.57.25-3.1.71-4.54.46-1.43,1.14-2.79,2-4.03,2.96-4.26,7.8-6.53,12.76-6.53,2.41,0,4.86.54,7.13,1.65l.16.08c-3.28-12.4,4.44-19.22,12.58-19.22,4.36,0,8.85,1.96,11.83,6.07-3.11-14.78,9.47-25.81,29.6-25.81.52-.02,1.03-.03,1.53-.03,18.94,0,34.08,12.54,27.28,32.4,1.81-.3,3.57-.44,5.27-.44,13.73,0,23.47,9.17,23.47,20.95,0,5.48-2.42,10.44-6.33,14.04-3.92,3.6-9.33,5.82-15.31,5.84-4.05,0-6.56.02-11.19.02-1.65,0-2.99,1.34-2.99,3h0c0,1.66,1.35,3.01,3.01,3,4.67,0,7.19-.02,11.19-.02,15.24-.04,27.63-11.64,27.63-25.88s-11.56-25.91-27.24-26.88Z"/>
    <path class="cls-2" d="M461.54,129.61c-1.7,0-3.46.14-5.27.44,6.8-19.86-8.34-32.4-27.28-32.4-.5,0-1.01,0-1.53.03-20.13,0-32.71,11.03-29.6,25.81-2.98-4.11-7.47-6.07-11.83-6.07-8.14,0-15.86,6.82-12.58,19.22l-.16-.08c-2.27-1.11-4.72-1.65-7.13-1.65-4.96,0-9.8,2.27-12.76,6.53-.86,1.24-1.54,2.6-2,4.03-.46,1.44-.71,2.97-.71,4.54,0,11.25,9.96,20.38,22.24,20.38h9.01c0,.05,3.55.08,9.33.1l57.91-.02c5.71,0,9.27-.02,14.19-.03,5.98-.02,11.39-2.24,15.31-5.84,3.91-3.6,6.33-8.56,6.33-14.04,0-11.78-9.74-20.95-23.47-20.95Z"/>
    <g>
      <path class="cls-5" d="M412.19,185.77c-2.42,0-4.37-1.89-4.43-4.31l-.21-7.62h-10c-1.67,0-3.15-1-3.77-2.56s-.23-3.3.98-4.45l19.23-18.19c.84-1,2.08-1.58,3.39-1.58s2.51.56,3.36,1.54l19.01,18.26c1.2,1.15,1.57,2.9.95,4.44s-2.1,2.54-3.76,2.54h-9.43l-.14,7.58c-.04,2.4-2.03,4.35-4.44,4.35h-10.75Z"/>
      <path class="cls-3" d="M417.38,150.07c.43,0,.86.19,1.15.57l19.14,18.38c.69.66.22,1.82-.73,1.82h-10.96c-.78,0-1.42.63-1.44,1.41l-.17,9.11c-.01.78-.65,1.41-1.44,1.41h-10.75c-.78,0-1.41-.62-1.44-1.4l-.26-9.14c-.02-.78-.66-1.4-1.44-1.4h-11.52c-.95,0-1.42-1.17-.72-1.82l19.39-18.34c.29-.41.73-.61,1.17-.61M417.38,144.07c-2.14,0-4.16.92-5.56,2.5l-19.12,18.09c-2.11,2-2.78,5.04-1.71,7.74s3.65,4.44,6.55,4.44h7.08l.13,4.7c.11,4.05,3.38,7.23,7.43,7.23h10.75c4.02,0,7.36-3.27,7.44-7.3l.09-4.63h6.48c2.9,0,5.46-1.74,6.55-4.42,1.08-2.69.43-5.72-1.66-7.72l-18.93-18.18c-1.4-1.54-3.42-2.45-5.52-2.45h0Z"/>
    </g>
  </g>
</svg>